<svg xmlns="http://www.w3.org/2000/svg" viewBox="0 0 1088 172" fill="#054A47">
    <path d="M284.085 172L343.345 0.664973H396.584L454.986 172H414.552L403.024 134.325H335.438L323.776 172H284.124H284.085ZM393.573 103.413L369.488 24.452L345.041 103.413H393.592H393.573Z" fill="#054A47"/>
    <path d="M464.647 172V0.607975H549.669C559.329 0.607975 567.98 1.82393 575.659 4.25583C583.338 6.68773 589.836 10.1646 595.19 14.6484C600.545 19.1322 604.641 24.585 607.48 30.9687C610.32 37.3525 611.749 44.5152 611.749 52.4189C611.749 59.3346 610.624 65.6043 608.376 71.2661C606.128 76.9089 602.945 81.7727 598.792 85.8195C594.638 89.8663 589.645 93.0392 583.777 95.3381C577.908 97.637 571.353 98.91 564.093 99.138C570.934 99.6129 576.974 102.121 582.214 106.662C587.435 111.202 591.932 117.681 595.705 126.098L616.379 171.981H574.268L553.423 126.212C551.898 122.811 550.355 120.018 548.792 117.795C547.23 115.572 545.458 113.805 543.495 112.494C541.532 111.183 539.284 110.253 536.731 109.74C534.177 109.227 531.129 108.961 527.565 108.961H502.623V171.981H464.647V172ZM545.267 78.4288C549.745 78.4288 553.766 77.8968 557.291 76.8519C560.816 75.7879 563.807 74.249 566.246 72.2351C568.685 70.2211 570.553 67.7512 571.829 64.8064C573.106 61.8615 573.754 58.5176 573.754 54.7748C573.754 47.3841 571.296 41.7223 566.361 37.7895C561.445 33.8566 554.375 31.8807 545.21 31.8807H502.604V78.4288H545.267Z" fill="#054A47"/>
    <path d="M630.537 0.664973H693.207C701.858 0.664973 709.994 1.57694 717.635 3.38186C725.257 5.20579 732.307 7.84668 738.748 11.3235C745.188 14.8004 750.981 19.0372 756.088 24.015C761.194 28.9928 765.539 34.6736 769.102 41.0383C772.665 47.3841 775.39 54.3568 777.295 61.9375C779.201 69.5182 780.154 77.6498 780.154 86.3135C780.154 94.9771 779.201 103.109 777.295 110.689C775.39 118.27 772.665 125.243 769.102 131.589C765.539 137.934 761.194 143.615 756.088 148.612C750.981 153.609 745.207 157.846 738.748 161.322C732.307 164.799 725.257 167.44 717.597 169.264C709.937 171.088 701.82 171.981 693.207 171.981H630.537V0.664973ZM692.35 139.53C700.2 139.53 707.193 138.371 713.348 136.034C719.503 133.698 724.686 130.278 728.916 125.756C733.146 121.234 736.366 115.686 738.595 109.075C740.825 102.463 741.93 94.8821 741.93 86.3325C741.93 77.7828 740.825 70.2022 738.595 63.5904C736.366 56.9787 733.146 51.4119 728.916 46.9091C724.686 42.3873 719.503 38.9674 713.348 36.6305C707.193 34.2936 700.2 33.1347 692.35 33.1347H668.131V139.53H692.35Z" fill="#054A47"/>
    <path d="M914.851 0.664973V32.8877H834.097V71.1711H907.877V101.722H834.097V139.758H917.004V171.981H796.121V0.664973H914.851Z" fill="#054A47"/>
    <path d="M1088 172H1034.11L967.06 34.5026V172H930.647V0.664973H988.078L1051.59 130.012V0.664973H1088V172Z" fill="#054A47"/>
    <path d="M274.482 71.3231L211.087 71.1901L178.942 71.1331L178.866 105.332L215.012 105.408C211.792 108.657 208.4 111.734 204.875 114.584C183.553 131.798 158.801 141.449 140.204 139.815C133.097 139.188 127.818 136.889 124.541 133.014C110.65 116.598 130.962 79.5878 158.401 57.4347C178.161 41.4943 200.874 32.0327 218.861 32.0327C220.291 32.0327 221.701 32.0897 223.053 32.2227C230.161 32.8497 235.439 35.1486 238.716 39.0244C241.956 42.8433 243.308 47.7831 243.175 53.3878H277.169C277.34 40.4494 273.643 28.6318 265.621 19.1702C256.437 8.32166 242.832 1.82393 226.293 0.341986C198.301 -2.14691 164.537 10.1456 135.955 33.2106C89.4233 70.7531 72.5791 123.324 97.6168 152.887C106.801 163.735 120.406 170.233 136.946 171.715C139.327 171.924 141.728 172.038 144.186 172.038C170.615 172.038 201.122 159.955 227.284 138.846C231.876 135.142 236.163 131.285 240.145 127.333V172.038H274.444V71.3611L274.482 71.3231Z" fill="#054A47"/>
    <path d="M59.9268 8.54965C56.0968 9.9366 56.2683 8.32166 53.5816 7.88468C51.276 7.52369 45.3881 7.3337 42.8539 7.3527C41.6153 7.3527 40.129 7.4857 39.1382 8.35966C38.2236 9.15763 33.841 15.1614 32.8692 16.5673C26.6384 25.611 19.3214 39.1384 15.1294 49.227C14.1576 51.5449 12.0235 61.3865 9.6607 61.4625C7.45036 61.5385 6.07843 59.1066 6.1737 57.0737C6.26897 55.1358 17.3969 36.8965 19.3023 33.3436C23.6277 25.326 27.6673 17.1373 31.8593 9.04363L30.7351 8.35966C23.2466 10.0316 15.5105 10.2216 7.98389 11.8175C5.58301 12.3115 -0.53353 15.8264 0.0381092 9.9366C0.476366 5.41478 8.70796 7.18171 12.0044 6.91572C16.8443 6.51674 21.7032 5.52878 26.524 5.07279C31.3068 4.61681 30.6398 5.79476 35.1939 3.47686C37.8425 2.12791 37.9378 3.38186 39.6527 3.62885C46.3408 4.55981 51.5047 3.30587 57.9451 2.3939C63.0136 1.67193 64.8048 6.78272 59.9268 8.56865V8.54965Z" fill="#054A47"/>
    <path d="M73.5127 42.4063C73.3031 42.8053 68.5395 47.4411 67.663 48.448C62.7659 51.8109 56.4589 60.0186 49.523 57.6627C47.1983 56.8647 48.5131 52.5709 48.8561 50.6899L54.0961 38.6634C52.2097 40.1834 50.0946 41.5133 48.2463 43.0902C45.8073 45.1612 40.472 49.854 38.6618 52.1719C36.5087 54.9078 35.4797 60.7025 30.7923 59.0876C26.8861 57.7387 32.8692 50.025 33.5933 48.201C33.7267 47.8781 39.7479 37.3145 40.2815 36.5355C46.1503 28.0239 49.9803 17.2133 55.0488 8.35966C55.2012 8.09367 58.9741 3.85684 59.2218 3.66685C62.099 1.38694 65.7575 2.98288 64.9572 7.06771C63.2804 15.7314 49.7707 27.7959 44.7784 35.8895C43.2731 38.3404 42.6824 38.8154 41.2914 40.8103C40.8912 41.3803 38.3188 45.9021 38.2617 46.3391C37.9187 48.999 41.0437 45.1042 41.2152 44.9142C45.6549 40.4114 51.0854 37.3905 55.5633 33.1157C57.5259 31.8237 61.2225 33.3816 60.8033 35.9655C60.3651 38.6254 54.763 45.3702 53.5626 49.303C53.1815 50.5379 52.5145 52.0769 53.715 53.1408C58.6311 54.3758 67.8154 45.0472 69.9495 41.8553C70.3116 41.3233 71.3215 40.8483 71.7978 39.8604C72.8268 40.5824 74.0653 41.3613 73.5318 42.4253L73.5127 42.4063ZM50.6091 23.2741C51.7333 24.338 58.1166 14.6484 58.5168 13.6794C58.8597 12.8435 59.1646 12.1025 59.0312 11.1525C55.5061 14.4964 53.0862 19.1322 50.6091 23.2741Z" fill="#054A47"/>
    <path d="M101.675 42.3113C96.607 48.315 87.6322 54.0908 87.6322 54.0908C82.9638 56.7127 70.4449 60.8545 66.9198 55.3447C66.2339 53.5208 64.0807 48.752 69.4351 41.7033C72.198 38.0745 82.4494 28.0809 87.6513 28.0809C93.825 28.0809 92.1863 35.1486 89.3471 38.4164C87.918 40.0694 80.4677 44.8002 78.0859 46.4341C76.1232 47.7831 67.2819 51.2789 72.4076 53.5588C78.4288 56.2567 89.4424 49.911 94.0346 45.9971C95.8257 44.4582 97.9789 42.6533 99.8081 40.7153C100.075 40.4304 100.494 40.3924 100.799 40.6203C100.951 40.7153 101.085 40.8293 101.218 40.9243C101.371 41.0383 101.485 41.1333 101.599 41.2283C101.923 41.4943 101.961 41.9693 101.695 42.2923L101.675 42.3113ZM72.9792 45.2942C73.5699 45.9591 76.9426 43.4132 77.5523 43.0522C78.4479 42.5393 79.515 41.6273 80.3152 41.1903C83.2687 39.5184 87.3845 36.5355 85.5934 34.1036C83.0972 31.8807 74.9037 41.4373 73.6652 43.4132C73.265 44.0402 72.7315 44.3062 72.9792 45.2942Z" fill="#054A47"/>
  </svg>