<svg width="111" height="49" viewBox="0 0 111 49" fill="none" xmlns="http://www.w3.org/2000/svg">
<path d="M24.8525 6.36743V19.2075C24.8525 25.7043 20.6182 32.8098 13.7837 35.5989C6.94912 32.7707 2.71484 25.7015 2.71484 19.2075V6.36743H24.8552H24.8525Z" fill="#DA291C"/>
<path d="M6.83594 19.2441L13.7818 9.80737L20.7656 19.2441L13.7818 28.6836L6.83594 19.2441Z" fill="white"/>
<path d="M13.1522 20.5418C13.193 22.4291 13.4047 24.3109 13.7847 26.1591C14.1592 24.3109 14.371 22.4291 14.4171 20.5418V19.9303H16.5342V20.0839C16.5234 20.4747 16.7921 20.8154 17.1667 20.8852C17.5494 20.8265 17.8235 20.4775 17.7991 20.0839V19.9303H17.9484C18.3284 19.9415 18.6595 19.6651 18.7274 19.2798C18.6704 18.8861 18.3311 18.6042 17.9484 18.6293H17.7991V18.4757C17.81 18.0849 17.5412 17.7442 17.1667 17.6744C16.784 17.7331 16.5098 18.0821 16.5342 18.4757V18.6293H14.4551V16.1082H14.6044C14.9844 16.1193 15.3155 15.8429 15.3834 15.4577C15.3264 15.064 14.9871 14.782 14.6044 14.8071H14.4551V14.6536C14.466 14.2627 14.1972 13.9221 13.8227 13.8523C13.44 13.9109 13.1658 14.2599 13.1902 14.6536V14.8071H13.041C12.661 14.796 12.3298 15.0724 12.262 15.4577C12.319 15.8513 12.6582 16.1333 13.041 16.1082H13.1902V18.6293H11.1111V18.4757C11.122 18.0849 10.8533 17.7442 10.4787 17.6744C10.096 17.7331 9.82182 18.0821 9.84625 18.4757V18.6293H9.69697C9.31697 18.6181 8.98583 18.8945 8.91797 19.2798C8.97497 19.6735 9.31425 19.9554 9.69697 19.9303H9.84625V20.0839C9.8354 20.4747 10.1041 20.8154 10.4787 20.8852C10.8614 20.8265 11.1355 20.4775 11.1111 20.0839V19.9303H13.1902V20.5418H13.1522Z" fill="#DA291C"/>
<path d="M5.11884 40.1089H4.48641L2.70312 44.1963H3.40884L3.7807 43.3168H5.85983L6.23169 44.1963H6.8994L5.15412 40.1843L5.11612 40.1089H5.11884ZM5.60198 42.7445H4.04127L4.82026 40.9102L5.59926 42.7445H5.60198Z" fill="#3C1053"/>
<path d="M9.79881 42.5546C9.84495 43.1186 9.43781 43.6128 8.88952 43.6602C8.85695 43.6602 8.8271 43.663 8.79453 43.663C8.2571 43.6826 7.80381 43.247 7.78753 42.6942C7.78753 42.6467 7.78753 42.6021 7.79295 42.5546V40.1089H7.16053V42.5546C7.14153 43.4843 7.85538 44.2521 8.75924 44.2744C9.66309 44.294 10.4095 43.5597 10.4312 42.63C10.4312 42.6049 10.4312 42.5797 10.4312 42.5546V40.1089H9.79881V42.5546Z" fill="#3C1053"/>
<path d="M12.8925 41.7892C12.2981 41.7138 11.9262 41.5602 11.9262 41.2168C11.9262 40.8343 12.3714 40.6445 12.8545 40.6445C13.2508 40.6221 13.6281 40.8092 13.8588 41.1414L13.8968 41.2168L14.38 40.9125L14.342 40.8371C14.0081 40.3178 13.4245 40.0247 12.8192 40.0721C12.3578 40.0554 11.9045 40.2173 11.5571 40.53C11.3752 40.7227 11.2802 40.9879 11.2965 41.2559C11.2965 42.1717 12.2248 42.3252 12.8192 42.4034C13.4517 42.5179 13.8588 42.6323 13.8588 43.0539C13.8588 43.6654 13.0798 43.7044 12.8545 43.7044C12.3795 43.7379 11.9317 43.4839 11.7037 43.0539L11.6657 42.9785L11.1445 43.2829L11.1825 43.3582C11.5001 43.9948 12.1597 44.3717 12.8545 44.3131C13.6335 44.3131 14.4885 43.9697 14.4885 43.0511C14.4505 42.1354 13.6335 41.9036 12.8898 41.7892H12.8925Z" fill="#3C1053"/>
<path d="M14.7422 40.7203H16.0423V44.1963H16.6748V40.7203H17.9749V40.1089H14.7422V40.7203Z" fill="#3C1053"/>
<path d="M21.8041 41.4461C21.8122 40.7146 21.2449 40.1143 20.5338 40.106C20.4985 40.106 20.4632 40.106 20.4307 40.1088H18.6094V44.1961H19.2418V42.7834H20.0588L21.2477 44.1961H22.0647L20.8025 42.7443C21.4214 42.6578 21.8638 42.0854 21.8068 41.4461H21.8041ZM19.2771 40.7202H20.4659C20.8649 40.7062 21.1961 41.0301 21.2097 41.4377C21.2097 41.4517 21.2097 41.4684 21.2097 41.4824C21.2259 41.8705 20.9328 42.1971 20.5582 42.2139C20.5148 42.2139 20.4741 42.2139 20.4307 42.2083H19.2798V40.7174L19.2771 40.7202Z" fill="#3C1053"/>
<path d="M24.7009 40.1089H24.0684L22.2852 44.1963H22.9909L23.3627 43.3168H25.4419L25.8137 44.1963H26.4814L24.6982 40.1843V40.1089H24.7009ZM25.184 42.7445H23.5853L24.3643 40.9102L25.1813 42.7445H25.184Z" fill="#3C1053"/>
<path d="M27.7508 40.1089H27.1211V44.1963H29.7947V43.5848H27.7508V40.1089Z" fill="#3C1053"/>
<path d="M30.9723 40.1089H30.3398V44.1963H30.9723V40.1089Z" fill="#3C1053"/>
<path d="M34.0212 40.1089H33.3887L31.6055 44.1963H32.3112L32.683 43.3168H34.7622L35.134 44.1963H35.8017L34.0565 40.1843L34.0185 40.1089H34.0212ZM34.5043 42.7445H32.9436L33.7226 40.9102L34.5016 42.7445H34.5043Z" fill="#3C1053"/>
<path d="M39.0758 42.9734L36.8826 40.1089H36.4375V44.1963H37.0699V41.368L39.2604 44.1963H39.7055V40.1089H39.0758V42.9734Z" fill="#3C1053"/>
<path d="M45.6797 43.2408C45.3974 43.5116 45.0256 43.6624 44.6401 43.6624C43.6006 43.6624 43.2287 42.8611 43.1907 42.1715C43.1418 41.4009 43.7091 40.7337 44.4583 40.6806C44.518 40.6778 44.5777 40.6778 44.6401 40.6806C45.0147 40.6806 45.3757 40.8314 45.6444 41.1022L45.6824 41.1413L46.1276 40.7197L46.0543 40.6443C45.6661 40.259 45.1477 40.0385 44.6048 40.0329C44.0538 40.0106 43.5191 40.2172 43.1201 40.6052C42.7293 41.0268 42.5176 41.5908 42.5257 42.1715C42.4741 43.2799 43.3074 44.2208 44.385 44.2738C44.4583 44.2766 44.5343 44.2766 44.6076 44.2738C45.164 44.285 45.6987 44.0644 46.0923 43.6624L46.1656 43.6233L45.7204 43.1654L45.6824 43.2408H45.6797Z" fill="#3C1053"/>
<path d="M48.8415 40.1089H48.2091L46.4258 44.1963H47.1315L47.5034 43.3168H49.5825L49.9543 44.1963H50.6221L48.8768 40.1843L48.8388 40.1089H48.8415ZM49.3246 42.7445H47.7639L48.5429 40.9102L49.3219 42.7445H49.3246Z" fill="#3C1053"/>
<path d="M50.4844 40.7203H51.7845V44.1963H52.3789V40.7203H53.6791V40.1089H50.4844V40.7203Z" fill="#3C1053"/>
<path d="M57.0134 41.8287H54.9696V40.1089H54.3398V44.1963H54.9696V42.4401H57.0134V44.1963H57.6458V40.1089H57.0134V41.8287Z" fill="#3C1053"/>
<path d="M60.3957 40.0305C59.3019 39.9942 58.3872 40.8736 58.3519 41.9988C58.3519 42.0546 58.3519 42.1133 58.3519 42.1691C58.3329 43.3082 59.2123 44.2491 60.3224 44.2714C61.4299 44.291 62.3446 43.3864 62.3663 42.2445C62.3663 42.2193 62.3663 42.1942 62.3663 42.1691C62.4586 41.0858 61.6823 40.131 60.6319 40.0361C60.5531 40.0277 60.4771 40.0277 60.3984 40.0305H60.3957ZM60.3957 43.66C59.6547 43.6823 59.0386 43.0821 59.0169 42.3226C59.0169 42.2724 59.0169 42.2221 59.0196 42.1719C58.9599 41.3901 59.5271 40.7089 60.2871 40.6475C61.0471 40.5861 61.7094 41.1696 61.7691 41.9513C61.7746 42.0239 61.7746 42.0993 61.7691 42.1719C61.8289 42.9313 61.2751 43.5986 60.5369 43.6572C60.4907 43.66 60.4419 43.6628 60.3957 43.66Z" fill="#3C1053"/>
<path d="M63.7391 40.1089H63.1094V44.1963H65.8209V43.5848H63.7391V40.1089Z" fill="#3C1053"/>
<path d="M67.0074 40.1089H66.375V44.1963H67.0074V40.1089Z" fill="#3C1053"/>
<path d="M70.832 43.2408C70.5498 43.5116 70.1779 43.6624 69.7925 43.6624C68.7529 43.6624 68.381 42.8611 68.343 42.1715C68.2942 41.4009 68.8615 40.7337 69.6106 40.6806C69.6703 40.6778 69.7301 40.6778 69.7925 40.6806C70.167 40.6806 70.528 40.8314 70.7968 41.1022L70.8348 41.1413L71.2799 40.7197L71.2066 40.6443C70.8185 40.259 70.3 40.0385 69.7572 40.0329C69.2062 40.0106 68.6715 40.2172 68.2725 40.6052C67.8816 41.0268 67.6699 41.5908 67.6781 42.1715C67.6265 43.2799 68.4598 44.2208 69.5373 44.2738C69.6106 44.2766 69.6866 44.2766 69.7599 44.2738C70.3163 44.285 70.851 44.0644 71.2446 43.6624L71.3179 43.6233L70.8728 43.1654L70.8348 43.2408H70.832Z" fill="#3C1053"/>
<path d="M76.5957 42.5546C76.6418 43.1186 76.2347 43.6128 75.6864 43.6602C75.6538 43.6602 75.624 43.663 75.5914 43.663C75.054 43.6826 74.6007 43.247 74.5844 42.6942C74.5844 42.6467 74.5844 42.6021 74.5898 42.5546V40.1089H73.9574V42.5546C73.9384 43.4843 74.6523 44.2521 75.5561 44.2744C76.46 44.2968 77.2064 43.5597 77.2281 42.63C77.2281 42.6049 77.2281 42.5797 77.2281 42.5546V40.1089H76.5957V42.5546Z" fill="#3C1053"/>
<path d="M80.9039 42.9734L78.7135 40.1089H78.2656V44.1963H78.8981V41.368L81.0912 44.1963H81.5363V40.1089H80.9039V42.9734Z" fill="#3C1053"/>
<path d="M83.2418 40.1089H82.6094V44.1963H83.2418V40.1089Z" fill="#3C1053"/>
<path d="M84.5807 40.1089H83.875L85.547 44.1963H86.1414L87.7754 40.1089H87.1077L85.8429 43.3559L84.5807 40.1089Z" fill="#3C1053"/>
<path d="M89.0738 42.4011H91.1557V41.7896H89.0738V40.7203H91.267V40.1089H88.4414V44.1963H91.3403V43.5848H89.0738V42.4011Z" fill="#3C1053"/>
<path d="M95.3939 41.4461C95.4021 40.7146 94.8348 40.1143 94.1236 40.106C94.0884 40.106 94.0531 40.106 94.0205 40.1088H92.1992V44.1961H92.8316V42.7834H93.6486L94.8375 44.1961H95.6545L94.3924 42.7443C95.0031 42.6438 95.4401 42.0799 95.3966 41.4461H95.3939ZM92.8289 40.7202H94.0178C94.4168 40.7062 94.7479 41.0301 94.7615 41.4377C94.7615 41.4517 94.7615 41.4684 94.7615 41.4824C94.7778 41.8705 94.4846 42.1971 94.1101 42.2139C94.0666 42.2139 94.0259 42.2139 93.9825 42.2083H92.8316V40.7174L92.8289 40.7202Z" fill="#3C1053"/>
<path d="M97.7324 41.7892C97.1379 41.7138 96.7661 41.5602 96.7661 41.2168C96.7661 40.8343 97.2112 40.6445 97.6944 40.6445C98.0907 40.6221 98.4679 40.8092 98.6987 41.1414L98.7367 41.2168L99.2198 40.9125L99.1818 40.8371C98.8479 40.3178 98.2644 40.0247 97.6591 40.0721C97.1977 40.0554 96.7444 40.2173 96.397 40.53C96.2151 40.7227 96.1201 40.9879 96.1364 41.2559C96.1364 42.1717 97.0647 42.3252 97.6591 42.4034C98.2915 42.5179 98.6987 42.6323 98.6987 43.0539C98.6987 43.6654 97.9197 43.7044 97.6944 43.7044C97.2194 43.7379 96.7715 43.4839 96.5435 43.0539L96.5055 42.9785L95.9844 43.2829L96.0224 43.3582C96.3399 43.9948 96.9995 44.3717 97.6944 44.3131C98.4734 44.3131 99.3284 43.9697 99.3284 43.0511C99.3284 42.1326 98.5114 41.9036 97.7324 41.7892Z" fill="#3C1053"/>
<path d="M100.742 40.1089H100.109V44.1963H100.742V40.1089Z" fill="#3C1053"/>
<path d="M105.084 40.1089H101.406V40.7203H102.744V44.1963H103.339V40.7203H104.674L105.863 42.5546V44.1963H106.496V42.5546L107.98 40.2596L108.018 40.2234V40.1089H107.313L106.197 41.9041L105.084 40.1089Z" fill="#3C1053"/>
<path d="M108.025 6.36816V24.2505C108.025 33.7263 100.819 35.1418 97.624 35.1418C91.867 35.1418 85.7734 33.0785 85.7734 23.9852V6.37096H91.0853V24.4068C91.0853 29.7171 93.5743 32.7742 97.8086 32.7742C101.782 32.7742 104.942 30.0996 104.942 24.6357V6.36816H108.025Z" fill="#3C1053"/>
<path d="M70.73 35.178C61.5177 35.178 55.9453 28.6812 55.9453 20.8498C55.9453 13.0185 61.7783 5.94653 71.3977 5.94653C74.3943 5.99958 77.2877 7.09122 79.6084 9.04278C80.7593 9.99762 81.7988 11.5639 81.7988 12.9012C81.7988 14.4842 80.5503 15.7657 79.014 15.7657C77.4777 15.7657 76.2291 14.4815 76.2291 12.9012C76.2346 12.1614 76.5114 11.4494 77.0081 10.9134C75.7813 9.26893 73.2923 8.42856 71.2864 8.42856C64.897 8.42856 61.1459 14.5429 61.1459 20.4255C61.1459 27.2266 65.3802 32.8049 71.9921 32.8049C75.3714 32.8049 78.0477 31.3531 80.7973 29.2508L81.8368 30.7779C78.8267 33.796 74.5924 35.1724 70.73 35.1724V35.178Z" fill="#3C1053"/>
<path d="M50.2272 34.7202H55.3898L44.7661 6.40723H40.6051L30.0547 34.7593H32.9535L35.8877 26.5817H47.2551L50.2272 34.7202ZM36.7427 24.2895L41.5714 10.8771L46.4381 24.2895H36.7427Z" fill="#3C1053"/>
</svg>
