<svg width="139" height="32" viewBox="0 0 139 32" fill="none" xmlns="http://www.w3.org/2000/svg">
<g clip-path="url(#clip0_185_4177)">
<mask id="mask0_185_4177" style="mask-type:luminance" maskUnits="userSpaceOnUse" x="0" y="0" width="139" height="32">
<path d="M0 0H138.717V31.2875H0V0Z" fill="white"/>
</mask>
<g mask="url(#mask0_185_4177)">
<path d="M24.0628 9.73911L23.9399 9.39096L23.5918 9.26752C23.0624 9.08068 22.521 8.93015 21.9711 8.81698C21.7715 6.41461 20.6762 4.17502 18.9024 2.54253C17.1287 0.910033 14.8061 0.00390625 12.3954 0.00390625C9.98478 0.00390625 7.6622 0.910033 5.88844 2.54253C4.11469 4.17502 3.01936 6.41461 2.81976 8.81698C2.27167 8.92997 1.7319 9.08012 1.20419 9.26638L0.856613 9.38869L0.73317 9.73683C-0.378315 12.7675 -0.248171 16.1145 1.09529 19.0498C2.43876 21.985 4.88686 24.2711 7.9071 25.4107L7.91109 25.4221L8.2598 25.545C10.938 26.4926 13.8603 26.4926 16.5385 25.545L16.8866 25.4221L16.8906 25.4101C19.9087 24.2687 22.3547 21.9828 23.6976 19.0487C25.0404 16.1147 25.1717 12.7694 24.0628 9.73911ZM15.6732 24.1945C15.5873 24.2218 15.5026 24.2514 15.4144 24.2741C15.0011 24.3957 14.5804 24.4905 14.1549 24.558C14.0019 24.5836 13.8483 24.6029 13.6947 24.6217C13.4082 24.6569 13.1203 24.6797 12.8318 24.69C12.5444 24.7023 12.2567 24.7023 11.9694 24.69C11.6808 24.68 11.3929 24.6573 11.1064 24.6217C10.8172 24.589 10.5296 24.543 10.2446 24.484C9.95565 24.4268 9.66942 24.3568 9.38672 24.2741C9.29968 24.2497 9.21606 24.2218 9.12788 24.1945C8.54459 22.3678 8.45335 20.4195 8.86336 18.5462C11.1355 19.4499 13.6673 19.4499 15.9395 18.5462C16.3496 20.4202 16.2586 22.3692 15.6755 24.1968M12.396 17.6759C11.3343 17.6765 10.283 17.4663 9.30309 17.0575C9.84577 15.6293 10.686 14.3328 11.768 13.2541C11.9667 13.0619 12.1776 12.8827 12.3994 12.7177C12.6204 12.882 12.8306 13.0604 13.0286 13.2518C14.1114 14.3308 14.952 15.6279 15.4946 17.057C14.5129 17.467 13.4594 17.6778 12.3954 17.677M7.92929 16.3231C6.90011 15.6378 6.04229 14.725 5.42215 13.6552C4.80201 12.5855 4.43615 11.3875 4.35285 10.1538C4.67653 10.1248 5.00135 10.1055 5.32845 10.1055C7.3714 10.1008 9.37313 10.6801 11.0979 11.7751C10.9545 11.8945 10.8134 12.0197 10.6741 12.1585C9.48575 13.3449 8.55197 14.7612 7.92986 16.3209M14.1225 12.1551C13.9884 12.0227 13.8485 11.8962 13.7033 11.7762C15.4279 10.6816 17.4294 10.1024 19.4721 10.1066C19.7975 10.1066 20.12 10.1259 20.4392 10.1544C20.3554 11.3868 19.9896 12.5836 19.37 13.6523C18.7504 14.721 17.8935 15.633 16.8656 16.318C16.2432 14.7581 15.309 13.3415 14.1202 12.1551M12.396 1.54634C14.3581 1.54961 16.252 2.26694 17.7239 3.56437C19.1959 4.86181 20.1452 6.65064 20.3948 8.59683C20.0876 8.57282 19.7796 8.56049 19.4715 8.55985C16.9417 8.55469 14.4721 9.33178 12.4011 10.7847C10.3296 9.33044 7.85886 8.55289 5.32788 8.55872C5.01671 8.55872 4.70725 8.57237 4.39836 8.59569C4.64743 6.64961 5.59656 4.86078 7.06839 3.56347C8.54022 2.26616 10.434 1.54913 12.396 1.54634ZM2.07284 10.6061C2.3203 10.5281 2.56946 10.461 2.82033 10.4013C2.94647 11.9182 3.4308 13.3836 4.23352 14.6769C5.03623 15.9702 6.13441 17.0546 7.43779 17.8409C6.97228 19.6826 6.93783 21.6069 7.3371 23.4641C6.36818 22.9717 5.48235 22.3306 4.7118 21.5641C3.30163 20.1602 2.3084 18.3928 1.84252 16.4583C1.37664 14.5238 1.45637 12.498 2.07284 10.6061ZM17.4606 23.4624C17.8593 21.6045 17.8245 19.6797 17.3588 17.8374C18.6611 17.051 19.7583 15.9669 20.5602 14.6741C21.3622 13.3814 21.8461 11.9168 21.9722 10.4007C22.2248 10.461 22.4757 10.5287 22.7243 10.6072C23.3393 12.4995 23.4178 14.5253 22.9512 16.4595C22.4845 18.3938 21.491 20.1609 20.0808 21.5646C19.3104 22.3295 18.4259 22.9701 17.4589 23.4635" fill="#00B14E"/>
<path d="M35.1377 5.37646H38.4723L44.2964 20.8803H41.0698L39.7927 17.1775H33.8168L32.5391 20.8803H29.3125L35.1377 5.37646ZM38.841 14.4925L37.4552 10.6163L36.892 8.73276H36.7185L36.1554 10.6163L34.7702 14.4925H38.841Z" fill="#151514"/>
<path d="M49.55 25.9035C48.8712 25.9143 48.195 25.8156 47.5476 25.6111C47.0034 25.437 46.4888 25.1814 46.0214 24.8528C45.6126 24.5653 45.2484 24.2191 44.9405 23.8255C44.6726 23.4862 44.4613 23.1058 44.3148 22.6991L47.0208 21.6183C47.201 22.1515 47.5508 22.6111 48.0169 22.9267C48.5803 23.2912 49.2522 23.4499 49.9191 23.3761C50.586 23.3023 51.207 23.0005 51.677 22.5216C52.2283 21.8482 52.5065 20.9922 52.4563 20.1233V19.3855H52.2857C51.9471 19.8529 51.4974 20.2287 50.9773 20.4788C50.378 20.7578 49.7222 20.8941 49.0614 20.8771C48.4243 20.8768 47.7941 20.7457 47.2097 20.4919C46.61 20.2346 46.0683 19.8591 45.6169 19.3878C44.6032 18.307 44.0391 16.8809 44.0391 15.3992C44.0391 13.9175 44.6032 12.4913 45.6169 11.4106C46.0681 10.9393 46.6099 10.5639 47.2097 10.307C47.7939 10.0524 48.4241 9.92077 49.0614 9.92018C49.7224 9.90433 50.3782 10.0418 50.9773 10.3218C51.4972 10.572 51.9468 10.9476 52.2857 11.4146H52.4563V10.2689H55.1567V20.1222C55.1688 20.9453 55.0294 21.7637 54.7454 22.5364C54.493 23.2162 54.1021 23.8361 53.5975 24.3568C53.0979 24.8602 52.4967 25.2512 51.834 25.5036C51.1043 25.779 50.3293 25.9151 49.5494 25.9047M49.6575 18.3251C50.0093 18.3245 50.358 18.2599 50.6866 18.1346C51.0211 18.0094 51.3267 17.8176 51.5848 17.5708C51.8521 17.3109 52.0648 17.0003 52.2106 16.6572C52.3751 16.2632 52.456 15.8394 52.4484 15.4126C52.4549 14.9836 52.374 14.5578 52.2106 14.1611C52.0666 13.8138 51.8537 13.4993 51.5848 13.2366C51.3267 12.9896 51.0211 12.7976 50.6866 12.6723C50.3579 12.547 50.0093 12.4823 49.6575 12.4812C49.3096 12.4816 48.9647 12.5464 48.6404 12.6723C48.3081 12.8005 48.0059 12.9961 47.753 13.2469C47.4858 13.5118 47.2723 13.8259 47.1244 14.1719C46.8071 14.9707 46.8071 15.8606 47.1244 16.6595C47.2707 17.003 47.4844 17.3137 47.753 17.5731C48.008 17.8186 48.3098 18.0103 48.6404 18.1368C48.9647 18.2629 49.3096 18.3276 49.6575 18.3274" fill="#151514"/>
<path d="M56.2812 10.269H58.9447V11.7418H59.1182C59.2511 11.4765 59.4265 11.2348 59.6375 11.0262C59.8555 10.8092 60.0988 10.6194 60.3623 10.4607C60.6356 10.2977 60.9269 10.167 61.2304 10.071C61.5277 9.97425 61.8381 9.92398 62.1508 9.92199C62.476 9.91586 62.8003 9.95667 63.1139 10.0432C63.3562 10.1115 63.5865 10.2171 63.7965 10.356L63.0382 12.8892C62.8554 12.7995 62.663 12.7308 62.4648 12.6844C62.2123 12.6289 61.9542 12.6031 61.6957 12.6076C61.3294 12.6025 60.9667 12.6803 60.6348 12.8351C60.3194 12.9859 60.042 13.2056 59.823 13.478C59.5924 13.7659 59.4165 14.0936 59.3042 14.445C59.1783 14.8351 59.1162 15.2429 59.1204 15.6527V20.8794H56.2812V10.269Z" fill="#151514"/>
<path d="M64.832 10.2695H67.669V20.88H64.832V10.2695Z" fill="#151514"/>
<path d="M69.5938 5.37646H79.4254V8.14797H72.5183V11.9161H78.732V14.6876H72.5183V20.8803H69.5938V5.37646Z" fill="#151514"/>
<path d="M87.3724 19.4942H87.1989C86.8693 20.0264 86.4063 20.4631 85.8558 20.7611C85.2637 21.0783 84.6002 21.2385 83.9285 21.2264C83.367 21.2693 82.8033 21.1799 82.2826 20.9656C81.7618 20.7512 81.2986 20.4177 80.93 19.992C80.2321 19.0411 79.8839 17.8785 79.9442 16.7005V10.2695H82.7817V16.3564C82.732 16.9669 82.9136 17.5737 83.2903 18.0567C83.484 18.2489 83.7165 18.3975 83.9722 18.4926C84.228 18.5878 84.5011 18.6273 84.7733 18.6085C85.1319 18.6161 85.4863 18.5305 85.8018 18.3599C86.099 18.1923 86.3573 17.9635 86.5595 17.6886C86.7778 17.3885 86.9394 17.0509 87.0362 16.6926C87.1468 16.294 87.2014 15.882 87.1984 15.4684V10.2695H90.0347V20.88H87.3719L87.3724 19.4942Z" fill="#151514"/>
<path d="M92.7687 12.6957H90.9062V10.2701H92.7687V7.02246H95.6033V10.2701H98.2019V12.6957H95.6033V16.9349C95.6014 17.1715 95.6264 17.4076 95.6779 17.6386C95.7235 17.8441 95.8249 18.033 95.9708 18.1847C96.0785 18.3062 96.2124 18.4015 96.3625 18.4635C96.5125 18.5255 96.6746 18.5525 96.8366 18.5425C97.0343 18.5491 97.2317 18.5232 97.4209 18.4657C97.5661 18.4149 97.7043 18.3459 97.8322 18.2604L98.6331 20.7508C98.2913 20.9128 97.931 21.0326 97.5602 21.1075C97.1433 21.1902 96.719 21.2303 96.2939 21.227C95.8023 21.2345 95.3137 21.1484 94.8542 20.9733C94.4518 20.819 94.0862 20.582 93.7813 20.2775C93.4271 19.9005 93.1541 19.4548 92.9792 18.968C92.8042 18.4812 92.731 17.9637 92.7642 17.4474L92.7687 12.6957Z" fill="#151514"/>
<path d="M107.088 19.4942H106.918C106.588 20.0262 106.125 20.4629 105.575 20.7611C104.982 21.0783 104.319 21.2386 103.647 21.2264C103.086 21.2692 102.522 21.1798 102.001 20.9654C101.48 20.7511 101.017 20.4177 100.648 19.992C99.9509 19.0409 99.6029 17.8784 99.6629 16.7005V10.2695H102.5V16.3564C102.451 16.9673 102.634 17.5742 103.012 18.0567C103.205 18.249 103.438 18.3977 103.694 18.4929C103.949 18.588 104.223 18.6274 104.495 18.6085C104.853 18.6163 105.208 18.5306 105.523 18.3599C105.82 18.1925 106.079 17.9637 106.281 17.6886C106.499 17.3886 106.661 17.051 106.757 16.6926C106.868 16.2941 106.923 15.882 106.92 15.4684V10.2695H109.757V20.88H107.093L107.088 19.4942Z" fill="#151514"/>
<path d="M110.875 10.269H113.538V11.7418H113.712C113.846 11.4767 114.021 11.235 114.232 11.0262C114.451 10.8093 114.694 10.6195 114.958 10.4607C115.231 10.2978 115.521 10.167 115.824 10.071C116.122 9.97415 116.432 9.92388 116.745 9.92199C117.07 9.91585 117.395 9.95666 117.708 10.0432C117.951 10.1114 118.181 10.217 118.391 10.356L117.63 12.8892C117.447 12.7995 117.255 12.7308 117.057 12.6844C116.805 12.6289 116.547 12.6032 116.288 12.6076C115.922 12.6024 115.559 12.6802 115.227 12.8351C114.911 12.9858 114.634 13.2055 114.415 13.478C114.184 13.7658 114.008 14.0936 113.896 14.445C113.77 14.8351 113.708 15.2429 113.712 15.6527V20.8794H110.875V10.269Z" fill="#151514"/>
<path d="M128.429 18.3243C127.95 19.1767 127.27 19.8984 126.447 20.4257C125.532 20.9822 124.475 21.2605 123.404 21.2267C122.637 21.2346 121.875 21.0912 121.163 20.8046C120.494 20.5352 119.887 20.1335 119.377 19.6237C118.868 19.1138 118.466 18.5062 118.197 17.8374C117.909 17.1181 117.765 16.3492 117.774 15.5744C117.77 14.8295 117.91 14.0907 118.185 13.3985C118.713 12.0498 119.752 10.9642 121.076 10.3779C121.774 10.0688 122.531 9.91361 123.295 9.92278C124.074 9.90898 124.848 10.0525 125.57 10.3449C126.205 10.6069 126.774 11.0063 127.237 11.5145C127.693 12.0269 128.039 12.627 128.255 13.2779C128.491 13.9898 128.608 14.7357 128.602 15.4857V15.7462C128.588 15.825 128.581 15.9047 128.58 15.9846C128.565 16.0629 128.557 16.1426 128.558 16.2224H120.567C120.611 16.6141 120.732 16.9931 120.924 17.3373C121.096 17.6379 121.324 17.9025 121.595 18.1167C121.856 18.323 122.154 18.4774 122.473 18.5718C122.789 18.6657 123.117 18.713 123.447 18.7123C124.017 18.7348 124.581 18.5797 125.06 18.2686C125.478 17.9813 125.823 17.5995 126.066 17.1542L128.429 18.3243ZM125.852 14.2109C125.828 13.9929 125.765 13.7809 125.667 13.5851C125.549 13.3414 125.388 13.1212 125.191 12.9355C124.965 12.7227 124.7 12.5539 124.412 12.4377C124.057 12.2993 123.678 12.2328 123.297 12.242C122.72 12.2326 122.156 12.4155 121.694 12.762C121.22 13.1263 120.878 13.636 120.72 14.2131L125.852 14.2109Z" fill="#151514"/>
<path d="M134.187 21.2267C133.56 21.2362 132.936 21.1485 132.336 20.9667C131.834 20.8128 131.359 20.5826 130.928 20.2841C130.543 20.014 130.204 19.685 129.922 19.309C129.662 18.968 129.45 18.5926 129.293 18.1935L131.827 17.1127C132.029 17.608 132.372 18.0334 132.813 18.3363C133.221 18.6032 133.699 18.7427 134.187 18.7373C134.617 18.7582 135.044 18.6598 135.421 18.4529C135.55 18.3918 135.66 18.2974 135.74 18.1795C135.82 18.0616 135.867 17.9244 135.876 17.7822C135.877 17.6425 135.843 17.5048 135.777 17.3818C135.711 17.2589 135.615 17.1545 135.498 17.0785C135.094 16.8397 134.651 16.6748 134.189 16.5916L132.695 16.2668C132.341 16.1876 131.996 16.0715 131.666 15.9203C131.318 15.765 130.993 15.5608 130.702 15.3139C130.41 15.0656 130.167 14.765 129.986 14.4276C129.791 14.0537 129.693 13.6366 129.701 13.2148C129.692 12.7317 129.808 12.2544 130.037 11.8291C130.263 11.4219 130.577 11.0704 130.957 10.8006C131.374 10.5057 131.84 10.2857 132.332 10.1503C132.885 9.99561 133.457 9.91902 134.032 9.9228C134.968 9.9063 135.896 10.1103 136.739 10.5184C137.534 10.9169 138.157 11.5901 138.493 12.4133L136.047 13.4094C135.866 13.0121 135.552 12.6903 135.159 12.4992C134.796 12.3183 134.396 12.2222 133.991 12.2182C133.622 12.21 133.257 12.2955 132.93 12.4668C132.801 12.519 132.69 12.607 132.609 12.7202C132.528 12.8335 132.482 12.9673 132.475 13.1062C132.476 13.2293 132.513 13.3494 132.58 13.4526C132.647 13.5559 132.742 13.6381 132.853 13.6898C133.179 13.8625 133.524 13.9935 133.882 14.0795L135.506 14.4692C136.416 14.6373 137.256 15.0705 137.92 15.7144C138.438 16.2606 138.721 16.9873 138.71 17.7396C138.711 18.1994 138.6 18.6525 138.386 19.0599C138.159 19.491 137.846 19.8706 137.465 20.1749C137.039 20.5157 136.555 20.7765 136.036 20.9445C135.439 21.1381 134.813 21.233 134.185 21.2255" fill="#151514"/>
<path d="M68.0969 7.02175C68.0967 7.38585 67.9885 7.74171 67.7861 8.04435C67.5837 8.347 67.2961 8.58284 66.9596 8.72207C66.6232 8.8613 66.253 8.89767 65.896 8.82658C65.5389 8.75549 65.2109 8.58014 64.9534 8.32268C64.6959 8.06523 64.5206 7.73722 64.4495 7.38013C64.3784 7.02304 64.4148 6.65289 64.554 6.31646C64.6932 5.98003 64.9291 5.69243 65.2317 5.49001C65.5344 5.28758 65.8902 5.17942 66.2543 5.1792C66.4963 5.17912 66.736 5.22673 66.9595 5.3193C67.1831 5.41187 67.3863 5.54759 67.5574 5.7187C67.7285 5.88981 67.8642 6.09296 67.9568 6.31655C68.0494 6.54013 68.097 6.77976 68.0969 7.02175Z" fill="#151514"/>
<path d="M69.254 31.1788L68.6539 29.6201H65.7953L65.2117 31.1788H64.7617L67.0008 25.27H67.4257L69.6926 31.1788H69.254ZM67.2118 25.8702L65.9535 29.2122H68.4952L67.2118 25.8702Z" fill="#151514"/>
<path d="M73.0098 31.1699L72.9603 30.4121C72.8312 30.6748 72.6303 30.8956 72.381 31.0489C72.1316 31.2022 71.844 31.2818 71.5513 31.2785C71.3493 31.2951 71.1462 31.2665 70.9567 31.1949C70.7672 31.1232 70.596 31.0103 70.4556 30.8643C70.3151 30.7183 70.2089 30.5429 70.1447 30.3507C70.0804 30.1586 70.0598 29.9545 70.0842 29.7534V27.0029H70.5011V29.7278C70.5011 30.4531 70.8174 30.8701 71.5763 30.8701C72.6002 30.8701 72.9603 29.986 72.9603 29.0867V27.0029H73.3767V31.1699H73.0098Z" fill="#151514"/>
<path d="M77.223 30.7869C77.0444 30.959 76.8323 31.0922 76.5998 31.1784C76.3673 31.2645 76.1195 31.3017 75.8719 31.2875C75.6194 31.3017 75.3668 31.2614 75.1312 31.1693C74.8957 31.0772 74.6827 30.9356 74.5067 30.7539C74.2886 30.5271 74.1635 30.2266 74.1562 29.912H74.5818C74.6053 30.1557 74.7145 30.3831 74.8901 30.5537C75.173 30.7657 75.516 30.8823 75.8696 30.8868C76.2231 30.8913 76.5689 30.7834 76.8572 30.5787C76.9319 30.5121 76.9908 30.4296 77.0296 30.3372C77.0683 30.2449 77.086 30.1451 77.0813 30.0451C77.0757 29.8446 76.9929 29.6539 76.8503 29.5128C76.7077 29.3717 76.5162 29.291 76.3156 29.2874L75.5062 29.1787C75.152 29.1587 74.8173 29.0102 74.5647 28.7612C74.4082 28.5784 74.3251 28.3441 74.3315 28.1036C74.3308 27.9511 74.3625 27.8001 74.4243 27.6607C74.4862 27.5213 74.5769 27.3965 74.6904 27.2947C75.0084 27.0255 75.4159 26.8858 75.8321 26.9033C76.0647 26.8906 76.2973 26.9279 76.5143 27.0127C76.7312 27.0975 76.9275 27.2278 77.0899 27.3948C77.2784 27.6077 77.3902 27.8777 77.4073 28.1616H76.9903C76.9681 27.9787 76.8958 27.8055 76.7815 27.661C76.6596 27.5344 76.5114 27.4359 76.3474 27.3725C76.1834 27.3092 76.0076 27.2824 75.8321 27.2941C75.568 27.2761 75.3052 27.3435 75.0824 27.4864C74.9852 27.5483 74.9047 27.6331 74.8478 27.7334C74.791 27.8337 74.7596 27.9463 74.7564 28.0615C74.7564 28.4114 74.9316 28.6781 75.5648 28.7606L76.3572 28.8693C76.6584 28.8815 76.944 29.0067 77.1572 29.2199C77.3703 29.4332 77.4954 29.7188 77.5074 30.0201C77.5131 30.3023 77.4114 30.5767 77.223 30.7869Z" fill="#151514"/>
<path d="M79.8773 31.2381C79.1019 31.2381 78.8016 30.746 78.8016 30.0213V27.396H77.9688V27.0126H78.8027V25.8623L79.2197 25.7622V27.0137H80.5093V27.3971H79.2174V30.0065C79.2174 30.498 79.3499 30.8484 79.9086 30.8484C80.1302 30.8443 80.3509 30.8193 80.5679 30.7739V31.1408C80.3415 31.1986 80.1096 31.2321 79.8761 31.2409" fill="#151514"/>
<path d="M83.0867 27.3704C82.0452 27.3704 81.7607 28.3033 81.7607 29.1788V31.1789H81.3438V27.012H81.7107L81.7607 27.8528C81.8582 27.5831 82.0396 27.3517 82.2782 27.1928C82.5169 27.0339 82.8003 26.9558 83.0867 26.9699C83.2232 26.9657 83.3597 26.9739 83.4946 26.9944V27.4113C83.3608 27.381 83.2239 27.3677 83.0867 27.3704Z" fill="#151514"/>
<path d="M87.3502 31.2062C86.8325 31.2062 86.6914 30.8319 86.6914 30.3893C86.5614 30.6732 86.3486 30.9111 86.0808 31.0719C85.8131 31.2326 85.503 31.3086 85.1914 31.2898C85.0111 31.3086 84.8289 31.2894 84.6565 31.2335C84.484 31.1776 84.3252 31.0863 84.1902 30.9654C84.0552 30.8444 83.947 30.6966 83.8725 30.5314C83.7981 30.3661 83.759 30.1872 83.7578 30.0059C83.7578 29.2664 84.3329 28.8221 85.1572 28.7635L86.6931 28.656V28.2481C86.6931 27.557 86.2261 27.2981 85.593 27.2981C84.9348 27.2981 84.4348 27.5985 84.3927 28.2146H83.9757C84.0326 27.3738 84.6925 26.9062 85.593 26.9062C85.8775 26.8753 86.1647 26.9319 86.4161 27.0685C86.6676 27.2051 86.8714 27.4152 87.0003 27.6707C87.0865 27.9283 87.1234 28.1999 87.109 28.4711V30.3717C87.109 30.6561 87.1505 30.8217 87.4338 30.8217C87.4719 30.8231 87.5101 30.8202 87.5476 30.8131V31.1795C87.4823 31.1958 87.4152 31.2042 87.3479 31.2045M86.6892 29.0377L85.1965 29.1293C84.5804 29.1708 84.1799 29.4956 84.1799 30.0042C84.1799 30.6044 84.6305 30.9047 85.2221 30.9047C85.4305 30.9044 85.6366 30.8601 85.8267 30.7746C86.0168 30.6891 86.1867 30.5643 86.3252 30.4086C86.4637 30.2528 86.5678 30.0695 86.6305 29.8707C86.6932 29.6719 86.7132 29.4621 86.6892 29.255V29.0377Z" fill="#151514"/>
<path d="M89.2508 31.2288C88.7178 31.2288 88.418 30.9535 88.418 30.3453V25.1636H88.8338V30.3306C88.8338 30.615 88.918 30.8312 89.2679 30.8312C89.3878 30.8352 89.5078 30.8295 89.6268 30.8141V31.181C89.5045 31.2157 89.3779 31.2326 89.2508 31.2311" fill="#151514"/>
<path d="M90.5703 25.27H91.154V25.8537H90.5703V25.27ZM90.646 27.0119H91.0874V31.1788H90.646V27.0119Z" fill="#151514"/>
<path d="M95.858 31.2061C95.3409 31.2061 95.1993 30.8318 95.1993 30.3892C95.0692 30.6731 94.8563 30.9109 94.5886 31.0716C94.3209 31.2324 94.0108 31.3084 93.6992 31.2897C93.5189 31.3085 93.3367 31.2893 93.1643 31.2334C92.9919 31.1775 92.8331 31.0862 92.698 30.9653C92.563 30.8443 92.4548 30.6965 92.3803 30.5313C92.3059 30.366 92.2668 30.187 92.2656 30.0058C92.2656 29.2663 92.8402 28.822 93.6656 28.7634L95.2015 28.6559V28.248C95.2015 27.5568 94.7345 27.298 94.1013 27.298C93.4426 27.298 92.9426 27.5984 92.901 28.2145H92.4841C92.541 27.3737 93.2008 26.9061 94.1013 26.9061C94.3861 26.8753 94.6735 26.9322 94.9251 27.0692C95.1766 27.2061 95.3805 27.4165 95.5093 27.6723C95.5955 27.9299 95.6323 28.2015 95.6179 28.4727V30.3733C95.6179 30.6577 95.6595 30.8233 95.9428 30.8233C95.9809 30.8247 96.019 30.8218 96.0565 30.8147V31.1811C95.9912 31.1975 95.9242 31.2059 95.8569 31.2061M95.2004 29.0376L93.7083 29.1292C93.0916 29.1707 92.6911 29.4955 92.6911 30.0041C92.6911 30.6042 93.1417 30.9046 93.7333 30.9046C93.9418 30.9043 94.1478 30.86 94.3379 30.7745C94.528 30.6889 94.6979 30.5642 94.8364 30.4084C94.975 30.2527 95.079 30.0694 95.1417 29.8706C95.2045 29.6718 95.2244 29.462 95.2004 29.2549V29.0376Z" fill="#151514"/>
</g>
</g>
<defs>
<clipPath id="clip0_185_4177">
<rect width="138.717" height="31.2875" fill="white"/>
</clipPath>
</defs>
</svg>
