<svg width="120" height="43" viewBox="0 0 120 43" fill="none" xmlns="http://www.w3.org/2000/svg">
<path d="M62.1979 3.75993H63.6665L67.5734 13.7491H66.1028L65.0101 10.7405H60.7837L59.6644 13.7491H58.293L62.1979 3.75993ZM61.203 9.62163H64.5907L62.9244 4.96233H62.8972L61.203 9.62163ZM73.9957 13.7489H72.8745V12.6015H72.8479C72.343 13.4975 71.5322 13.9167 70.4959 13.9167C68.5924 13.9167 68.0045 12.8257 68.0045 11.2728V6.51567H69.1945V11.4121C69.1945 12.2938 69.7538 12.8678 70.6638 12.8678C72.1052 12.8678 72.8058 11.9019 72.8058 10.601V6.51567H73.9957V13.7489ZM76.1643 11.4684C76.2058 12.5322 77.1293 12.8678 78.1093 12.8678C78.8507 12.8678 79.8586 12.6994 79.8586 11.7904C79.8586 10.8666 78.6829 10.7131 77.4929 10.4468C76.3179 10.1812 75.1273 9.78988 75.1273 8.40414C75.1273 6.94908 76.5687 6.34723 77.8287 6.34723C79.425 6.34723 80.6985 6.85125 80.7964 8.61404H79.6071C79.5222 7.69086 78.7101 7.39739 77.9265 7.39739C77.2123 7.39739 76.3866 7.59304 76.3866 8.32057C76.3866 9.17378 77.6472 9.31371 78.7522 9.57998C79.9422 9.84495 81.1185 10.2369 81.1185 11.6362C81.1185 13.3576 79.5092 13.9167 78.0393 13.9167C76.4151 13.9167 75.043 13.2591 74.9737 11.4684H76.1643ZM83.8039 6.51554H85.246V7.56511H83.8039V12.0566C83.8039 12.6015 83.9582 12.6993 84.7003 12.6993H85.246V13.7488H84.3367C83.1046 13.7488 82.6153 13.4974 82.6153 12.1674V7.56511H81.3832V6.5156H82.6153V4.34655H83.8039V6.51554ZM86.4483 6.51554H87.5695V8.04057H87.5961C88.171 6.87904 88.9682 6.3057 90.2566 6.34781V7.60722C88.3382 7.60722 87.6382 8.6982 87.6382 10.5316V13.7488H86.4483V6.51554ZM97.2822 13.7212C97.0715 13.8469 96.8058 13.9169 96.4286 13.9169C95.8116 13.9169 95.4208 13.5813 95.4208 12.7974C94.7623 13.567 93.8795 13.9169 92.8717 13.9169C91.5573 13.9169 90.4795 13.3293 90.4795 11.8878C90.4795 10.2507 91.6973 9.90086 92.9281 9.66374C94.2451 9.41173 95.3637 9.49595 95.3637 8.59998C95.3637 7.56472 94.5095 7.39693 93.7551 7.39693C92.7473 7.39693 92.0039 7.70466 91.9488 8.76842H90.7588C90.8288 6.97713 92.2145 6.34742 93.8245 6.34742C95.1259 6.34742 96.5401 6.64154 96.5401 8.33436V12.0562C96.5401 12.6153 96.5401 12.8673 96.9186 12.8673C97.0164 12.8673 97.1273 12.8531 97.2822 12.7974V13.7212ZM95.3501 10.0136C94.888 10.3492 93.9923 10.3628 93.1945 10.5027C92.4116 10.6426 91.7388 10.9225 91.7388 11.8042C91.7388 12.5875 92.4116 12.8673 93.1387 12.8673C94.7059 12.8673 95.3501 11.8878 95.3501 11.2309V10.0136ZM98.1761 3.75993H99.366V13.7491H98.1761V3.75993ZM101.842 5.21434H100.653V3.75928H101.842V5.21434ZM100.653 6.51586H101.842V13.7491H100.653V6.51586ZM109.681 13.7212C109.47 13.8469 109.204 13.9169 108.826 13.9169C108.21 13.9169 107.818 13.5813 107.818 12.7974C107.161 13.567 106.279 13.9169 105.271 13.9169C103.955 13.9169 102.878 13.3293 102.878 11.8878C102.878 10.2507 104.096 9.90086 105.327 9.66374C106.644 9.41173 107.762 9.49595 107.762 8.59998C107.762 7.56472 106.909 7.39693 106.153 7.39693C105.145 7.39693 104.403 7.70466 104.348 8.76842H103.157C103.227 6.97713 104.614 6.34742 106.223 6.34742C107.526 6.34742 108.938 6.64154 108.938 8.33436V12.0562C108.938 12.6153 108.938 12.8673 109.316 12.8673C109.414 12.8673 109.526 12.8531 109.681 12.7974V13.7212ZM107.749 10.0136C107.286 10.3492 106.391 10.3628 105.593 10.5027C104.811 10.6426 104.137 10.9225 104.137 11.8042C104.137 12.5875 104.811 12.8673 105.537 12.8673C107.104 12.8673 107.749 11.8878 107.749 11.2309V10.0136ZM110.505 6.51554H111.624V7.66229H111.652C112.156 6.76697 112.968 6.34781 114.004 6.34781C115.908 6.34781 116.495 7.43878 116.495 8.99232V13.7488H115.305V8.85238C115.305 7.97066 114.747 7.39732 113.837 7.39732C112.395 7.39732 111.695 8.36261 111.695 9.66349V13.7488H110.505V6.51554ZM65.5567 23.926H65.5852V15.8247H66.8445V25.8151H65.3888L60.1682 17.7974H60.1397V25.8151H58.8804V15.8247H60.294L65.5567 23.926ZM74.8631 25.7866C74.6531 25.9122 74.3867 25.9829 74.0095 25.9829C73.3931 25.9829 73.0023 25.6466 73.0023 24.8627C72.3432 25.6324 71.4617 25.9829 70.4545 25.9829C69.1382 25.9829 68.0604 25.3946 68.0604 23.9538C68.0604 22.3167 69.2782 21.9669 70.5103 21.7297C71.8266 21.4771 72.9453 21.5613 72.9453 20.666C72.9453 19.6301 72.0923 19.4623 71.336 19.4623C70.3282 19.4623 69.5867 19.77 69.5303 20.8338H68.3404C68.411 19.0431 69.7961 18.4134 71.4066 18.4134C72.7081 18.4134 74.121 18.7069 74.121 20.3997V24.1216C74.121 24.682 74.121 24.9327 74.5001 24.9327C74.5973 24.9327 74.7095 24.9191 74.8631 24.8627V25.7866ZM72.931 22.0796C72.4702 22.4145 71.5739 22.4288 70.7767 22.5681C69.9924 22.708 69.3203 22.9885 69.3203 23.8702C69.3203 24.6528 69.9924 24.9327 70.7203 24.9327C72.2881 24.9327 72.931 23.9538 72.931 23.2962V22.0796ZM77.3388 18.581H78.7815V19.6298H77.3388V24.1213C77.3388 24.6668 77.4931 24.7653 78.2352 24.7653H78.7815V25.8148H77.8716C76.6395 25.8148 76.1495 25.5628 76.1495 24.2334V19.6298H74.9181V18.581H76.1495V16.4126H77.3388V18.581ZM81.0747 17.2798H79.8848V15.8247H81.0747V17.2798ZM79.8848 18.5807H81.0747V25.8145H79.8848V18.5807ZM85.4841 18.413C87.7791 18.413 88.9969 20.078 88.9969 22.2042C88.9969 24.3169 87.7791 25.9825 85.4841 25.9825C83.1878 25.9825 81.97 24.3169 81.97 22.2042C81.97 20.078 83.1878 18.413 85.4841 18.413ZM85.4841 24.933C86.7292 24.933 87.7376 23.9534 87.7376 22.2042C87.7376 20.4414 86.7292 19.4625 85.4841 19.4625C84.2378 19.4625 83.23 20.4414 83.23 22.2042C83.23 23.9534 84.2378 24.933 85.4841 24.933ZM90.0452 18.581H91.1658V19.7283H91.193C91.6973 18.833 92.51 18.4132 93.5444 18.4132C95.4486 18.4132 96.0364 19.5048 96.0364 21.0577V25.8148H94.8465V20.9177C94.8465 20.036 94.2871 19.4627 93.3772 19.4627C91.9358 19.4627 91.2345 20.428 91.2345 21.7295V25.8148H90.0452V18.581ZM103.608 25.7866C103.397 25.9122 103.132 25.9829 102.754 25.9829C102.137 25.9829 101.746 25.6466 101.746 24.8627C101.088 25.6324 100.205 25.9829 99.1971 25.9829C97.8827 25.9829 96.8049 25.3946 96.8049 23.9538C96.8049 22.3167 98.0221 21.9669 99.2548 21.7297C100.57 21.4771 101.69 21.5613 101.69 20.666C101.69 19.6301 100.835 19.4623 100.08 19.4623C99.0727 19.4623 98.3306 19.77 98.2742 20.8338H97.0849C97.1542 19.0431 98.5406 18.4134 100.15 18.4134C101.452 18.4134 102.865 18.7069 102.865 20.3997V24.1216C102.865 24.682 102.865 24.9327 103.244 24.9327C103.341 24.9327 103.453 24.9191 103.608 24.8627V25.7866ZM101.676 22.0796C101.213 22.4145 100.318 22.4288 99.5212 22.5681C98.7369 22.708 98.0642 22.9885 98.0642 23.8702C98.0642 24.6528 98.7369 24.9327 99.4635 24.9327C101.031 24.9327 101.676 23.9538 101.676 23.2962V22.0796ZM104.502 15.8248H105.691V25.8152H104.502V15.8248ZM66.8724 34.2699C66.8724 36.7887 65.4316 38.1175 62.9396 38.1175C60.3646 38.1175 58.8383 36.9287 58.8383 34.2699V27.8899H60.1682V34.2699C60.1682 36.0333 61.1767 36.9986 62.9396 36.9986C64.6195 36.9986 65.5424 36.0333 65.5424 34.2699V27.8899H66.8724V34.2699ZM68.1731 30.646H69.2924V31.794H69.3203C69.8239 30.898 70.6373 30.4788 71.6717 30.4788C73.5758 30.4788 74.1643 31.5698 74.1643 33.1227V37.8798H72.9731V32.9828C72.9731 32.101 72.4138 31.5271 71.5038 31.5271C70.063 31.5271 69.3624 32.493 69.3624 33.7939V37.8798H68.1731V30.646ZM76.5826 29.3447H75.3939V27.8896H76.5826V29.3447ZM75.3939 30.6462H76.5826V37.88H75.3939V30.6462ZM77.4508 30.6461H78.7808L80.8094 36.6763H80.8372L82.8114 30.6461H84.0577L81.4121 37.88H80.1386L77.4508 30.6461ZM90.5221 35.585C90.2006 37.18 89.0541 38.0475 87.4286 38.0475C85.12 38.0475 84.0286 36.4525 83.9579 34.242C83.9579 32.0737 85.3857 30.4788 87.3599 30.4788C89.9213 30.4788 90.7049 32.8706 90.6349 34.6198H85.2172C85.1757 35.8792 85.89 36.9987 87.4707 36.9987C88.4513 36.9987 89.1377 36.5225 89.3477 35.5851L90.5221 35.585ZM89.3749 33.5702C89.3192 32.4371 88.4656 31.5269 87.2893 31.5269C86.0442 31.5269 85.3015 32.4657 85.2172 33.5702H89.3749ZM91.5435 30.646H92.6628V32.171H92.69C93.2642 31.0101 94.0627 30.4361 95.3505 30.4788V31.7376C93.4327 31.7376 92.7328 32.8292 92.7328 34.662V37.8798H91.5435V30.646ZM96.9724 35.5988C97.0152 36.6626 97.9388 36.9988 98.9187 36.9988C99.6608 36.9988 100.669 36.8304 100.669 35.9202C100.669 34.9976 99.4917 34.8441 98.303 34.5778C97.1273 34.3122 95.9367 33.9209 95.9367 32.5352C95.9367 31.0795 97.3795 30.4789 98.6381 30.4789C100.235 30.4789 101.509 30.9823 101.606 32.7457H100.415C100.332 31.8219 99.5208 31.5271 98.7366 31.5271C98.0237 31.5271 97.1973 31.7234 97.1973 32.4509C97.1973 33.3055 98.4566 33.4441 99.5623 33.7104C100.752 33.9753 101.929 34.3679 101.929 35.7666C101.929 37.4879 100.319 38.0477 98.8487 38.0477C97.2252 38.0477 95.8538 37.3908 95.7838 35.5988H96.9724ZM103.942 29.3447H102.752V27.8896H103.942V29.3447ZM102.752 30.6462H103.942V37.88H102.752V30.6462ZM107.161 30.646H108.602V31.6961H107.161V36.1877C107.161 36.7325 107.315 36.8303 108.056 36.8303H108.602V37.8798H107.693C106.461 37.8798 105.971 37.6278 105.971 36.2984V31.6961H104.739V30.646H105.971V28.4776H107.161V30.646ZM112.759 38.8454C112.212 40.2584 111.722 40.7767 110.659 40.7767C110.379 40.7767 110.1 40.7475 109.832 40.6497V39.5581C110.057 39.6287 110.296 39.7265 110.533 39.7265C111.023 39.7265 111.288 39.4888 111.513 39.0696L112.003 37.8374L109.133 30.6457H110.477L112.59 36.565H112.618L114.648 30.6457H115.908L112.759 38.8454Z" fill="black"/>
<path d="M51.6683 32.2103C51.6527 32.1934 50.0674 30.6334 48.7129 29.983C48.0647 29.6727 47.5372 29.4485 47.0005 29.2995C47.1431 29.0086 47.2864 28.7177 47.4251 28.4359C48.4283 26.4192 49.2942 24.6758 48.9196 23.5194C48.9015 23.4631 48.8723 23.4054 48.8477 23.3471L48.8503 23.3452C48.846 23.3375 48.8414 23.3299 48.8367 23.3225C48.6882 22.9927 48.4407 22.6403 48.1484 22.3604C47.6143 21.8506 46.2688 21.1075 45.5449 20.7078L45.3213 20.584C44.7017 20.2368 43.9933 20.2115 43.2751 20.5102C41.9478 21.0621 40.8797 22.5639 40.6483 23.3918C40.2653 24.7678 40.914 25.2071 40.9866 25.2498L42.4397 26.1523L40.8278 29.9804C39.1427 30.557 37.3565 31.3363 35.5995 32.1034C33.1735 33.1626 30.8811 34.1648 28.9932 34.5859L28.8389 34.6216C28.6445 34.6663 28.4235 34.7187 28.1001 34.7602C27.8123 34.7952 27.6568 34.803 27.5634 34.803H27.5498C27.4876 34.8036 27.3463 34.801 27.0171 34.7602C26.6936 34.7187 26.4726 34.6663 26.2782 34.6209L26.1246 34.5859C24.236 34.1648 21.9436 33.1626 19.5177 32.1034C17.7606 31.3363 15.9737 30.557 14.2893 29.9804L12.6781 26.1529L14.1305 25.2498L14.172 25.2187C14.2031 25.1902 14.9231 24.5067 14.4578 23.3613C14.0897 22.457 12.9341 20.9034 11.6236 20.4441C10.98 20.2186 10.3649 20.2653 9.79522 20.584L9.57227 20.7078C8.84832 21.1075 7.50217 21.8506 6.96877 22.3604C6.67582 22.6403 6.42888 22.9927 6.28046 23.3225L6.26621 23.3452L6.26945 23.3471C6.24417 23.4054 6.215 23.4644 6.19751 23.5194C5.82224 24.6758 6.68813 26.4185 7.69142 28.4359C7.83142 28.7164 7.974 29.0086 8.11659 29.2995C7.5793 29.4485 7.05173 29.6727 6.4049 29.983C5.04904 30.6334 3.46374 32.1934 3.44883 32.2103C3.40481 32.2537 3.37676 32.3108 3.36923 32.3722C3.3617 32.4335 3.37513 32.4957 3.40735 32.5485C3.41577 32.5614 4.21944 33.8882 4.46767 34.8049C4.72044 35.7449 4.65822 37.2233 4.631 37.6794C4.62128 37.7371 4.61933 37.7915 4.62193 37.8446H4.62063C4.62063 37.8478 4.62128 37.8511 4.62128 37.855C4.62128 37.8576 4.62063 37.8601 4.62063 37.8634C4.62063 37.8666 4.62257 37.8686 4.62322 37.8712C4.63943 38.4477 5.14431 39.0127 5.98622 39.3871C6.54425 39.6352 7.23126 39.7927 7.92799 39.7927C8.7848 39.7927 9.65587 39.5549 10.3208 38.9582C10.3215 38.9576 10.3241 38.9563 10.3241 38.955C10.3247 38.9544 10.3254 38.9544 10.326 38.9544C10.3299 38.9511 10.3338 38.9479 10.3403 38.9407C10.4919 38.8047 12.0001 37.4695 14.2614 36.3111C14.4805 36.4122 14.7028 36.5185 14.9322 36.6331L15.0385 36.6843C15.9161 37.1015 19.0134 38.5397 22.0142 39.5581C24.842 40.5189 26.8732 40.6375 27.4351 40.6504H27.6885C28.2439 40.6375 30.2752 40.5189 33.1023 39.5581C36.1037 38.5397 39.2004 37.1015 40.078 36.6843L40.1849 36.6331C40.4137 36.5185 40.6366 36.4122 40.8557 36.3111C43.117 37.4695 44.6258 38.806 44.7762 38.9407C44.7833 38.9479 44.7872 38.9511 44.7911 38.9544C44.7911 38.9544 44.7924 38.9544 44.7924 38.955C44.793 38.9563 44.795 38.9582 44.7963 38.9589C45.4613 39.5556 46.3317 39.7927 47.1885 39.7927C47.8852 39.7927 48.5729 39.6352 49.1303 39.3871C49.9722 39.0127 50.4783 38.4477 50.4939 37.8712C50.4945 37.8686 50.4958 37.8666 50.4958 37.8634V37.855C50.4958 37.8511 50.4965 37.8478 50.4965 37.8446H50.4952C50.4978 37.7915 50.4958 37.7371 50.4861 37.6794C50.4589 37.2233 50.396 35.7449 50.6495 34.8055C50.8977 33.8882 51.7013 32.5614 51.7091 32.5485C51.7416 32.4958 51.7552 32.4337 51.7478 32.3722C51.7404 32.3108 51.7124 32.2537 51.6683 32.2103ZM41.1804 23.5402C41.3813 22.8197 42.3801 21.48 43.4877 21.0187C44.0509 20.7849 44.5779 20.7998 45.0523 21.0654L45.2778 21.1904C45.8611 21.5124 47.0025 22.1434 47.5832 22.604C47.3272 22.593 47.0381 22.6371 46.7134 22.7686C45.1482 23.4015 43.7548 25.1896 43.7548 26.1555C43.7548 26.2196 43.7632 26.2721 43.7677 26.3291L41.2828 24.7853C41.2796 24.7834 40.9108 24.5054 41.1804 23.5402ZM44.5442 26.8111C44.5215 26.7988 44.3069 26.6751 44.3069 26.1555C44.3069 25.8867 44.4845 25.4837 44.7827 25.0574L45.7341 25.634C45.7425 25.7189 45.7425 25.8484 45.7049 25.9877C45.6019 26.3557 45.215 26.8643 44.7004 26.8461C44.6556 26.8442 44.5727 26.8247 44.5442 26.8111ZM42.9135 26.4483L44.2298 27.2653C44.2298 27.2653 44.2311 27.2659 44.2318 27.2679L44.2376 27.2711C44.2395 27.2717 44.2415 27.2724 44.2428 27.273C44.294 27.3054 44.3348 27.3229 44.3484 27.3275C44.4768 27.3773 44.6252 27.3955 44.6803 27.3974C45.4541 27.4382 46.0595 26.7684 46.2364 26.1354C46.3427 25.7545 46.263 25.4299 46.2539 25.3936L46.2254 25.2867L45.1262 24.6201C45.598 24.0785 46.2325 23.5589 46.9208 23.2797C47.8256 22.9117 48.2482 23.4307 48.348 23.581C48.3629 23.6172 48.383 23.6561 48.3946 23.6905C48.7006 24.6324 47.88 26.2818 46.9312 28.1904C46.7717 28.513 46.6078 28.8428 46.4451 29.1777C46.0646 29.1116 45.6628 29.0766 45.1923 29.0766C44.0931 29.0766 42.8448 29.3416 41.5213 29.7543L42.9135 26.4483ZM9.83864 21.1904L10.0642 21.0654C10.4965 20.8237 10.9469 20.7913 11.4414 20.9643C12.6327 21.3822 13.6606 22.867 13.9464 23.5693C14.2361 24.2813 13.8887 24.7147 13.811 24.7989L11.3488 26.3298C11.3546 26.2721 11.3624 26.2196 11.3624 26.1555C11.3624 25.1896 9.96827 23.4015 8.40306 22.7686C8.079 22.6371 7.78929 22.593 7.53328 22.604C8.11335 22.1447 9.25598 21.5124 9.83864 21.1904ZM10.5743 26.8118C10.5483 26.8247 10.4615 26.8442 10.4168 26.8461C9.88855 26.863 9.51523 26.355 9.41218 25.9877C9.37394 25.8484 9.37459 25.7189 9.38237 25.634L10.3345 25.0574C10.6319 25.4837 10.8095 25.8867 10.8095 26.1555C10.8095 26.6142 10.6436 26.7638 10.595 26.7988L10.5743 26.8118ZM8.18529 28.1897C7.23644 26.2812 6.41657 24.6324 6.72248 23.6905C6.7335 23.6561 6.75359 23.6179 6.76915 23.581C6.86831 23.4313 7.29088 22.9137 8.19631 23.2797C8.88461 23.5589 9.51912 24.0785 9.99095 24.6201L8.89174 25.2867L8.86322 25.3936C8.8535 25.4299 8.77443 25.7545 8.88072 26.1354C9.05701 26.7684 9.66754 27.4376 10.4369 27.3974C10.4939 27.3948 10.6533 27.3748 10.7784 27.3229C10.792 27.3184 10.8141 27.3067 10.8432 27.2905C10.851 27.2866 10.8601 27.2834 10.8666 27.2795L12.203 26.4483L13.5951 29.7543C12.2717 29.3416 11.0247 29.0766 9.92484 29.0766C9.45431 29.0766 9.05182 29.1116 8.67138 29.1777C8.51126 28.8475 8.34923 28.5181 8.18529 28.1897ZM10.5898 37.5116C10.2982 38.1977 10.011 38.4931 9.96697 38.5352C9.96114 38.5397 9.95854 38.543 9.95595 38.5443C8.97859 39.4266 7.33236 39.3826 6.21047 38.8831C5.57142 38.5993 5.17477 38.2022 5.17283 37.8465L5.17866 37.7468C5.33097 37.0141 7.10293 35.1508 10.2982 35.1126C10.4861 35.7171 10.8309 36.9447 10.5898 37.5116ZM11.1485 37.5855C11.3384 36.9454 11.1368 36.0021 10.886 35.1515C11.5892 35.2526 12.5219 35.5499 13.6211 36.0241C12.6087 36.5703 11.7674 37.1313 11.1485 37.5855ZM41.4967 36.0241C42.5959 35.5499 43.5286 35.2526 44.2311 35.1515C43.9803 36.0021 43.7787 36.9454 43.9686 37.5861C43.3497 37.1313 42.5097 36.5703 41.4967 36.0241ZM48.9067 38.8831C47.7848 39.3819 46.1385 39.426 45.1612 38.5443C45.1586 38.543 45.1566 38.541 45.1527 38.5378C45.1126 38.4989 44.8216 38.2048 44.5273 37.5116C44.2862 36.9441 44.631 35.7158 44.8183 35.1126C48.0142 35.1508 49.7855 37.0141 49.9378 37.7468L49.9449 37.8465C49.943 38.2022 49.5457 38.5993 48.9067 38.8831ZM50.1167 34.6617C49.9592 35.2454 49.9132 36.0047 49.9086 36.6357C49.0298 35.6335 47.2105 34.5568 44.7211 34.5568C43.675 34.5568 42.0217 35.1036 39.9393 36.1388L39.8421 36.1861C38.971 36.5994 35.8976 38.0266 32.9253 39.0353C30.1086 39.9928 28.0677 40.0887 27.6788 40.0984H27.4422C27.0605 40.09 25.0163 39.9948 22.1918 39.0353C19.2195 38.0266 16.1461 36.5994 15.2751 36.1861L15.1779 36.1388C13.0954 35.1036 11.4421 34.5568 10.396 34.5568C7.9066 34.5568 6.08732 35.6335 5.20912 36.6357C5.20394 36.0047 5.15792 35.2448 5.00043 34.6617C4.78849 33.8765 4.23305 32.8698 3.9926 32.4539C4.41388 32.058 5.62327 30.9697 6.64341 30.4805C7.89623 29.8793 8.62925 29.628 9.92484 29.628C12.4732 29.628 15.942 31.1433 19.2967 32.6081C21.7478 33.6796 24.0636 34.6909 26.0047 35.1236L26.1518 35.1573C26.3592 35.2066 26.5951 35.2623 26.9477 35.307C27.2802 35.3484 27.461 35.3556 27.5764 35.3556C27.6555 35.3556 27.8369 35.3484 28.1694 35.307C28.522 35.2623 28.7573 35.2066 28.9653 35.1573L29.1124 35.1236C31.0529 34.6909 33.3686 33.6796 35.8205 32.6081C39.1745 31.1433 42.6439 29.628 45.1923 29.628C46.4879 29.628 47.2209 29.8793 48.4737 30.4805C49.4932 30.9697 50.7039 32.058 51.1245 32.4539C50.8841 32.8698 50.3286 33.8765 50.1167 34.6617Z" fill="#7B5A3E"/>
<path d="M27.5893 33.0555H27.5854C26.6748 33.0555 25.304 32.7983 22.042 30.9001C18.6336 28.9145 16.9258 27.5696 15.8194 24.8454C14.7293 22.162 14.3242 18.9014 14.3242 12.8129C14.3242 6.96289 14.564 2.40141 14.566 2.35671C14.5705 2.28156 14.6049 2.21159 14.6612 2.16235C14.6891 2.13771 14.7217 2.11906 14.757 2.10758C14.7924 2.0961 14.8297 2.09203 14.8667 2.09563C21.0089 2.6437 24.908 2.72533 26.6858 2.72533C27.2775 2.72533 27.575 2.71626 27.5783 2.71561C27.5997 2.71626 27.8971 2.72533 28.4889 2.72533C30.2673 2.72533 34.1664 2.6437 40.3086 2.09563C40.3819 2.08785 40.4571 2.11312 40.5134 2.16235C40.5705 2.21159 40.6048 2.28156 40.6087 2.35671C40.6107 2.40141 40.8511 6.96289 40.8511 12.8129C40.8511 18.9014 40.4454 22.162 39.3553 24.8454C38.2489 27.5696 36.5411 28.9145 33.1333 30.9002C29.8707 32.7983 28.5005 33.0555 27.5893 33.0555ZM15.1033 2.67085C15.0514 3.75534 14.8758 7.81151 14.8758 12.8129C14.8758 18.8223 15.2705 22.0272 16.3308 24.6374C17.3769 27.2126 19.0237 28.5044 22.3201 30.4226C25.4868 32.2677 26.7979 32.5042 27.5854 32.5042H27.5893C28.378 32.5042 29.6885 32.2677 32.8553 30.4226C36.1516 28.5044 37.7978 27.2126 38.8439 24.6374C39.9049 22.0272 40.2983 18.8223 40.2983 12.8129C40.2983 7.81021 40.1233 3.75534 40.0721 2.67085C34.0731 3.19755 30.2479 3.27723 28.4889 3.27723C27.8984 3.27723 27.5951 3.26751 27.5802 3.26687C27.5802 3.26687 27.2762 3.27723 26.6858 3.27723C24.9275 3.27723 21.1023 3.19755 15.1033 2.67085Z" fill="#7B5A3E"/>
<path d="M37.2657 21.6299C35.9869 21.6299 35.1094 22.1838 34.3355 22.6735C33.6965 23.0759 33.1436 23.425 32.4255 23.425C31.7074 23.425 31.1552 23.0759 30.5161 22.6735C29.7416 22.1838 28.8647 21.6299 27.584 21.6299C26.3053 21.6299 25.4284 22.1838 24.6539 22.6735C24.0148 23.0759 23.4626 23.425 22.7439 23.425C22.0264 23.425 21.4742 23.0759 20.8345 22.6735C20.06 22.1838 19.1831 21.6299 17.9031 21.6299C17.2355 21.6299 16.6788 21.7828 16.1875 21.9965C16.3113 22.5414 16.4532 23.0538 16.6172 23.5352C17.0087 23.3389 17.4144 23.2061 17.9044 23.2061C18.7268 23.2061 19.3127 23.5773 19.9926 24.0055C20.7321 24.472 21.5695 25.0013 22.7439 25.0013C23.9189 25.0013 24.7569 24.472 25.4958 24.0055C26.175 23.5773 26.7616 23.2061 27.5853 23.2061C28.4084 23.2061 28.995 23.5773 29.6736 24.0055C30.4131 24.472 31.2517 25.0013 32.4255 25.0013C33.5999 25.0013 34.4379 24.472 35.1774 24.0055C35.8566 23.5773 36.4425 23.2061 37.2676 23.2061C37.7569 23.2061 38.162 23.3389 38.5535 23.5352C38.7174 23.0538 38.8594 22.5427 38.9832 21.9972C38.4919 21.7828 37.9345 21.6299 37.2657 21.6299ZM19.9924 20.4593C20.7319 20.9257 21.5699 21.455 22.7443 21.455C23.9187 21.455 24.7567 20.9257 25.4955 20.4593C26.1748 20.0304 26.762 19.6598 27.5857 19.6598C28.4082 19.6598 28.9947 20.0304 29.674 20.4593C30.4135 20.9257 31.2515 21.455 32.4259 21.455C33.5996 21.455 34.4376 20.9257 35.1772 20.4593C35.2134 20.4359 35.2471 20.4152 35.2828 20.3932C34.6282 20.1891 29.9818 18.7995 29.976 18.7962C28.775 18.4574 27.8463 18.2223 27.5728 18.2223H27.5559C26.9201 18.2223 22.7728 19.4862 19.8828 20.3906C19.9191 20.4126 19.9554 20.4359 19.9924 20.4593ZM37.2657 25.1767C35.9869 25.1767 35.1094 25.7299 34.3355 26.2198C33.6965 26.6234 33.1436 26.9713 32.4255 26.9713C31.7074 26.9713 31.1552 26.6234 30.5161 26.2198C29.7416 25.73 28.8647 25.1768 27.584 25.1768C26.3053 25.1768 25.4284 25.73 24.6539 26.2198C24.0148 26.6234 23.4626 26.9713 22.7439 26.9713C22.0264 26.9713 21.4742 26.6234 20.8345 26.2198C20.06 25.73 19.1831 25.1768 17.9031 25.1768C17.706 25.1768 17.522 25.1936 17.3437 25.2163C17.673 25.8188 18.0586 26.3422 18.5155 26.8268C19.0444 26.9544 19.4936 27.2369 19.9926 27.5518C20.7321 28.0182 21.5695 28.5475 22.7439 28.5475C23.9189 28.5475 24.7569 28.0182 25.4958 27.5518C26.175 27.1229 26.7616 26.753 27.5853 26.753C28.4084 26.753 28.995 27.1229 29.6736 27.5518C30.4131 28.0182 31.2517 28.5475 32.4255 28.5475C33.5999 28.5475 34.4379 28.0182 35.1774 27.5518C35.6758 27.2369 36.1263 26.9544 36.6551 26.8268C37.112 26.3422 37.497 25.8188 37.8269 25.2169C37.648 25.1936 37.4627 25.1767 37.2657 25.1767ZM29.7601 29.5749C29.1392 29.1564 28.4963 28.723 27.5837 28.723C26.804 28.723 26.2304 29.1208 25.6769 29.5049C25.1487 29.8716 24.605 30.2454 23.7676 30.4178C24.579 30.8466 25.2259 31.1356 25.7495 31.3293C26.0619 31.1518 26.3354 30.9665 26.5759 30.8C27.0373 30.48 27.3109 30.2986 27.5857 30.2986C27.9946 30.2986 28.3265 30.5091 28.878 30.8816C29.0711 31.0118 29.2824 31.1537 29.519 31.2937C30.0317 31.098 30.659 30.8117 31.4335 30.4016C30.7524 30.2377 30.2637 29.9144 29.7601 29.5749ZM34.2643 5.31852L33.716 6.06419L34.4257 6.65892L33.5014 6.69196L33.4781 7.62032L32.8721 6.92583L32.1346 7.47909L32.2959 6.57664L31.408 6.34147L32.2117 5.90612L31.8455 5.06392L32.6932 5.41894L33.1165 4.60913L33.3679 5.49992L34.2643 5.31852ZM28.7274 8.10815L27.8654 8.41264L28.7053 8.78314L28.4059 9.64801L29.22 9.21719L29.7099 9.99785L29.8784 9.08503L30.7968 9.19646L30.1882 8.49938L30.8467 7.84765L29.9329 7.88652L29.8234 6.96787L29.2796 7.70059L28.4967 7.21794L28.7274 8.10815ZM35.3496 8.67676L34.5252 9.06936L35.3989 9.34987L35.1908 10.2433L35.9569 9.72822L36.5247 10.4538L36.5966 9.52868L37.5221 9.54423L36.8435 8.91323L37.4307 8.19736L36.5253 8.33081L36.3205 7.42901L35.8558 8.2129L35.0269 7.81642L35.3496 8.67676ZM32.8022 10.5099L32.5533 11.3463L33.2734 10.8507L33.9986 11.3463L33.7504 10.5008L34.4445 9.97219L33.5721 9.95146L33.2753 9.12287L32.9824 9.93786L32.1067 9.97219L32.8022 10.5099ZM31.0218 13.0632L30.2667 13.5795L31.1748 13.7208L31.1099 14.6349L31.7846 14.0078L32.46 14.6349L32.3854 13.7091L33.3019 13.5795L32.5339 13.0632L33.0012 12.2644L32.1281 12.5384L31.7846 11.6788L31.4489 12.5268L30.5681 12.2644L31.0218 13.0632Z" fill="#7B5A3E"/>
<path d="M27.6511 17.29C28.6278 17.29 37.9251 20.2715 38.1947 20.3517C38.4643 20.4321 39.3509 20.7916 39.3509 20.0356C39.3509 19.2809 38.1182 18.9116 34.5063 17.1844C30.8949 15.4586 28.5377 14.2341 27.6628 14.2341C26.7878 14.2341 24.4312 15.4586 20.8193 17.1844C17.2073 18.9116 15.9746 19.2809 15.9746 20.0356C15.9746 20.7916 16.8612 20.4321 17.1308 20.3517C17.3998 20.2715 26.6588 17.29 27.6349 17.29H27.6511ZM6.83089 32.5193C6.76932 32.3865 6.73302 32.2984 6.7246 32.2492C6.72719 32.2433 6.74404 32.2226 6.85292 32.1436L6.77969 32.0406C6.68312 32.0943 6.6034 32.1364 6.54053 32.1675C6.47637 32.1999 6.40507 32.2317 6.31434 32.2919L6.38757 32.3949C6.47507 32.3528 6.51849 32.3483 6.53275 32.3444C6.53534 32.3457 6.54636 32.3509 6.56581 32.382C6.60793 32.4487 6.72913 32.6852 6.92616 33.0842L7.01301 33.2151L7.05773 33.3065C6.91968 33.243 6.74469 33.1549 6.52886 33.0383C6.21258 32.8672 5.93972 32.715 5.69084 32.577L5.46919 32.6962C5.43095 32.715 5.37067 32.7415 5.27734 32.8024L5.34993 32.9067C5.43808 32.8711 5.4653 32.864 5.48604 32.862L5.51002 32.8465L5.52493 32.8873C5.53659 32.9029 5.55539 32.9365 5.58196 32.989L5.92546 33.6731C5.97407 33.7723 6.01296 33.8532 6.04083 33.9161C6.08879 34.0269 6.11796 34.0981 6.12833 34.1273L6.14777 34.1214L6.13092 34.1778C6.12703 34.183 6.1024 34.1998 6.00518 34.2769L6.06092 34.3903L6.07972 34.3806C6.18212 34.3223 6.26443 34.2795 6.32665 34.2484L6.54312 34.124L6.4984 34.0333L6.47118 34.0256L6.45303 34.0346C6.43489 34.0444 6.40378 34.0547 6.361 34.0696L6.36683 34.0884L6.32017 34.0638C6.31174 34.0528 6.28906 34.0191 6.23332 33.9154C6.16721 33.791 6.10499 33.6718 6.04796 33.5559L5.88204 33.2624L5.77056 33.037C6.39859 33.3829 6.88727 33.6433 7.23467 33.8105C7.29429 33.7923 7.35262 33.7749 7.4116 33.76L7.4304 33.7146C7.36947 33.6122 7.21587 33.309 6.97218 32.8167C6.94042 32.7532 6.89375 32.6534 6.83089 32.5193ZM6.77191 32.0678C6.76996 32.0684 6.76802 32.0684 6.76672 32.0704C6.76802 32.0684 6.76932 32.0684 6.77126 32.0658L6.77191 32.0678ZM6.34091 32.3004L6.34285 32.3055L6.33961 32.3004H6.34091ZM7.07199 33.335C7.03764 33.3188 6.99357 33.2974 6.95468 33.2786C6.99097 33.2909 7.02921 33.3084 7.06291 33.3162L7.07199 33.335ZM6.46276 34.0515L6.4634 34.0521L6.46211 34.0528H6.46146C6.46146 34.0521 6.46211 34.0521 6.46276 34.0515ZM5.75501 33.0065C5.8788 33.0745 5.99222 33.1374 6.10499 33.1983C5.99611 33.1438 5.88593 33.0894 5.76667 33.0305L5.75501 33.0065ZM8.89197 33.1144C8.85827 33.1221 8.83688 33.1228 8.83688 33.1228L7.76813 31.7254L7.60934 31.7856L7.54194 33.2582C7.53351 33.3748 7.52898 33.4422 7.52574 33.4603L7.49916 33.5147C7.49592 33.5173 7.48102 33.5264 7.39676 33.5782L7.43176 33.6968L7.93276 33.5303L7.88026 33.4163C7.81933 33.4312 7.77656 33.4383 7.72406 33.4143C7.71888 33.3975 7.71304 33.3463 7.71564 33.1999L7.70397 33.0619L8.20821 32.8999L8.37283 33.1383C8.40718 33.1869 8.4182 33.2122 8.42079 33.2439C8.41755 33.2465 8.3994 33.2595 8.28209 33.3191L8.33589 33.4325L8.99114 33.2206L8.93993 33.1072L8.89197 33.1144ZM8.13367 32.7665C8.12987 32.7679 8.12597 32.7689 8.12201 32.7697C8.12525 32.7678 8.12849 32.7665 8.13238 32.7645L8.13367 32.7665ZM7.70527 32.8909L7.7111 32.7419L7.71045 32.8902C7.70851 32.8902 7.70721 32.8909 7.70527 32.8909ZM7.9185 32.8131C7.8485 32.8332 7.78952 32.852 7.74739 32.8792C7.74026 32.8818 7.73184 32.8837 7.72471 32.8863L7.75193 32.2644L8.03775 32.6317L8.12201 32.7496C8.06173 32.7691 7.99498 32.7898 7.9185 32.8131ZM7.90813 33.516V33.5128L7.90942 33.516H7.90813ZM8.3482 33.4072L8.35792 33.4046L8.3482 33.4085V33.4072ZM9.88139 31.4032L9.8451 31.3728C9.81334 31.3812 9.78158 31.3883 9.74982 31.3929C9.6902 31.4026 9.57224 31.4175 9.3953 31.4382L8.96884 31.4881C8.79644 31.5082 8.68043 31.5211 8.62015 31.525C8.58256 31.5283 8.54821 31.5295 8.51516 31.5295L8.48729 31.5671C8.49766 31.6079 8.50543 31.6462 8.51192 31.6818C8.51516 31.7032 8.52812 31.7991 8.57219 31.9843L8.67719 31.9526C8.6707 31.8813 8.66811 31.8178 8.67071 31.7589L8.70181 31.7181C8.7582 31.7058 8.82431 31.6954 8.89949 31.6863L9.02912 31.6526C9.03365 31.676 9.04791 31.7893 9.07189 31.9908L9.15874 32.7345C9.18466 32.9548 9.18726 33.03 9.18466 33.0533C9.18272 33.0721 9.17624 33.0857 9.16587 33.0934C9.16068 33.098 9.13606 33.1096 9.01097 33.1492L9.02523 33.2716L9.04532 33.2684C9.17429 33.245 9.28836 33.2288 9.38753 33.2165C9.48086 33.2055 9.59622 33.1958 9.75112 33.166L9.71807 33.0455C9.62215 33.0539 9.57872 33.0475 9.57483 33.0455C9.56252 33.039 9.55344 33.0287 9.54761 33.0125C9.53983 32.9891 9.52493 32.9146 9.499 32.6944L9.41215 31.9519C9.38882 31.7537 9.37651 31.641 9.35771 31.6326L9.50872 31.6144C9.58844 31.6053 9.65779 31.5995 9.73686 31.5989C9.73686 31.5989 9.74205 31.6073 9.75177 31.6429C9.76603 31.6993 9.77769 31.7589 9.80816 31.8399L9.91315 31.8088C9.89565 31.6371 9.88593 31.547 9.88528 31.536C9.88249 31.4918 9.8812 31.4475 9.88139 31.4032ZM9.72908 33.1485L9.72844 33.144L9.73103 33.1485H9.72908ZM11.4817 31.6394C11.4863 31.6368 11.4992 31.6303 11.5394 31.6303C11.5556 31.629 11.5744 31.6316 11.6165 31.6147L11.6075 31.4904L11.3424 31.4774C11.3184 31.4742 11.2432 31.4599 11.0942 31.467L11.1032 31.5914C11.1959 31.6018 11.2309 31.616 11.2588 31.6465C11.262 31.6607 11.2653 31.7048 11.2575 31.8318C11.2465 31.965 11.2353 32.0983 11.2238 32.2315L11.2024 32.4867C11.1875 32.6597 11.1661 32.7776 11.1363 32.8366C11.1091 32.8936 11.065 32.9389 11.0073 32.9707C10.949 33.0037 10.8712 33.0154 10.7792 33.0076C10.6969 33.0018 10.6301 32.981 10.5795 32.9493C10.5309 32.9176 10.4953 32.8787 10.4733 32.8314C10.4525 32.7835 10.4415 32.7219 10.4421 32.6468C10.4421 32.6111 10.4486 32.5165 10.4616 32.3662L10.4966 31.9309C10.5121 31.7586 10.5258 31.6458 10.5569 31.5655C10.5633 31.561 10.5821 31.5538 10.6295 31.5538C10.6476 31.5532 10.6683 31.5545 10.7131 31.5389L10.7027 31.4146L10.0124 31.3757L10.0196 31.4994L10.1654 31.5493C10.1686 31.5597 10.1719 31.5817 10.1712 31.6238C10.166 31.7171 10.1596 31.8214 10.1498 31.938L10.1012 32.4932C10.0902 32.6267 10.0857 32.7077 10.087 32.7388C10.087 32.7886 10.0973 32.8398 10.1161 32.8962C10.1349 32.9532 10.1654 33.0063 10.2062 33.053C10.2471 33.1009 10.3028 33.1411 10.3709 33.1728C10.4635 33.2156 10.5659 33.2415 10.6742 33.2499C10.7033 33.2531 10.7312 33.2551 10.7584 33.2551C10.8187 33.2551 10.8751 33.248 10.9256 33.2363C11.0002 33.2175 11.0663 33.1877 11.1233 33.1443C11.1775 33.1039 11.2234 33.0535 11.2588 32.9959C11.2925 32.9402 11.3184 32.8709 11.3346 32.7899C11.3508 32.7102 11.3618 32.6325 11.3683 32.5574L11.3929 32.2639C11.4007 32.1771 11.413 32.0598 11.4305 31.9108C11.4532 31.7203 11.4629 31.675 11.4817 31.6394ZM10.0306 31.3971V31.399L10.0299 31.3971H10.0306ZM14.2697 34.0391C14.2302 34.0203 14.2218 34.0138 14.2205 34.0125L14.2069 34.0268L14.2036 33.9678L14.2043 33.8454L14.201 32.2536L14.0371 32.2076L13.3092 33.0978C13.2062 33.2215 13.1375 33.3051 13.1025 33.3466C13.0267 33.4353 12.9819 33.4852 12.9683 33.4995L12.9826 33.5124L12.9152 33.5267C12.9126 33.5267 12.8964 33.5247 12.8387 33.5195L12.8413 33.4988C12.8024 33.4878 12.7894 33.4794 12.7655 33.4444C12.757 33.4275 12.7389 33.3718 12.7084 33.2805L12.5775 32.7978C12.5709 32.7709 12.5638 32.7441 12.5561 32.7175C12.5438 32.6767 12.5341 32.6385 12.512 32.6203C12.512 32.6184 12.5114 32.6171 12.5114 32.6158C12.6332 32.5957 12.7324 32.551 12.8069 32.483C12.8815 32.413 12.9327 32.3262 12.9592 32.2251C12.9806 32.1396 12.98 32.0606 12.9554 31.99C12.932 31.9194 12.8925 31.8656 12.84 31.8312C12.7894 31.7982 12.711 31.7684 12.5995 31.7386C12.5284 31.7211 12.4569 31.7053 12.385 31.6913C12.3228 31.6791 12.261 31.6651 12.1997 31.6492C12.1154 31.6272 12.0506 31.6103 11.9987 31.5941C11.9093 31.5669 11.8568 31.5514 11.8179 31.5617L11.8049 31.6848C11.9132 31.7205 11.9372 31.738 11.9462 31.7561C11.9475 31.7665 11.9436 31.804 11.9125 31.9343L11.6364 32.9928C11.6183 33.0544 11.6034 33.101 11.5638 33.158C11.5502 33.158 11.5172 33.1541 11.4083 33.1496L11.396 33.2798C11.4887 33.298 11.5878 33.3213 11.6948 33.3485C11.8147 33.379 11.932 33.4133 12.0726 33.4347L12.0862 33.3045C12.0221 33.2863 11.9845 33.274 11.9482 33.241C11.9469 33.2338 11.9469 33.2131 11.9592 33.1554C11.9637 33.1341 11.9858 33.0388 12.026 32.8717C12.059 32.735 12.0908 32.6061 12.1219 32.4856C12.142 32.4091 12.1835 32.2569 12.2463 32.0301C12.2742 31.9284 12.293 31.8643 12.2833 31.8487C12.3144 31.8507 12.3468 31.8552 12.3792 31.8643C12.4505 31.8831 12.4991 31.9012 12.5218 31.9187C12.5581 31.9466 12.5846 31.988 12.6008 32.0412C12.617 32.0943 12.6157 32.1571 12.5982 32.2277C12.5801 32.297 12.5496 32.3586 12.5075 32.4078C12.466 32.4564 12.4233 32.4862 12.3798 32.4985C12.3351 32.5102 12.2839 32.4992 12.1737 32.4895L12.1523 32.5471C12.1672 32.5691 12.1815 32.5989 12.1932 32.6385C12.2191 32.7188 12.247 32.8289 12.2787 32.9676L12.3889 33.4515C12.3941 33.4807 12.3967 33.5046 12.4116 33.5416C12.466 33.5532 12.5205 33.5649 12.5756 33.5791C12.617 33.5902 12.6851 33.6083 12.7719 33.6342L12.7713 33.6394L13.2541 33.7988L13.2788 33.6757C13.1783 33.6336 13.1576 33.6148 13.1543 33.5811C13.1608 33.5642 13.1867 33.5195 13.2762 33.4036L13.3494 33.2863L13.8504 33.4593L13.84 33.7476C13.8387 33.8065 13.8329 33.8344 13.8148 33.8609C13.8063 33.8609 13.7772 33.8558 13.6586 33.8383L13.6346 33.9607L13.9859 34.0819L14.2788 34.2017L14.3125 34.0611L14.2697 34.0391ZM13.4531 33.1496L13.5471 33.0337L13.4577 33.1522C13.4564 33.1516 13.4544 33.1516 13.4531 33.1496ZM13.8718 33.2857C13.8044 33.263 13.7375 33.2393 13.6709 33.2144C13.6002 33.1885 13.5361 33.1632 13.4842 33.1632C13.4803 33.1613 13.4758 33.1587 13.4726 33.158L13.866 32.6754L13.8744 33.136L13.8718 33.2857ZM13.8712 33.3038V33.3064C13.8672 33.3047 13.8631 33.3034 13.8588 33.3025C13.8634 33.3032 13.8673 33.3038 13.8712 33.3038ZM11.4187 33.2656C11.42 33.2656 11.4219 33.2656 11.4232 33.2662C11.4219 33.2662 11.42 33.2656 11.4187 33.2656ZM12.059 33.41L12.0597 33.4068V33.4107C12.0597 33.4107 12.059 33.4107 12.059 33.41ZM16.8256 33.5434L16.8664 33.4021L16.5735 33.281C16.5495 33.2706 16.497 33.2434 16.3907 33.2052C16.3434 33.257 16.3026 33.3004 16.2689 33.3335C16.2345 33.3685 16.1418 33.4572 15.9921 33.6004L15.7225 33.8595C15.6687 33.912 15.5955 33.9865 15.5196 34.0759C15.497 34.0966 15.4762 34.1148 15.4509 34.1387L15.4892 32.7854C15.4198 32.7608 15.3524 32.7336 15.2863 32.7044C15.2358 32.6817 15.1457 32.6377 14.9882 32.5826L14.9538 32.7057C14.9869 32.7219 15.0219 32.7439 15.0601 32.7705L15.0783 32.8094C15.0763 32.823 15.0634 32.8683 14.9973 33.0225C14.9461 33.1424 14.8858 33.2797 14.8164 33.4339C14.7393 33.6056 14.6842 33.7261 14.6499 33.7967C14.5818 33.9405 14.5358 34.0331 14.5118 34.0753C14.4995 34.0947 14.4917 34.1031 14.4716 34.1102C14.4665 34.1102 14.4418 34.1076 14.3161 34.0817L14.2837 34.2061C14.344 34.2269 14.4237 34.2592 14.5215 34.3027C14.5974 34.3363 14.67 34.3726 14.7665 34.4005L14.8009 34.2774C14.7212 34.2353 14.6991 34.2191 14.6933 34.2139L14.6589 34.1951L14.6829 34.1575C14.6881 34.1394 14.7179 34.0662 14.773 33.9373C14.8288 33.8077 14.8767 33.6956 14.9188 33.603L15.0303 33.3069L15.1314 33.0802L15.1133 33.7611C15.11 33.8718 15.1036 34.0396 15.0925 34.2631C15.0874 34.394 15.0815 34.4957 15.088 34.5896L15.1761 34.6143C15.2163 34.5728 15.2701 34.519 15.3382 34.453C15.449 34.3428 15.5346 34.2605 15.5948 34.2022L15.972 33.8181L16.2365 33.5712L15.8826 34.3584C15.8113 34.5184 15.7672 34.6104 15.7497 34.6363C15.7309 34.6648 15.718 34.6693 15.7134 34.6713C15.7044 34.6713 15.6752 34.6654 15.5546 34.6376L15.5222 34.7607L15.8282 34.8883L16.1522 35.0438L16.1963 34.9032C16.0971 34.8494 16.0842 34.8384 16.0738 34.8008C16.0796 34.7782 16.1017 34.7166 16.1386 34.6194C16.1451 34.6033 16.171 34.5456 16.2138 34.4497L16.6072 33.5855C16.6338 33.5259 16.6571 33.5058 16.6889 33.4974C16.7122 33.4974 16.7472 33.5084 16.7932 33.5291L16.8256 33.5434ZM15.4309 34.1562L15.4419 33.8006L15.4445 34.1446C15.4393 34.1491 15.436 34.1524 15.4309 34.1562ZM14.3083 34.1938C14.3103 34.1951 14.3128 34.1958 14.3148 34.1971C14.3128 34.1971 14.3096 34.1958 14.3083 34.1958V34.1938ZM14.7562 34.3739L14.7588 34.3687L14.7581 34.3752C14.7575 34.3752 14.7568 34.3752 14.7562 34.3739ZM15.1522 33.0335L15.1431 33.3782L15.1353 33.0717L15.1522 33.0335ZM16.2734 33.5369L16.0958 33.9308L16.2423 33.5648L16.2734 33.5369ZM18.2411 34.8055C18.3121 34.7453 18.3692 34.6704 18.4083 34.5859C18.4504 34.4971 18.4666 34.4149 18.4563 34.341C18.4466 34.2678 18.42 34.2075 18.3785 34.1616C18.337 34.1149 18.2729 34.0721 18.1873 34.0313L17.4459 33.7061L17.4096 33.8253L17.534 33.9154C17.534 33.9212 17.5314 33.9335 17.521 33.9614C17.512 33.9847 17.486 34.0417 17.4452 34.1337L17.1607 34.7466C17.0907 34.8936 17.0246 35.0264 16.9604 35.143C16.9306 35.1981 16.9189 35.2124 16.9014 35.2214C16.8852 35.2214 16.8502 35.2143 16.7452 35.1884L16.7083 35.3141C16.7932 35.3478 16.8813 35.386 16.9714 35.4281C17.0544 35.4689 17.1762 35.5285 17.3376 35.6114L17.3564 35.6211L17.4037 35.478L17.2793 35.4067L17.2689 35.4242L17.2586 35.3717C17.2598 35.3594 17.2696 35.3277 17.3052 35.248C17.3551 35.1333 17.405 35.0232 17.4556 34.9176L17.7654 34.2684C17.8082 34.1797 17.8432 34.1117 17.8464 34.0773C17.8931 34.087 17.9339 34.1007 17.9695 34.1175C18.0402 34.1512 18.0823 34.1991 18.0992 34.2659C18.1154 34.3332 18.0998 34.4168 18.0531 34.5159C18.0084 34.6105 17.9553 34.6727 17.8957 34.7032C17.836 34.7342 17.8114 34.755 17.6928 34.6895C17.6824 34.6818 17.6721 34.6721 17.6384 34.6572L17.5943 34.6779L17.5956 34.6908C17.5969 34.7291 17.5956 34.7615 17.5995 34.8023C17.6163 34.8172 17.6345 34.8301 17.6539 34.8431C17.6727 34.8547 17.6928 34.8658 17.7142 34.8768C17.7978 34.9156 17.8898 34.9292 17.9883 34.9156C18.0856 34.902 18.1711 34.8645 18.2411 34.8055ZM16.7342 35.3037C16.7355 35.3044 16.7362 35.305 16.7375 35.3056C16.7362 35.3056 16.7355 35.3044 16.7336 35.3044L16.7342 35.3037ZM19.2084 36.2776C19.2038 36.2601 19.1947 36.2032 19.1811 36.1072C19.1805 36.1007 19.176 36.0535 19.1688 35.9653L19.1384 35.6085C19.1384 35.5994 19.1358 35.5722 19.1319 35.5255C19.1273 35.4815 19.1247 35.4394 19.1176 35.4186C19.2362 35.4186 19.338 35.3921 19.4209 35.3389C19.5065 35.2852 19.572 35.2081 19.6147 35.1135C19.6523 35.0338 19.6659 34.9554 19.6543 34.8809C19.6426 34.8071 19.6147 34.7481 19.5687 34.7047C19.5253 34.6632 19.4527 34.6192 19.3484 34.5712C19.2959 34.5479 19.2284 34.5194 19.1455 34.4857C19.0864 34.4627 19.028 34.4379 18.9705 34.4112C18.8921 34.3756 18.8312 34.3464 18.789 34.3251C18.7022 34.2804 18.6471 34.2512 18.6101 34.2583L18.5758 34.3762C18.6782 34.4326 18.6976 34.4533 18.7028 34.4708C18.7015 34.4851 18.6892 34.5246 18.638 34.6419L18.1778 35.6331C18.1487 35.6914 18.126 35.7335 18.08 35.7834C18.0729 35.7834 18.0463 35.7769 17.9251 35.7477L17.8901 35.8741C17.9776 35.9078 18.0716 35.9486 18.172 35.9939C18.2841 36.0451 18.3943 36.0995 18.5285 36.1462L18.5654 36.0198C18.5427 36.0088 18.474 35.9751 18.4397 35.933C18.4403 35.924 18.4455 35.9032 18.4663 35.8514C18.4747 35.83 18.5129 35.74 18.5823 35.5832C18.6387 35.4556 18.6937 35.3351 18.7456 35.221C18.7787 35.1485 18.8467 35.0066 18.9491 34.7941C18.9945 34.7002 19.0249 34.6393 19.0172 34.6231C19.0489 34.6309 19.0794 34.6419 19.1092 34.6555C19.1922 34.693 19.2265 34.719 19.2401 34.7345C19.2706 34.7675 19.2894 34.8129 19.2959 34.868C19.303 34.923 19.2907 34.9846 19.2602 35.052C19.2297 35.118 19.1889 35.1725 19.139 35.2133C19.0891 35.2534 19.0418 35.2761 18.9854 35.2793C18.9413 35.2793 18.8856 35.2625 18.7955 35.2333L18.765 35.2871C18.7761 35.3104 18.7838 35.3435 18.7884 35.3836C18.8 35.4685 18.8085 35.5812 18.8143 35.7231L18.837 36.2174C18.837 36.2479 18.835 36.2725 18.8428 36.3127C18.8947 36.3327 18.9459 36.3541 18.9971 36.3781C19.0418 36.3982 19.1124 36.4332 19.2103 36.4811L19.2284 36.4895L19.2738 36.3451C19.2369 36.3276 19.2265 36.3178 19.2084 36.2776ZM17.9154 35.8631C17.9154 35.8631 17.9167 35.8644 17.9179 35.865C17.9172 35.865 17.9166 35.8648 17.916 35.8644L17.9154 35.8631ZM18.5188 36.1202L18.5207 36.1157L18.5201 36.1202H18.5188ZM19.8546 36.6089L19.8488 36.5538C19.8527 36.5298 19.8702 36.4786 19.9045 36.4015L20.1942 35.7284C20.2007 35.7135 20.2461 35.6138 20.3303 35.4265C20.3543 35.3721 20.3718 35.3358 20.3815 35.3164C20.4023 35.2743 20.4146 35.2574 20.4554 35.2419C20.4703 35.2432 20.5442 35.2723 20.5973 35.273L20.6297 35.1447C20.5215 35.1039 20.4087 35.0586 20.2901 35.0067C20.1845 34.9607 20.0918 34.9173 19.9855 34.8869L19.9512 35.0126C20.0361 35.054 20.0607 35.0683 20.0769 35.1039C20.0704 35.1305 20.0484 35.1914 20.0101 35.2885C19.992 35.3332 19.9499 35.4304 19.8838 35.5827L19.6751 36.0627C19.6414 36.1398 19.6018 36.2234 19.5571 36.3121C19.5273 36.3717 19.5091 36.4054 19.4735 36.421C19.4618 36.419 19.4229 36.4041 19.3309 36.3899L19.2979 36.5169C19.3815 36.5467 19.4761 36.5842 19.5804 36.6296C19.7003 36.6827 19.8118 36.7332 19.9155 36.7851L19.9337 36.7941L19.9764 36.6484C19.8993 36.6134 19.8747 36.5991 19.8669 36.5933L19.8546 36.6089ZM20.6045 35.1564C20.6032 35.1557 20.6012 35.1538 20.5999 35.1538C20.6012 35.1538 20.6032 35.1544 20.6045 35.1557V35.1564ZM19.9952 34.9128L19.9939 34.9173L19.9946 34.9121L19.9952 34.9128ZM19.3231 36.5052C19.3244 36.5058 19.3264 36.5058 19.3277 36.5071C19.3264 36.5071 19.3244 36.5058 19.3225 36.5058L19.3231 36.5052ZM22.572 36.0722L22.607 35.9297L22.3069 35.8228C22.2836 35.813 22.2291 35.7897 22.1215 35.756C22.0762 35.8117 22.0379 35.8571 22.0062 35.8927C21.9731 35.9277 21.8863 36.0216 21.7437 36.1732L21.4877 36.4453C21.4365 36.5004 21.3665 36.5788 21.2958 36.6714C21.2747 36.6937 21.2531 36.7156 21.231 36.7369L21.1993 35.3848C21.1297 35.3633 21.0607 35.3398 20.9925 35.3142C20.9413 35.2935 20.848 35.2552 20.6885 35.2073L20.6607 35.3323C20.6937 35.3466 20.7307 35.368 20.7702 35.3913L20.7806 35.3757L20.7909 35.4282C20.7883 35.4528 20.765 35.5247 20.7203 35.6459C20.6749 35.769 20.6218 35.9089 20.5609 36.0657C20.4922 36.2426 20.4435 36.3663 20.4131 36.4376C20.3522 36.5853 20.3113 36.6799 20.2893 36.7226C20.2796 36.7427 20.2711 36.7518 20.2511 36.7608C20.2439 36.7608 20.2167 36.757 20.0949 36.7395L20.0689 36.8651C20.1305 36.8826 20.2109 36.9118 20.3113 36.95C20.3885 36.9798 20.463 37.0116 20.5609 37.0349L20.5894 36.9111C20.5064 36.8716 20.4844 36.8574 20.4785 36.8515L20.4435 36.8353L20.4643 36.7965C20.4688 36.7783 20.4954 36.7038 20.5434 36.573C20.5926 36.4395 20.6347 36.3255 20.6723 36.2303L20.7676 35.9297L20.857 35.6977L20.8739 36.378C20.8765 36.49 20.8784 36.6572 20.8797 36.8807C20.881 37.0103 20.8804 37.1146 20.8914 37.2066L20.9815 37.2279C21.0191 37.1839 21.0703 37.1269 21.1344 37.0582C21.2401 36.9422 21.3211 36.8548 21.3775 36.7939L21.7339 36.3916L21.9861 36.1305L21.6737 36.9364C21.5953 37.1379 21.5661 37.2014 21.5551 37.2202C21.5376 37.2487 21.5253 37.2545 21.5194 37.2564C21.5071 37.2564 21.4741 37.2493 21.3606 37.2305L21.3341 37.3549L21.6465 37.467L21.9789 37.6063L22.0146 37.4625C21.9206 37.4178 21.9025 37.4067 21.8869 37.3672C21.8914 37.3433 21.9102 37.2824 21.9426 37.1826C21.9491 37.1651 21.9712 37.1074 22.0094 37.0077L22.3568 36.1259C22.3808 36.0651 22.4028 36.0443 22.4378 36.0333C22.4611 36.0333 22.4961 36.0424 22.5402 36.0605L22.572 36.0722ZM22.581 35.9413L22.5707 35.9381L22.5817 35.9407L22.581 35.9413ZM21.2122 36.757L21.2018 36.2795L21.2245 36.744C21.22 36.7485 21.2168 36.7524 21.2122 36.757ZM20.0929 36.8528C20.0949 36.8528 20.0981 36.8548 20.1 36.8548C20.0981 36.8554 20.0949 36.8535 20.0929 36.8541V36.8528ZM20.5498 37.009L20.5518 37.0044L20.5511 37.0103C20.5511 37.0103 20.5498 37.0096 20.5498 37.009ZM20.8609 35.6887L20.8752 35.6504L20.8843 35.9957L20.8609 35.6887ZM22.0211 36.0942L21.8636 36.5004L21.9919 36.1247L22.0211 36.0942ZM24.0229 36.5465L24.0585 36.5212C24.0734 36.5212 24.1019 36.5244 24.1803 36.5277L24.1965 36.4033L23.9405 36.3359C23.9179 36.3288 23.8459 36.3042 23.6994 36.275L23.6826 36.3994C23.7714 36.4292 23.8031 36.4493 23.8239 36.4849C23.8245 36.4966 23.82 36.5361 23.7843 36.665C23.7707 36.711 23.7331 36.8406 23.6703 37.0511L23.597 37.2954C23.5465 37.4625 23.5011 37.574 23.4609 37.6251C23.422 37.6757 23.3702 37.71 23.3067 37.7294C23.2438 37.7508 23.1654 37.7463 23.0753 37.7197C22.9969 37.6964 22.9353 37.6627 22.8932 37.6219C22.851 37.5798 22.8245 37.5331 22.8135 37.4845C22.8018 37.4327 22.8031 37.3718 22.8193 37.2973C22.8277 37.261 22.853 37.1723 22.8958 37.0259L23.0202 36.6074C23.0701 36.4402 23.1077 36.3333 23.1304 36.2886L23.1745 36.2588C23.1997 36.2588 23.238 36.2659 23.3112 36.2679L23.341 36.1681L23.3086 36.139L22.6592 35.9647L22.6411 36.0884L22.7733 36.1668C22.7746 36.1824 22.7713 36.207 22.7636 36.2407C22.7402 36.332 22.7117 36.4311 22.6786 36.5432L22.5179 37.0783C22.4797 37.2053 22.4576 37.2844 22.4525 37.3135C22.4432 37.367 22.4421 37.4216 22.4492 37.4755C22.4563 37.5357 22.4751 37.5927 22.5056 37.6465C22.5361 37.7009 22.5821 37.7521 22.6424 37.7975C22.7234 37.8571 22.8173 37.9044 22.923 37.9361C23.006 37.9607 23.0831 37.973 23.1544 37.973L23.1725 37.9724C23.2483 37.9704 23.3196 37.9542 23.3845 37.9231C23.4464 37.895 23.5021 37.855 23.5484 37.8052C23.5931 37.7573 23.632 37.6951 23.6644 37.6187C23.6962 37.5441 23.7228 37.4709 23.7448 37.399L23.8291 37.1172C23.8537 37.0336 23.89 36.9216 23.9373 36.779C23.9995 36.5951 24.0177 36.5542 24.0229 36.5465ZM23.3034 36.1578L23.295 36.1552L23.3034 36.1565V36.1578ZM23.1544 37.9503C23.155 37.9503 23.1557 37.951 23.1563 37.951L23.1544 37.9536V37.9503Z" fill="#7B5A3E"/>
<path d="M25.7054 36.715C25.6723 36.7778 25.6425 36.829 25.6179 36.8692C25.5926 36.91 25.5246 37.0182 25.4124 37.1944L25.2109 37.5092C25.1707 37.5721 25.1175 37.6621 25.0644 37.7671C25.0475 37.7924 25.032 37.815 25.0132 37.8435L24.7313 36.5206C24.6587 36.5125 24.5865 36.5017 24.5148 36.4882C24.4603 36.4785 24.3618 36.4578 24.1966 36.4403L24.192 36.5679C24.2277 36.5763 24.2672 36.5887 24.3106 36.6061L24.3378 36.6392C24.3391 36.6554 24.3353 36.7085 24.3087 36.8653C24.2873 36.9949 24.2607 37.1419 24.2303 37.3084C24.1953 37.4943 24.1706 37.6252 24.1538 37.7004C24.122 37.8571 24.0987 37.9576 24.0851 38.0029C24.0799 38.0197 24.0741 38.0327 24.0332 38.0489C24.0099 38.0489 23.971 38.0463 23.8965 38.0567L23.8945 38.1843C23.958 38.1908 24.043 38.2031 24.1486 38.2225C24.2303 38.2381 24.308 38.2556 24.4098 38.2601L24.4143 38.1325C24.3236 38.1092 24.3003 38.0988 24.2944 38.0949L24.2568 38.0852L24.2711 38.0437C24.2717 38.0249 24.2834 37.9459 24.3061 37.8086C24.3301 37.6699 24.3515 37.5494 24.3703 37.4483L24.4078 37.1348L24.4532 36.8919L24.5958 37.5565C24.6185 37.6641 24.6515 37.8293 24.6943 38.0489C24.7189 38.1772 24.7384 38.2782 24.7663 38.3676L24.8583 38.3715C24.8874 38.3223 24.927 38.2569 24.9775 38.1765C25.0599 38.0437 25.1234 37.942 25.1674 37.8727L25.4422 37.4108L25.6419 37.1076L25.4844 37.9569C25.4526 38.1279 25.4312 38.2277 25.4209 38.2569C25.4092 38.2893 25.3982 38.2977 25.3768 38.3009C25.3522 38.3009 25.3113 38.2964 25.2316 38.3048L25.229 38.4311L25.9082 38.5588L25.9173 38.4104C25.811 38.3832 25.7948 38.3754 25.7741 38.3417C25.7741 38.3171 25.7812 38.253 25.7948 38.1493C25.7974 38.1312 25.8084 38.0703 25.8279 37.9653L26.0061 37.0344C26.0178 36.9702 26.0359 36.945 26.0482 36.9359C26.0593 36.9281 26.1027 36.9216 26.174 36.9353L26.2083 36.9424L26.2154 36.794L25.9011 36.7461C25.8758 36.7415 25.8182 36.7279 25.7054 36.715ZM24.9976 37.8662L24.833 37.0823L25.008 37.8507C25.0041 37.8571 25.0015 37.8604 24.9976 37.8662ZM23.9159 38.1668C23.9172 38.1668 23.9198 38.1675 23.9211 38.1675C23.9198 38.1681 23.9172 38.1675 23.9159 38.1681V38.1668ZM24.3936 38.2374L24.3949 38.2309V38.2381C24.3949 38.2381 24.3942 38.2381 24.3936 38.2374ZM24.4623 36.8407L24.5349 37.1795L24.4545 36.8828L24.4623 36.8407ZM25.6704 37.0648L25.5913 37.4911L25.647 37.0998L25.6704 37.0648ZM27.6591 36.9936C27.7479 36.9955 27.8211 37.0098 27.8768 37.0376C27.9332 37.0661 27.9844 37.1095 28.0246 37.1555C28.0291 37.2099 28.0317 37.2838 28.0512 37.3933L28.1536 37.3764C28.1581 37.2961 28.1665 37.2099 28.1782 37.1167C28.1853 37.059 28.1944 37.0104 28.2061 36.9722L28.1899 36.9327C28.0888 36.8886 28 36.8562 27.9229 36.8381C27.8451 36.8206 27.7569 36.8109 27.6383 36.8089C27.3661 36.8089 27.1503 36.8918 26.996 37.0551C26.8379 37.2216 26.7556 37.4419 26.7511 37.7081C26.7485 37.863 26.7731 38.0094 26.8236 38.1428C26.8573 38.2316 26.906 38.3152 26.9688 38.3916C27.0317 38.4694 27.1108 38.5315 27.2028 38.5795C27.3201 38.6384 27.4569 38.6689 27.6092 38.6708L27.637 38.6715C27.7323 38.6715 27.8133 38.6624 27.8794 38.6436C27.9507 38.6242 28.0337 38.5866 28.1328 38.5225L28.1802 38.3774L28.1432 38.3353L28.1296 38.3437C28.0544 38.3884 27.9844 38.4195 27.9216 38.4376C27.8626 38.4538 27.7978 38.4622 27.7226 38.4622C27.6163 38.4609 27.5249 38.4396 27.451 38.4C27.3979 38.3709 27.3428 38.3236 27.2903 38.2595C27.2365 38.1953 27.1944 38.113 27.1633 38.0152C27.1315 37.918 27.1166 37.8014 27.1185 37.6699C27.1224 37.4535 27.1736 37.2844 27.2721 37.1659C27.3674 37.0519 27.4944 36.9936 27.6591 36.9936ZM27.6357 38.6508C27.6364 38.6508 27.637 38.6501 27.637 38.6501V38.652L27.6357 38.6508ZM29.859 37.2517C29.8337 37.1759 29.802 37.1066 29.7631 37.0457C29.7235 36.9835 29.6691 36.9246 29.6017 36.8689C29.5323 36.8138 29.4552 36.7723 29.3729 36.749C29.2614 36.7186 29.1396 36.7108 29.0093 36.7244C28.879 36.7399 28.7591 36.7762 28.6528 36.8345C28.5692 36.8799 28.4947 36.9472 28.4292 37.0373C28.3638 37.1254 28.3178 37.2303 28.2905 37.3496C28.2646 37.4688 28.2594 37.6067 28.2769 37.7596C28.2996 37.9579 28.3521 38.1224 28.4338 38.2501C28.5148 38.3757 28.6191 38.469 28.7442 38.5247C28.8369 38.5669 28.9419 38.5882 29.0566 38.5882C29.0942 38.5882 29.1337 38.5863 29.1739 38.5811C29.323 38.5636 29.4539 38.5209 29.5647 38.4502C29.6445 38.3978 29.7145 38.3278 29.7715 38.2416C29.8292 38.1555 29.87 38.0589 29.8927 37.954C29.9238 37.8134 29.9309 37.6631 29.9128 37.505C29.9018 37.4124 29.8843 37.3269 29.859 37.2517ZM29.5446 38.0389C29.5194 38.1574 29.4759 38.2449 29.415 38.2999C29.3541 38.3544 29.2802 38.3868 29.196 38.3965C29.1052 38.4068 29.0223 38.3919 28.9497 38.3492C28.8771 38.3071 28.811 38.2267 28.7533 38.1088C28.6956 37.9909 28.6548 37.8341 28.6334 37.6437C28.6178 37.5122 28.6204 37.3878 28.6405 37.2757C28.6593 37.1662 28.7008 37.0788 28.763 37.0172C28.8252 36.9557 28.9069 36.9181 29.0048 36.9071C29.0268 36.9051 29.0475 36.9032 29.0676 36.9032C29.126 36.9032 29.1759 36.9136 29.2167 36.9343C29.2724 36.9628 29.3236 37.0075 29.3697 37.0671C29.4163 37.1267 29.4552 37.2051 29.487 37.2958C29.5187 37.3884 29.5414 37.4934 29.555 37.6074C29.5738 37.7739 29.5706 37.919 29.5446 38.0389ZM31.6143 37.5137C31.6046 37.4671 31.6072 37.4567 31.6085 37.4554C31.6117 37.445 31.626 37.4282 31.6772 37.3835L31.6337 37.2889L30.9999 37.4645L31.0465 37.5779C31.1425 37.5617 31.2047 37.5539 31.2617 37.5584C31.265 37.5636 31.276 37.5863 31.3012 37.688L31.3259 37.8014C31.3401 37.8636 31.3486 37.9057 31.3583 37.9102C31.3239 37.9406 31.286 37.967 31.2455 37.9886C31.206 38.0099 31.164 38.026 31.1204 38.0365C30.9688 38.0748 30.8223 38.0365 30.6842 37.9277C30.5449 37.8156 30.4451 37.64 30.3874 37.4062C30.3349 37.1924 30.3446 37.0097 30.4146 36.8639C30.4846 36.7188 30.6039 36.6262 30.7685 36.5854C30.8404 36.5679 30.9072 36.5607 30.9675 36.5672C31.0284 36.573 31.0854 36.5879 31.1366 36.6119C31.1587 36.6216 31.1807 36.6359 31.1975 36.6482C31.2079 36.6709 31.2183 36.6994 31.2287 36.7344C31.2442 36.7836 31.2546 36.8218 31.285 36.8613L31.3823 36.8192C31.3518 36.6365 31.3362 36.5076 31.3356 36.4331L31.3071 36.3929C31.2416 36.3774 31.1567 36.369 31.0459 36.3677C30.9364 36.3677 30.8216 36.3813 30.705 36.4104C30.6091 36.4344 30.5222 36.4655 30.4457 36.505C30.3686 36.5445 30.298 36.5964 30.2357 36.6592C30.1716 36.7227 30.1197 36.7991 30.0789 36.8853C30.0387 36.9715 30.0134 37.0693 30.0044 37.1736C29.9953 37.2766 30.0069 37.3958 30.0387 37.5234C30.0763 37.6763 30.1353 37.8104 30.2156 37.9232C30.2675 37.997 30.333 38.0618 30.4101 38.1169C30.4879 38.1726 30.576 38.2121 30.6719 38.2367C30.7354 38.2516 30.8009 38.2594 30.8683 38.2594C30.9474 38.2594 31.0303 38.249 31.1152 38.2283C31.2112 38.205 31.3058 38.1687 31.3965 38.122C31.4866 38.076 31.591 38.0087 31.7128 37.8998C31.6914 37.839 31.6731 37.7772 31.6577 37.7145C31.648 37.6737 31.6337 37.607 31.6143 37.5137ZM33.0039 36.1725C32.9572 36.0339 32.9313 35.9426 32.9293 35.8927C32.9332 35.8856 32.9527 35.8668 33.0687 35.8013L33.0064 35.6918C32.9047 35.734 32.8211 35.767 32.7556 35.791C32.6876 35.8156 32.6124 35.8389 32.5165 35.8881L32.5767 35.9983C32.6597 35.9704 32.6986 35.9659 32.7271 35.9659C32.7297 35.9672 32.7401 35.9737 32.7556 36.006C32.7893 36.076 32.884 36.3241 33.0356 36.7452L33.1069 36.8852L33.1413 36.9798C33.011 36.902 32.847 36.7958 32.6454 36.6545C32.3506 36.4492 32.0971 36.2658 31.8638 36.1032L31.6305 36.1959C31.591 36.2101 31.5281 36.2296 31.4289 36.2794L31.4886 36.3915C31.5825 36.3656 31.6098 36.3617 31.6201 36.3617L31.6538 36.3501L31.6655 36.3935C31.6752 36.4084 31.6895 36.4446 31.7102 36.4997L31.9746 37.2175C32.0122 37.3218 32.0414 37.4067 32.0621 37.4721C32.0978 37.5874 32.1192 37.6606 32.1263 37.6917L32.1451 37.6879L32.1231 37.7429C32.1185 37.7462 32.0958 37.7591 31.9863 37.8258L32.0297 37.9463L32.0485 37.9373C32.1568 37.8926 32.2436 37.8576 32.3084 37.8343L32.4419 37.7889L32.5379 37.7352L32.5035 37.6399L32.4769 37.6296L32.4588 37.6367C32.4393 37.6432 32.4076 37.6516 32.3629 37.6606L32.348 37.6794H32.3447L32.3233 37.6496C32.3123 37.6341 32.289 37.581 32.2533 37.4922C32.2015 37.3626 32.1542 37.237 32.1101 37.1152L31.9779 36.8074L31.8917 36.5684C32.4892 36.9914 32.9332 37.2953 33.2599 37.5006C33.3214 37.4896 33.3817 37.4793 33.442 37.4702L33.466 37.4268C33.4174 37.3199 33.2981 37.0031 33.1108 36.4842C33.0868 36.4168 33.0512 36.3131 33.0039 36.1725ZM32.9961 35.7165C32.9941 35.7176 32.9919 35.7183 32.9896 35.7184C32.9909 35.7178 32.9935 35.7171 32.9954 35.7152L32.9961 35.7165ZM32.5417 35.8998L32.543 35.905L32.5404 35.9005C32.5404 35.9005 32.5411 35.8998 32.5417 35.8998ZM33.1523 37.0109C33.1205 36.9921 33.0797 36.9649 33.0434 36.9415C33.0771 36.959 33.1127 36.9785 33.1451 36.9921L33.1523 37.0109ZM31.4542 36.2918L31.4555 36.2969L31.4529 36.2918H31.4542ZM32.4672 37.6548H32.4659C32.4652 37.6549 32.4646 37.6551 32.464 37.6555C32.4646 37.6548 32.4659 37.6548 32.4666 37.6522L32.4672 37.6548ZM31.88 36.5366L32.2067 36.7666C32.1012 36.6976 31.9953 36.6291 31.8891 36.5613L31.88 36.5366ZM34.6796 35.5872C34.633 35.5224 34.5818 35.4661 34.5254 35.4188C34.4709 35.3721 34.4009 35.3313 34.3193 35.2989C34.2422 35.2678 34.154 35.2471 34.0652 35.2523C33.9505 35.2555 33.8312 35.2847 33.7113 35.3378C33.5908 35.3916 33.4871 35.4615 33.4028 35.5483C33.3367 35.6164 33.2862 35.7038 33.2505 35.8088C33.2149 35.9131 33.2019 36.0278 33.2129 36.1489C33.222 36.2707 33.259 36.4035 33.3218 36.5441C33.4022 36.7268 33.502 36.8687 33.6167 36.9639C33.7334 37.0617 33.8604 37.1194 33.9959 37.1343C34.0231 37.1382 34.0497 37.1395 34.0769 37.1395C34.1884 37.1395 34.3044 37.1122 34.423 37.0598C34.5604 36.9989 34.6725 36.9179 34.7568 36.8194C34.8177 36.7443 34.8631 36.6562 34.8922 36.557C34.9214 36.4579 34.9311 36.3536 34.9214 36.2461C34.9097 36.1023 34.8702 35.9565 34.8067 35.8133C34.7684 35.7272 34.7257 35.6514 34.6796 35.5872ZM34.2221 36.9153C34.1943 36.9153 34.1667 36.912 34.1398 36.9056C34.0587 36.8874 33.9712 36.8304 33.8805 36.7358C33.7904 36.6393 33.7042 36.5026 33.6271 36.3271C33.5733 36.2059 33.5383 36.0867 33.5234 35.974C33.5091 35.8632 33.5227 35.7667 33.5642 35.6896C33.6044 35.6125 33.6712 35.5529 33.7613 35.5134C33.8222 35.4862 33.8792 35.4713 33.9291 35.4713C33.944 35.4713 33.9576 35.4738 33.9712 35.4751C34.0335 35.4862 34.0963 35.5134 34.1573 35.5574C34.2188 35.6002 34.2797 35.6624 34.3381 35.7401C34.3964 35.8191 34.4489 35.9118 34.4956 36.0167C34.563 36.1696 34.6038 36.3096 34.6148 36.432C34.6265 36.5525 34.6109 36.6484 34.5688 36.7197C34.5267 36.7903 34.4664 36.8421 34.3893 36.8771C34.3329 36.9023 34.2765 36.9153 34.2221 36.9153ZM35.97 35.4282C35.9356 35.3894 35.9006 35.3596 35.8656 35.3388C35.8306 35.3175 35.7898 35.3039 35.7451 35.2967C35.7004 35.2896 35.6485 35.2915 35.5856 35.3026C35.5636 35.3058 35.5156 35.3175 35.4424 35.3362C35.3705 35.3563 35.3134 35.3686 35.2739 35.3777C35.2214 35.3861 35.1786 35.3881 35.1456 35.3822C35.1147 35.3766 35.0859 35.3625 35.0626 35.3414C35.036 35.3194 35.0114 35.2851 34.9868 35.2384C34.9557 35.173 34.9505 35.1069 34.9712 35.0369C34.9913 34.9676 35.0425 34.9132 35.1235 34.873C35.178 34.8471 35.2415 34.8244 35.2966 34.8335C35.3543 34.8361 35.399 34.8465 35.4262 34.8627C35.4489 34.8957 35.4813 34.9547 35.5513 35.0486L35.6401 34.9832C35.6112 34.9212 35.5844 34.8584 35.5597 34.7946C35.5407 34.7456 35.524 34.6957 35.5098 34.645L35.4878 34.6178L35.4353 34.6061C35.3834 34.6061 35.3277 34.6132 35.2707 34.6269C35.1974 34.645 35.1268 34.6703 35.0594 34.7033C34.9937 34.736 34.9325 34.7769 34.8772 34.8251C34.8229 34.873 34.7789 34.9314 34.7476 34.9968C34.7172 35.0622 34.7036 35.1399 34.7081 35.2287C34.7133 35.3162 34.7373 35.4049 34.7794 35.4904C34.8092 35.5507 34.8468 35.6051 34.8902 35.6504C34.9343 35.6971 34.9835 35.7308 35.0373 35.7515C35.0918 35.7729 35.1533 35.7807 35.2201 35.7722C35.2635 35.7671 35.3497 35.7509 35.4793 35.7224C35.5493 35.7088 35.6018 35.7029 35.6725 35.7036C35.7101 35.7075 35.7431 35.7217 35.7717 35.745C35.8015 35.7709 35.8274 35.8053 35.8494 35.8493C35.8754 35.9025 35.8883 35.9562 35.889 36.0068C35.8896 36.0573 35.8728 36.1052 35.8404 36.1506C35.8079 36.1959 35.7619 36.2329 35.7049 36.2614C35.6492 36.2879 35.5915 36.3009 35.4975 36.3009C35.4256 36.2944 35.3672 36.2743 35.3277 36.2471C35.2804 36.172 35.2447 36.1078 35.1922 36.0443L35.1034 36.1098C35.187 36.2827 35.2415 36.4168 35.281 36.5257C35.3108 36.527 35.3394 36.5283 35.3666 36.5283C35.4269 36.5283 35.4813 36.5231 35.5306 36.5147C35.6018 36.5017 35.6783 36.4758 35.7574 36.4363C35.8663 36.3832 35.9518 36.3177 36.0128 36.2426C36.051 36.1946 36.0815 36.1357 36.1061 36.0657C36.1291 35.9988 36.1403 35.9285 36.1391 35.8578C36.1372 35.7651 36.1119 35.6699 36.064 35.5721C36.0361 35.517 36.005 35.4691 35.97 35.4282ZM37.5495 35.1511L37.5411 35.1653C37.4951 35.2392 37.4484 35.2994 37.4017 35.3441C37.3522 35.39 37.2963 35.4287 37.2358 35.4588C37.1431 35.5061 37.0537 35.5301 36.9675 35.5301C36.9066 35.5301 36.8359 35.5132 36.7588 35.4802C36.683 35.4491 36.6071 35.3973 36.5333 35.3241C36.46 35.2522 36.3926 35.1563 36.3323 35.0384C36.2345 34.846 36.2014 34.6723 36.2332 34.522C36.2649 34.373 36.3537 34.2609 36.4957 34.189C36.5741 34.1489 36.6454 34.1281 36.7141 34.1268C36.775 34.1268 36.8385 34.1404 36.8943 34.1618C36.9241 34.2078 36.9597 34.2713 37.0291 34.3607L37.112 34.2972C37.0757 34.2182 37.0424 34.1378 37.0122 34.0562C36.9908 34.0012 36.9772 33.9545 36.9694 33.9156L36.937 33.8878C36.8262 33.8949 36.7329 33.9092 36.6564 33.9292C36.5806 33.9487 36.4983 33.9811 36.4108 34.0251C36.1586 34.1528 35.9992 34.3303 35.937 34.5518C35.8748 34.774 35.9052 35.006 36.0251 35.2437C36.0958 35.3824 36.1859 35.5009 36.2915 35.5942C36.3622 35.6577 36.4445 35.7095 36.5365 35.7478C36.6266 35.7853 36.7245 35.8041 36.8249 35.8041H36.8314C36.9617 35.8015 37.0971 35.7659 37.2332 35.6972C37.3279 35.6493 37.405 35.5987 37.4594 35.5463C37.5145 35.4957 37.5703 35.4238 37.6279 35.3208L37.6014 35.1692L37.5495 35.1511ZM38.5044 34.501C38.5407 34.6053 38.5621 34.6785 38.568 34.7343C38.5654 34.7401 38.5505 34.7589 38.4792 34.801C38.4247 34.836 38.3632 34.8697 38.2958 34.9021C38.2258 34.937 38.1642 34.9642 38.135 34.9934C38.1106 34.95 38.0875 34.906 38.0657 34.8612L37.8252 34.4155C37.8622 34.3909 37.9121 34.3637 37.9736 34.3332C38.041 34.2983 38.0994 34.2756 38.1843 34.2665C38.1966 34.2756 38.2212 34.3073 38.299 34.422L38.3852 34.3566L38.1143 33.8558L38.0281 33.9212C38.0592 33.986 38.078 34.0339 38.0845 34.0812C38.0845 34.0812 38.0767 34.0903 38.0359 34.111C37.9464 34.1596 37.8952 34.1862 37.881 34.194C37.8343 34.2166 37.7889 34.2374 37.7688 34.2639L37.6548 34.032C37.5893 33.9024 37.5413 33.7929 37.4992 33.7275C37.5556 33.6938 37.6113 33.6621 37.6671 33.6342C37.7267 33.6051 37.7889 33.5792 37.8557 33.5565C37.9023 33.539 37.9205 33.5377 37.9406 33.5474C37.9503 33.5591 37.973 33.5947 38.0547 33.71L38.1376 33.6485L38.0054 33.3129L37.9704 33.2889L37.9302 33.2993C37.8589 33.3317 37.811 33.3531 37.7876 33.3654L37.5977 33.4664C37.4914 33.5208 37.3962 33.5701 37.3093 33.6135L36.9541 33.8143L37.0228 33.9096C37.1123 33.872 37.1466 33.8629 37.1713 33.8674C37.181 33.8765 37.2037 33.9096 37.2568 34.0106L37.6185 34.7317C37.6476 34.7887 37.6911 34.8839 37.75 35.0141C37.7818 35.0854 37.8038 35.1366 37.8155 35.1567C37.8025 35.1903 37.7831 35.2266 37.7552 35.283L37.7948 35.362L37.8123 35.3523C38.006 35.2493 38.1104 35.1949 38.1259 35.1871C38.183 35.1586 38.288 35.1087 38.4396 35.0355L38.5958 34.9642C38.671 34.9267 38.7293 34.8943 38.7669 34.8697L38.7793 34.8237C38.7319 34.7271 38.6788 34.6034 38.5926 34.4382L38.5044 34.501ZM38.5835 34.4648L38.5783 34.468L38.5822 34.4628C38.5835 34.4641 38.5835 34.4648 38.5835 34.4648ZM38.3081 34.3948H38.3094L38.3081 34.3961V34.3948ZM38.1059 33.883H38.1039L38.1052 33.8823L38.1059 33.883ZM40.1382 34.0737L40.1363 34.0938L40.1 34.0621C40.0831 34.0543 40.0339 34.0238 39.9529 33.9714L39.5478 33.6772C39.54 33.6708 39.5173 33.6546 39.4804 33.628C39.446 33.604 39.413 33.5781 39.3851 33.5794C39.3845 33.5781 39.3832 33.5781 39.3819 33.5768C39.4648 33.4848 39.5134 33.3883 39.529 33.2879C39.5433 33.1875 39.529 33.0883 39.4856 32.9925C39.4493 32.9121 39.3987 32.8506 39.3352 32.8111C39.2801 32.7761 39.2257 32.7631 39.1453 32.7599C39.0857 32.7664 39.0047 32.7923 38.9003 32.8396C38.8478 32.8629 38.7824 32.8959 38.7033 32.9361C38.6566 32.962 38.5996 32.9892 38.5322 33.0197C38.4538 33.0566 38.3915 33.0832 38.3481 33.1013C38.258 33.1376 38.2042 33.159 38.1803 33.192L38.247 33.2957C38.3397 33.262 38.3747 33.2548 38.4026 33.262C38.4097 33.2704 38.4311 33.3015 38.4881 33.4226L38.9373 34.419C38.9619 34.4786 38.9794 34.524 38.9878 34.5907C38.982 34.5965 38.9599 34.6134 38.8588 34.6846L38.9126 34.8038L38.9314 34.7948C39.0144 34.7501 39.1064 34.7054 39.2069 34.66C39.319 34.6088 39.4318 34.5603 39.5549 34.4896L39.4836 34.3795C39.4227 34.4054 39.3819 34.4158 39.3359 34.4177C39.33 34.4112 39.3171 34.3938 39.2911 34.3439C39.2801 34.3231 39.238 34.2357 39.1648 34.0808C39.1051 33.9539 39.0494 33.834 38.9969 33.72C38.9645 33.6487 38.901 33.503 38.8076 33.2879C38.7655 33.1914 38.7402 33.1285 38.7227 33.1233C38.7495 33.1045 38.7779 33.0883 38.8076 33.0747C38.8906 33.0365 38.9321 33.0274 38.9561 33.0274C39.0008 33.0274 39.0461 33.043 39.0909 33.0734C39.1369 33.1045 39.1751 33.1538 39.2056 33.2205C39.236 33.2866 39.2503 33.3533 39.249 33.4181C39.2464 33.4822 39.2322 33.5321 39.2056 33.5678C39.179 33.604 39.1265 33.6377 39.039 33.6902L39.0598 33.7485C39.0844 33.7556 39.1136 33.7712 39.1486 33.7938C39.2192 33.8411 39.3106 33.9092 39.4227 33.9966L39.8116 34.3044C39.8343 34.3238 39.8511 34.3406 39.8861 34.3607C39.9354 34.3342 39.9853 34.3102 40.0365 34.2869C40.0812 34.2668 40.1538 34.2357 40.2646 34.1677L40.194 34.0575C40.159 34.0724 40.1441 34.0737 40.1382 34.0737ZM40.2387 34.1579L40.2374 34.156L40.2393 34.1573C40.2393 34.1573 40.2387 34.1573 40.2387 34.1579ZM41.1623 33.3602C41.1591 33.3531 41.1578 33.3486 41.1552 33.3421L41.0619 33.3965C41.0884 33.5041 41.1033 33.5779 41.104 33.6336C41.0995 33.6414 41.0813 33.6576 41.0094 33.6939C40.9465 33.7244 40.8823 33.7521 40.8169 33.7768C40.7436 33.8053 40.6808 33.8267 40.6484 33.8526C40.6315 33.815 40.6121 33.7684 40.592 33.7146L40.3937 33.2495C40.4325 33.2281 40.4844 33.2048 40.5486 33.1801C40.6192 33.1529 40.6788 33.1348 40.765 33.1341C40.7741 33.1419 40.7955 33.173 40.8642 33.2981L40.9562 33.2417L40.7333 32.7182L40.6412 32.7746C40.6659 32.8433 40.6801 32.8932 40.6821 32.9398C40.6808 32.9411 40.673 32.9482 40.6309 32.9657L40.4682 33.0337C40.4202 33.0519 40.3736 33.0687 40.3522 33.0927L40.2582 32.8523C40.2057 32.7163 40.1675 32.6029 40.1318 32.5342C40.1889 32.5054 40.2476 32.4797 40.3075 32.4571C40.369 32.4332 40.4345 32.4131 40.5025 32.3963C40.5434 32.3859 40.5628 32.3833 40.5887 32.395C40.6011 32.4131 40.625 32.4682 40.6866 32.5679L40.7754 32.5135L40.6743 32.1676L40.6412 32.141L40.6011 32.1468C40.5259 32.1721 40.4773 32.1902 40.4526 32.1993L40.2537 32.2822C40.1441 32.3282 40.043 32.3677 39.9529 32.4027L39.5816 32.5699L39.6405 32.6709C39.728 32.6437 39.765 32.6385 39.7928 32.6424C39.8 32.6515 39.8201 32.6826 39.8648 32.7927L40.159 33.5449C40.1824 33.6045 40.2174 33.703 40.2634 33.8384C40.2887 33.9122 40.3062 33.9653 40.3159 33.9867C40.3003 34.0165 40.2783 34.0496 40.2433 34.1066L40.2757 34.1888L40.2945 34.1804C40.4967 34.0962 40.6056 34.0508 40.6218 34.045C40.6814 34.0223 40.7903 33.9809 40.9484 33.9232L41.1105 33.8656C41.1895 33.8351 41.2492 33.8092 41.29 33.7872L41.3056 33.7418C41.2693 33.6479 41.2284 33.5222 41.1623 33.3602ZM41.1442 33.368L41.1383 33.3693L41.1435 33.3661C41.1435 33.3667 41.1435 33.3667 41.1442 33.368ZM43.2527 33.0928L43.2384 33.1109L43.2093 33.0733C43.1944 33.063 43.1516 33.0234 43.081 32.9567C43.0758 32.9515 43.0434 32.9178 42.9831 32.8543L42.7381 32.5933C42.7323 32.5855 42.7128 32.5661 42.6811 32.5317C42.6519 32.5019 42.624 32.4728 42.5968 32.4669C42.5962 32.4663 42.5949 32.4656 42.5936 32.4643C42.6914 32.3892 42.7582 32.3024 42.7919 32.2078C42.8243 32.1106 42.8288 32.0096 42.8036 31.9091C42.7828 31.8223 42.7446 31.7537 42.6895 31.7031C42.6344 31.6513 42.5754 31.6228 42.4814 31.6163C42.4244 31.6163 42.3505 31.6267 42.2572 31.6494C42.2008 31.663 42.1302 31.6824 42.0459 31.7083C41.996 31.7245 41.9338 31.742 41.8625 31.7595C41.7782 31.7802 41.7128 31.7951 41.6661 31.8035C41.5708 31.8236 41.5144 31.8353 41.4846 31.8631L41.5313 31.9772C41.5909 31.9674 41.6344 31.9623 41.6901 31.972C41.6959 31.9817 41.7108 32.0173 41.7439 32.1462L42.0012 33.2087C42.0142 33.2716 42.0226 33.3208 42.018 33.3875C42.0077 33.3953 41.9636 33.4102 41.8742 33.4555L41.9053 33.5832L41.9247 33.576C42.0148 33.5488 42.1133 33.521 42.2203 33.4957C42.3402 33.4659 42.4601 33.4393 42.5949 33.3927L42.545 33.2709C42.4808 33.2852 42.4413 33.2929 42.3927 33.2806C42.3875 33.2741 42.3777 33.2554 42.3622 33.2003C42.3557 33.1783 42.3298 33.0843 42.287 32.9191C42.2514 32.7831 42.219 32.6548 42.1891 32.5324C42.1703 32.4559 42.1347 32.3024 42.0829 32.0724C42.0602 31.97 42.0459 31.9046 42.0297 31.8955C42.0595 31.8826 42.0906 31.8722 42.1224 31.8638C42.1794 31.8489 42.219 31.845 42.2734 31.845C42.3188 31.8515 42.3615 31.8761 42.4011 31.9143C42.4406 31.9538 42.4698 32.0089 42.4873 32.0802C42.5041 32.1527 42.5061 32.2188 42.4925 32.2816C42.4789 32.3445 42.4549 32.3918 42.4225 32.4216C42.3881 32.4533 42.3311 32.4767 42.2365 32.5116L42.2449 32.5732C42.2689 32.5848 42.2961 32.6056 42.3239 32.6341C42.3849 32.693 42.462 32.776 42.5553 32.8841L42.8807 33.2586C42.9034 33.2865 42.9144 33.3059 42.9436 33.3273C42.9973 33.3111 43.0511 33.2962 43.1056 33.2832C43.1535 33.2709 43.2307 33.2541 43.3512 33.2081L43.302 33.0863C43.276 33.0921 43.2611 33.0928 43.2527 33.0928ZM42.5702 33.3785L42.5696 33.3746L42.5715 33.3785H42.5702ZM44.4266 32.6525C44.4259 32.6448 44.4253 32.6402 44.4246 32.6331L44.3209 32.6636C44.3196 32.7737 44.3164 32.8495 44.3034 32.9039C44.2983 32.9078 44.2788 32.9201 44.1971 32.9382C44.1343 32.9518 44.0643 32.9622 43.9897 32.9713C43.912 32.981 43.8452 32.9855 43.8083 33.003C43.7997 32.9538 43.7924 32.9043 43.7862 32.8547L43.7091 32.3565C43.7525 32.3448 43.8083 32.3357 43.8763 32.3267C43.9334 32.3202 43.982 32.3176 44.0241 32.3176L44.098 32.3351C44.1045 32.3448 44.1181 32.3798 44.1537 32.5191L44.2568 32.4867L44.1693 31.9244L44.0662 31.9561C44.0734 32.028 44.0747 32.0798 44.0649 32.1265C44.0636 32.1271 44.0539 32.133 44.0092 32.1388C43.9094 32.1537 43.8517 32.1628 43.8355 32.1647C43.7843 32.1712 43.7344 32.1744 43.7072 32.1939L43.6767 31.9373C43.6586 31.7928 43.6488 31.6736 43.632 31.5978C43.6961 31.5842 43.7584 31.5739 43.8212 31.5661C43.8815 31.559 43.9379 31.5531 44.0247 31.5551C44.0876 31.5564 44.0999 31.5622 44.1084 31.5752C44.1135 31.5894 44.1233 31.6315 44.1609 31.7682L44.26 31.7378L44.2477 31.3763L44.225 31.3465L44.1842 31.3374L44.1816 31.3381C44.1032 31.3445 44.0513 31.3491 44.0254 31.3523L43.8122 31.3841C43.6942 31.4009 43.5873 31.4152 43.4907 31.4262L43.0895 31.4974L43.1219 31.6102C43.2152 31.6043 43.2561 31.6069 43.2762 31.6205C43.2826 31.6322 43.2937 31.6711 43.3092 31.7838L43.409 32.5839C43.4168 32.648 43.4265 32.751 43.4382 32.8948C43.4447 32.9719 43.4479 33.0283 43.4525 33.0503C43.4298 33.0769 43.4 33.1047 43.3533 33.1494L43.3637 33.2362L43.4732 33.2207C43.6326 33.1967 43.7208 33.1851 43.7344 33.1825C43.7979 33.176 43.9133 33.163 44.0805 33.1456L44.2522 33.1294C44.3365 33.1196 44.4013 33.108 44.4454 33.0976L44.4719 33.0581C44.4596 32.9564 44.4506 32.8262 44.4266 32.6545V32.6525ZM44.4071 32.6551L44.4013 32.6558L44.4071 32.6532V32.6551ZM45.9234 32.932C45.9111 32.9177 45.88 32.8678 45.8294 32.7855L45.5929 32.345C45.5883 32.3366 45.5754 32.312 45.5533 32.2724C45.5332 32.2349 45.5145 32.1999 45.4892 32.1863C45.4879 32.1856 45.4872 32.1843 45.4866 32.183C45.6013 32.1358 45.6881 32.0697 45.7445 31.9861C45.8016 31.9019 45.832 31.8066 45.8333 31.7017C45.8359 31.6129 45.8171 31.5365 45.7776 31.473C45.7374 31.4089 45.6875 31.3668 45.6292 31.3441C45.5708 31.324 45.4853 31.3117 45.3732 31.3097L45.3083 31.3091C45.2567 31.3091 45.2051 31.31 45.1534 31.3117C45.1236 31.313 45.0899 31.3136 45.053 31.3136L44.9635 31.313C44.8892 31.3115 44.8149 31.3087 44.7406 31.3046C44.6557 31.2981 44.6058 31.2955 44.5714 31.3149L44.587 31.4374C44.7004 31.4497 44.7283 31.4594 44.7412 31.4743C44.7458 31.4866 44.7503 31.5287 44.749 31.6563L44.7211 32.7486C44.7173 32.8134 44.7127 32.862 44.6907 32.9261C44.6862 32.9274 44.6615 32.9326 44.5345 32.954L44.552 33.0836C44.6103 33.0816 44.6712 33.081 44.7348 33.081L44.8585 33.0816C44.9823 33.0861 45.1048 33.0907 45.2461 33.0803L45.2299 32.9501C45.2021 32.9482 45.1275 32.9449 45.0802 32.9203C45.0776 32.9119 45.0737 32.8911 45.0718 32.8348C45.0711 32.8115 45.0711 32.7149 45.0724 32.5426C45.0737 32.4027 45.0757 32.2699 45.0783 32.1448C45.0796 32.0658 45.086 31.9084 45.0951 31.6725C45.0997 31.5682 45.1029 31.5009 45.0899 31.4892C45.1191 31.4834 45.1424 31.4821 45.1871 31.4808C45.2617 31.4827 45.3122 31.4899 45.3388 31.5015C45.3803 31.5209 45.4153 31.5553 45.4432 31.6032C45.471 31.6512 45.4846 31.7127 45.4827 31.7859C45.4814 31.8572 45.4658 31.9239 45.4354 31.9822C45.4069 32.0386 45.3712 32.0781 45.3317 32.0988C45.2999 32.1157 45.2533 32.1241 45.1949 32.1241L45.1295 32.1364L45.1223 32.1986C45.1411 32.2161 45.1619 32.242 45.182 32.277C45.2254 32.3502 45.2785 32.4506 45.3408 32.5782L45.5579 33.0239C45.5695 33.0518 45.578 33.0751 45.6006 33.1075L45.7069 33.1062L45.7692 33.1069C45.8171 33.1075 45.8962 33.1108 46.0051 33.1166L46.0252 33.1185V33.0978L46.0096 32.9676C45.9688 32.9656 45.9545 32.9598 45.9234 32.932ZM45.2267 33.0602L45.2273 33.057L45.228 33.0602H45.2267ZM47.3658 32.7159L47.43 32.4289C47.4494 32.3447 47.4773 32.2294 47.5149 32.0849C47.5615 31.9054 47.5784 31.8556 47.5842 31.8452L47.5667 31.8355L47.6257 31.8186C47.6464 31.8186 47.6769 31.8225 47.7404 31.8154L47.7475 31.6917L47.487 31.6418C47.4637 31.6372 47.3904 31.6172 47.2433 31.5984L47.2349 31.7234C47.3289 31.7474 47.36 31.7662 47.3807 31.7992C47.3833 31.8128 47.3794 31.8569 47.3541 31.9812C47.3444 32.0292 47.3153 32.1594 47.2673 32.3738L47.2109 32.6233C47.1727 32.793 47.1351 32.907 47.0981 32.9601C47.0632 33.0138 47.0118 33.0547 46.9517 33.0767C46.8894 33.1014 46.8117 33.1027 46.7203 33.0826C46.6386 33.0638 46.577 33.0359 46.5323 32.9971C46.487 32.9588 46.4571 32.9148 46.4429 32.8656C46.4273 32.8163 46.4254 32.7528 46.4358 32.6783C46.4403 32.6427 46.4597 32.5513 46.4934 32.403L46.5881 31.9774C46.6257 31.807 46.6555 31.6981 46.6762 31.6502L46.7294 31.6178C46.754 31.6178 46.7877 31.623 46.8551 31.6172L46.8778 31.5161L46.8428 31.4895L46.1836 31.3613L46.1733 31.4843L46.3107 31.5543C46.3133 31.5653 46.3133 31.5874 46.3061 31.6288C46.2899 31.7202 46.2685 31.8225 46.2426 31.9372L46.1195 32.4807C46.0903 32.6103 46.0741 32.6906 46.0709 32.7204C46.065 32.771 46.0676 32.8247 46.0786 32.8824C46.0897 32.9407 46.113 32.9971 46.1473 33.0489C46.1817 33.102 46.2309 33.1493 46.2938 33.1901C46.3787 33.2445 46.4766 33.2847 46.5835 33.3087C46.6503 33.3242 46.7144 33.3307 46.7741 33.3307C46.8679 33.3321 46.9605 33.3094 47.043 33.2646C47.1053 33.2296 47.1578 33.1856 47.1979 33.1344C47.2388 33.0858 47.2731 33.0204 47.3003 32.9413C47.3276 32.8649 47.3496 32.7891 47.3658 32.7159ZM47.2582 31.6217L47.2569 31.6256V31.6217H47.2582ZM46.8395 31.509L46.8292 31.5064L46.8395 31.5077V31.509ZM49.515 32.486C49.4923 32.4756 49.4405 32.4471 49.3355 32.4063C49.2869 32.4581 49.2448 32.5002 49.2104 32.5333C49.1754 32.567 49.0821 32.6531 48.9291 32.795L48.6537 33.0483C48.5992 33.0995 48.5247 33.172 48.4469 33.2602C48.4242 33.2802 48.4029 33.2997 48.3769 33.3211L48.4417 31.9703C48.3739 31.9439 48.3069 31.9154 48.2408 31.8848C48.1909 31.8608 48.1008 31.8155 47.9453 31.7565L47.9083 31.8783C47.9408 31.8958 47.9764 31.9185 48.0133 31.9463L48.0257 31.9295L48.0308 31.9845C48.0289 32.0007 48.0114 32.0506 47.9453 32.1964C47.8921 32.3156 47.8286 32.4503 47.7567 32.6039C47.6757 32.7749 47.618 32.8948 47.583 32.9647C47.5117 33.1066 47.4637 33.198 47.4391 33.2381C47.4274 33.2589 47.419 33.2666 47.3983 33.2738C47.3937 33.2738 47.3678 33.2712 47.2434 33.2427L47.209 33.3658C47.2686 33.3871 47.3471 33.4221 47.4449 33.4675C47.5195 33.5031 47.5908 33.54 47.6873 33.5698L47.7243 33.448C47.6452 33.404 47.6238 33.3871 47.6186 33.3813L47.5843 33.3625L47.6083 33.3256C47.6141 33.3074 47.6452 33.2349 47.7029 33.1073C47.7525 32.996 47.8034 32.8855 47.8558 32.7756L47.9732 32.4801L48.0782 32.2586L48.047 32.9375C48.0412 33.0483 48.0308 33.2155 48.0159 33.4383C48.0075 33.5692 48.0004 33.6715 48.0049 33.7648L48.0924 33.7927C48.1332 33.7519 48.189 33.6994 48.257 33.634C48.3711 33.5264 48.4592 33.4454 48.5195 33.3897L48.9019 33.0133L49.1728 32.7697L48.8034 33.5504C48.7302 33.7078 48.6828 33.8005 48.666 33.8251C48.6459 33.8542 48.6329 33.8588 48.6284 33.8594C48.62 33.8594 48.5915 33.8529 48.4716 33.8225L48.4353 33.9449L49.0601 34.2403L49.1067 34.1004C49.0814 34.0855 49.0043 34.0434 48.9862 33.9961C48.9927 33.9728 49.0153 33.9132 49.0549 33.816C49.062 33.7998 49.0886 33.7428 49.1333 33.6469L49.5436 32.7924C49.5721 32.7322 49.5948 32.7127 49.6259 32.7043C49.6492 32.7043 49.6848 32.7166 49.7315 32.7393L49.7626 32.7542L49.8067 32.6143L49.515 32.486ZM49.7801 32.624L49.773 32.6201L49.7814 32.6233L49.7801 32.624ZM48.3562 33.3392L48.397 32.532L48.3705 33.3275C48.3653 33.3321 48.362 33.3353 48.3562 33.3392ZM47.955 31.7831L47.9537 31.7857L47.9544 31.7824C47.9544 31.7824 47.9544 31.7831 47.955 31.7831ZM47.2337 33.3547C47.2356 33.3554 47.2375 33.3567 47.2395 33.3567C47.2382 33.3567 47.2349 33.3547 47.2337 33.3547ZM47.6783 33.5433L47.6802 33.5387L47.6796 33.5439C47.6789 33.5433 47.6783 33.5433 47.6783 33.5433ZM48.1002 32.2119L48.084 32.5579L48.0827 32.2495L48.1002 32.2119ZM49.2104 32.736L49.0264 33.1254L49.1793 32.7639L49.2104 32.736ZM48.4618 33.9346L48.4696 33.9385L48.4612 33.9352L48.4618 33.9346Z" fill="#7B5A3E"/>
</svg>
