<svg width="118" height="26" viewBox="0 0 118 26" fill="none" xmlns="http://www.w3.org/2000/svg">
<g clip-path="url(#clip0_185_4238)">
<path d="M110.494 23.1581C112.158 23.1581 113.579 22.7031 114.759 21.7931C115.938 20.8831 116.741 19.6841 117.168 18.1941L114.905 17.5263C114.614 18.5515 114.077 19.3736 113.294 19.9926C112.511 20.6117 111.578 20.9202 110.494 20.9202C109.566 20.9202 108.738 20.6937 108.014 20.2387C107.287 19.7837 106.727 19.1647 106.331 18.3816C105.934 17.5985 105.735 16.7334 105.735 15.7844C105.735 14.8373 105.932 13.9702 106.331 13.1872C106.727 12.4041 107.287 11.7851 108.014 11.3301C108.738 10.8751 109.566 10.6486 110.494 10.6486C111.578 10.6486 112.511 10.9688 113.294 11.6074C114.077 12.2459 114.614 13.0778 114.905 14.103L117.168 13.4352C116.743 11.9452 115.94 10.7364 114.759 9.8069C113.579 8.87738 112.158 8.41456 110.494 8.41456C109.102 8.41456 107.854 8.74459 106.75 9.40072C105.647 10.0588 104.786 10.9493 104.167 12.0702C103.548 13.193 103.239 14.4311 103.239 15.7844C103.239 17.1396 103.548 18.3777 104.167 19.4986C104.786 20.6214 105.647 21.5119 106.75 22.168C107.854 22.83 109.102 23.1581 110.494 23.1581ZM82.6354 14.4233V22.8671H85.1311V14.5092C85.1311 13.3297 85.4786 12.3963 86.1758 11.7089C86.871 11.0215 87.7517 10.6778 88.816 10.6778C89.8802 10.6778 90.7551 11.0215 91.4425 11.7089C92.1298 12.3963 92.4735 13.3297 92.4735 14.5092V22.8671H94.9692V14.4233C94.9692 13.1852 94.7075 12.1151 94.1861 11.2168C93.6628 10.3166 92.9383 9.62529 92.0088 9.141C91.0812 8.65671 90.0169 8.41456 88.8179 8.41456C87.617 8.41456 86.5488 8.65671 85.6114 9.141C84.6721 9.62529 83.9438 10.3166 83.4204 11.2168C82.8971 12.1171 82.6354 13.1852 82.6354 14.4233ZM67.9504 15.7863C67.9504 14.8392 68.1535 13.9722 68.5597 13.1891C68.9659 12.4061 69.5361 11.787 70.2723 11.332C71.0065 10.877 71.8482 10.6505 72.7972 10.6505C73.7443 10.6505 74.586 10.879 75.3222 11.332C76.0564 11.787 76.6286 12.4061 77.0348 13.1891C77.441 13.9722 77.6441 14.8392 77.6441 15.7863C77.6441 16.7354 77.441 17.6005 77.0348 18.3835C76.6286 19.1666 76.0564 19.7856 75.3222 20.2406C74.586 20.6956 73.7443 20.9222 72.7972 20.9222C71.8501 20.9222 71.0085 20.6956 70.2723 20.2406C69.5361 19.7856 68.9659 19.1666 68.5597 18.3835C68.1535 17.6005 67.9504 16.7354 67.9504 15.7863ZM72.7972 23.1581C74.2091 23.1581 75.4765 22.83 76.5993 22.172C77.7202 21.5139 78.5912 20.6253 79.2102 19.5025C79.8292 18.3796 80.1378 17.1435 80.1378 15.7883C80.1378 14.435 79.8292 13.1969 79.2102 12.0741C78.5912 10.9512 77.7202 10.0627 76.5993 9.40463C75.4765 8.74654 74.2091 8.41847 72.7972 8.41847C71.3854 8.41847 70.118 8.74849 68.9952 9.40463C67.8723 10.0627 67.0033 10.9532 66.3843 12.0741C65.7653 13.1969 65.4567 14.435 65.4567 15.7883C65.4567 17.1435 65.7653 18.3816 66.3843 19.5025C67.0033 20.6253 67.8743 21.5158 68.9952 22.172C70.118 22.83 71.3854 23.1581 72.7972 23.1581ZM52.2813 14.105C52.5722 12.9821 53.117 12.0936 53.9216 11.4355C54.7242 10.7774 55.6869 10.4494 56.8098 10.4494C57.9697 10.4494 58.909 10.7677 59.6237 11.4062C60.3385 12.0448 60.8032 12.945 61.0161 14.105H52.2813ZM56.8664 23.1581C58.3368 23.1581 59.6179 22.8144 60.7114 22.129C61.8031 21.4416 62.6408 20.4984 63.2208 19.2994L61.4515 18.1668C61.0258 19.0573 60.4263 19.7622 59.653 20.2856C58.8797 20.8089 57.9795 21.0686 56.9543 21.0686C56.0052 21.0686 55.1636 20.8499 54.4293 20.4164C53.6931 19.9809 53.119 19.3814 52.7031 18.6179C52.2871 17.8543 52.0684 17.0068 52.0508 16.0793H63.6016C63.6602 14.5698 63.4278 13.236 62.9044 12.0741C62.3811 10.9141 61.598 10.0139 60.5533 9.37534C59.5085 8.73677 58.2607 8.41847 56.8098 8.41847C55.4174 8.41847 54.1696 8.74849 53.0663 9.40463C51.9629 10.0627 51.1076 10.9532 50.4984 12.0741C49.8891 13.1969 49.5845 14.435 49.5845 15.7883C49.5845 17.1435 49.8891 18.3816 50.4984 19.5025C51.1076 20.6253 51.9688 21.5158 53.0819 22.172C54.1911 22.83 55.4545 23.1581 56.8664 23.1581ZM35.5947 15.7863C35.5947 14.8392 35.7978 13.9722 36.204 13.1891C36.6101 12.4061 37.1764 11.787 37.9009 11.332C38.6254 10.877 39.4632 10.6505 40.4103 10.6505C41.3574 10.6505 42.199 10.879 42.9352 11.332C43.6695 11.787 44.2416 12.4061 44.6478 13.1891C45.054 13.9722 45.2571 14.8392 45.2571 15.7863C45.2571 16.7354 45.054 17.6005 44.6478 18.3835C44.2416 19.1666 43.6695 19.7856 42.9352 20.2406C42.199 20.6956 41.3574 20.9222 40.4103 20.9222C39.4632 20.9222 38.6254 20.6956 37.9009 20.2406C37.1745 19.7856 36.6101 19.1666 36.204 18.3835C35.7978 17.6005 35.5947 16.7354 35.5947 15.7863ZM40.4415 23.1581C41.8729 23.1581 43.1403 22.83 44.2436 22.172C45.3469 21.5139 46.2022 20.6253 46.8115 19.5025C47.4208 18.3796 47.7254 17.1435 47.7254 15.7883C47.7254 14.435 47.4247 13.1969 46.8252 12.0741C46.2257 10.9512 45.3938 10.0627 44.3295 9.40463C43.2652 8.74654 42.0662 8.41847 40.7305 8.41847C39.5901 8.41847 38.5727 8.67428 37.6842 9.18787C36.7937 9.70145 36.0965 10.422 35.5947 11.3496V2.17736H33.1283V15.7863C33.1283 17.1982 33.429 18.4617 34.0285 19.5728C34.6281 20.6859 35.4795 21.5607 36.5828 22.1993C37.6842 22.8398 38.9711 23.1581 40.4415 23.1581ZM98.1893 8.70553H100.685V22.8671H98.1893V8.70553ZM99.4372 6.47545C98.4862 6.47545 97.7168 5.70605 97.7168 4.75504C97.7168 3.80598 98.4862 3.03463 99.4372 3.03463C100.388 3.03463 101.158 3.80598 101.158 4.75504C101.158 5.70605 100.388 6.47545 99.4372 6.47545ZM12.6807 25.3335C9.43514 25.3335 6.1896 24.0974 3.71933 21.6271C0.307806 18.2156 -0.86582 13.2477 0.653449 8.66647C0.811625 8.18999 1.32716 7.93418 1.80169 8.0904C2.27817 8.24858 2.53594 8.76216 2.37776 9.23864C1.07525 13.1657 2.08094 17.4208 5.00426 20.3441C9.23595 24.5758 16.1234 24.5758 20.3571 20.3441C24.5888 16.1125 24.5888 9.22497 20.3571 4.99133C16.3402 0.976394 9.9331 0.769399 5.67407 4.3762L8.96842 7.67055C10.0366 6.87381 11.3254 6.44225 12.6826 6.44225C14.3444 6.44225 15.9086 7.09057 17.0842 8.26615C19.5115 10.6935 19.5115 14.642 17.0842 17.0693C15.9086 18.2449 14.3444 18.8932 12.6826 18.8932C11.0208 18.8932 9.45662 18.2449 8.28104 17.0693C7.24411 16.0343 6.60555 14.6596 6.48057 13.1969C6.43761 12.697 6.80864 12.2577 7.30855 12.2147C7.80846 12.1659 8.24784 12.5428 8.2908 13.0427C8.37868 14.0776 8.83172 15.0501 9.56597 15.7844C10.3998 16.6182 11.507 17.0752 12.6846 17.0752C13.8621 17.0752 14.9693 16.6163 15.8032 15.7844C17.5216 14.0659 17.5216 11.2676 15.8032 9.54913C14.9713 8.71725 13.8641 8.25834 12.6846 8.25834C11.507 8.25834 10.3998 8.71725 9.56793 9.54913C9.21252 9.90454 8.6384 9.90454 8.28299 9.54913L3.72323 4.99133C3.55334 4.82143 3.45765 4.58905 3.45765 4.34886C3.45765 4.10867 3.55334 3.87628 3.72323 3.70639C8.66379 -1.23416 16.7034 -1.23416 21.644 3.70639C26.5845 8.64695 26.5845 16.6866 21.644 21.6271C19.1717 24.0974 15.9262 25.3335 12.6807 25.3335Z" fill="black"/>
</g>
<defs>
<clipPath id="clip0_185_4238">
<rect width="117.168" height="25.9004" fill="white"/>
</clipPath>
</defs>
</svg>
