<svg width="135" height="49" viewBox="0 0 135 49" fill="none" xmlns="http://www.w3.org/2000/svg">
<g clip-path="url(#clip0_185_4044)">
<path d="M16.1332 21.4677C11.3173 19.1058 7.68732 16.4372 5.22746 14.4546C5.88701 14.8172 6.57597 15.1455 7.27277 15.419C12.2023 17.3457 14.6416 17.6534 16.0989 17.8367C16.434 17.8788 16.7222 17.9151 16.9721 17.9641L17.0936 17.9866L17.3376 16.4353L17.2151 16.4206C8.5223 15.3376 3.46929 11.7615 1.0408 10.0435C0.710527 9.80931 0.42632 9.60841 0.185234 9.44964L9.75981e-06 9.3291V9.54863C-0.00293031 10.119 0.658586 11.0216 1.71309 11.981C1.86303 12.6465 2.93714 15.0074 10.4333 19.5782C10.4804 19.6056 15.1982 22.3909 18.5381 23.6325C18.6597 23.6776 18.7655 23.7129 18.8478 23.7129C18.9125 23.7129 18.9625 23.6913 18.9909 23.6325C19.0448 23.5247 19.1262 23.3591 16.1332 21.4677ZM19.5123 12.7582V12.7592C19.5005 12.8244 19.5032 12.8915 19.5202 12.9555C19.5372 13.0196 19.568 13.0792 19.6106 13.13C19.6531 13.1809 19.7063 13.2218 19.7663 13.2498C19.8264 13.2779 19.8919 13.2924 19.9582 13.2923C20.0626 13.2916 20.1635 13.2548 20.2439 13.1881C20.3242 13.1215 20.3791 13.0292 20.3992 12.9268C20.4211 12.8094 20.3958 12.6881 20.3288 12.5892C20.2619 12.4903 20.1586 12.4218 20.0415 12.3985C19.9237 12.3769 19.8022 12.4026 19.7031 12.4699C19.6041 12.5372 19.5356 12.6407 19.5123 12.7582Z" fill="#2C73C3"/>
<path d="M35.3377 3.76917L35.3995 3.56337C35.4063 3.53593 35.4201 3.50064 35.4357 3.46144C35.4759 3.3556 35.523 3.23604 35.5102 3.13706C35.4083 2.38244 34.9575 0.587034 34.7262 0.248926L34.5557 0L34.5106 0.297927C34.4479 0.706597 34.3303 1.11723 34.2166 1.51414L34.1646 1.69838C33.9471 2.4579 33.6952 3.25662 33.4179 4.07396C33.1049 5.00391 32.764 5.92425 32.3957 6.83371C32.0482 7.7101 31.6547 8.56751 31.2167 9.40235C30.37 10.987 29.6261 12.1601 28.8774 13.0941C28.2855 13.8291 27.6387 14.5592 26.9076 14.9169C26.3078 15.2109 25.7168 15.306 25.1474 15.1953C24.4222 15.0571 23.9058 14.1672 23.3599 13.2264C22.6739 12.0465 21.8987 10.7087 20.4953 10.4431C19.6368 10.2785 18.9821 10.6538 18.2892 11.0507C17.5611 11.4682 16.8074 11.9014 15.751 11.6995C15.7142 11.6903 15.6758 11.6888 15.6384 11.6951C15.601 11.7014 15.5653 11.7153 15.5335 11.736C15.5016 11.7567 15.4744 11.7837 15.4535 11.8154C15.4326 11.847 15.4184 11.8827 15.4119 11.92C15.3825 12.0729 15.4707 12.214 15.6157 12.2425C16.3998 12.3924 18.7861 12.8501 18.0521 16.7006C17.7277 18.4156 17.7355 19.8876 18.8243 21.4909C19.8014 22.9267 21.0255 23.6529 22.2093 24.3555C22.372 24.4526 22.5347 24.5486 22.6964 24.6466C23.1541 24.923 23.6862 25.264 24.1596 25.6913C24.2772 25.7991 24.3918 25.9138 24.5045 26.0373C24.972 26.6135 25.121 27.2378 24.974 28.0042C24.6261 29.827 22.9414 31.0717 21.9359 31.8155L21.3283 32.2643L22.0437 32.0242C23.9391 31.3892 25.1386 30.5091 25.7756 29.2753C25.7933 29.5438 25.7982 29.826 25.7903 30.1191C25.7649 30.8282 25.6843 31.5344 25.5493 32.231C25.1592 34.2891 23.4559 38.4179 20.8951 41.1561L20.656 41.4109L21.0019 41.3541C22.2446 41.1502 23.8411 40.7513 24.3526 40.4152L24.4222 40.3299C25.4052 38.9383 26.2549 37.7368 26.9673 33.9931C27.2633 32.4388 27.3153 30.7482 27.1232 28.9656C26.9174 27.0604 25.9736 25.1464 24.7182 24.09C24.2429 23.6882 23.7166 23.3491 23.2188 23.0413L22.6699 22.7072C20.6766 21.4909 20.1405 21.1646 19.4947 19.0027C19.1272 17.7737 19.1771 16.8495 19.2222 16.0342C19.2634 15.2678 19.2996 14.6063 18.9831 13.8977C18.4764 12.7707 17.8061 12.3473 17.3376 12.1552C17.4523 12.1151 17.5728 12.07 17.6953 12.0239C18.3843 11.7662 19.2408 11.4467 20.1013 11.6103C20.3767 11.6623 20.6139 11.8759 20.8285 12.1004C21.1342 12.4169 21.4067 12.7903 21.6468 13.1186C21.7379 13.2431 21.8281 13.3705 21.9192 13.4988C22.3701 14.1319 22.8375 14.7876 23.4657 15.2531C24.1204 15.7411 24.9701 15.9783 25.855 15.9244C27.4632 15.8225 29.0773 14.5249 30.1475 13.4547C31.3726 12.2317 32.2791 10.7332 33.0023 9.42979C33.5374 8.46936 34.0294 7.42074 34.4645 6.31527C34.7956 5.48082 35.087 4.63117 35.3377 3.76917ZM43.9276 25.3875C43.0701 26.4724 41.996 26.9997 40.6426 26.9997C39.9528 27.0087 39.272 26.8424 38.6639 26.5165C38.0883 26.2026 37.612 25.7337 37.289 25.1631C36.9564 24.599 36.7817 23.9559 36.7833 23.301C36.7833 22.2799 37.14 21.4361 37.875 20.7226C38.61 20.0052 39.5156 19.6573 40.6367 19.6573C42.0391 19.6573 43.1162 20.1836 43.9257 21.2646L44.0688 21.4557L45.478 20.5785L45.3428 20.359C45.051 19.8686 44.6677 19.4388 44.2138 19.0928C43.7797 18.7665 43.2406 18.497 42.6164 18.2931C41.9904 18.0909 41.3366 17.9881 40.6789 17.9883C39.6175 17.9883 38.6414 18.2265 37.779 18.694C36.9279 19.1526 36.2194 19.8365 35.7307 20.6707C35.239 21.4998 34.9815 22.4468 34.9859 23.4108C34.9859 24.8652 35.523 26.1225 36.5804 27.1398C37.6378 28.1522 38.9824 28.6686 40.5809 28.6686C41.6158 28.6686 42.5497 28.4638 43.37 28.063C44.1678 27.6765 44.847 27.0828 45.3369 26.344L45.4839 26.1255L44.0786 25.2013L43.9276 25.3875ZM55.243 25.2297C54.9362 25.7723 54.4841 26.2186 53.9376 26.5185C53.3885 26.8346 52.766 27.0009 52.1324 27.0006C51.5129 27.0016 50.9048 26.835 50.3723 26.5185C49.8232 26.1938 49.3716 25.7273 49.0649 25.168C48.746 24.6143 48.5768 23.9871 48.5739 23.3481C48.5739 22.713 48.7396 22.0986 49.059 21.5282C49.3645 20.9755 49.813 20.5152 50.3576 20.1953C50.9001 19.8835 51.5154 19.7206 52.1412 19.723C53.1546 19.723 53.9807 20.066 54.6736 20.7677C55.3645 21.4733 55.6987 22.3298 55.6987 23.3843C55.6987 24.0664 55.5458 24.6878 55.243 25.2297ZM55.635 19.5897C55.2332 19.1526 54.8039 18.7763 54.3208 18.5215C53.6387 18.1687 52.8723 17.9883 52.0403 17.9883C50.5977 17.9883 49.3481 18.5126 48.3221 19.5495C47.296 20.5825 46.7785 21.8477 46.7785 23.302C46.7785 24.7877 47.2911 26.0657 48.3064 27.1016C49.3227 28.1424 50.5683 28.6696 52.006 28.6696C52.8116 28.6696 53.5671 28.4971 54.2502 28.1659C54.752 27.9219 55.2067 27.5543 55.635 27.131V28.4295H57.4128V18.2275H55.635V19.5897ZM60.7782 28.4305H62.5569V19.8308H64.5287V18.2284H62.5569V14.6318H60.7772V18.2284H59.067V19.8298H60.7772V28.4295L60.7782 28.4305ZM73.5704 18.5832C72.9657 18.1912 72.267 17.9883 71.4928 17.9883C70.7479 17.9883 70.0423 18.1647 69.3985 18.5146C68.9427 18.7655 68.5213 19.1389 68.1185 19.5691V14.4808H66.3398V28.4295H68.1185V24.6241C68.1185 23.3716 68.1744 22.5092 68.2851 22.0564C68.4593 21.3836 68.8435 20.7839 69.3818 20.3443C69.9345 19.8837 70.5441 19.6583 71.2409 19.6583C71.8367 19.6583 72.3209 19.8014 72.6776 20.0866C73.0343 20.3698 73.2872 20.8088 73.4254 21.388C73.5116 21.7379 73.5528 22.468 73.5528 23.5568V28.4295H75.3296V23.1923C75.3296 21.8232 75.1943 20.8382 74.9081 20.1777C74.6297 19.5256 74.1642 18.9707 73.5704 18.5832ZM85.4728 25.2013C85.1768 25.7425 84.7369 26.1912 84.2017 26.4979C83.6725 26.8017 83.0835 26.9546 82.4475 26.9546C81.831 26.9605 81.224 26.8029 80.6883 26.4979C80.1539 26.1906 79.7144 25.742 79.4182 25.2013C79.1064 24.6432 78.9443 24.0139 78.9478 23.3745C78.9478 22.3514 79.2849 21.5076 79.9827 20.7873C80.6756 20.0699 81.4821 19.723 82.4465 19.723C83.403 19.723 84.2046 20.0699 84.9034 20.7883C85.6031 21.5076 85.9422 22.3514 85.9422 23.3755C85.9422 24.0243 85.7835 24.6388 85.4728 25.2013ZM87.7396 23.3549C87.7396 21.9525 87.2711 20.7187 86.3382 19.6897C85.314 18.5597 84.0037 17.9883 82.4494 17.9883C80.8853 17.9883 79.575 18.5656 78.5479 19.7004C77.6199 20.7265 77.1485 21.9565 77.1485 23.3559C77.1485 24.7672 77.6483 26.0167 78.6264 27.0683C79.6142 28.1306 80.898 28.6686 82.4484 28.6686C83.992 28.6686 85.2748 28.1296 86.2627 27.0683C87.2427 26.0167 87.7396 24.7662 87.7396 23.3549ZM91.5558 14.4799H89.782V28.4305H91.5558V14.4799ZM95.1241 16.8201C95.2951 16.8223 95.4648 16.79 95.6231 16.7252C95.7813 16.6604 95.9249 16.5643 96.0453 16.4428C96.1674 16.326 96.2644 16.1856 96.3304 16.0301C96.3965 15.8746 96.4302 15.7072 96.4295 15.5383C96.4295 15.1825 96.2981 14.8738 96.0453 14.6229C95.9251 14.501 95.7816 14.4046 95.6233 14.3392C95.4651 14.2739 95.2953 14.2411 95.1241 14.2427C94.7722 14.2427 94.4675 14.372 94.2117 14.6229C94.0878 14.7406 93.9897 14.8827 93.9236 15.0403C93.8574 15.1979 93.8247 15.3674 93.8275 15.5383C93.8275 15.8862 93.9549 16.192 94.2117 16.4428C94.4665 16.6937 94.7703 16.8201 95.1241 16.8201ZM94.2372 28.4305H96.0179V18.2284H94.2372V28.4305ZM103.661 28.6686C104.697 28.6686 105.634 28.4638 106.448 28.063C107.246 27.6754 107.926 27.082 108.418 26.344L108.56 26.1235L107.16 25.2013L107.011 25.3895C106.152 26.4744 105.078 27.0016 103.725 27.0016C103.034 27.01 102.353 26.843 101.744 26.5165C101.168 26.2027 100.692 25.7343 100.368 25.1641C100.038 24.5991 99.8631 23.9565 99.8625 23.302C99.8625 22.2818 100.218 21.438 100.956 20.7226C101.683 20.017 102.61 19.6583 103.716 19.6583C105.12 19.6583 106.197 20.1836 107.008 21.2655L107.148 21.4566L108.557 20.5795L108.424 20.359C108.134 19.869 107.751 19.4397 107.298 19.0948C106.862 18.7645 106.321 18.497 105.7 18.2951C105.072 18.0915 104.417 17.988 103.757 17.9883C102.696 17.9883 101.722 18.2265 100.862 18.6959C100.011 19.1544 99.302 19.8374 98.8119 20.6707C98.3198 21.4997 98.062 22.4468 98.0661 23.4108C98.0661 24.8671 98.6041 26.1235 99.6635 27.1418C100.717 28.1531 102.065 28.6686 103.661 28.6686ZM43.127 37.6055C42.5242 37.2135 41.8274 37.0116 41.0532 37.0116C40.3215 37.008 39.6006 37.1887 38.957 37.5369C38.5003 37.7878 38.0779 38.1611 37.679 38.5914V33.5031H35.9012V47.4518H37.678V43.6463C37.678 42.3939 37.7368 41.5314 37.8466 41.0787C38.0203 40.4064 38.4034 39.8068 38.9403 39.3666C39.494 38.906 40.0997 38.6806 40.8004 38.6806C41.3972 38.6806 41.8804 38.8246 42.24 39.1088C42.5977 39.3921 42.8477 39.8311 42.9888 40.4103C43.0682 40.7602 43.1132 41.4913 43.1132 42.5791V47.4518H44.891V42.2145C44.891 40.8464 44.7509 39.8605 44.4676 39.2C44.1893 38.5476 43.7233 37.9926 43.1289 37.6055H43.127ZM48.8258 41.1061C49.06 40.4544 49.353 39.9154 49.7431 39.5714C50.387 39.001 51.1298 38.7237 52.0226 38.7237C52.5542 38.7222 53.0795 38.838 53.5613 39.0628C54.0464 39.2862 54.4404 39.5832 54.7295 39.9448C54.9676 40.2408 55.1499 40.6455 55.2979 41.1061H48.8258ZM57.2834 42.4478C57.2697 41.0748 56.8933 39.9105 56.1564 38.9853C55.1273 37.676 53.7259 37.0116 52.004 37.0116C50.3262 37.0116 48.9699 37.6633 47.9624 38.9422C47.1867 39.9188 46.7695 41.132 46.7805 42.3792C46.7805 43.7414 47.2489 44.9733 48.176 46.0494C49.1139 47.1372 50.4232 47.6919 52.0736 47.6919C52.8155 47.6919 53.4878 47.5743 54.0768 47.3508C54.6696 47.1252 55.2138 46.7882 55.6801 46.3581C56.1534 45.9269 56.5719 45.3545 56.9286 44.6587L57.0472 44.4284L55.5527 43.6444L55.4253 43.8541C55.0627 44.4558 54.7246 44.8919 54.4168 45.1526C54.0902 45.4292 53.715 45.6426 53.3104 45.7818C52.8792 45.9435 52.4264 46.0229 51.9677 46.0229C51.0112 46.0229 50.2282 45.6975 49.5785 45.0262C48.9934 44.4235 48.7004 43.6307 48.6259 42.7085H57.2863L57.2834 42.4478ZM67.1738 44.253C66.8675 44.7953 66.4161 45.2416 65.8704 45.5417C65.3215 45.8575 64.6994 46.0238 64.0661 46.0239C63.4466 46.0255 62.8382 45.8588 62.306 45.5417C61.756 45.2183 61.3039 44.752 60.9977 44.1922C60.6794 43.6379 60.5105 43.0105 60.5077 42.3713C60.5077 41.7363 60.6743 41.1218 60.9908 40.5514C61.297 39.9983 61.7466 39.5379 62.2923 39.2186C62.8342 38.9071 63.4489 38.7444 64.074 38.7472C65.0834 38.7472 65.9145 39.0892 66.6073 39.7919C67.2963 40.4975 67.6315 41.3521 67.6315 42.4066C67.6315 43.0897 67.4805 43.71 67.1738 44.253ZM67.5678 38.6129C67.166 38.1768 66.7367 37.7995 66.2536 37.5447C65.5715 37.1919 64.809 37.0116 63.975 37.0116C62.5334 37.0116 61.2799 37.5369 60.2558 38.5728C59.2307 39.6057 58.7074 40.8709 58.7074 42.3253C58.7074 43.811 59.2278 45.0889 60.2391 46.1248C61.2554 47.1656 62.503 47.6929 63.9378 47.6929C64.7463 47.6929 65.5029 47.5204 66.185 47.1891C66.6818 46.9451 67.1356 46.5776 67.5678 46.1542V47.4527H69.3455V37.2517H67.5678V38.6129ZM72.0563 33.5031V47.4537H73.8331V33.5031H72.0563ZM78.8616 33.656H77.0848V37.2527H75.3737V38.854H77.0848V47.4537H78.8616V38.854H80.8314V37.2527H78.8616V33.656ZM89.8388 37.6055C89.24 37.2135 88.5383 37.0116 87.7661 37.0116C87.0173 37.0116 86.3156 37.188 85.6727 37.5369C85.2151 37.7878 84.7936 38.1611 84.3889 38.5914V33.5031H82.6141V47.4518H84.3899V43.6463C84.3899 42.3939 84.4487 41.5314 84.5624 41.0787C84.7325 40.4051 85.1158 39.8046 85.6551 39.3666C86.1699 38.9186 86.8308 38.6746 87.5132 38.6806C88.1071 38.6806 88.5893 38.8246 88.948 39.1088C89.3086 39.3921 89.5595 39.8311 89.6987 40.4103C89.7839 40.7602 89.827 41.4913 89.827 42.5791V47.4518H91.6038V42.2145C91.6038 40.8464 91.4627 39.8605 91.1824 39.2C90.9016 38.5476 90.4341 37.9929 89.8388 37.6055ZM102.234 44.4108C101.376 45.4956 100.303 46.0229 98.9471 46.0229C98.2209 46.0229 97.5555 45.8592 96.9704 45.5397C96.3942 45.2258 95.9173 44.757 95.5935 44.1863C95.262 43.6218 95.0871 42.979 95.0868 42.3243C95.0868 41.3031 95.4445 40.4593 96.1776 39.7458C96.9175 39.0294 97.8172 38.6815 98.9422 38.6815C100.347 38.6815 101.419 39.2078 102.233 40.2888L102.373 40.4789L103.783 39.6028L103.649 39.3823C103.358 38.8915 102.975 38.4615 102.52 38.1161C102.083 37.7897 101.547 37.5202 100.925 37.3173C100.298 37.1149 99.6432 37.0117 98.9844 37.0116C97.922 37.0116 96.944 37.2497 96.0884 37.7172C95.2363 38.1754 94.5266 38.8593 94.0372 39.6939C93.5446 40.5228 93.2862 41.4698 93.2895 42.434C93.2895 43.8894 93.8255 45.1458 94.8898 46.164C95.9444 47.1764 97.2909 47.6929 98.8864 47.6929C99.9203 47.6929 100.857 47.4871 101.672 47.0862C102.471 46.6997 103.152 46.1061 103.644 45.3673L103.787 45.1487L102.377 44.2246L102.234 44.4108ZM113.67 44.253C113.366 44.792 112.925 45.2261 112.364 45.5417C111.816 45.8573 111.195 46.0236 110.562 46.0239C109.943 46.0255 109.334 45.8589 108.802 45.5417C108.252 45.2173 107.799 44.7513 107.49 44.1922C107.171 43.6381 107.003 43.0105 107.001 42.3713C107.001 41.7363 107.165 41.1218 107.487 40.5514C107.792 39.9978 108.241 39.5372 108.787 39.2186C109.328 38.9061 109.944 38.7434 110.569 38.7472C111.583 38.7472 112.408 39.0892 113.099 39.7919C113.789 40.4975 114.13 41.3541 114.13 42.4066C114.137 43.0513 113.979 43.687 113.67 44.253ZM114.064 38.6129C113.662 38.1758 113.231 37.7995 112.745 37.5447C112.069 37.1919 111.299 37.0116 110.465 37.0116C109.022 37.0116 107.774 37.5369 106.746 38.5728C105.723 39.6057 105.206 40.8709 105.206 42.3253C105.206 43.811 105.72 45.0889 106.733 46.1248C107.75 47.1656 108.992 47.6929 110.434 47.6929C111.239 47.6929 111.995 47.5204 112.676 47.1891C113.18 46.9451 113.633 46.5776 114.064 46.1542V47.4527H115.84V37.2517H114.064V38.6129ZM122.232 37.0116C121.724 37.0116 121.236 37.1635 120.777 37.4624C120.498 37.6427 120.235 37.8975 119.976 38.1905V37.2507H118.199V47.4527H119.976V43.9227C119.976 42.2782 120.048 41.1777 120.198 40.6504C120.385 39.9889 120.652 39.4979 120.999 39.1902C121.335 38.8922 121.676 38.7462 122.024 38.7462L122.767 38.9422L122.904 38.7923L123.696 37.5084L123.459 37.3761C123.032 37.137 122.619 37.0116 122.232 37.0116ZM126.731 39.5714C127.369 39.002 128.114 38.7237 129.008 38.7237C129.544 38.7237 130.061 38.8374 130.548 39.0628C131.029 39.2862 131.423 39.5832 131.714 39.9448C131.951 40.2388 132.136 40.6426 132.281 41.1061H125.81C126.044 40.4544 126.34 39.9164 126.731 39.5714ZM132.407 43.8541C132.046 44.4539 131.708 44.8919 131.405 45.1526C131.077 45.4287 130.701 45.6419 130.296 45.7818C129.865 45.9416 129.408 46.0232 128.948 46.0229C127.992 46.0229 127.215 45.6975 126.563 45.0262C125.982 44.4235 125.682 43.6307 125.608 42.7085H134.269L134.267 42.4478C134.256 41.0748 133.878 39.9105 133.144 38.9853C132.112 37.676 130.715 37.0116 128.987 37.0116C127.31 37.0116 125.953 37.6633 124.949 38.9422C124.171 39.9179 123.752 41.1313 123.762 42.3792C123.762 43.7414 124.232 44.9733 125.16 46.0503C126.097 47.1382 127.406 47.6919 129.055 47.6919C129.795 47.6919 130.475 47.5753 131.063 47.3508C131.656 47.1243 132.2 46.7874 132.668 46.3581C133.137 45.9278 133.557 45.3545 133.913 44.6587L134.032 44.4294L132.535 43.6454L132.407 43.8541Z" fill="#2C73C3"/>
</g>
<defs>
<clipPath id="clip0_185_4044">
<rect width="134.263" height="48.0212" fill="white"/>
</clipPath>
</defs>
</svg>
