<svg width="134" height="34" viewBox="0 0 134 34" fill="none" xmlns="http://www.w3.org/2000/svg">
<g clip-path="url(#clip0_185_4318)">
<path d="M55.2578 25.3616H44.2622V19.8317H55.5541C56.2236 19.9006 56.8442 20.2141 57.2967 20.7122C57.7493 21.2103 58.0021 21.8579 58.0067 22.5308C58.0029 23.2663 57.7146 23.9718 57.2022 24.4995C56.6898 25.0272 55.993 25.3361 55.2578 25.3616ZM44.2622 7.25759H55.7846C56.4191 7.34732 57.0011 7.65986 57.4263 8.13929C57.8515 8.61873 58.0923 9.23379 58.1055 9.87445C58.0995 10.5381 57.8606 11.1786 57.4303 11.684C57.0001 12.1894 56.4059 12.5276 55.7516 12.6394H44.2293L44.2622 7.25759ZM60.6239 16.0957C64.8378 14.6967 65.5621 11.1582 65.5621 8.278C65.5621 3.86719 62.451 0.0488864 53.2496 0.0488864H36.1143V33.0641H53.2332C62.5498 33.0641 65.8419 28.3241 65.8419 23.5677C65.8356 21.9268 65.3298 20.3267 64.3918 18.9802C63.4539 17.6337 62.1282 16.6046 60.591 16.0298M104.31 -0.000488281V33.1299H133.33V25.5756H112.392V19.7494H131.272V12.5571H112.392V7.22467H133.33V-0.000488281H104.31ZM91.833 10.3024C91.7307 10.9211 91.4175 11.4853 90.9464 11.8993C90.4753 12.3133 89.8755 12.5516 89.2487 12.5736H77.9239V7.2905H89.2487C89.8882 7.28675 90.5065 7.52025 90.9838 7.94585C91.4612 8.37146 91.7637 8.95893 91.833 9.59466V10.3024ZM87.438 -0.000488281H69.9076V33.0805H77.9568V19.7494H86.829C88.0485 19.7753 89.208 20.2836 90.0535 21.1628C90.8989 22.042 91.3612 23.2205 91.3391 24.44V33.1135H99.2237V22.4156C99.1858 20.9864 98.7067 19.604 97.8521 18.4578C96.9975 17.3115 95.8092 16.4577 94.4502 16.0134C95.948 15.4856 97.2365 14.4904 98.1256 13.1747C99.0148 11.8589 99.4574 10.2923 99.3883 8.70591C99.3225 1.54658 93.1662 -0.000488281 87.438 -0.000488281ZM30.8799 25.1312C30.7647 25.1312 19.8678 25.3452 16.0655 24.9831C13.8154 24.9143 11.6847 23.9552 10.1415 22.3165C8.59825 20.6778 7.76876 18.4936 7.83526 16.2438C7.80569 14.0715 8.61308 11.9711 10.0901 10.3779C11.5672 8.78459 13.6006 7.82055 15.7692 7.6855C18.0572 7.3728 30.5836 7.52092 30.7317 7.52092H30.9951L31.1103 -0.000488281H30.847H16.6416C14.2867 0.0703154 11.9606 0.537699 9.76113 1.382C7.20529 2.54991 4.98168 4.33761 3.29217 6.5828C1.15524 9.43166 8.01776e-05 12.8967 8.01776e-05 16.4577C-0.00304237 17.5603 0.085047 18.6613 0.263447 19.7494C0.754011 22.2463 1.82849 24.5918 3.39908 26.5941C4.96968 28.5964 6.99181 30.1987 9.30024 31.2701C12.1524 32.4456 15.2028 33.0657 18.2876 33.097H20.9707H31.1268V25.1312H30.8799Z" fill="#003F2D"/>
</g>
<defs>
<clipPath id="clip0_185_4318">
<rect width="133.33" height="33.1304" fill="white"/>
</clipPath>
</defs>
</svg>
