<svg width="153" height="37" viewBox="0 0 153 37" fill="none" xmlns="http://www.w3.org/2000/svg">
<path d="M151.779 11.2978C152.149 11.6622 152.334 12.2089 152.334 12.7555C152.334 13.3022 152.149 13.8488 151.779 14.2133C151.41 14.5777 150.855 14.7599 150.3 14.7599C149.745 14.7599 149.191 14.5777 148.821 14.2133C148.451 13.8488 148.267 13.3022 148.267 12.7555C148.267 12.2089 148.451 11.8444 148.821 11.2978C149.191 10.9334 149.745 10.7511 150.3 10.7511C150.855 10.7511 151.41 10.9334 151.779 11.2978ZM152.149 11.1155C151.594 10.5689 151.04 10.3867 150.485 10.3867C149.931 10.3867 149.376 10.5689 148.821 11.1155C148.267 11.6622 148.082 12.2089 148.082 12.9377C148.082 13.6666 148.267 14.2133 148.821 14.5777C149.376 15.1243 149.931 15.3065 150.485 15.3065C151.225 15.3065 151.779 15.1243 152.149 14.5777C152.704 14.031 152.888 13.4844 152.888 12.9377C152.888 12.0266 152.519 11.48 152.149 11.1155ZM150.67 12.5733C150.67 12.5733 150.485 12.7555 150.3 12.7555H150.115V12.0266H150.3C150.485 12.0266 150.67 12.0266 150.67 12.0266C150.855 12.0266 150.855 12.2089 150.855 12.391C150.855 12.391 150.855 12.391 150.67 12.5733ZM150.115 13.1199H150.485C150.67 13.1199 150.67 13.1199 150.67 13.1199C150.855 13.1199 150.855 13.3022 150.855 13.3022C150.855 13.3022 150.855 13.4844 150.855 13.6666C150.855 13.8488 150.855 14.031 150.855 14.031H151.594V13.8488C151.594 13.6666 151.594 13.3022 151.41 13.3022C151.41 13.3022 151.225 13.1199 151.04 13.1199C151.225 13.1199 151.41 13.1199 151.594 12.9377C151.779 12.7555 151.779 12.7555 151.779 12.391C151.779 12.0266 151.594 11.8444 151.41 11.8444C151.04 11.48 150.855 11.48 150.67 11.48C150.67 11.48 150.485 11.48 150.115 11.48C149.745 11.48 149.561 11.48 149.376 11.48V14.2133H150.115V13.1199Z" fill="#054A47"/>
<path d="M53.9834 10.3867H43.2607C43.2607 10.3867 40.4879 23.8707 39.9332 27.515C39.3791 31.1593 38.8244 36.2613 51.5799 36.2613C56.7562 36.2613 62.4872 34.6214 64.1506 34.6214H67.1088L71.3604 10.3867H60.4538C60.4538 10.3867 57.8656 25.3284 57.4956 27.1506C57.1256 28.9727 56.0168 30.4305 53.4287 30.4305C50.8405 30.4305 50.4705 28.6083 51.0252 25.8751C51.7646 23.1418 53.9834 10.3867 53.9834 10.3867Z" fill="#054A47"/>
<path d="M97.7916 10.3867H87.0696C87.0696 10.3867 84.2968 23.8707 83.7421 27.515C83.1874 31.1593 82.6327 36.2613 95.3888 36.2613C100.565 36.2613 106.295 34.6214 107.96 34.6214H110.917L115.169 10.3867H104.262C104.262 10.3867 101.674 25.3284 101.305 27.1506C100.934 28.9727 99.8251 30.4305 97.2376 30.4305C94.6494 30.4305 94.2794 28.6083 94.8341 25.8751C95.3888 23.1418 97.7916 10.3867 97.7916 10.3867Z" fill="#054A47"/>
<path d="M80.2344 35.3499H69.5117L75.7974 0H86.5194L80.2344 35.3499Z" fill="#054A47"/>
<path d="M128.854 10.3867H116.838L121.829 22.4129L111.477 35.5325H121.274L126.821 28.6083L129.778 35.5325H141.98L136.433 22.4129L145.861 10.3867H136.618L131.442 16.7642L128.854 10.3867Z" fill="#054A47"/>
<path d="M26.4396 0.182129C40.6745 0.182129 40.8592 8.92849 40.4892 11.6618C40.1198 14.0306 40.1198 14.0306 38.271 24.4169C36.4223 34.8032 21.4483 35.5321 19.4148 35.5321H0.00390625L6.65904 0.182129H26.4396ZM17.0115 7.10634L13.4991 28.6078H19.2299C23.8515 28.6078 26.0699 25.5102 26.9942 21.137C27.9185 16.7638 27.7337 16.946 28.1034 14.395C28.4731 11.4795 28.2882 7.10634 22.9272 7.10634H17.0115Z" fill="#054A47"/>
</svg>
