<svg width="128" height="49" viewBox="0 0 128 49" fill="none" xmlns="http://www.w3.org/2000/svg">
<g clip-path="url(#clip0_185_2974)">
<path d="M49.348 25.2907C47.6032 25.8729 34.425 32.439 24.6948 48.0376C23.443 45.9157 22.0308 43.8911 20.4705 41.9812C26.7308 31.9123 37.6597 26.7426 49.348 25.2907ZM18.5025 39.6442C16.7654 37.6657 14.9214 35.7667 13.0979 34.0054C18.63 29.7286 26.6543 27.4513 34.5582 26.2989C35.6705 26.1365 38.1762 25.9017 38.3235 25.9129C27.6355 29.3447 21.6125 35.3673 18.5025 39.6442ZM11.1306 32.1479C9.43038 30.5786 7.79392 29.1535 6.32607 27.9209C11.5606 25.6711 21.1208 24.0927 26.1683 24.1946C28.1211 24.1866 30.0703 24.3626 31.9895 24.7205C21.4658 26.3953 15.0043 29.4312 11.1313 32.1444M4.08248 26.0725C1.74468 24.1883 0.210938 23.0795 0.210938 23.0795C5.05232 21.9145 15.1651 20.4366 22.1013 22.001C22.6071 22.1158 23.0973 22.2316 23.572 22.3483C13.5938 23.1336 7.60194 24.6818 4.07965 26.0746" fill="#ED1C24"/>
<path d="M7.62109 18.331C19.5035 13.3686 24.6963 0.220947 24.6963 0.220947C25.7654 2.39567 27.0891 4.4377 28.6401 6.30473C24.0941 13.6168 16.1208 17.3333 7.62109 18.3275M30.0548 7.98652C31.3023 9.40675 32.6271 10.7707 33.937 12.037C29.9627 15.1081 24.199 16.7476 18.5209 17.5724C17.7211 17.6891 15.9224 17.8585 15.8162 17.8536C23.4934 15.3879 27.8211 11.0604 30.0555 7.98933M35.3517 13.3686C36.5716 14.4936 37.7497 15.5194 38.8031 16.4045C35.0428 18.0216 28.1768 19.155 24.5503 19.0763C23.1482 19.0815 21.7487 18.9548 20.3706 18.698C27.9267 17.5007 32.5676 15.319 35.3517 13.3686ZM40.4155 17.7277C42.0966 19.0819 43.1968 19.8778 43.1968 19.8778C39.7191 20.7151 32.4542 21.7761 27.4698 20.6512C27.1061 20.5687 26.7542 20.4855 26.4142 20.4016C33.582 19.8391 37.8864 18.7247 40.4162 17.7256" fill="#959595"/>
<path d="M70.3508 24.9379L66.8795 18.845H66.6953V24.9379H63.7773V11.7607H68.6329C71.3922 11.7607 72.7772 12.9011 72.7772 14.8424C72.7953 15.7027 72.4947 16.5398 71.9325 17.195C71.3703 17.8502 70.5854 18.2779 69.7267 18.3972L73.8724 24.9358L70.3508 24.9379ZM67.5554 12.9004H66.6975V18.033C68.3063 18.033 69.7855 17.654 69.7855 15.2431C69.7855 14.043 69.5106 12.9026 67.5554 12.9026" fill="black"/>
<path d="M56.5082 13.155V17.4325H61.1611V18.8443H56.5082V24.9379H53.5859V11.7607H61.2532V13.155H56.5082Z" fill="black"/>
<path d="M83.7828 24.9376L82.4099 21.0369H78.0268L76.532 24.9376H74.7539L80.2329 11.7576H81.7135L87.0444 24.9376H83.7828ZM80.2357 15.4045L78.4646 19.8768H81.9926L80.2357 15.4045Z" fill="black"/>
<path d="M91.2511 25.1912C90.1227 25.24 89.0066 24.9425 88.0547 24.3391L88.6583 21.8938H89.0054C89.1199 22.5108 89.454 23.0664 89.9469 23.4593C90.4398 23.8522 91.0585 24.0561 91.6903 24.034C93.1908 24.034 93.9722 23.2156 93.9722 22.1272C93.9722 20.8202 92.9669 20.2633 91.7987 19.7409C90.1559 18.9717 88.1454 18.2476 88.1454 15.4746C88.1454 13.1544 89.8633 11.512 92.5844 11.512C93.7039 11.4489 94.8117 11.7666 95.7248 12.4127L95.1056 14.3335H94.8124C94.682 13.8483 94.3918 13.4204 93.9881 13.1178C93.5844 12.8152 93.0902 12.6553 92.5844 12.6637C91.3404 12.6637 90.447 13.1558 90.447 14.4214C90.447 15.6869 91.798 16.2564 93.2007 16.9525C94.7387 17.754 96.3617 18.7102 96.3617 21.0501C96.3617 23.5383 94.1712 25.1842 91.2504 25.1842" fill="black"/>
<path d="M98.4141 24.9379V11.7607H105.782V13.155H101.333V17.4325H105.689V18.8443H101.333V23.5395H105.782V24.9372L98.4141 24.9379Z" fill="black"/>
<path d="M114.794 24.9379L111.323 18.845H111.137V24.9379H108.219V11.7607H113.079C115.834 11.7607 117.224 12.9011 117.224 14.8424C117.242 15.7021 116.942 16.5387 116.38 17.1937C115.819 17.8488 115.035 18.277 114.177 18.3972L118.322 24.9358L114.794 24.9379ZM111.998 12.9004H111.138V18.033C112.743 18.033 114.223 17.654 114.223 15.2431C114.223 14.043 113.953 12.9026 111.999 12.9026" fill="black"/>
<path d="M122.608 25.1908C121.481 25.2391 120.365 24.9415 119.414 24.3387L120.02 21.8934H120.363C120.478 22.5108 120.812 23.0668 121.305 23.4597C121.798 23.8527 122.418 24.0564 123.05 24.0336C124.546 24.0336 125.33 23.2152 125.33 22.1268C125.33 20.8198 124.326 20.2629 123.156 19.7405C121.514 18.9714 119.506 18.2472 119.506 15.4742C119.506 13.154 121.221 11.5116 123.943 11.5116C125.062 11.447 126.17 11.7649 127.081 12.4123L126.464 14.3331H126.172C126.042 13.8477 125.752 13.4196 125.348 13.117C124.944 12.8144 124.449 12.6546 123.943 12.6633C122.701 12.6633 121.804 13.1554 121.804 14.421C121.804 15.6865 123.156 16.256 124.566 16.9521C126.105 17.7536 127.727 18.7098 127.727 21.0497C127.727 23.5379 125.537 25.1838 122.612 25.1838" fill="black"/>
<path d="M55.2352 33.0923V36.2941H53.5859V28.8147H56.1313C57.4851 28.8147 58.6413 29.1437 58.6413 30.6793C58.6413 32.5882 57.2733 33.0923 55.2352 33.0923ZM55.7629 29.458H55.2352V32.4384C56.1065 32.4384 56.941 32.1283 56.941 30.8916C56.941 29.7667 56.3254 29.4566 55.7636 29.4566" fill="black"/>
<path d="M63.7416 36.2934L61.7871 32.8342H61.6794V36.2934H60.0352V28.8147H62.7746C64.3254 28.8147 65.1089 29.458 65.1089 30.5598C65.1219 31.0462 64.9545 31.5204 64.6385 31.8923C64.3224 32.2643 63.8798 32.5082 63.3945 32.5776L65.7323 36.2934H63.7416ZM62.1661 29.4573H61.6794V32.3737C62.5919 32.3737 63.4193 32.1565 63.4193 30.7883C63.4193 30.1077 63.2684 29.4573 62.1661 29.4573Z" fill="black"/>
<path d="M70.4409 36.4377C68.2767 36.4377 66.3398 35.3669 66.3398 32.6411C66.3398 30.4313 67.8835 28.6736 70.5904 28.6736C73.2548 28.6736 74.751 30.0931 74.751 32.6411C74.751 34.8516 72.8042 36.4377 70.4388 36.4377M70.5904 29.3197C68.6444 29.3197 68.174 31.2384 68.174 32.8351C68.174 34.8811 69.2182 35.7761 70.4409 35.7761C71.8967 35.7761 72.9275 34.5183 72.9275 32.343C72.9275 30.7892 72.1489 29.3197 70.5904 29.3197Z" fill="black"/>
<path d="M77.9116 33.0923V36.2941H76.2617V28.8147H78.8121C80.1666 28.8147 81.3241 29.1437 81.3241 30.6793C81.3241 32.5882 79.954 33.0923 77.9152 33.0923M78.4373 29.458H77.9152V32.4384C78.7873 32.4384 79.6225 32.1283 79.6225 30.8916C79.6225 29.7667 79.0033 29.4566 78.4373 29.4566" fill="black"/>
<path d="M82.7148 36.2934V28.8147H86.8237V29.6036H84.3676V32.0292H86.7713V32.8314H84.3676V35.4968H86.8237V36.2906L82.7148 36.2934Z" fill="black"/>
<path d="M92.3791 36.2934L90.4245 32.8342H90.3183V36.2934H88.6719V28.8147H91.4106C92.9621 28.8147 93.7484 29.458 93.7484 30.5598C93.761 31.0468 93.5928 31.5215 93.2758 31.8935C92.9588 32.2655 92.5151 32.509 92.0291 32.5776L94.3669 36.2934H92.3791ZM90.8078 29.4573H90.319V32.3737C91.23 32.3737 92.0603 32.1565 92.0603 30.7883C92.0603 30.1077 91.9044 29.4573 90.8078 29.4573Z" fill="black"/>
<path d="M98.3175 29.6036V36.2941H96.6555V29.6036H94.6797V28.8147H100.291V29.6036H98.3175Z" fill="black"/>
<path d="M105.335 32.868V36.2934H103.674V33.1366L101.355 28.8147H103.127L104.949 32.1466L106.638 28.8147H107.646L105.335 32.868Z" fill="black"/>
</g>
<defs>
<clipPath id="clip0_185_2974">
<rect width="127.812" height="48.2098" fill="white"/>
</clipPath>
</defs>
</svg>
