<svg width="143" height="31" viewBox="0 0 143 31" fill="none" xmlns="http://www.w3.org/2000/svg">
<mask id="mask0_185_2994" style="mask-type:luminance" maskUnits="userSpaceOnUse" x="0" y="0" width="143" height="31">
<path d="M142.494 0H0V30.1022H142.494V0Z" fill="white"/>
</mask>
<g mask="url(#mask0_185_2994)">
<path d="M17.0955 0.453613C16.6719 0.483867 16.1878 0.483866 15.6735 0.514119C14.9172 0.544373 14.1306 0.604881 13.6163 0.604881C12.7692 0.604881 11.3775 0.544374 10.2279 0.453613C10.1372 0.453613 10.0464 0.544373 10.0464 0.665387V1.14944C10.0464 1.30071 10.1069 1.30071 10.2279 1.36122C10.2582 1.39147 10.3792 1.39147 10.4699 1.39147C10.8935 1.48223 11.6498 1.60325 11.9524 1.96629C12.2246 2.23857 12.2246 2.5411 12.2246 3.32769V6.86735H5.50837V3.35795C5.50837 2.5411 5.50837 2.23857 5.72014 1.99654C6.08318 1.6335 6.83952 1.48223 7.23282 1.39147C7.32358 1.36122 7.38408 1.36122 7.44459 1.36122C7.59586 1.33096 7.65636 1.30071 7.65636 1.14944V0.665387C7.65636 0.544373 7.5656 0.453613 7.41434 0.453613C6.29496 0.51412 5.02431 0.604881 4.20747 0.604881C3.72341 0.604881 2.99733 0.574624 2.21074 0.54437C1.63592 0.514117 1.0611 0.483867 0.607302 0.453613C0.516541 0.453613 0.425781 0.544373 0.425781 0.665387V1.14944C0.425781 1.2402 0.456034 1.33096 0.637555 1.39147C0.667808 1.39147 0.728315 1.39147 0.788822 1.42172C1.15186 1.45198 2.08972 1.51249 2.42251 1.96629C2.66454 2.23857 2.69479 2.51085 2.69479 3.32769V12.676C2.69479 13.5231 2.66454 13.7954 2.42251 14.0979C2.08972 14.5215 1.12161 14.6122 0.758569 14.6425C0.728316 14.6425 0.667809 14.6425 0.607302 14.6728C0.456034 14.703 0.456034 14.7635 0.456034 14.9148V15.3988C0.456034 15.5501 0.546794 15.6106 0.637555 15.6106C1.72668 15.5501 3.33012 15.4896 4.20747 15.4896C4.63102 15.4896 6.02268 15.4896 7.44459 15.6106C7.53535 15.6106 7.62611 15.5198 7.62611 15.3988V14.945C7.62611 14.8543 7.59586 14.7635 7.44459 14.703H7.41434C6.59749 14.582 6.05293 14.4005 5.78065 14.0979C5.53862 13.8257 5.53862 13.5231 5.53862 12.676V8.07749H12.2851V12.676C12.2851 13.5231 12.2851 13.8257 12.0129 14.0979C11.7708 14.3702 11.2263 14.582 10.3489 14.703H10.2582C10.1069 14.7635 10.0766 14.8543 10.0766 14.945V15.3988C10.0766 15.5501 10.1674 15.6106 10.2582 15.6106C11.3775 15.5198 12.6784 15.4896 13.5255 15.4896C14.3726 15.4896 16.0366 15.5501 17.0955 15.6106C17.1862 15.6106 17.277 15.5198 17.277 15.3988V14.9148C17.277 14.7635 17.2467 14.7333 17.0652 14.6728C17.0349 14.6728 17.0047 14.6727 16.9442 14.6425C16.5811 14.6122 15.613 14.4912 15.2802 14.0979C15.0382 13.7954 15.008 13.5231 15.008 12.676V3.32769C15.008 2.51085 15.0382 2.23857 15.2802 1.93603C15.613 1.51248 16.5509 1.42172 16.9139 1.39147C16.9744 1.39147 17.0047 1.39147 17.0652 1.36122C17.2165 1.30071 17.2165 1.20995 17.2165 1.11919V0.635131C17.277 0.514117 17.1862 0.453613 17.0955 0.453613Z" fill="#162740"/>
<path d="M30.0158 11.6174H29.925L29.8343 11.8291C29.2292 13.2813 28.8359 14.3402 26.6576 14.3402C25.5685 14.3402 24.0558 14.2797 23.602 13.7351C23.3903 13.4628 23.3298 13.13 23.3298 12.2527V8.34998H25.9921C26.8392 8.34998 27.1719 8.89454 27.3535 10.5887L27.3837 10.6795H27.4745C27.9585 10.6795 28.2611 10.6795 28.2611 10.3165C28.2611 10.0442 28.2308 9.77189 28.2308 9.43911C28.2006 8.95505 28.2006 8.38023 28.2006 7.6239C28.2006 7.07933 28.2308 6.08097 28.2611 5.5364C28.2611 5.32463 28.2913 5.20362 28.2913 5.17336C28.2913 4.87083 28.0796 4.87083 27.5047 4.87083H27.414L27.3837 4.96159C27.172 6.62553 26.8694 7.13984 26.0223 7.13984H23.36V2.84384C23.36 2.17827 23.3903 2.11776 23.7231 1.87573C23.8138 1.75472 24.8727 1.66396 25.7803 1.66396C28.1703 1.66396 28.7754 2.63207 28.9872 4.175L29.0174 4.26576H29.1082C29.4107 4.26576 29.8948 4.26576 29.8948 3.96322C29.8948 3.93297 29.8948 3.75145 29.8948 3.53968C29.8948 3.11613 29.8645 2.4808 29.8645 2.11776V0.423566H29.7435C29.1989 0.453819 28.7149 0.453821 28.2611 0.453821C26.4459 0.484075 24.8424 0.544578 21.9078 0.544578C21.3935 0.544578 20.849 0.514325 20.3044 0.484072C19.8204 0.453818 19.306 0.423564 18.701 0.393311C18.3984 0.423564 18.3984 0.574834 18.3984 0.665595V1.1194C18.3984 1.39168 18.5195 1.42193 18.6102 1.42193C19.064 1.42193 20.1229 1.5732 20.3649 1.78497C20.4557 1.84548 20.5464 1.93624 20.5464 3.3279V12.525C20.5464 13.9166 20.4254 14.0679 20.3347 14.1889L20.3044 14.2192C20.2439 14.3099 19.6388 14.4914 18.58 14.5822C18.3984 14.5822 18.3984 14.7335 18.3984 14.794V15.278C18.3984 15.399 18.4287 15.4898 18.701 15.5503C19.2758 15.5201 19.8204 15.5201 20.3347 15.4898C20.97 15.4596 21.5751 15.4293 22.1196 15.4293C22.9062 15.4293 26.9602 15.4595 29.9553 15.5503H30.046L30.0763 15.4595C30.2578 14.8545 30.3788 14.3402 30.4696 13.7956C30.5906 13.1603 30.7721 12.0107 30.7721 11.8594C30.8024 11.6174 30.5301 11.6174 30.0158 11.6174Z" fill="#162740"/>
<path d="M47.2249 14.6128L47.1342 14.5825C46.9526 14.5523 46.5291 14.4615 46.3476 14.3103C45.8635 14.038 45.5005 13.5842 44.7139 11.7387C44.018 10.1353 42.4751 6.38385 40.1153 0.605436C39.9943 0.302901 39.9036 0.181885 39.4498 0.181885C38.9657 0.181885 38.7842 0.393662 38.7539 0.605436C37.2715 4.44763 34.8512 10.226 33.3386 13.4934C33.1268 13.9472 32.6427 14.3708 32.1889 14.4918C32.0377 14.5825 31.9167 14.5825 31.7049 14.5825L31.5536 14.6128C31.4023 14.6733 31.4023 14.8246 31.4023 14.8851V15.3389C31.4023 15.3994 31.4023 15.5507 31.5536 15.5507C32.1284 15.4902 33.036 15.4296 33.8226 15.4296C34.7605 15.4296 35.6983 15.4902 36.5454 15.5507H36.6665V14.7338H36.5757C35.2748 14.7036 35.0328 14.3708 35.0328 13.8565C35.0328 13.7354 35.063 13.4027 35.184 13.0094L36.2429 10.1958H41.1137L42.3541 13.1606C42.4751 13.4329 42.5356 13.6749 42.5356 13.8867C42.5356 14.4615 42.0213 14.6128 41.0835 14.7338L40.9927 14.7641V15.5809H41.1137C42.2028 15.4902 43.1709 15.4599 44.1088 15.4599C44.6534 15.4599 45.3492 15.4902 46.045 15.5507C46.4686 15.5809 46.8921 15.5809 47.2854 15.6112C47.4669 15.6112 47.4669 15.4902 47.4669 15.3994V14.9456C47.4367 14.7641 47.3459 14.6733 47.2249 14.6128ZM40.7809 9.04616H36.6967C37.3018 7.56374 37.8766 6.14182 38.3304 4.87118C38.4817 4.47788 38.6329 4.08458 38.7539 3.72154C38.9052 4.14509 39.0867 4.59889 39.238 5.08295C39.7523 6.38385 40.2666 7.77551 40.7809 9.04616Z" fill="#162740"/>
<path d="M63.3221 14.8547C63.2616 14.8245 63.2314 14.8245 63.1709 14.764L63.0801 14.7035C62.8078 14.5825 62.5053 14.4312 62.1725 14.1287C60.8413 13.1605 59.2984 10.8008 58.179 9.10658C57.9673 8.77379 57.7555 8.47125 57.574 8.19897C59.4799 7.47289 60.7808 5.92996 60.7808 4.35678C60.7808 2.54157 59.8732 0.423828 55.4865 0.423828C54.9419 0.423828 53.6713 0.454083 52.5821 0.51459C51.735 0.544843 51.009 0.575096 50.7669 0.575096H48.6189C48.5282 0.575096 48.3164 0.575095 48.3164 0.786869V1.27093C48.3164 1.42219 48.3769 1.42219 48.4979 1.4827C48.6492 1.51295 48.8912 1.54321 49.1635 1.57346C49.5568 1.60372 50.1619 1.66422 50.2829 1.78524C50.3736 1.876 50.4342 1.96676 50.4342 3.32816V12.5555C50.4342 13.9169 50.3434 14.0379 50.2526 14.2194C50.1619 14.3707 49.4963 14.4917 49.103 14.5825C48.9517 14.6127 48.8307 14.6127 48.7097 14.643C48.5887 14.6732 48.5584 14.7035 48.5584 14.8547V15.3388C48.5584 15.4901 48.6492 15.5808 48.8005 15.5808C50.0409 15.5203 51.6745 15.4598 52.1283 15.4598C52.4914 15.4598 53.399 15.4901 54.2461 15.5506C54.7906 15.5808 55.305 15.5808 55.7285 15.6111C55.8495 15.6111 55.91 15.4598 55.91 15.3993V14.8547C55.91 14.764 55.8193 14.6732 55.7285 14.6732C55.2747 14.6732 53.9133 14.522 53.5503 14.0682C53.3385 13.7959 53.2477 13.2816 53.2175 12.5555C53.1872 12.1924 53.2175 9.62089 53.2175 9.01582C53.641 9.01582 54.4881 9.01582 55.2142 8.95531C55.5772 9.43937 55.9403 10.1352 56.3638 10.8915C56.5756 11.3151 56.8479 11.7689 57.0899 12.1924C58.1488 13.9471 58.9051 14.9455 59.3892 15.1573C60.0548 15.4296 60.9019 15.5808 61.9607 15.5808C62.354 15.5808 62.7776 15.5808 63.3524 15.5506C63.5642 15.5506 63.5642 15.3085 63.5642 15.127C63.5642 14.9455 63.4431 14.885 63.3221 14.8547ZM53.2477 1.75498C53.5805 1.60371 54.3066 1.51296 54.8512 1.51296C56.8479 1.51296 57.7857 2.42056 57.7857 4.32653C57.7857 6.71655 56.7269 7.83593 54.5184 7.83593C53.9738 7.83593 53.5503 7.80568 53.2477 7.74517V1.75498Z" fill="#162740"/>
<path d="M76.2997 0.454083H76.2391C74.9988 0.484337 74.0609 0.484336 73.123 0.51459C72.0339 0.544843 71.0355 0.575096 69.7044 0.575096C67.4656 0.575096 66.1345 0.544842 62.9579 0.423828H62.8671L62.8369 0.54484C62.8066 0.635601 62.7461 0.756616 62.7461 1.0894V4.02399C62.7461 4.62906 63.1696 4.62906 63.5932 4.62906H63.684L63.7142 4.5383C63.926 2.66259 64.4403 1.60371 66.6488 1.60371H68.1917V12.6765C68.1917 13.5236 68.1917 13.7656 67.9497 14.0379C67.5564 14.4917 66.5883 14.5522 66.195 14.5825L66.1042 14.6127C65.9832 14.6732 65.9832 14.7035 65.9832 14.8245V15.3085C65.9832 15.4598 66.0437 15.5506 66.1647 15.5506C67.2841 15.4901 68.7968 15.4296 69.7347 15.4296C70.733 15.4296 72.0944 15.4598 72.881 15.5506H72.9113C73.0323 15.5506 73.123 15.4598 73.123 15.3085V14.885C73.123 14.7942 73.0928 14.7035 72.9113 14.643C72.5482 14.6127 71.6709 14.4614 71.2473 14.0379C71.0356 13.7656 71.0355 13.4933 71.0355 12.6765V1.60371H72.4575C74.6962 1.60371 75.271 2.63233 75.5131 4.5383L75.5433 4.62906H75.6341C75.7248 4.62906 75.7853 4.62906 75.8761 4.62906C76.3299 4.62906 76.4812 4.4778 76.4812 4.05425V1.24067C76.4812 0.87763 76.4509 0.665857 76.3904 0.51459L76.2997 0.454083Z" fill="#162740"/>
<path d="M89.4277 11.6171H89.3369L89.3067 11.6777C88.6411 13.3113 88.0965 14.3097 86.009 14.3097C84.7081 14.3097 83.4072 14.2492 82.9534 13.7651C82.5904 13.3719 82.5904 12.9786 82.5904 12.4037V3.11592C82.5904 2.45034 82.5904 2.20832 82.8022 1.96629C83.1652 1.60325 83.9518 1.45198 84.3451 1.36122C84.4359 1.33096 84.5266 1.33096 84.5871 1.33096C84.7081 1.30071 84.7686 1.27046 84.7686 1.11919V0.695637C84.7686 0.483863 84.6174 0.453613 84.5871 0.453613C83.6795 0.51412 82.1366 0.604881 81.2593 0.604881C80.6542 0.604881 79.5045 0.544373 78.6272 0.514119C78.2642 0.483866 77.9616 0.483864 77.7196 0.483864C77.6591 0.483864 77.5078 0.514118 77.5078 0.725893V1.20995C77.5078 1.30071 77.5381 1.39147 77.7196 1.45197C77.7498 1.45197 77.8104 1.45198 77.8709 1.48223C78.2642 1.51248 79.1718 1.60324 79.5045 2.02679C79.7466 2.32933 79.7768 2.60161 79.7768 3.41845V12.6458C79.7768 13.4324 79.6256 13.9467 79.5045 14.0979C79.1415 14.582 78.4457 14.6425 78.0826 14.703C77.9616 14.7333 77.9314 14.7635 77.9314 14.9148V15.3988C77.9314 15.4593 77.9314 15.6106 78.1431 15.6711H78.1734C78.4759 15.6409 78.8995 15.6409 79.3533 15.6409C80.3214 15.6106 81.4105 15.5501 81.8946 15.5501C82.7417 15.5501 87.1889 15.6106 89.3974 15.6711H89.4882L89.5185 15.5804C89.579 15.3081 89.6395 15.0358 89.7 14.7333C89.7907 14.3702 89.8512 14.0072 89.942 13.6441C90.0933 12.8878 90.2445 12.1012 90.2445 12.0104C90.2445 11.6474 89.942 11.6171 89.4277 11.6171Z" fill="#162740"/>
<path d="M106.525 14.6123L106.434 14.582C106.252 14.5518 105.829 14.461 105.647 14.3098C105.163 14.0375 104.8 13.5837 104.014 11.7382C102.955 9.28767 100.232 2.5714 99.4151 0.57467C99.2941 0.272135 99.2034 0.151123 98.7496 0.151123C98.2655 0.151123 98.084 0.362896 98.0537 0.57467C96.3898 4.84041 93.9695 10.6188 92.6384 13.4627C92.4266 13.9165 91.9123 14.34 91.4887 14.461C91.3375 14.5518 91.2164 14.5518 91.0047 14.5518L90.8534 14.582C90.6719 14.6425 90.6719 14.7938 90.6719 14.8543V15.3384C90.6719 15.3989 90.6719 15.5501 90.8231 15.5501C91.398 15.4896 92.3056 15.4291 93.0922 15.4291C94.03 15.4291 94.9074 15.4896 95.815 15.5501H95.936V14.7333H95.8452C94.5443 14.703 94.3023 14.3703 94.3023 13.8559C94.3023 13.7349 94.3325 13.4022 94.4536 13.0089L95.5124 10.1953H100.383L101.624 13.1601C101.745 13.4324 101.805 13.6744 101.805 13.8862C101.805 14.461 101.291 14.6123 100.353 14.7333L100.262 14.7636V15.5804H100.383C101.472 15.4896 102.44 15.4594 103.378 15.4594C103.923 15.4594 104.619 15.4896 105.315 15.5501C105.738 15.5804 106.162 15.5804 106.555 15.6107C106.736 15.6107 106.736 15.4896 106.736 15.3989V14.9451C106.706 14.7636 106.646 14.6728 106.525 14.6123ZM100.05 9.04565H95.9662C96.5713 7.56323 97.1159 6.17156 97.5697 4.93117C97.7209 4.50762 97.8722 4.11433 98.0235 3.72103C98.1747 4.17483 98.3563 4.62864 98.5378 5.08244C99.0218 6.41359 99.5361 7.775 100.05 9.04565Z" fill="#162740"/>
<path d="M121.613 0.575096C121.219 0.575096 120.039 0.575097 118.527 0.454083L118.436 0.423828V1.27093H118.527C120.433 1.42219 120.826 2.20878 121.068 4.02399C121.219 5.50641 121.37 9.43937 121.431 11.6479C118.678 8.77379 115.562 5.02236 111.841 0.454083L111.81 0.423828H111.75C110.963 0.514589 110.207 0.54484 109.511 0.54484C109.088 0.54484 108.694 0.514588 108.24 0.484334C107.908 0.454081 107.575 0.454082 107.242 0.423828H107.121V1.0894C107.121 1.30118 107.182 1.39194 107.393 1.45244C108.301 1.60371 109.481 2.3903 109.965 3.14664C109.965 7.04934 109.904 11.4664 109.874 12.1622C109.783 13.6446 109.572 13.9774 109.481 14.0682C109.088 14.4312 108.422 14.5522 108.18 14.6127C108.119 14.643 108.089 14.643 108.089 14.643C107.938 14.7035 107.938 14.8547 107.938 14.9455V15.6111L108.059 15.5808C108.967 15.4901 110.237 15.4598 110.873 15.4598C111.599 15.4598 112.718 15.5203 113.807 15.5808H113.928V14.764H113.837C111.78 14.6127 111.538 13.5841 111.447 11.4966C111.357 10.2562 111.236 6.32326 111.175 4.11475C115.713 9.46962 118.95 12.979 120.735 14.9152C121.007 15.1875 121.219 15.4598 121.431 15.6716L121.461 15.7018H122.399C122.611 15.6716 122.671 15.5506 122.671 15.3388C122.671 14.8547 122.641 14.3404 122.641 13.7959C122.611 13.1605 122.611 12.495 122.611 11.8294C122.611 9.43937 122.641 6.92833 122.641 5.41565C122.641 4.68957 122.641 4.17526 122.641 3.96348C122.641 2.42056 123.186 1.90625 123.761 1.66422C123.972 1.54321 124.305 1.45245 124.547 1.39194C124.638 1.36169 124.698 1.36168 124.789 1.30118C124.94 1.21042 124.94 0.847378 124.94 0.817124V0.423828L123.7 0.484334C122.732 0.514588 121.976 0.575096 121.613 0.575096Z" fill="#162740"/>
<path d="M134.296 0.241943C133.57 0.241943 132.36 0.272198 131.271 0.332705C130.363 0.362958 129.516 0.393211 129.093 0.393211H126.279C126.128 0.393211 125.977 0.393213 125.977 0.574734V1.08904C125.977 1.24031 126.037 1.30082 126.188 1.30082C126.34 1.33107 126.551 1.36132 126.763 1.39158C127.126 1.42183 127.731 1.48234 127.822 1.63361L127.852 1.66386C127.943 1.75462 128.034 1.90589 128.034 3.20679V12.6459C128.034 13.9468 127.913 14.098 127.792 14.2493C127.701 14.4006 127.066 14.4913 126.672 14.5518C126.461 14.5821 126.279 14.6124 126.158 14.6426C126.007 14.7031 126.007 14.7939 126.007 14.9451V15.3687C126.007 15.4292 126.007 15.641 126.188 15.641C127.519 15.5805 128.76 15.52 129.486 15.52C129.879 15.52 130.666 15.5502 131.422 15.5805C132.209 15.6107 132.935 15.641 133.298 15.641C137.836 15.641 142.434 12.8879 142.434 7.59354C142.434 2.96476 139.409 0.241943 134.296 0.241943ZM133.449 14.4308C133.086 14.4308 131.967 14.4006 131.452 14.0678C131.21 13.8863 130.847 13.5232 130.847 12.6459V1.54284C131.664 1.33107 132.844 1.33107 133.6 1.33107C137.291 1.33107 139.258 3.69084 139.258 8.13811C139.228 13.7955 135.204 14.4308 133.449 14.4308Z" fill="#162740"/>
</g>
<mask id="mask1_185_2994" style="mask-type:luminance" maskUnits="userSpaceOnUse" x="0" y="0" width="143" height="31">
<path d="M142.494 0H0V30.1022H142.494V0Z" fill="white"/>
</mask>
<g mask="url(#mask1_185_2994)">
<path d="M56.8773 25.4733C57.9361 25.5641 58.753 26.2599 58.753 27.47C58.753 28.9525 57.8151 29.8601 55.6974 29.8601H52.9141V21.2681H55.7276C57.4823 21.2681 58.3899 21.9942 58.3899 23.4463C58.3899 24.5657 57.7546 25.2615 56.847 25.4128L56.8773 25.4733ZM54.3057 28.7407H55.8486C56.8168 28.7407 57.4521 28.3171 57.4521 27.349C57.4521 26.6229 56.9983 26.1086 55.8486 26.1086H54.3057V28.7407ZM55.6066 25.0498C56.484 25.0498 57.0588 24.6262 57.0588 23.7186C57.0588 22.811 56.484 22.4177 55.5159 22.4177H54.2755V25.0498H55.6066Z" fill="#162740"/>
<path d="M67.3429 27.5308H63.8335L63.0167 29.8906H61.625L64.7714 21.2986H66.5261L69.6119 29.8906H68.19L67.3429 27.5308ZM64.1965 26.4114H66.9496L66.284 24.4752C65.8 23.144 65.6185 22.2364 65.6185 22.2364H65.558C65.558 22.2364 65.3462 23.144 64.8924 24.4752L64.1965 26.4114Z" fill="#162740"/>
<path d="M77.7469 26.2299C78.2612 26.9862 78.715 27.8636 78.715 27.8636H78.7755C78.7755 27.8636 78.6847 26.956 78.6847 25.8669V21.3288H80.0159V29.9208H78.6847L75.2964 25.0198C74.7518 24.2332 74.3282 23.3558 74.3282 23.3558H74.2677C74.2677 23.3558 74.3585 24.2634 74.3585 25.3828V29.9208H73.0273V21.2986H74.3888L77.7469 26.2299Z" fill="#162740"/>
<path d="M89.2156 29.8906L86.5231 26.1089H85.8575V29.8906H84.4961V21.2986H85.8575V24.929H86.5836L89.0946 21.2986H90.6678L87.6727 25.4433L90.8796 29.8603H89.2156V29.8906Z" fill="#162740"/>
<path d="M142.428 25.5339C142.428 26.2902 142.035 26.8953 141.551 26.8953H96.8969C96.4128 26.8953 96.0195 26.2902 96.0195 25.5339C96.0195 24.7775 96.4128 24.1725 96.8969 24.1725H141.581C142.035 24.1422 142.428 24.7473 142.428 25.5339Z" fill="#162740"/>
<path d="M46.8922 25.5339C46.8922 26.2902 46.4989 26.8953 46.0149 26.8953H1.33048C0.846421 26.8953 0.453125 26.2902 0.453125 25.5339C0.453125 24.7775 0.846421 24.1725 1.33048 24.1725H46.0149C46.4989 24.1422 46.8922 24.7473 46.8922 25.5339Z" fill="#162740"/>
</g>
</svg>
