<svg width="143" height="44" viewBox="0 0 143 44" fill="none" xmlns="http://www.w3.org/2000/svg">
<path d="M107.435 37.6031C107.435 35.6643 108.709 34.3983 110.36 34.3983C112.011 34.3983 113.285 35.6643 113.285 37.6031C113.285 39.542 112.011 40.808 110.36 40.808C108.709 40.808 107.435 39.542 107.435 37.6031ZM106.534 37.6031C106.534 39.9894 108.259 41.7029 110.287 41.7029C112.315 41.7029 113.212 40.1385 113.212 40.1385H113.288L113.362 41.4808H114.186V33.7288H113.362L113.288 35.071H113.212C113.212 35.071 112.311 33.5067 110.287 33.5067C108.262 33.5067 106.534 35.2202 106.534 37.6065M104.653 33.7155H103.753V41.4808H104.653V33.7155ZM101.511 30.3317H100.611V41.4808H101.511V30.3317ZM86.4154 33.7288H85.5916V41.4808H86.4921V36.5591C86.4921 36.5591 87.2426 34.3983 88.8936 34.3983C89.4139 34.3983 89.7942 34.5375 90.0543 34.6965L90.4212 33.9409C90.1144 33.7288 89.6341 33.5034 88.967 33.5034C87.2426 33.5034 86.5655 35.0677 86.5655 35.0677H86.4888L86.4154 33.7255V33.7288ZM75.6022 24.5881V21.0849H78.077V19.5206H75.6022V17.2105H75.5255L72.4503 20.4917V21.0882H73.8745V24.6676C73.8745 26.4573 74.9251 27.5013 76.426 27.5013C77.6267 27.5013 78.3005 26.8318 78.3005 26.8318V25.3404H78.077C78.077 25.3404 77.6267 25.937 76.8029 25.937C76.1292 25.937 75.6022 25.4896 75.6022 24.5947M72.2701 39.6911L71.97 40.5097C71.97 40.5097 73.094 41.7029 74.9718 41.7029C76.8496 41.7029 77.8235 40.7351 77.8235 39.3928C77.8235 36.4862 73.0973 37.454 73.0973 35.6643C73.0973 34.9186 73.621 34.3983 74.7483 34.3983C76.3226 34.3983 77.0731 35.366 77.0731 35.366L77.4466 34.6203C77.4466 34.6203 76.6228 33.5034 74.745 33.5034C73.1707 33.5034 72.1934 34.4712 72.1934 35.6643C72.1934 38.3488 76.9196 37.3778 76.9196 39.3928C76.9196 40.2115 76.3193 40.808 74.9685 40.808C73.2441 40.808 72.2668 39.6911 72.2668 39.6911M64.3253 33.7288H63.4248V38.5013C63.4248 40.4401 64.6989 41.7062 66.5 41.7062C68.5245 41.7062 69.275 40.1419 69.275 40.1419H69.3517L69.4251 41.4841H70.2489V33.7321H69.3484V37.8318C69.3484 39.5453 68.0743 40.8146 66.5734 40.8146C65.0724 40.8146 64.322 39.996 64.322 38.5046V33.7321L64.3253 33.7288ZM54.566 37.3049L57.1176 31.8629H57.191L59.7425 37.3049H54.566ZM56.744 30.5968L51.7176 41.4808H52.6916L54.1925 38.1997H60.1194L61.6203 41.4808H62.5943L57.5679 30.5968H56.744ZM56.8641 3.6652H60.3529V2.02465H51.5742V3.6652H55.063V12.9385H56.8641V3.6652ZM59.6725 27.2693H61.4736V16.3853H59.6725V20.9325H54.4226V16.3853H52.6215V27.2693H54.4226V22.573H59.6725V27.2693ZM67.5673 12.9385H69.2917V8.16596C69.2917 6.1542 68.0909 4.96107 66.2165 4.96107C64.342 4.96107 63.6649 6.37626 63.6649 6.37626H63.5882V1.93848H61.8638V12.9352H63.5882V8.75921C63.5882 7.49316 64.6388 6.52209 65.8396 6.52209C66.8902 6.52209 67.564 7.11865 67.564 8.23555V12.9318L67.5673 12.9385ZM69.8654 23.3949C69.8654 24.8864 68.8147 25.9303 67.3905 25.9303C65.9663 25.9303 64.9157 24.8864 64.9157 23.3949C64.9157 21.9035 65.9663 20.8595 67.3905 20.8595C68.8147 20.8595 69.8654 21.9035 69.8654 23.3949ZM71.6664 23.3949C71.6664 21.0849 69.8654 19.2952 67.3905 19.2952C64.9157 19.2952 63.1146 21.0849 63.1146 23.3949C63.1146 25.705 64.9157 27.4947 67.3905 27.4947C69.8654 27.4947 71.6664 25.705 71.6664 23.3949ZM72.597 8.09304C72.8972 7.34734 73.6477 6.52871 74.9985 6.52871C76.2726 6.52871 76.9497 7.27442 77.0998 8.09304H72.597ZM72.5236 9.43531H78.7508V8.88515C78.7508 6.4558 77.2498 4.96439 74.9251 4.96439C72.6003 4.96439 70.8726 6.75408 70.8726 9.06412C70.8726 11.3742 72.597 13.1638 75.0285 13.1638C77.0998 13.1638 78.2238 12.269 78.2238 12.269V10.6284H78.0003C78.0003 10.6284 77.0998 11.5962 75.2253 11.5962C73.5743 11.5962 72.6737 10.6284 72.5236 9.43531ZM80.3017 33.7288H78.8008V34.6236H80.3017V39.247C80.3017 40.8113 81.2023 41.7062 82.4764 41.7062C83.4503 41.7062 84.0507 41.0367 84.0507 41.0367V40.1419H83.9006C83.9006 40.1419 83.3769 40.8113 82.5497 40.8113C81.7226 40.8113 81.1989 40.3639 81.1989 39.247V34.6236H83.7505V33.7288H81.1989V31.4187L80.2984 31.7899V33.7288H80.3017ZM81.0088 22.4239C81.309 21.6782 82.0594 20.8595 83.4103 20.8595C84.6844 20.8595 85.3615 21.6052 85.5115 22.4239H81.0088ZM80.9354 23.7661H87.1625V23.216C87.1625 20.7866 85.6616 19.2952 83.3369 19.2952C81.0121 19.2952 79.2844 21.0849 79.2844 23.3949C79.2844 25.705 81.0088 27.4947 83.4403 27.4947C85.5116 27.4947 86.6356 26.5998 86.6356 26.5998V24.9593H86.4121C86.4121 24.9593 85.5116 25.927 83.6371 25.927C81.9861 25.927 81.0855 24.9593 80.9354 23.7661ZM88.8469 27.2693H90.5713V16.1831H88.8469V27.2693ZM97.4688 37.6031C97.4688 39.542 96.1947 40.808 94.5437 40.808C92.8927 40.808 91.6186 39.542 91.6186 37.6031C91.6186 35.6643 92.8927 34.3983 94.5437 34.3983C96.1947 34.3983 97.4688 35.6643 97.4688 37.6031ZM94.467 33.5034C92.4424 33.5034 90.7147 35.2169 90.7147 37.6031C90.7147 39.9894 92.4391 41.7029 94.467 41.7029C96.4949 41.7029 97.3921 40.1385 97.3921 40.1385H97.4688L97.5422 41.4808H98.366V33.7288H97.5422L97.4688 35.071H97.3921C97.3921 35.071 96.4916 33.5067 94.467 33.5067M97.232 19.0698C97.232 18.3241 97.8324 17.8038 98.883 17.8038C100.534 17.8038 101.435 18.9207 101.435 18.9207L102.035 17.5055C102.035 17.5055 100.911 16.1632 98.8096 16.1632C96.7084 16.1632 95.3575 17.5055 95.3575 18.9969C95.3575 22.4272 100.611 22.278 100.611 24.3627C100.611 25.1813 99.8603 25.8541 98.5862 25.8541C96.8618 25.8541 95.7344 24.7372 95.7344 24.7372L95.1341 26.1524C95.1341 26.1524 96.4082 27.4947 98.6595 27.4947C101.061 27.4947 102.485 26.0795 102.485 24.2136C102.485 20.9325 97.2354 20.9325 97.2354 19.0698M104.203 30.5272C103.829 30.5272 103.529 30.7493 103.529 31.1967C103.529 31.6441 103.829 31.8662 104.203 31.8662C104.576 31.8662 104.877 31.6441 104.877 31.1967C104.877 30.7493 104.576 30.5272 104.203 30.5272ZM110.35 21.7577H110.583V20.1967C110.583 20.1967 109.756 19.3118 107.979 19.3052C107.972 19.3052 107.962 19.3052 107.955 19.3052C105.634 19.3052 103.839 21.0915 103.839 23.3949C103.839 25.6983 105.637 27.4847 107.955 27.4847C109.753 27.4847 110.583 26.5932 110.583 26.5932V25.0322H110.35C110.35 25.0322 109.603 25.9237 108.179 25.9237C106.681 25.9237 105.56 24.883 105.56 23.3949C105.56 21.9068 106.684 20.8662 108.179 20.8662C108.209 20.8662 108.235 20.8662 108.265 20.8662C109.633 20.9026 110.353 21.7544 110.353 21.7544M118.025 27.2693H119.749V22.4968C119.749 20.485 118.548 19.2919 116.674 19.2919C114.799 19.2919 114.122 20.7071 114.122 20.7071H114.046V16.1168H112.321V27.266H114.046V23.09C114.046 21.824 115.096 20.8529 116.297 20.8529C117.348 20.8529 118.021 21.4495 118.021 22.5664V27.2627L118.025 27.2693ZM127.947 23.3949C127.947 24.8864 126.897 25.9303 125.473 25.9303C124.048 25.9303 122.998 24.8864 122.998 23.3949C122.998 21.9035 124.048 20.8595 125.473 20.8595C126.897 20.8595 127.947 21.9035 127.947 23.3949ZM129.745 23.3949C129.745 21.0849 127.944 19.2952 125.469 19.2952C122.994 19.2952 121.193 21.0849 121.193 23.3949C121.193 25.705 122.994 27.4947 125.469 27.4947C127.944 27.4947 129.745 25.705 129.745 23.3949ZM137.76 23.3949C137.76 24.8864 136.709 25.9303 135.285 25.9303C133.861 25.9303 132.81 24.8864 132.81 23.3949C132.81 21.9035 133.861 20.8595 135.285 20.8595C136.709 20.8595 137.76 21.9035 137.76 23.3949ZM139.561 23.3949C139.561 21.0849 137.76 19.2952 135.285 19.2952C132.81 19.2952 131.009 21.0849 131.009 23.3949C131.009 25.705 132.81 27.4947 135.285 27.4947C137.76 27.4947 139.561 25.705 139.561 23.3949ZM142.763 16.1831H141.039V27.2693H142.763V16.1831Z" fill="#263B80"/>
<path d="M21.385 12.5279C21.385 11.7689 21.1582 10.4101 20.2444 9.20036C19.4639 8.16963 16.3653 6.23742 13.8705 4.5803C12.9899 3.99699 12.1928 3.46008 11.6124 3.04911C10.1349 2.00512 9.41776 0.702621 9.1009 0H9.07422V6.49262C9.07422 8.54745 10.3583 9.70413 11.0187 10.1416C11.0954 10.1913 11.3556 10.3703 11.3556 10.3703C15.3113 13.025 17.2425 14.4369 18.1698 15.1528C18.6767 15.5438 19.8141 16.5116 20.1776 16.9126C20.8047 17.602 21.1682 18.1455 21.365 18.5565H21.385V12.5312V12.5279Z" fill="#263B80"/>
<path d="M22.25 12.5279C22.25 11.7689 22.4768 10.4101 23.3907 9.20036C24.1712 8.16963 27.2697 6.23742 29.7646 4.5803C30.6451 3.99699 31.4423 3.46008 32.0226 3.04911C33.5002 2.00512 34.2173 0.702621 34.5341 0H34.5608V6.49262C34.5608 8.54745 33.2767 9.70413 32.6163 10.1416C32.5396 10.1913 32.2794 10.3703 32.2794 10.3703C28.3237 13.025 26.3925 14.4369 25.4653 15.1528C24.9583 15.5438 23.821 16.5116 23.4574 16.9126C22.8304 17.602 22.4668 18.1455 22.27 18.5565H22.25V12.5312V12.5279Z" fill="#263B80"/>
<path d="M22.25 30.8158C22.25 31.5748 22.4768 32.9336 23.3907 34.1433C24.1712 35.1741 27.2697 37.1063 29.7646 38.7634C30.6451 39.3467 31.4423 39.8836 32.0226 40.2946C33.5002 41.3386 34.2173 42.6411 34.5341 43.3437H34.5608V36.8511C34.5608 34.7963 33.2767 33.6396 32.6163 33.2021C32.5396 33.1524 32.2794 32.9734 32.2794 32.9734C28.3237 30.3187 26.3925 28.9068 25.4653 28.1909C24.9583 27.7999 23.821 26.8321 23.4574 26.4344C22.8304 25.745 22.4668 25.2015 22.27 24.7905H22.25V30.8158Z" fill="#263B80"/>
<path d="M21.385 30.8158C21.385 31.5748 21.1582 32.9336 20.2444 34.1433C19.4639 35.1741 16.3653 37.1063 13.8705 38.7634C12.9899 39.3467 12.1928 39.8836 11.6124 40.2946C10.1349 41.3386 9.41776 42.6411 9.1009 43.3437H9.07422V36.8511C9.07422 34.7963 10.3583 33.6396 11.0187 33.2021C11.0954 33.1524 11.3556 32.9734 11.3556 32.9734C15.3113 30.3187 17.2425 28.9068 18.1698 28.1909C18.6767 27.7999 19.8141 26.8321 20.1776 26.4344C20.8047 25.745 21.1682 25.2015 21.365 24.7905H21.385V30.8158Z" fill="#263B80"/>
<path d="M31.0202 21.2476C31.784 21.2476 33.1514 21.0222 34.3689 20.1141C35.4062 19.3385 37.3507 16.2596 39.0184 13.7805C39.6054 12.9056 40.1457 12.1135 40.5593 11.5368C41.6099 10.0686 42.9207 9.35602 43.6278 9.04116V9.01465H37.0938C35.0259 9.01465 33.8619 10.2906 33.4216 10.9469C33.3716 11.0231 33.1915 11.2816 33.1915 11.2816C30.5198 15.2123 29.099 17.1313 28.3785 18.0526C27.985 18.5564 27.011 19.6865 26.6075 20.0478C25.9137 20.6709 25.3667 21.0321 24.9531 21.2277V21.2476H31.0168H31.0202Z" fill="#263B80"/>
<path d="M31.0202 22.0962C31.784 22.0962 33.1514 22.3216 34.3689 23.2297C35.4062 24.0052 37.3507 27.0841 39.0184 29.5632C39.6054 30.4382 40.1457 31.2303 40.5593 31.8069C41.6099 33.2752 42.9207 33.9877 43.6278 34.3026V34.3291H37.0938C35.0259 34.3291 33.8619 33.0531 33.4216 32.3969C33.3716 32.3207 33.1915 32.0621 33.1915 32.0621C30.5198 28.1314 29.099 26.2125 28.3785 25.2911C27.985 24.7874 27.011 23.6572 26.6075 23.2959C25.9137 22.6729 25.3667 22.3116 24.9531 22.1161V22.0962H31.0168H31.0202Z" fill="#263B80"/>
<path d="M12.6077 22.0962C11.8439 22.0962 10.4764 22.3216 9.25897 23.2297C8.22167 24.0052 6.27716 27.0841 4.60947 29.5632C4.02245 30.4382 3.48212 31.2303 3.06854 31.8069C2.0179 33.2752 0.707097 33.9877 0 34.3026V34.3291H6.53398C8.6019 34.3291 9.76595 33.0531 10.2062 32.3969C10.2562 32.3207 10.4364 32.0621 10.4364 32.0621C13.108 28.1314 14.5288 26.2125 15.2493 25.2911C15.6429 24.7874 16.6168 23.6572 17.0204 23.2959C17.7141 22.6729 18.2611 22.3116 18.6747 22.1161V22.0962H12.611H12.6077Z" fill="#263B80"/>
<path d="M12.6077 21.2476C11.8439 21.2476 10.4764 21.0222 9.25897 20.1141C8.22167 19.3385 6.27716 16.2596 4.60947 13.7805C4.02245 12.9056 3.48212 12.1135 3.06854 11.5368C2.0179 10.0686 0.707097 9.35602 0 9.04116V9.01465H6.53398C8.6019 9.01465 9.76595 10.2906 10.2062 10.9469C10.2562 11.0231 10.4364 11.2816 10.4364 11.2816C13.108 15.2123 14.5288 17.1313 15.2493 18.0526C15.6429 18.5564 16.6168 19.6865 17.0204 20.0478C17.7141 20.6709 18.2611 21.0321 18.6747 21.2277V21.2476H12.611H12.6077Z" fill="#263B80"/>
</svg>
