<svg width="135" height="47" viewBox="0 0 135 47" fill="none" xmlns="http://www.w3.org/2000/svg">
<g clip-path="url(#clip0_185_4320)">
<mask id="mask0_185_4320" style="mask-type:luminance" maskUnits="userSpaceOnUse" x="0" y="-1" width="135" height="48">
<path d="M134.405 -0.000488281H0V46.5673H134.405V-0.000488281Z" fill="white"/>
</mask>
<g mask="url(#mask0_185_4320)">
<path d="M6.41462 42.2059V40.9258V14.4678L0 17.2034V40.9258L14.5739 46.5681V39.045L7.60397 41.7456L6.41462 42.2059Z" fill="#0D82A1"/>
<path d="M37.9763 10.0957H35.0117V13.0988H37.9763V10.0957Z" fill="#00354F"/>
<path d="M37.9763 16.1025H35.0117V33.3934H37.9763V16.1025Z" fill="#00354F"/>
<path d="M49.71 15.6592C47.7686 15.6592 45.3811 16.7157 44.4979 18.6974L44.2574 16.102H41.7344V33.3928H44.6553V25.3612C44.6553 24.0459 44.6903 22.2178 45.2674 20.9771C46.0152 19.4032 47.3444 18.3116 49.0148 18.3116C51.7433 18.3116 52.8015 19.8504 52.8015 22.4458V33.406H55.6961V22.0073C55.6743 18.0134 53.6279 15.6592 49.71 15.6592Z" fill="#00354F"/>
<path d="M64.8895 29.9782L59.9135 16.1025H56.8789L63.2542 33.3934H66.3893L72.6247 16.1025H69.695L64.8895 29.9782Z" fill="#00354F"/>
<path d="M80.7956 15.6593C79.4877 15.6302 78.1956 15.9502 77.0513 16.5865C75.9074 17.2228 74.9525 18.1526 74.2848 19.2805C73.3508 20.9698 72.8973 22.8834 72.973 24.8133C72.8947 27.1472 73.6499 29.4326 75.1024 31.2579C75.8069 32.0877 76.6858 32.7509 77.6762 33.1996C78.6665 33.6483 79.744 33.8716 80.8306 33.8533C82.3925 33.8577 83.9211 33.4002 85.225 32.538C85.9343 32.0447 86.5359 31.4116 86.9929 30.6774C87.4498 29.9433 87.7528 29.1234 87.8836 28.2679H85.0545C84.9067 28.9813 84.5503 29.6344 84.0313 30.1443C83.3186 30.8984 82.1904 31.2754 80.8306 31.2754C80.2464 31.2957 79.6644 31.197 79.1196 30.9853C78.5747 30.7735 78.0784 30.4531 77.6604 30.0435C76.5769 28.8601 75.9805 27.3095 75.9901 25.7032H88.1897L88.2246 23.9496C88.2819 21.7182 87.5019 19.5466 86.0383 17.8645C85.3689 17.147 84.5556 16.5797 83.6522 16.1996C82.7488 15.8196 81.775 15.6354 80.7956 15.6593ZM76.0557 23.2087C76.13 20.6791 77.6604 18.1056 80.7956 18.1056C81.4471 18.0755 82.0964 18.2023 82.6889 18.4754C83.2814 18.7484 83.8004 19.1598 84.2018 19.6751C84.9076 20.7064 85.2775 21.9317 85.26 23.1824L76.0557 23.2087Z" fill="#00354F"/>
<path d="M99.8945 23.5861C98.0536 23.2792 96.6893 23.1477 95.7361 23.003C94.3019 22.8014 93.4186 22.1832 93.4186 20.7496C93.4444 20.2312 93.625 19.7326 93.9368 19.3183C94.249 18.904 94.6775 18.5931 95.1677 18.426C95.8026 18.1578 96.4913 18.0407 97.1791 18.0841C98.2045 18.0204 99.2154 18.3495 100.008 19.0047C100.605 19.5714 100.955 20.3511 100.983 21.1749H103.882C103.893 19.9562 103.456 18.7763 102.654 17.8605C101.495 16.3918 99.4485 15.6685 97.166 15.6685C95.019 15.6685 93.2306 16.4181 92.0894 17.5799C91.1995 18.4838 90.6879 19.6946 90.6595 20.9644C90.6595 23.5949 92.2949 25.1995 94.8835 25.6116C96.0772 25.7826 98.0186 26.0193 98.7707 26.1245C100.542 26.3613 101.46 27.2863 101.46 28.584C101.463 28.9408 101.389 29.2942 101.241 29.619C101.094 29.9439 100.877 30.2326 100.607 30.4648C99.7327 31.2144 98.6308 31.4205 97.4414 31.4205C96.3483 31.4205 95.1239 31.2144 94.3369 30.6314C93.9097 30.3232 93.5607 29.9185 93.3185 29.4501C93.0763 28.9818 92.9473 28.4628 92.942 27.9351H90.043C90.0561 29.4203 90.6569 30.8396 91.7133 31.8808C93.1781 33.3144 95.1546 33.8274 97.3015 33.8274C99.5534 33.8274 101.595 33.2487 102.925 31.8808C103.825 30.9388 104.315 29.6776 104.289 28.3736C104.289 25.7738 102.365 23.9938 99.8945 23.5861Z" fill="#00354F"/>
<path d="M111.623 28.6282V18.5974H116.734V16.1029H111.623V11.5303L108.723 12.4992V16.1073H105.383V18.6018H108.723V28.957C108.723 31.2806 109.747 33.6349 113.463 33.6349C114.627 33.6378 115.786 33.4769 116.905 33.157V30.6624C115.925 30.8338 114.934 30.9364 113.94 30.9693C112.335 30.9649 111.623 30.2854 111.623 28.6282Z" fill="#00354F"/>
<path d="M133.662 31.1706C133.08 31.1706 132.704 30.9339 132.704 30.0088V21.6396C132.719 20.7284 132.547 19.8239 132.197 18.9828C131.379 17.1021 129.468 15.6685 126.128 15.6685C124.016 15.6685 121.969 16.2822 120.811 17.5142C119.852 18.4744 119.313 19.7768 119.311 21.1354H122.14C122.136 20.7462 122.211 20.3601 122.362 20.0012C122.512 19.6423 122.734 19.3181 123.014 19.0486C123.596 18.4699 124.584 18.0227 126.15 18.0227C127.549 18.0227 128.401 18.3647 128.979 18.8995C129.761 19.6185 129.853 20.6751 129.853 21.53V22.797L124.606 23.1039C119.901 23.3757 118.484 26.2823 118.484 28.5007C118.484 31.1662 120.461 33.8317 124.414 33.8317C126.832 33.8317 128.979 32.7401 129.967 30.9952H130.037C130.037 32.4639 130.99 33.6257 132.525 33.6257C133.184 33.6489 133.839 33.5089 134.431 33.218V31.0654C134.179 31.124 133.921 31.1592 133.662 31.1706ZM129.844 26.0807C129.89 27.5374 129.364 28.954 128.38 30.0264C127.913 30.4873 127.359 30.849 126.749 31.0901C126.14 31.3311 125.488 31.4465 124.833 31.4293C122.38 31.4293 121.427 29.9913 121.427 28.4569C121.427 26.2648 123.469 25.4494 125.209 25.3441L129.844 25.0723V26.0807Z" fill="#00354F"/>
<path d="M7.28516 -0.000488281V13.1386L14.2289 10.175L15.4444 9.65766V10.986V37.7685L23.9754 34.4672V7.11927L7.28516 -0.000488281Z" fill="#00C2CC"/>
<path d="M14.5699 38.1063V10.9863L12.8952 11.7009L7.28516 14.0946V40.9253L10.9275 39.518L14.5699 38.1063Z" fill="#00354F"/>
</g>
</g>
<defs>
<clipPath id="clip0_185_4320">
<rect width="134.676" height="46.9098" fill="white"/>
</clipPath>
</defs>
</svg>
