<svg width="98" height="44" viewBox="0 0 98 44" fill="none" xmlns="http://www.w3.org/2000/svg">
<g clip-path="url(#clip0_185_4357)">
<path d="M91.9048 0.00952148H13.2092C5.93634 0.00952148 0 5.91134 0 13.142V37.4945C0 40.5711 2.53468 43.091 5.62928 43.091H84.3248C91.5707 43.091 97.5341 37.1892 97.5341 29.9586V5.60608C97.5341 2.52947 94.9994 0.00952148 91.9048 0.00952148Z" fill="#FF6200"/>
<path d="M50.0458 27.4923H49.0433C48.7634 27.4653 48.6821 27.3815 48.652 27.1032V13.887C48.652 13.2495 48.5135 12.7796 48.1794 12.4474C47.8452 12.1152 47.3425 11.9775 46.7314 11.9775H43.6097C43.5525 11.9775 43.5254 12.0045 43.4713 12.0344C43.4442 12.0613 43.4141 12.1182 43.4141 12.1721V14.9434C43.4141 15.0003 43.4412 15.0272 43.4713 15.0811C43.4984 15.108 43.5555 15.1379 43.6097 15.1379H44.6423C44.9493 15.1649 45.0035 15.2217 45.0336 15.527V28.6864C45.0336 29.3239 45.1721 29.8237 45.5062 30.1559C45.8404 30.4881 46.3431 30.6257 46.9843 30.6257H50.106C50.1632 30.6257 50.1903 30.5988 50.2445 30.5689C50.2716 30.5419 50.3017 30.4851 50.3017 30.4312V27.6898C50.3017 27.6329 50.2746 27.606 50.2445 27.5521C50.1602 27.4953 50.106 27.4953 50.0488 27.4953" fill="white"/>
<path d="M37.283 16.7959C35.248 16.7959 33.5201 17.5172 32.322 18.7622C31.0968 20.0102 30.3984 21.7819 30.3984 23.832C30.3984 25.7444 31.0938 27.5161 32.3491 28.7911C33.6044 30.066 35.4437 30.8681 37.6713 30.8681C41.0429 30.8681 43.0779 28.8449 43.105 28.8449C43.1622 28.7881 43.1892 28.7073 43.1321 28.6235L41.7654 26.3519C41.7383 26.2951 41.6811 26.2681 41.6269 26.2681C41.5727 26.2681 41.5155 26.2681 41.4884 26.325C41.4884 26.325 41.0971 26.6841 40.4559 27.0463C39.8147 27.4054 38.9236 27.7675 37.8911 27.7675C36.0247 27.7675 34.4624 26.6871 34.1282 24.6101H43.0177C43.102 24.6101 43.1862 24.5263 43.1862 24.4425C43.1862 24.4425 43.2705 23.6105 43.2705 23.2245C43.2705 21.4527 42.7407 19.8456 41.7112 18.6814C40.7358 17.5172 39.2036 16.7989 37.28 16.7989L37.283 16.7959ZM34.2727 21.9765C34.6911 20.5369 35.7508 19.7049 37.283 19.678C38.4811 19.678 39.4565 20.5908 39.5678 21.9765H34.2727Z" fill="white"/>
<path d="M87.7782 27.4626C87.721 27.4357 87.6668 27.4057 87.6397 27.4357C87.6397 27.4357 87.417 27.4925 87.0828 27.4925C86.1918 27.4656 84.6595 27.2441 84.6595 25.194V20.0674H87.4742C87.5314 20.0674 87.5585 20.0404 87.6126 20.0105C87.6397 19.9836 87.6698 19.9267 87.6698 19.8728V17.2691C87.6698 17.2122 87.6427 17.1853 87.6126 17.1314C87.5856 17.1045 87.5284 17.0746 87.4742 17.0746H84.6595V13.7226C84.6595 13.6657 84.6324 13.6388 84.6023 13.5849C84.5752 13.558 84.518 13.5281 84.4639 13.5281H81.2579C81.2007 13.5281 81.1736 13.555 81.1194 13.5849C81.0923 13.6119 81.0622 13.6687 81.0622 13.7226V17.1314H79.4457C79.3885 17.1314 79.3614 17.1584 79.3072 17.1883C79.2801 17.2152 79.25 17.2721 79.25 17.326V19.9297C79.25 19.9866 79.2771 20.0135 79.3072 20.0674C79.3343 20.0943 79.3915 20.1242 79.4457 20.1242H80.9779V25.6639C80.9779 27.9085 81.9262 29.2373 83.1243 29.9317C84.3224 30.6529 85.7161 30.7637 86.6343 30.7906C87.2484 30.7906 87.6668 30.7068 87.6668 30.7068C87.7511 30.6799 87.8053 30.623 87.8053 30.5392V27.6033C87.8324 27.5464 87.8053 27.4925 87.7782 27.4656" fill="white"/>
<path d="M58.1775 16.7959C56.1426 16.7959 54.4448 17.5172 53.2166 18.7622C51.9914 20.0102 51.293 21.7819 51.293 23.832C51.293 25.7444 51.9883 27.4892 53.2436 28.7911C54.4989 30.066 56.3382 30.8681 58.5659 30.8681C61.9374 30.8681 63.9724 28.8449 63.9995 28.8449C64.0567 28.7881 64.0838 28.7073 64.0266 28.6235L62.6599 26.3519C62.6328 26.2951 62.5756 26.2681 62.5214 26.2681C62.4672 26.2681 62.41 26.2681 62.383 26.325C62.383 26.325 61.9916 26.6841 61.3504 27.0463C60.7092 27.4054 59.8182 27.7675 58.7856 27.7675C56.9192 27.7675 55.3569 26.6871 55.0227 24.6101H63.9122C63.9965 24.6101 64.0808 24.5263 64.0808 24.4425C64.0808 24.4425 64.1651 23.6105 64.1651 23.2245C64.1651 21.4527 63.6352 19.8456 62.6057 18.6814C61.6033 17.5172 60.0981 16.7989 58.1745 16.7989L58.1775 16.7959ZM55.1672 21.9765C55.5857 20.5369 56.6453 19.678 58.1775 19.678C59.3757 19.678 60.351 20.5908 60.4624 21.9765H55.1672Z" fill="white"/>
<path d="M77.3509 25.9961C77.3238 25.9392 77.2666 25.9123 77.2124 25.9123C77.1583 25.9123 77.1011 25.9392 77.074 25.9691C77.074 25.9691 76.6826 26.3851 75.9873 26.8281C75.319 27.271 74.3707 27.687 73.284 27.687C71.2219 27.687 69.3555 26.4121 69.3555 23.8353C69.3555 21.5637 70.9149 19.9297 73.0883 19.9297C73.4797 19.9297 73.9252 20.0135 74.2593 20.1511C74.5935 20.3187 74.7891 20.5103 74.7891 20.7617V21.4829C74.7891 21.5398 74.8162 21.5667 74.8463 21.6206C74.8734 21.6475 74.9306 21.6775 74.9848 21.6775H77.8837C77.9409 21.6775 77.968 21.6505 78.0222 21.6206C78.0493 21.5937 78.0794 21.5368 78.0794 21.4829V19.9596C78.0794 18.7415 77.2426 17.9364 76.213 17.4666C75.1805 16.9967 73.9824 16.8291 73.0913 16.8291C70.7794 16.8291 68.9401 17.6312 67.6577 18.936C66.3753 20.2379 65.707 21.9827 65.707 23.8951C65.707 25.8075 66.4325 27.6062 67.7149 28.8811C68.9973 30.1561 70.8366 30.9312 73.0371 30.9312C76.7157 30.9312 78.7206 28.522 78.7507 28.4921C78.8079 28.4352 78.8079 28.3544 78.7778 28.2975L77.3569 25.9991L77.3509 25.9961Z" fill="white"/>
<path d="M24.6076 19.8456C23.5208 19.3458 22.4341 18.9597 21.6544 18.4868C20.8477 18.017 20.3991 17.5172 20.3991 16.8528C20.3991 15.8262 21.4016 15.081 22.9067 15.081C23.4907 15.081 24.0777 15.2187 24.4962 15.4401C24.9146 15.6616 25.1645 15.9669 25.1645 16.2991V17.1311C25.1645 17.1879 25.1916 17.2149 25.2217 17.2688C25.2488 17.2957 25.306 17.3256 25.3601 17.3256H28.4246C28.4818 17.3256 28.5089 17.2987 28.5631 17.2688C28.5902 17.2418 28.6203 17.185 28.6203 17.1311V15.4401C28.6203 14.0545 27.7293 13.0848 26.6124 12.5042C25.4685 11.9236 24.1048 11.6722 22.991 11.6453C19.3696 11.6453 16.6934 13.8899 16.6934 16.9635C16.6934 20.0371 18.9512 21.312 21.1246 22.3655C23.3252 23.392 25.3872 24.1373 25.333 25.496C25.333 26.7979 24.2192 27.4623 22.8796 27.4922C21.6544 27.4922 20.5677 26.9655 19.785 26.4387C19.0024 25.912 18.5598 25.3853 18.5598 25.3853C18.5327 25.3583 18.4756 25.3284 18.4214 25.3284C18.3672 25.3284 18.31 25.3553 18.2829 25.3853L16.3593 27.7406C16.3021 27.7975 16.3021 27.9082 16.3593 27.9621C16.3593 27.989 18.6712 30.8441 22.8255 30.8711C24.7761 30.8711 26.3656 30.2336 27.4523 29.237C28.539 28.2105 29.123 26.8278 29.123 25.3314C29.0116 22.2548 26.7539 20.8422 24.6076 19.8456Z" fill="white"/>
<path d="M14.9098 29.1265C14.38 28.516 14.4914 27.2141 14.4643 27.1034V19.0408C14.4643 18.4033 14.3258 17.9334 13.9917 17.6012C13.6575 17.269 13.1849 17.1313 12.5437 17.1313H9.86755C9.81035 17.1313 9.78326 17.1583 9.72907 17.1882C9.70198 17.2151 9.67188 17.272 9.67188 17.3259V20.0972C9.67188 20.1541 9.69897 20.181 9.72907 20.2349C9.75616 20.2618 9.81336 20.2918 9.86755 20.2918H10.4515C10.7586 20.3187 10.8128 20.3756 10.8429 20.6808V28.7165C10.8429 29.354 10.9814 29.8538 11.3155 30.186C11.6496 30.5182 12.1223 30.6559 12.7635 30.6559H15.8852C15.9424 30.6559 15.9694 30.6289 16.0236 30.599C16.0507 30.5721 16.0808 30.5152 16.0808 30.4613V30.3237C15.4125 29.7131 14.9941 29.2432 14.9098 29.1325" fill="white"/>
<path d="M12.1267 15.6615C13.1863 15.6615 14.0503 14.8025 14.0503 13.7491C14.0503 12.6956 13.1863 11.8367 12.1267 11.8367C11.0671 11.8367 10.2031 12.6956 10.2031 13.7491C10.2031 14.8025 11.04 15.6615 12.1267 15.6615Z" fill="white"/>
</g>
<defs>
<clipPath id="clip0_185_4357">
<rect width="97.5341" height="43.0965" fill="white"/>
</clipPath>
</defs>
</svg>
