<svg width="130" height="33" viewBox="0 0 130 33" fill="none" xmlns="http://www.w3.org/2000/svg">
<path d="M64.129 23.5399C64.129 21.7859 63.3351 21.1084 62.4408 21.1084C61.5465 21.1084 60.7427 21.7456 60.7427 23.5399C60.7427 25.3341 61.5465 26.025 62.4006 26.0015H62.4408C63.3619 26.0015 64.129 25.3274 64.129 23.5399ZM70.8279 23.7947C70.8279 26.2899 69.9336 28.0808 68.4397 29.2546C67.4215 30.0628 65.4487 30.8643 62.6452 30.7604H62.4207C59.6306 30.7604 57.8956 30.0092 56.9343 29.2479C55.4471 28.0539 54.5696 26.1859 54.5696 23.8518C54.5696 21.3365 55.5242 19.492 57.0817 18.3483C58.0061 17.6642 59.7646 16.9062 62.7724 16.9062C68.6943 16.9062 70.8279 19.9715 70.8279 23.7947ZM105.12 30.1903V26.6689H97.5901V25.7298H104.949V22.6344H97.6002V21.6584H105.12V17.4697H91.6482L91.6683 30.1869H105.12V30.1903ZM111.832 30.5189C115.115 30.5189 116.886 29.9454 117.452 29.6671C119.037 28.8722 119.864 27.4335 119.864 25.7567C119.864 23.9624 119.037 22.8188 117.295 22.3761C115.895 22.0273 114.455 22.1615 113.038 22.1011C112.16 22.0676 112.12 21.8161 112.12 21.6484C112.12 21.4472 112.194 21.256 112.7 21.1856C112.73 21.1856 113.175 21.1487 113.855 21.1487H114.214C115.908 21.1487 117.529 21.2627 119.231 21.531V17.7044C117.004 17.3154 114.981 17.1544 113.443 17.1544C109.889 17.1544 108.523 17.7279 107.793 18.1672C106.419 19.0023 105.776 20.1694 105.776 21.8697C105.776 23.7947 106.637 24.9987 108.164 25.5957C108.643 25.7734 109.558 25.9881 110.991 25.9881C111.36 25.9881 111.748 25.978 112.13 25.978C112.994 25.978 113.081 26.0283 113.135 26.0551C113.366 26.1356 113.433 26.2664 113.433 26.4106C113.433 26.6487 113.343 26.8131 112.887 26.8936C112.857 26.8936 112.345 26.9405 111.641 26.9405H110.891C109.96 26.9405 108.218 26.8265 106.248 26.5146V30.0192C108.513 30.3948 110.271 30.5189 111.829 30.5189M44.5446 30.1903V26.1122H47.7132V30.1903H53.6552V17.473H47.7132V21.8697H44.5748V17.473H38.5859V30.1903H44.548H44.5446ZM71.682 30.1903V17.473H79.2886L81.1543 23.4862L83.0434 17.473H90.6299V30.1903H84.8354V23.9624L82.7855 30.1903H79.503L77.4732 23.9624V30.1903H71.6854" fill="#1A3A67"/>
<path d="M85.5954 2.52895H79.4022V15.2261H85.5954V2.52895ZM77.7643 14.3675L73.4737 8.99488L77.7074 3.70274V3.67256L78.662 2.51889H71.0051L67.9973 7.21407V2.51889H61.7338V15.2328H67.9973V11.101L71.1023 15.2328H78.4543L77.761 14.3675H77.7643ZM58.1298 8.76347V8.73665H53.3702V10.5175H55.2425V13.1434L55.1354 13.1904C54.2946 13.6968 53.253 13.9584 52.1677 13.9584C51.5246 13.9584 50.8648 13.8846 50.2619 13.6834C48.4431 13.1434 46.9526 11.7013 46.9526 9.09549C46.9526 6.28509 48.3761 4.84971 50.3322 4.30976C50.972 4.12531 51.6754 4.04147 52.4055 4.04147C54.6162 4.04147 56.4986 4.7994 57.6474 6.21466V3.67256C56.11 2.68322 54.2008 2.17681 52.2146 2.17681C50.0274 2.17681 48.1048 2.79724 46.7315 3.8872C45.6329 4.79605 44.5343 6.47625 44.5343 8.95463C44.5343 12.2815 46.5674 14.2702 49.2604 15.0684C50.1547 15.3367 51.1327 15.4575 52.0974 15.4575C54.4856 15.4575 56.723 14.6693 58.1566 13.2943V8.76012H58.1231L58.1298 8.76347ZM38.4818 15.4608C39.2656 15.4608 39.979 15.377 40.6087 15.2395C42.4677 14.7599 43.5362 13.6096 43.5362 11.6074L43.5462 2.49206H40.9303L40.9169 11.3894C40.9169 12.5464 40.5987 13.016 40.1297 13.3815C39.5804 13.8343 38.9005 14.0657 37.8488 14.0657C37.132 14.0657 35.9329 13.8343 34.8945 13.3044V14.8538C36.1037 15.2831 37.3463 15.4575 38.4818 15.4575M92.9475 15.2328V9.81318L97.1109 15.2328H102.698V2.51889H96.4879V7.61315L93.0279 2.51889H86.6505V15.2328H92.9475ZM113.252 11.9931V8.59244H119.241V14.4581C116.042 15.2529 114.059 15.4608 112.19 15.4608C110.646 15.4608 106.643 15.4105 104.63 12.6236C103.987 11.7147 103.485 10.3062 103.485 8.83726C103.485 6.72442 104.249 5.16496 105.538 4.03811C106.583 3.10578 108.419 2.10303 112.91 2.10303C115.097 2.10303 117.141 2.32773 119.003 2.74023V7.20401C116.712 6.84516 115.215 6.75461 114.163 6.75461C112.817 6.75461 112.08 6.89546 111.852 6.96254C110.405 7.37169 109.742 8.3342 109.742 9.4644C109.742 10.8696 110.773 12.04 112.622 12.04C112.817 12.04 113.038 12.0166 113.249 11.9931" fill="#1A3A67"/>
<path d="M2.40234 2.5188H20.9148L11.2014 13.8409L19.5885 30.17H2.40234V2.5188Z" fill="#1A3A67"/>
<path d="M28.8926 2.5188V30.1432L19.1758 13.8878L28.8926 2.5188Z" fill="#EE3525"/>
<path d="M120.879 27.192C120.879 26.7258 120.966 26.2899 121.147 25.8807C121.321 25.4716 121.566 25.1194 121.87 24.8142C122.175 24.5124 122.534 24.2743 122.939 24.0999C123.344 23.9222 123.783 23.835 124.245 23.835C124.707 23.835 125.143 23.9222 125.555 24.0999C125.96 24.2776 126.322 24.5158 126.627 24.8142C126.931 25.1194 127.169 25.4716 127.35 25.8807C127.528 26.2899 127.618 26.7258 127.618 27.192C127.618 27.6582 127.531 28.0874 127.35 28.4899C127.169 28.8957 126.931 29.2445 126.627 29.5463C126.322 29.8448 125.96 30.0863 125.555 30.2539C125.143 30.4283 124.711 30.5122 124.245 30.5122C123.78 30.5122 123.344 30.4283 122.939 30.2539C122.534 30.0829 122.175 29.8448 121.87 29.5463C121.566 29.2411 121.321 28.8923 121.147 28.4899C120.966 28.0841 120.879 27.6548 120.879 27.192ZM121.411 27.192C121.411 27.5777 121.489 27.9399 121.636 28.2853C121.787 28.6274 121.984 28.9326 122.242 29.1908C122.5 29.4524 122.798 29.657 123.14 29.8079C123.488 29.9521 123.86 30.0259 124.252 30.0259C124.644 30.0259 125.015 29.9521 125.36 29.8079C125.702 29.6603 126.004 29.4558 126.258 29.1908C126.513 28.9326 126.717 28.6274 126.864 28.2853C127.015 27.9399 127.085 27.5777 127.085 27.192C127.085 26.8063 127.012 26.4274 126.864 26.0786C126.717 25.7365 126.513 25.4347 126.258 25.1764C126.004 24.9216 125.702 24.7203 125.36 24.5694C125.015 24.4219 124.644 24.3447 124.252 24.3447C123.86 24.3447 123.491 24.4185 123.14 24.5694C122.798 24.717 122.5 24.9216 122.242 25.1764C121.988 25.4313 121.787 25.7332 121.636 26.0786C121.489 26.424 121.411 26.7929 121.411 27.192ZM122.939 25.2804H124.262C124.443 25.2804 124.614 25.2972 124.781 25.3408C124.949 25.3777 125.103 25.4447 125.237 25.5319C125.367 25.6191 125.471 25.7332 125.551 25.8707C125.628 26.0115 125.672 26.1825 125.672 26.3905C125.672 26.6655 125.592 26.8902 125.434 27.0612C125.273 27.2323 125.066 27.3496 124.794 27.4066L125.816 29.0634H124.992L124.104 27.4838H123.612V29.0634H122.939V25.2804ZM124.161 26.9371C124.359 26.9371 124.54 26.9002 124.724 26.8265C124.898 26.7527 124.992 26.6018 124.992 26.3771C124.992 26.1691 124.908 26.0316 124.748 25.9646C124.583 25.8941 124.416 25.8639 124.238 25.8639H123.615V26.9405H124.168L124.161 26.9371Z" fill="#1A3A67"/>
</svg>
