<svg width="142" height="46" viewBox="0 0 142 46" fill="none" xmlns="http://www.w3.org/2000/svg">
<path d="M105.15 32.0175C103.067 33.2117 100.782 33.647 98.4466 33.647C92.9593 33.647 89.1523 29.683 89.1523 24.2009C89.1523 18.7189 92.9593 14.7549 98.4466 14.7549C101.113 14.7549 103.272 15.5678 104.92 17.2441L103.704 18.5139C102.606 17.1937 100.4 16.2801 98.4466 16.2801C93.7473 16.2801 90.8255 19.7333 90.8255 24.2009C90.8255 28.6686 93.7473 32.1218 98.4466 32.1218C100.375 32.1218 102.102 31.8664 103.477 31.0571V25.0103H99.159V23.4851H105.154V32.0175H105.15Z" fill="#221F1F"/>
<path d="M114.07 15.208H115.798L123.368 33.1828H121.486L119.529 28.4095H110.008L107.975 33.1828H106.223L114.07 15.208ZM114.858 17.0353L110.666 26.8879H118.921L114.858 17.0353Z" fill="#221F1F"/>
<path d="M124.43 15.208H126.589L137.534 30.949H137.588V15.208H139.262V33.1828H137.103L126.157 17.4418H126.11V33.1828H124.43V15.208Z" fill="#221F1F"/>
<path d="M42.2227 15.208H43.8994V23.1289H44.0506L52.7619 15.208H55.0755L45.9828 23.4346L55.5829 33.1828H53.1685L44.0506 23.8915H43.8994V33.1828H42.2227V15.208Z" fill="#221F1F"/>
<path d="M61.7305 15.208H63.4577L71.0248 33.1828H69.1465L67.1927 28.4095H57.6681L55.6351 33.1828H53.8828L61.7305 15.208ZM62.5186 17.0353L58.3302 26.8879H66.5846L62.5222 17.0353H62.5186Z" fill="#221F1F"/>
<path d="M72.0898 15.208H74.2488L85.1946 30.949H85.245V15.208H86.9181V33.1828H84.7628L73.817 17.4418H73.7666V33.1828H72.0898V15.208Z" fill="#221F1F"/>
<path d="M42.2305 36.7084H42.8638V43.4746H42.2305V36.7084ZM46.0518 36.7084H46.865L50.985 42.6292H51.0065V36.7084H51.6362V43.4746H50.8266L46.7067 37.5501H46.6887V43.4746H46.0554V36.7084H46.0518ZM54.4356 42.2192C54.7739 42.7839 55.3172 43.0717 55.9865 43.0717C56.8357 43.0717 57.5049 42.5537 57.5049 41.7444C57.5049 39.8523 54.0183 40.9602 54.0183 38.3918C54.0183 37.1868 55.051 36.5393 56.188 36.5393C56.922 36.5393 57.5733 36.7875 58.0303 37.3882L57.4869 37.7803C57.1739 37.3415 56.7493 37.1112 56.1664 37.1112C55.3568 37.1112 54.6479 37.5321 54.6479 38.3918C54.6479 40.4278 58.1382 39.2012 58.1382 41.7444C58.1382 42.9674 57.1343 43.6472 56.0369 43.6472C55.1445 43.6472 54.3637 43.3595 53.8383 42.6221L54.4356 42.2228V42.2192ZM62.2186 37.2803H59.905V36.7048H65.162V37.2803H62.8483V43.471H62.2186V37.2803ZM67.5476 36.7084H68.1773V43.4746H67.5476V36.7084ZM72.8694 37.2803H70.5557V36.7048H75.8127V37.2803H73.499V43.471H72.8694V37.2803ZM83.002 40.881C83.002 42.3235 82.3831 43.6436 80.5372 43.6436C78.6913 43.6436 78.0688 42.3235 78.0688 40.881V36.7048H78.6985V40.7192C78.6985 41.6832 78.9576 43.0681 80.5336 43.0681C82.1096 43.0681 82.3687 41.6796 82.3687 40.7192V36.7048H82.9984V40.881H83.002ZM87.3846 37.2803H85.0709V36.7048H90.328V37.2803H88.0143V43.471H87.381V37.2803H87.3846ZM92.5193 36.7084H96.6572V37.2839H93.149V39.6904H96.4377V40.2623H93.149V42.899H96.8084V43.4746H92.5157V36.7084H92.5193Z" fill="#221F1F"/>
<path d="M1.8125 1.67944V19.4457L23.812 43.5032H34.362L21.43 29.3593L34.362 15.2154H23.7509L11.5637 28.55V1.67944H1.8125Z" fill="#221F1F"/>
<path d="M31.3493 21.8918V36.8235L24.5234 29.3595L31.3493 21.8918Z" fill="#FCB716"/>
<path d="M1.8125 43.4995V19.4275L23.8624 43.4995H1.8125Z" fill="#FCB716"/>
</svg>
