<svg width="121" height="66" viewBox="0 0 121 66" fill="none" xmlns="http://www.w3.org/2000/svg">
<path d="M46.0659 62.9431C44.154 62.9431 42.9805 61.6539 42.9805 59.9924V54.6754C42.9805 53.0178 44.154 51.7246 46.0659 51.7246C47.9778 51.7246 48.9597 52.9177 48.9597 54.5312V55.8365H47.1755V54.5473C47.1755 53.9187 46.8203 53.4823 46.0978 53.4823C45.3754 53.4823 45.0042 53.9187 45.0042 54.5112V60.1525C45.0042 60.7491 45.3714 61.1855 46.0978 61.1855C46.8243 61.1855 47.1755 60.7491 47.1755 60.1205V58.8313H48.9597V60.1365C48.9597 61.746 47.9618 62.9391 46.0659 62.9391" fill="#F68F1E"/>
<path d="M53.0024 62.9427C51.1383 62.9427 49.9648 61.7176 49.9648 60.008V54.659C49.9648 52.9654 51.1383 51.7402 53.0024 51.7402C54.8664 51.7402 56.0399 52.9654 56.0399 54.659V60.008C56.0399 61.7176 54.8824 62.9427 53.0024 62.9427ZM54.0282 54.5309C54.0282 53.9023 53.661 53.4859 52.9984 53.4859C52.3358 53.4859 51.9885 53.9023 51.9885 54.5309V60.1401C51.9885 60.7687 52.3557 61.1851 52.9984 61.1851C53.641 61.1851 54.0282 60.7647 54.0282 60.1401V54.5309Z" fill="#F68F1E"/>
<path d="M63.671 62.6978V54.9145L63.236 57.2527L62.0944 62.6978H60.5856L59.5119 57.2527L59.0928 54.9145V62.6978H57.3086V51.9678H59.9909L61.1005 57.4129L61.4398 59.3947L61.791 57.4129L62.8847 51.9678H65.551V62.6978H63.671Z" fill="#F68F1E"/>
<path d="M73.292 62.6978V54.9145L72.861 57.2527L71.7194 62.6978H70.2106L69.1329 57.2527L68.7178 54.9145V62.6978H66.9336V51.9678H69.6159L70.7255 57.4129L71.0608 59.3947L71.416 57.4129L72.5057 51.9678H75.176V62.6978H73.292Z" fill="#F68F1E"/>
<path d="M79.5372 62.9421C77.8009 62.9421 76.5156 61.829 76.5156 60.2195V51.9678H78.5393V60.2195C78.5393 60.8481 78.8945 61.2004 79.5372 61.2004C80.1798 61.2004 80.547 60.8481 80.547 60.2195V51.9678H82.4909V60.2195C82.4909 61.829 81.2695 62.9421 79.5332 62.9421" fill="#F68F1E"/>
<path d="M88.494 62.6978L86.4224 58.1215L85.668 56.4119V62.6978H83.8359V51.9678H85.5563L87.5321 56.6241L88.2385 58.3297V51.9678H90.0387V62.6978H88.494Z" fill="#F68F1E"/>
<path d="M93.4097 51.9678H91.418V62.7018H93.4097V51.9678Z" fill="#F68F1E"/>
<path d="M98.2609 53.7374V62.6978H96.2531V53.7374H94.2773V51.9678H100.221V53.7374H98.2609Z" fill="#F68F1E"/>
<path d="M103.066 51.9678H101.074V62.7018H103.066V51.9678Z" fill="#F68F1E"/>
<path d="M104.148 62.6978V51.9678H109.258V53.6894H106.14V56.3479H108.292V57.9294H106.14V60.9082H109.258V62.6978H104.148Z" fill="#F68F1E"/>
<path d="M112.962 62.9425C111.13 62.9425 109.992 61.8455 109.992 60.1719V59.4313H111.824V60.0598C111.824 60.8486 112.191 61.285 112.918 61.285C113.644 61.285 113.98 60.8646 113.98 60.208C113.98 59.3552 113.433 58.7746 112.375 57.9819C111.281 57.1932 110.092 56.1282 110.092 54.6307C110.092 53.1333 111.09 51.748 113.014 51.748C114.702 51.748 115.828 52.9091 115.828 54.5026V55.1953H114.012V54.5507C114.012 53.8901 113.672 53.4056 112.998 53.4056C112.419 53.4056 112.032 53.7739 112.032 54.3705C112.032 55.2714 112.563 55.7398 113.752 56.6086C115.021 57.5575 115.92 58.5264 115.92 59.9758C115.92 61.7014 114.73 62.9425 112.962 62.9425Z" fill="#F68F1E"/>
<path d="M4.28841 52.7493C9.50928 51.2358 14.786 49.3621 27.4869 46.6796C27.5827 46.1871 27.7504 45.5065 27.9659 44.7137C28.0258 44.4455 28.1216 44.0611 28.2493 43.5767C11.7565 47.14 4.93902 50.0908 4.49597 50.1949C3.30252 50.4431 2.51619 53.1096 4.28841 52.7493Z" fill="#F68F1E"/>
<path d="M36.3429 42.2826C36.2551 42.5749 36.1633 42.8551 36.0794 43.1274C36.0236 43.3036 35.9717 43.4717 35.9198 43.6439C35.7521 44.1924 35.5885 44.881 35.4688 45.4296C44.8887 43.5678 53.3267 42.1625 63.6726 41.4218C68.5183 41.0094 71.2883 40.9293 75.8386 40.7171C76.1101 39.536 77.0161 38.3309 78.3653 36.9736C70.8293 37.5181 64.7263 38.0426 56.6915 39.0196C48.9081 39.8443 43.2961 40.8893 36.3429 42.2826Z" fill="#F68F1E"/>
<path d="M117.338 35.6727C115.542 35.3164 105.619 35.1322 90.0123 36.0411C89.4694 37.6025 88.9944 38.9037 88.5234 39.9727C104.402 39.5684 114.061 40.3171 114.496 40.1649C115.797 39.8727 119.042 36.4334 117.338 35.6687" fill="#F68F1E"/>
<path d="M116.873 26.684C116.713 26.684 116.286 27.0403 116.222 27.0924C110.818 31.3924 108.108 28.4857 109.185 26.0794C111.401 26.0714 113.253 24.4099 114.47 23.0126C115.688 21.6152 116.087 19.8776 115.907 18.6124C115.807 17.8998 114.957 15.6136 113.013 15.2813C109.676 14.8609 106.95 18.9247 105.749 22.0997C105.278 23.2608 105.058 24.3938 105.054 25.4628C104.212 26.1435 100.516 30.0992 99.6658 29.3825C98.7318 28.5898 106.559 6.0046 106.795 5.21586C107.034 4.42712 106.18 3.81455 106.18 3.81455L104.543 2.79759C104.543 2.79759 103.865 2.3812 103.114 3.46222C102.141 6.0046 99.3185 15.0931 97.3827 21.6673C95.834 23.2408 93.0878 25.659 90.8965 27.5128C92.3733 22.8644 93.4191 19.0689 93.5588 18.5484C93.6027 18.3882 93.6227 18.2641 93.6187 18.168L93.6985 17.9278C93.8781 17.135 92.9721 16.6065 92.9721 16.6065L91.2438 15.7417C91.2438 15.7417 90.5293 15.3854 89.8547 16.5105L89.731 16.8948C89.6951 16.9389 89.6631 17.0149 89.6232 17.143C89.5514 17.3793 89.4077 17.8477 89.2281 18.4443L88.9447 19.3091C88.9367 19.3491 88.9327 19.3851 88.9287 19.4212C88.2222 21.7394 87.2642 24.8703 87.2642 24.8703C87.2642 24.8703 82.7139 30.5997 82.3028 30.3274C82.0035 30.1272 83.4444 25.1025 84.5181 21.7514C84.5221 21.7434 84.5261 21.7394 84.5301 21.7313L85.5439 19.0048C85.6118 18.7646 85.5838 18.5444 85.516 18.3482C85.488 18.2441 85.4361 18.148 85.3763 18.0599C85.2046 17.7877 84.9931 17.6155 84.9931 17.6155L83.5122 16.5905C83.5122 16.5905 82.8976 16.1701 82.219 17.2351L81.2052 19.9617C81.2052 19.9617 81.1972 19.9937 81.1972 20.0097C80.5386 21.6833 79.7004 24.0455 79.1096 26.1355C77.4332 27.757 73.5655 31.7007 72.827 31.0721C72.2483 30.5796 75.1301 21.4871 77.4532 14.4725L81.8318 13.9961C82.235 13.9521 82.7818 13.0632 82.7818 13.0632C82.7818 13.0632 84.2387 10.9412 83.9872 10.4167C83.8874 10.2326 81.5165 10.3767 78.7344 10.645C79.5407 8.25471 80.1195 6.57714 80.1794 6.37295C80.4188 5.58421 79.5647 4.97564 79.5647 4.97564L77.9282 3.95868C77.9282 3.95868 77.2496 3.53829 76.4992 4.62331C76.0721 5.74436 75.2618 8.18665 74.3238 11.1374C71.925 11.4417 69.9532 11.766 69.6897 11.9742C68.9752 12.5347 68.4843 14.6207 68.4843 14.6207C68.4843 14.6207 68.2368 15.4775 68.64 15.4334L73.1264 14.945C72.6873 16.3583 72.2403 17.8117 71.8052 19.229C71.7932 19.253 71.7853 19.2811 71.7773 19.3091C71.0388 21.1428 66.9795 29.4226 65.8858 30.6197C65.9337 30.2113 65.9377 29.8109 65.9058 29.4105C65.6344 26.7481 63.9021 24.0375 63.926 22.7083C63.954 20.9947 64.8201 21.1668 65.3789 20.5542C65.5825 20.334 65.5785 19.8856 65.1953 19.5813C64.5247 19.0488 63.9739 18.4643 62.1897 18.6605C55.967 19.3371 61.1759 27.5208 62.1139 29.6227C62.2695 29.6868 57.9827 28.0212 56.7773 28.1494C55.5639 28.2815 54.9172 29.8149 55.1966 31.2363C55.2046 31.2723 55.2126 31.3123 55.2206 31.3524C55.037 31.4605 54.8134 31.6446 54.7655 31.6847C54.1788 32.1491 53.624 32.5335 53.1051 32.8338C48.8142 35.3601 46.7666 32.8137 47.7286 30.6677C49.9438 30.6597 51.7959 28.9982 53.0133 27.6009C54.2347 26.2035 54.6298 24.4659 54.4542 23.2007C54.3544 22.4881 53.5042 20.2019 51.5604 19.8696C49.0617 19.5533 46.9103 21.7514 45.4774 24.2097C43.8927 24.3218 41.8411 24.522 39.9092 24.7502C40.1447 23.9975 40.5838 22.4921 40.7435 21.9716H40.7674C42.1085 17.3753 43.6572 13.7639 44.1562 13.6358C45.4374 13.3074 44.6072 17.6796 44.8467 17.7476C45.0702 18.164 45.7169 18.0119 45.7169 18.0119L46.9782 17.6435C46.9782 17.6435 47.3973 17.5034 47.3973 16.7227C47.4931 16.3023 46.4832 11.5138 46.2717 11.2335C46.0601 10.9532 45.5931 10.5809 45.2538 10.4848C44.9146 10.3887 44.9186 10.3927 43.2421 10.6209C41.5697 10.8491 40.6157 11.6819 40.1128 12.6028C39.6418 13.4596 38.145 17.6836 36.5843 22.428C36.3768 23.0606 35.9217 24.602 35.6862 25.3347C34.7363 25.4949 34.0896 25.643 33.946 25.7551C33.2315 26.3156 32.7405 28.4016 32.7405 28.4016C32.7405 28.4016 32.4931 29.2584 32.8962 29.2144L34.5167 29.0382C34.1575 30.1953 33.7943 31.3604 33.443 32.5095C31.6508 34.163 26.9768 38.7793 26.2105 38.1307C25.2764 37.338 29.2599 27.5248 29.4994 26.736C29.7389 25.9473 28.8847 25.3387 28.8847 25.3387L27.2522 24.3218C27.2522 24.3218 26.5737 23.9014 25.8233 24.9864C24.3305 28.8901 22.3148 35.4562 22.0074 37.4301C21.8717 38.419 22.2269 39.512 23.5681 40.3688C24.9052 41.2256 25.468 41.4819 25.8273 41.5339C26.1865 41.586 26.8251 41.4498 27.1844 41.2937C27.4478 41.1776 30.3217 38.9355 31.9063 37.5862C30.9284 40.8613 30.178 43.4958 29.9585 44.5167C29.699 45.4896 29.5074 46.2864 29.4316 46.7868C29.228 48.7407 31.3714 50.9147 32.5569 50.6425C33.7304 50.138 33.0439 48.052 33.2834 46.6187C33.2834 46.6187 33.6067 44.9731 33.934 43.8841C33.9859 43.712 34.0378 43.5398 34.0976 43.3676C34.7882 41.1736 35.6822 38.2508 36.1852 36.5893C37.0952 33.6906 37.8576 31.3524 38.7198 28.5938L43.8768 28.0333C43.7211 28.6659 43.6253 29.2864 43.6093 29.891C43.5894 30.4796 43.6373 31.0481 43.7411 31.5886C44.244 34.2351 46.096 36.285 48.5388 36.9616C50.2951 37.5142 52.7059 36.4812 54.4502 35.4322C55.0929 35.0478 55.6317 34.6635 56.0269 34.3512C56.1386 34.6074 56.2664 34.8236 56.4021 34.9638C57.2363 35.8366 58.6652 36.2049 60.3177 36.0248C62.5649 35.7004 64.0218 34.6995 64.884 33.4784C65.81 32.9779 66.6961 32.1731 67.4864 31.1642C67.8616 30.6837 68.4803 29.5827 69.1788 28.2134C68.8794 29.3024 68.6799 30.0752 68.632 30.3915C68.4963 31.3804 68.8555 32.4734 70.1927 33.3302C71.5298 34.187 72.0926 34.4433 72.4518 34.4953C72.8111 34.5474 73.4497 34.4112 73.8089 34.2551C74.0684 34.139 76.8864 31.9409 78.479 30.5917C78.4949 30.6317 78.5109 30.6677 78.5309 30.6998C79.4569 32.1731 80.4867 33.3943 81.0335 33.7546C81.5804 34.119 82.686 33.9028 83.2089 33.6065C83.7318 33.3102 86.4739 29.9631 86.4739 29.9631C86.4739 29.9631 86.3901 30.5556 86.0708 31.6567C80.5027 36.5653 76.6708 39.3799 78.02 42.5509C79.2533 45.4856 82.3268 44.6288 83.7757 43.9041C86.0429 42.5909 87.0407 39.1957 89.3478 32.3933C92.1378 29.7108 94.7443 27.3446 96.1373 26.0954C95.7741 27.4047 95.5346 28.3456 95.4787 28.7059C95.343 29.6948 95.7022 30.7878 97.0394 31.6446C98.3765 32.5014 98.9393 32.7577 99.2986 32.8097C99.6578 32.8618 100.296 32.7257 100.656 32.5695C100.939 32.4454 104.216 29.879 105.693 28.5898C105.873 28.9982 106.084 29.3865 106.332 29.7469C107.21 31.0281 108.491 31.9649 110 32.3853C113.041 33.3342 118.035 29.5547 118.15 29.1423C118.27 28.7299 117.364 26.7 116.885 26.716M113.492 18.8446C115.448 20.5943 110.658 24.1937 110.064 23.6812C109.469 23.1687 112.518 17.9758 113.492 18.8446ZM52.0354 23.4289C53.9912 25.1786 49.2014 28.778 48.6027 28.2655C48.008 27.753 51.0575 22.5561 52.0354 23.4289ZM59.224 32.7497C58.7411 32.8017 58.4058 32.4934 58.1823 32.2092C57.7153 31.6206 57.7512 30.5997 58.0266 30.3835C58.0466 30.3674 58.0705 30.3554 58.0984 30.3434C58.4736 30.1873 59.5833 30.4355 61.6588 30.996C60.9563 32.1972 59.711 32.7016 59.228 32.7537M80.7501 41.8943C80.1275 41.3377 80.822 40.3048 84.4941 36.4291C82.9455 40.9654 81.3768 42.4508 80.7501 41.8943Z" fill="#002639"/>
<path d="M27.8679 22.8372L29.5044 23.8541C29.5044 23.8541 30.183 24.2745 30.9334 23.1895L32.055 20.4309C32.2945 19.6422 31.4403 19.0336 31.4403 19.0336L29.8078 18.0167C29.8078 18.0167 29.1292 17.5963 28.3788 18.6813L27.2572 21.4399C27.0177 22.2286 27.8719 22.8372 27.8719 22.8372" fill="#002639"/>
<path d="M19.6635 38.4672C19.44 38.4672 16.1949 38.9396 10.6867 40.6092C10.8184 32.7939 17.3884 15.4776 19.5957 12.5989C19.895 11.614 18.8253 10.8413 18.8253 10.8413L17.0571 9.75627C17.0571 9.75627 16.2069 9.22778 15.2649 10.577H15.2729C12.1515 14.6969 5.45383 40.4491 5.29816 41.9825C3.38224 42.7032 3.10683 42.8713 2.62785 43.3238C1.93733 44.0885 2.8394 46.8831 4.87905 46.6709C10.2875 45.5859 13.9118 44.0244 18.7415 42.9634C18.7495 42.9634 18.7614 42.9634 18.7614 42.9634C19.5039 42.8633 19.8871 41.8664 19.8871 41.8664L20.5576 39.7684C20.5576 39.7684 21.0725 38.3231 19.6675 38.4672" fill="#002639"/>
</svg>
