<svg width="155" height="31" viewBox="0 0 155 31" fill="none" xmlns="http://www.w3.org/2000/svg">
<g clip-path="url(#clip0_185_4354)">
<path fill-rule="evenodd" clip-rule="evenodd" d="M47.7492 26.4443V12.6187L38.7862 19.5307L47.7492 26.4443ZM47.0384 10.3231L38.077 3.40731V17.2359L47.0384 10.3239V10.3231ZM35.8121 17.2359V3.40731L26.8506 10.3231L35.8121 17.2359ZM26.1376 12.6202V26.4443L35.1005 19.5315L26.1376 12.6202ZM23.8727 26.4443V12.6202L14.9135 19.5315L23.8727 26.4443ZM23.1627 10.3239L14.2012 3.40808V17.2359L23.1627 10.3239ZM11.9379 17.2359V3.40731L2.97642 10.3231L11.9379 17.2359ZM2.26643 12.6202V26.4443L11.2263 19.5315L2.26643 12.6202ZM50.0125 28.7406C50.0122 28.9512 49.9525 29.1575 49.8402 29.3357C49.7279 29.514 49.5676 29.6569 49.3777 29.7481C49.2241 29.8246 49.0547 29.864 48.8831 29.8631C48.6317 29.8631 48.3878 29.7818 48.187 29.6254L36.943 20.9545L25.7005 29.6262C25.676 29.6476 25.6476 29.653 25.6239 29.6691C25.5825 29.6944 25.5472 29.7266 25.5042 29.7481C25.4736 29.7634 25.4429 29.7711 25.413 29.7787C25.3862 29.7902 25.3578 29.8017 25.3287 29.8117C25.224 29.8426 25.1157 29.8596 25.0066 29.8623H24.9928C24.889 29.8588 24.7859 29.8423 24.6862 29.8132L24.5965 29.7795C24.5681 29.7695 24.5366 29.7634 24.5083 29.7488C24.4653 29.7266 24.4301 29.6952 24.3902 29.6691C24.3649 29.653 24.335 29.6476 24.312 29.6262L13.0688 20.9545L1.82863 29.6262C1.66081 29.7551 1.46044 29.8349 1.2499 29.8565C1.03936 29.8782 0.826949 29.8409 0.63638 29.7488C0.445736 29.6578 0.284774 29.5147 0.172145 29.336C0.0595161 29.1573 -0.000170691 28.9503 3.66648e-07 28.7391V10.3224C3.66648e-07 10.2242 0.0161015 10.1276 0.0421701 10.0349C0.0498373 10.0057 0.0636383 9.97736 0.0720723 9.95052C0.094803 9.88933 0.121437 9.82966 0.151811 9.77188C0.170979 9.74121 0.187081 9.7136 0.208549 9.68447C0.243818 9.6331 0.285988 9.5871 0.329691 9.54186C0.352693 9.51886 0.377228 9.49356 0.405596 9.46902C0.417864 9.45829 0.424764 9.44602 0.437799 9.43682L12.3757 0.227717C12.4025 0.204715 12.4401 0.193981 12.473 0.170979C12.5068 0.152578 12.5351 0.122676 12.5704 0.105041C12.5857 0.0989072 12.6011 0.0973737 12.6141 0.0935401C12.664 0.0705385 12.7161 0.0567375 12.7659 0.0421697C12.8173 0.0299022 12.8656 0.013801 12.9139 0.00613378C12.9668 -0.00153344 13.0182 0.000766722 13.0695 0.000766722C13.1232 0.000766722 13.1731 -0.00230017 13.226 0.00613378C13.2758 0.013801 13.3249 0.0299022 13.3747 0.0421697C13.4238 0.0575042 13.4767 0.0705385 13.5265 0.0935401C13.5403 0.0973737 13.5556 0.0989072 13.5687 0.105041C13.6055 0.122676 13.6323 0.152578 13.6684 0.170979C13.699 0.193981 13.7358 0.204715 13.7657 0.227717L25.0066 8.90011L36.2483 0.227717C36.279 0.204715 36.3166 0.192447 36.3488 0.169446C36.381 0.152578 36.4101 0.123442 36.4484 0.105041C36.4599 0.0989072 36.4737 0.0973737 36.486 0.0935401C36.5359 0.0705385 36.5888 0.0567375 36.6432 0.0421697C36.6907 0.0299022 36.7383 0.013801 36.7889 0.00613378C36.8395 -0.00153344 36.8916 0.000766722 36.9422 0.000766722C36.9959 0.000766722 37.0457 -0.00230017 37.0979 0.00613378C37.1492 0.013801 37.1975 0.0299022 37.2451 0.0421697C37.2972 0.0575042 37.3501 0.0705385 37.4015 0.0935401C37.4137 0.0973737 37.4283 0.0989072 37.4398 0.105041C37.4774 0.122676 37.5042 0.151044 37.5372 0.169446C37.5694 0.192447 37.6062 0.204715 37.6384 0.227717L49.5763 9.43759C49.5878 9.44679 49.5993 9.46059 49.6115 9.46979L49.6828 9.54109C49.7288 9.58556 49.7702 9.63387 49.8078 9.68677C49.8254 9.71591 49.8446 9.74121 49.8607 9.77264C49.8929 9.83015 49.9205 9.88918 49.942 9.95206C49.952 9.97966 49.9635 10.0057 49.9727 10.0341C49.9957 10.1269 50.0125 10.2258 50.0125 10.3231V28.7406ZM56.466 0.128809H59.02L62.5515 7.48398C63.697 5.04657 64.8018 2.56622 65.9496 0.128809H68.3955V13.5902H65.82V5.37089L62.5515 12.4493H62.1827L58.9985 5.39312V13.5894H56.466V0.129576V0.128809ZM70.6381 0.128809H78.4349V2.56699H73.3247V5.58634H78.001V8.00381H73.324V11.1742H78.4104V13.5894H70.6381V0.129576V0.128809ZM80.2697 0.128809H82.9547V11.1742H88.0849V13.5894H80.2697V0.129576V0.128809ZM89.7556 0.128809H94.0646C95.2783 0.128809 96.5127 0.345025 97.3569 1.31723C97.8759 1.91911 98.1788 2.7395 98.1788 3.7324C98.1788 4.85489 97.7234 5.67528 97.0295 6.25492C98.3942 6.94574 98.9363 8.02528 98.9363 9.49202C98.9363 12.1242 97.6804 13.5902 94.3459 13.5902H89.7556V0.128809ZM92.4406 7.72166V11.3253H94.303C95.6448 11.3253 96.2083 10.6352 96.2083 9.49279C96.2083 8.34884 95.6877 7.72166 94.1075 7.72166H92.4406ZM92.4406 2.39294V5.39312H94.1075C95.2116 5.39312 95.5796 4.83342 95.5796 3.86198C95.5796 3.00018 95.1694 2.39294 94.1075 2.39294H92.4406ZM100.618 9.03889V4.68161C100.618 1.57408 102.392 0 105.466 0C108.543 0 110.32 1.57408 110.32 4.68161V9.03889C110.32 12.1441 108.543 13.7205 105.466 13.7205C102.392 13.7205 100.618 12.1449 100.618 9.03889ZM103.303 4.6586V9.05959C103.303 10.3983 103.929 11.2171 105.466 11.2171C107.006 11.2171 107.634 10.3983 107.634 9.06036V4.65937C107.634 3.32221 107.006 2.50335 105.466 2.50335C103.929 2.50335 103.303 3.32221 103.303 4.6586ZM112.26 0.128809H114.946V8.65093C114.946 10.0962 115.184 11.1734 116.961 11.1734C118.736 11.1734 118.975 10.0962 118.975 8.65093V0.128809H121.66V8.7368C121.66 11.9072 120.145 13.7205 116.961 13.7205C113.778 13.7205 112.261 11.9072 112.261 8.7368V0.128809H112.26ZM123.861 0.128809H127.803C131.224 0.128809 133.001 1.35863 133.001 4.57427C133.001 7.11748 132.003 8.19856 130.141 8.69463L132.935 13.5902H129.88L127.369 8.95302H126.548V13.5902H123.861V0.128809ZM126.548 2.54628V6.55778H127.846C129.599 6.55778 130.271 6.10464 130.271 4.5298C130.271 2.89131 129.427 2.54628 127.76 2.54628H126.548ZM134.741 0.128809H137.036L142.363 8.60799V0.128809H144.853V13.5902H142.494L137.23 5.19838V13.5902H134.741V0.128809ZM147.083 0.128809H154.878V2.56699H149.768V5.58634H154.445V8.00381H149.768V11.1742H154.856V13.5894H147.082V0.129576L147.083 0.128809ZM56.466 17.8777H59.7054C62.4311 17.8777 64.2881 18.6682 64.2881 21.857C64.2881 24.7007 62.7877 25.8976 59.8833 25.8976H58.1244V30.5485H56.466V17.8777ZM58.1244 19.4816V24.3135H59.9032C61.9581 24.3135 62.6289 23.6028 62.6289 21.7964C62.6289 19.8658 61.4436 19.4809 59.6663 19.4809H58.1252L58.1244 19.4816ZM66.0723 25.9781V22.4466C66.0723 20.7812 66.267 19.7653 67.1173 18.892C67.8266 18.1606 68.9943 17.7558 70.2586 17.7558C71.5206 17.7558 72.6891 18.1606 73.3991 18.892C74.2494 19.7653 74.4472 20.7812 74.4472 22.4466V25.9781C74.4472 27.6434 74.2494 28.6593 73.3991 29.5127C72.6891 30.2641 71.5206 30.6689 70.2586 30.6689C68.9943 30.6689 67.8266 30.2641 67.1173 29.5127C66.267 28.6593 66.0723 27.6434 66.0723 25.9781ZM67.7307 22.4642V25.9589C67.7307 26.8123 67.8089 27.3804 68.0067 27.7646C68.3809 28.5987 69.133 29.0051 70.2586 29.0051C71.3857 29.0051 72.1348 28.5987 72.5112 27.7646C72.7075 27.3804 72.788 26.8123 72.788 25.9589V22.4642C72.788 21.6139 72.7075 21.0442 72.5112 20.6593C72.1348 19.8244 71.3849 19.4195 70.2586 19.4195C69.133 19.4195 68.3801 19.8244 68.0067 20.6593C67.8089 21.0442 67.7307 21.6139 67.7307 22.4642ZM76.5434 17.8777H78.2034V28.9645H83.0445V30.5485H76.5427L76.5434 17.8777ZM82.53 17.8777H84.4069L87.0345 24.4561L89.662 17.8777H91.4025L87.8043 26.3844V30.5485H86.1267V26.4067L82.53 17.8777ZM92.8102 17.8777H101.028V19.4816H97.7494V30.5485H96.091V19.4824H92.8102V17.8784V17.8777ZM102.811 17.8777H109.308V19.4816H104.47V23.3797H108.954V24.9645H104.47V28.9637H109.308V30.5485H102.811V17.8777ZM112.591 22.4864V25.9382C112.591 26.7893 112.668 27.3804 112.868 27.7646C113.243 28.5987 113.994 28.9836 115.119 28.9836C116.721 28.9836 117.489 28.0912 117.489 26.3231V26.1606H119.149V26.3637C119.149 29.206 117.668 30.6689 115.1 30.6689C113.815 30.6689 112.689 30.2832 111.979 29.5318C111.129 28.6792 110.93 27.6434 110.93 25.9781V22.4466C110.93 20.7812 111.129 19.7454 111.978 18.892C112.689 18.1406 113.815 17.7558 115.1 17.7558C117.668 17.7558 119.149 19.1972 119.149 22.0594V22.2641H117.489V22.1008C117.489 20.3335 116.74 19.441 115.119 19.441C113.994 19.441 113.243 19.8244 112.868 20.6601C112.668 21.0435 112.591 21.6346 112.591 22.4864ZM121.08 17.8777H122.74V23.3797H127.879V17.8777H129.537V30.5485H127.879V24.9645H122.74V30.5485H121.08V17.8777ZM131.791 17.8777H133.059L139.142 27.2378V17.8777H140.624V30.5485H139.379L133.275 21.206V30.5485H131.791V17.8777ZM142.897 30.5485V17.8777H144.555V30.5485H142.897ZM148.32 22.4864V25.9382C148.32 26.7893 148.4 27.3804 148.598 27.7646C148.974 28.5987 149.722 28.9836 150.85 28.9836C152.45 28.9836 153.219 28.0912 153.219 26.3231V26.1606H154.878V26.3637C154.878 29.206 153.398 30.6689 150.831 30.6689C149.546 30.6689 148.421 30.2832 147.707 29.5318C146.86 28.6792 146.662 27.6434 146.662 25.9781V22.4466C146.662 20.7812 146.86 19.7454 147.707 18.892C148.421 18.1406 149.546 17.7558 150.831 17.7558C153.398 17.7558 154.878 19.1972 154.878 22.0594V22.2641H153.219V22.1008C153.219 20.3335 152.468 19.441 150.85 19.441C149.722 19.441 148.974 19.8244 148.598 20.6601C148.4 21.0435 148.32 21.6346 148.32 22.4864Z" fill="black"/>
</g>
<defs>
<clipPath id="clip0_185_4354">
<rect width="154.878" height="30.6689" fill="white"/>
</clipPath>
</defs>
</svg>
