<svg width="96" height="53" viewBox="0 0 96 53" fill="none" xmlns="http://www.w3.org/2000/svg">
<path d="M59.1126 31.1113L42.3125 20.4159V0L59.1126 10.836V31.1113Z" fill="#003E7E"/>
<path d="M59.7305 31.1113L76.5306 20.4159V0L59.7305 10.836V31.1113Z" fill="#003E7E"/>
<path d="M95.2024 31.1113L78.4023 20.4159V0L95.2024 10.836V31.1113Z" fill="#003E7E"/>
<path d="M26.2852 52.2679H24.7271C24.454 52.2679 24.2617 52.0755 24.2617 51.7916V36.4326C24.2617 36.1487 24.4337 36.0571 24.7271 35.9563L26.2852 35.4801C26.528 35.4068 26.7506 35.6724 26.7506 35.9563V51.7916C26.7506 52.0755 26.5685 52.2679 26.2852 52.2679Z" fill="#003E7E"/>
<path d="M38.3225 37.6469C36.4558 37.6469 34.9018 37.8097 33.3754 38.2979V51.7977C33.3754 52.1051 33.1731 52.2679 32.9708 52.2679C32.9708 52.2679 31.6006 52.2679 31.5363 52.2679C31.3064 52.2679 31.1133 52.1051 31.1133 51.7977V38.7772C31.1133 37.4028 31.3708 36.9959 32.3271 36.4986C33.5685 35.8747 36.1156 35.4678 37.4765 35.4678H38.1846C38.3225 35.4678 38.58 35.5311 38.58 35.938V37.2762C38.58 37.4932 38.5248 37.6469 38.3225 37.6469Z" fill="#003E7E"/>
<path fill-rule="evenodd" clip-rule="evenodd" d="M62.0516 52.2666C63.6385 52.2666 65.0793 52.0196 65.9458 51.8276C68.0097 51.2971 68.4575 50.785 68.4478 48.5535V39.4902C68.4478 38.0086 68.3893 36.5179 66.8609 35.6673C65.9944 35.1552 64.612 34.8442 62.4897 34.8442C59.7638 34.8442 56.1422 35.457 55.1784 35.8228C54.9448 35.9143 54.8377 36.0972 54.8766 36.2892C54.9253 36.5545 55.1492 37.6885 55.1492 37.6885C55.1881 37.8714 55.3342 37.9446 55.451 37.9446C55.4915 37.9446 55.5367 37.9358 55.5801 37.9274C55.5992 37.9236 55.6181 37.92 55.636 37.9172C56.8626 37.6062 59.9195 37.0026 62.2268 37.0026C63.5411 37.0026 64.3784 37.1306 64.9527 37.3867C66.0042 37.7983 66.0626 38.6122 66.0626 39.6274V41.109L59.316 42.0967C59.2124 42.1143 59.1097 42.1315 59.008 42.1486C56.2037 42.62 54.1367 42.9674 54.1367 47.0536C54.1367 52.1751 59.4717 52.2666 62.0516 52.2666ZM59.5044 44.0908L66.0661 43.1122V49.6879C64.8102 50.1269 63.3986 50.319 62.0843 50.319C60.108 50.319 56.5935 50.0995 56.5935 46.9351C56.5935 44.63 57.8465 44.3985 59.1727 44.1534C59.283 44.1331 59.3938 44.1126 59.5044 44.0908Z" fill="#003E7E"/>
<path d="M85.8698 51.1328C85.8698 51.4166 85.6942 51.499 85.5869 51.5448C84.8357 51.8927 80.4165 52.268 78.641 52.268C73.0317 52.268 71.5586 49.4848 71.5586 43.5706C71.5586 37.6289 73.0317 34.8457 78.641 34.8457C80.4165 34.8457 84.4065 35.4225 85.1674 35.7704C85.2552 35.8253 85.4893 35.8985 85.4503 36.1824C85.4308 36.3105 85.2259 37.4183 85.2259 37.4183C85.1674 37.6747 85.0796 37.8578 84.6796 37.7571C84.0455 37.5739 80.3482 36.9056 78.7581 36.9056C75.1583 36.9056 74.017 38.5169 74.017 43.5523C74.017 48.6151 75.1583 50.2264 78.7581 50.2264C80.3482 50.2264 84.3772 49.8144 85.0991 49.6313C85.3723 49.5581 85.5869 49.6039 85.6454 49.9701C85.6454 49.9609 85.8698 50.9405 85.8698 51.1328Z" fill="#003E7E"/>
<path d="M21.1557 40.6647C21.1557 37.3173 19.6224 35.4668 16.1795 35.4668H14.4111C12.6614 35.4668 11.3915 35.8115 10.5731 36.5644C9.75475 35.8206 8.48484 35.4668 6.7352 35.4668H4.97614C1.53329 35.4668 0 37.3173 0 40.6647V51.7952C0 52.0764 0.178727 52.2669 0.432708 52.2669H1.88134C2.14473 52.2669 2.31405 52.0764 2.31405 51.7952V40.7191C2.37049 38.8232 3.0854 37.4716 5.03259 37.4716H6.67876C8.7012 37.4716 9.42551 38.1882 9.42551 40.2565V51.7952C9.42551 52.0764 9.60424 52.2669 9.85822 52.2669H11.3069C11.5702 52.2669 11.7396 52.0764 11.7396 51.7952V40.2565C11.7396 38.1882 12.4639 37.4625 14.4581 37.4716C14.9755 37.4716 15.7186 37.4716 16.1043 37.4716C18.0515 37.4716 18.7664 38.8323 18.8228 40.7191V51.7952C18.8228 52.0764 19.0015 52.2669 19.2555 52.2669H20.7041C20.9675 52.2669 21.1369 52.0764 21.1369 51.7952L21.1557 40.6647Z" fill="#003E7E"/>
<path d="M45.3915 52.2679C45.087 52.2679 44.8513 52.0733 44.7629 51.7582L39.8514 36.0423C39.7532 35.7087 39.9398 35.4678 40.1166 35.4678H41.9339C42.2384 35.4678 42.3268 35.6624 42.3857 35.8848L46.9141 50.4146H47.0418L51.5702 35.8848C51.6291 35.6624 51.7175 35.4678 52.0221 35.4678H53.8393C54.0161 35.4678 54.2126 35.7272 54.1045 36.0423L49.193 51.7582C49.1046 52.0733 48.8689 52.2679 48.5644 52.2679H45.3915V52.2679Z" fill="#003E7E"/>
<path d="M40.4497 0C37.0284 3.48167 27.613 5.58775 24.511 14.3726C22.002 21.4877 23.4344 31.7335 23.4344 31.7335C23.4344 31.7335 37.8677 25.9181 40.4497 20.6624V0Z" fill="#003E7E"/>
</svg>
