<svg width="155" height="29" viewBox="0 0 155 29" fill="none" xmlns="http://www.w3.org/2000/svg">
<g clip-path="url(#clip0_188_464)">
<path d="M35.574 21.2124C35.5432 21.2036 35.2411 21.1331 35.1507 21.1177C35.294 20.9348 35.3006 20.9282 35.4814 20.6903C35.7857 20.285 35.4726 19.6681 35.4726 19.6681C35.4726 19.6681 35.1507 19.8774 34.9986 20.2409C34.8134 20.6859 34.9015 20.9018 34.9942 21.0913C34.4892 21.023 34.4628 21.0362 33.8719 21.371C33.3934 21.642 32.8554 21.0252 32.485 20.6771C32.5776 20.6595 32.6989 20.622 32.7694 20.5405C32.8907 20.3973 32.9921 20.1065 32.9921 20.1065C32.9921 20.1065 32.7342 20.1021 32.582 20.2828C32.4938 20.3907 32.4343 20.5119 32.399 20.5956C32.0793 20.2938 31.8765 20.1131 31.6538 19.9787C31.2525 19.7364 30.5998 20.0052 30.3176 19.9215C30.2625 19.9061 30.2052 19.884 30.1434 19.8598C30.2581 19.8752 30.4367 19.8796 30.558 19.7981C30.7498 19.6725 30.9659 19.3619 30.9659 19.3619C30.9659 19.3619 30.6616 19.2694 30.4257 19.4324C30.2316 19.5646 30.0927 19.7518 30.0464 19.8157C29.8171 19.7078 29.568 19.5448 29.3717 19.3465C29.0895 19.0623 28.847 19.1835 28.847 19.1835C28.847 19.1835 28.8646 18.7429 29.2505 18.701C29.6143 18.6614 29.773 18.9742 30.1258 19.0821C30.5381 19.2055 31.0761 19.0227 31.5546 18.9389C31.57 19.0711 31.6317 19.4214 31.839 19.5844C32.097 19.7871 32.6107 19.9457 32.6107 19.9457C32.6107 19.9457 32.5997 19.4919 32.2755 19.243C32.0573 19.0733 31.8037 18.972 31.6604 18.9235C31.7552 18.9103 31.8478 18.9015 31.9338 18.9037C32.3836 18.9081 32.8466 19.0976 32.8775 19.1108C32.8665 19.0909 32.7209 18.8751 32.2028 18.6724C31.462 18.3816 31.4289 18.7671 30.7674 18.8178C30.8666 18.7583 31.0122 18.6504 31.0563 18.5116C31.1268 18.2913 31.1048 17.9168 31.1048 17.9168C31.1048 17.9168 30.8093 18.0335 30.7233 18.3089C30.6594 18.516 30.6616 18.7319 30.666 18.8244C30.6506 18.8244 30.6351 18.8244 30.6197 18.8244C29.8105 18.8244 29.9737 18.3816 29.3276 18.3816C29.1557 18.3816 29.0168 18.3992 28.8977 18.4279C28.9771 18.3794 29.0785 18.3001 29.1138 18.1987C29.1777 18.0225 29.1689 17.7141 29.1689 17.7141C29.1689 17.7141 28.9241 17.8022 28.847 18.0247C28.7852 18.2054 28.7852 18.397 28.7874 18.4609C28.5295 18.5556 28.3818 18.7208 28.201 18.9037C27.9165 19.1857 27.9981 19.5095 27.2308 19.5095C27.1867 19.5095 27.1426 19.5095 27.0963 19.5073C27.2485 19.4677 27.5219 19.3751 27.6431 19.1835C27.8195 18.9147 27.9231 18.397 27.9231 18.397C27.9231 18.397 27.48 18.4477 27.2661 18.7891C27.0853 19.0755 27.0103 19.406 26.9927 19.5029C26.6157 19.4809 26.2496 19.4126 25.9961 19.3553C26.0887 19.3377 26.2188 19.3002 26.2915 19.2165C26.4128 19.0733 26.5142 18.7825 26.5142 18.7825C26.5142 18.7825 26.2563 18.7781 26.1041 18.9588C25.9895 19.0976 25.9233 19.2606 25.8969 19.3333C25.7469 19.2958 25.6565 19.2694 25.6565 19.2694C25.6565 19.2694 25.5551 18.8662 26.0799 18.6239C26.6046 18.3816 26.7744 18.2913 27.0566 18.0093C27.2396 17.8264 27.308 17.637 27.48 17.507C27.5329 17.5973 27.6519 17.778 27.8107 17.8264C28.0268 17.8925 28.395 17.8661 28.395 17.8661C28.395 17.8661 28.2759 17.5775 28.0047 17.4982C27.846 17.4519 27.685 17.4453 27.577 17.4453C27.6564 17.4035 27.7556 17.3726 27.8879 17.355C28.126 17.322 28.6177 17.1942 28.6177 17.1942C28.4854 17.2206 28.3597 17.2206 28.2362 17.2162C28.3266 17.1986 28.4479 17.1611 28.5162 17.0796C28.6375 16.9364 28.7389 16.6456 28.7389 16.6456C28.7389 16.6456 28.4788 16.6412 28.3288 16.8219C28.2076 16.9695 28.1392 17.1479 28.1172 17.2096C27.6982 17.1854 27.2815 17.1744 26.7016 17.9806C26.6112 18.1062 26.5054 18.1789 26.3908 18.2208C26.4701 18.1194 26.576 17.9432 26.5649 17.7339C26.5473 17.4013 26.3996 17.0973 26.3996 17.0973C26.3996 17.0973 26.1107 17.3792 26.124 17.6458C26.1306 17.8507 26.2342 18.1327 26.2849 18.2538C26.0711 18.3023 25.844 18.2781 25.6565 18.3243C25.414 18.386 25.1274 18.5931 24.8782 18.8112C24.8981 18.7032 24.9267 18.4345 24.7724 18.2164C24.5739 17.9388 24.2785 17.7581 24.2785 17.7581C24.2785 17.7581 24.1837 18.1591 24.3402 18.3838C24.4725 18.5732 24.7614 18.7825 24.8451 18.842C24.7768 18.9037 24.7106 18.9676 24.6489 19.0271C24.3667 19.309 24.0426 19.3906 23.6832 19.7122C23.3547 20.0052 23.2488 20.0977 23.0261 20.1792C23.1474 20.0911 23.3326 19.9325 23.3745 19.7408C23.4406 19.45 23.3679 18.9698 23.3679 18.9698C23.3679 18.9698 22.9997 19.1548 22.9225 19.5183C22.8586 19.8179 22.896 20.1197 22.9115 20.2167C22.6226 20.2938 22.2941 20.1946 22.0075 20.2057C21.7208 20.2167 21.6437 20.3048 21.2821 20.4282C21.1762 20.4634 21.0792 20.4546 21.0043 20.4171C20.8257 20.329 20.7573 20.0845 20.9006 19.9149C20.9624 19.84 21.0109 19.7651 21.0572 19.6813C21.163 19.4963 21.2688 19.2694 21.5445 18.9081C21.5709 18.8729 21.5974 18.842 21.6238 18.8112C21.6768 18.9059 21.7914 19.0799 21.9391 19.113C22.142 19.1592 22.4859 19.0667 22.4859 19.0667C22.4859 19.0667 22.3581 18.8112 22.1023 18.7561C21.9457 18.7231 21.787 18.7275 21.6878 18.7385C21.7253 18.701 22.0009 18.4785 22.0361 18.4477C22.0648 18.4279 22.0935 18.4058 22.1265 18.3794C22.336 18.2164 22.4462 18.0644 22.5014 17.9212C22.6447 17.9806 23.0107 18.1128 23.2819 18.0071C23.6236 17.8727 24.0646 17.4607 24.0646 17.4607C24.0646 17.4607 23.6192 17.214 23.1959 17.388C22.9071 17.507 22.6645 17.6965 22.5389 17.8066C22.6204 17.4123 22.336 17.1039 22.7571 16.8505C23.1717 16.6016 23.4737 16.5509 23.8397 16.498C23.8596 16.595 23.9191 16.8175 24.0624 16.9144C24.2498 17.0422 24.6092 17.1259 24.6092 17.1259C24.6092 17.1259 24.5806 16.8153 24.3468 16.6589C24.2101 16.5685 24.058 16.5113 23.9544 16.4826C24.0889 16.4628 24.2344 16.4386 24.3976 16.4033C24.5629 16.3659 24.7878 16.2799 25.0017 16.1896C24.9796 16.3416 24.962 16.6346 25.0921 16.8219C25.2751 17.084 25.7072 17.377 25.7072 17.377C25.7072 17.377 25.8263 16.9519 25.5948 16.628C25.4338 16.4033 25.2178 16.2315 25.1009 16.15C25.2927 16.0685 25.4691 15.9914 25.5882 15.9517C25.7513 15.8966 26.3224 16.0112 26.8538 16.0971C26.8383 16.194 26.8163 16.4143 26.9133 16.5509C27.039 16.7316 27.3389 16.9342 27.3389 16.9342C27.3389 16.9342 27.4204 16.6412 27.2617 16.4165C27.1669 16.2822 27.0434 16.1764 26.9596 16.1147C27.2793 16.1654 27.5726 16.2006 27.7357 16.1786C28.1899 16.1191 29.2262 15.9054 29.7245 16.0354C29.7642 16.0464 29.8039 16.0597 29.8458 16.0751C29.7377 16.2139 29.4621 16.6214 29.5349 17.0928C29.6253 17.6766 29.9428 18.1833 29.9428 18.1833C29.9428 18.1833 30.4036 17.6348 30.3353 17.1677C30.2823 16.8043 30.042 16.3152 29.9362 16.1147C30.5712 16.4121 31.3429 17.2493 31.6163 17.3572C31.6714 17.3792 31.7376 17.388 31.8125 17.388C31.8258 17.4806 31.8721 17.7163 32.0132 17.8242C32.1918 17.9608 32.5467 18.0644 32.5467 18.0644C32.5467 18.0644 32.5357 17.7537 32.3108 17.5841C32.1741 17.4828 32.0198 17.4167 31.9184 17.3814C32.2337 17.3528 32.6327 17.214 32.8775 17.236C33.2104 17.2669 33.4221 17.4784 33.4221 17.7802C33.4221 17.8705 33.4287 17.9674 33.4397 18.0688C33.3339 18.0533 33.1377 18.0423 32.9723 18.1547C32.7342 18.3177 32.5776 18.5622 32.5776 18.5622C32.5776 18.5622 32.915 18.6482 33.1046 18.5204C33.2347 18.4345 33.3758 18.2648 33.4529 18.1657C33.4882 18.3728 33.4882 18.4697 33.5985 18.6349C33.7638 18.8817 33.8388 18.9103 33.8476 19.2253C33.7749 19.2187 33.6624 19.2209 33.5654 19.287C33.4111 19.395 33.3052 19.5536 33.3052 19.5536C33.3052 19.5536 33.5235 19.6064 33.6492 19.5227C33.7197 19.4765 33.7947 19.3928 33.8476 19.3289V19.3377C33.8476 19.7188 33.5742 20.2101 33.5169 20.307C33.4772 20.3577 33.4397 20.4238 33.4309 20.5053C33.4089 20.6925 33.4618 20.8754 33.4618 20.8754C33.4618 20.8754 33.6448 20.7454 33.6646 20.5956C33.6823 20.4568 33.6337 20.2387 33.6271 20.2079C33.7219 20.0977 33.8609 19.8972 33.9821 19.569C33.9865 19.558 33.9887 19.5492 33.9931 19.5382C34.0064 19.6637 34.0461 19.851 34.1607 19.9567C34.3415 20.1263 34.7207 20.2806 34.7207 20.2806C34.7207 20.2806 34.745 19.9391 34.5135 19.7276C34.3349 19.5646 34.1144 19.4633 34.0262 19.428C34.1409 18.9301 33.8939 18.6966 33.7286 18.4763C33.6867 18.4212 33.6668 18.353 33.6602 18.2825C33.7219 18.3794 33.83 18.5182 33.9667 18.56C34.1828 18.6261 34.5532 18.5975 34.5532 18.5975C34.5532 18.5975 34.4319 18.3089 34.1607 18.2296C33.9601 18.1701 33.7506 18.1745 33.6558 18.1811C33.6646 17.9652 33.7594 17.7493 33.7594 17.7493C34.1012 17.9234 34.6767 17.8881 34.9875 17.789C34.9589 18.0247 34.9082 18.7076 35.219 19.1042C35.6005 19.5888 36.467 20.1021 36.467 20.1021C36.467 20.1021 36.65 19.2716 36.1649 18.6724C35.7835 18.1987 35.2786 17.8705 35.0823 17.7537C35.1044 17.7427 35.1242 17.7317 35.1419 17.7207C35.3646 17.5709 35.4461 17.5246 35.7306 17.2779C35.8232 17.4167 36.0856 17.7714 36.4097 17.8397C36.8132 17.9234 37.4746 17.811 37.4746 17.811C37.4746 17.811 37.21 17.3087 36.7051 17.2118C36.3523 17.1435 35.9996 17.1766 35.8188 17.2008C35.9026 17.1281 35.9996 17.04 36.1208 16.9342C35.7196 17.0884 35.6071 17.1369 35.477 17.203C35.6181 17.0862 35.8695 16.8307 35.907 16.476C35.9621 15.9737 35.8144 15.4869 35.8144 15.4869C35.8144 15.4869 35.3139 15.8349 35.2631 16.2359C35.219 16.595 35.3469 17.1457 35.3734 17.2581C35.3227 17.2845 35.2631 17.3176 35.1816 17.3572C34.756 17.5731 34.2224 17.7075 34.0042 17.5092C33.8542 17.3726 33.9005 17.1876 33.4904 16.9761C33.7219 16.9232 34.2621 16.7668 34.4914 16.4121C34.7891 15.9539 34.9655 15.0793 34.9655 15.0793C34.9655 15.0793 34.2136 15.1652 33.852 15.7424C33.5588 16.2095 33.4331 16.7448 33.3956 16.9298C33.378 16.921 33.3581 16.9122 33.3383 16.9056C32.9899 16.758 32.6305 16.8792 32.3263 16.9364C32.4255 16.8748 32.5644 16.769 32.6107 16.6324C32.6812 16.4121 32.6592 16.0376 32.6592 16.0376C32.6592 16.0376 32.3637 16.1544 32.2778 16.4298C32.2116 16.6434 32.2138 16.8659 32.2182 16.9541C32.0661 16.9739 31.9316 16.9629 31.8236 16.877C31.4906 16.606 31.1577 16.3637 31.1577 16.3637C31.1577 16.3637 32.0198 15.9187 32.2689 15.6014C32.3682 15.4737 32.4652 15.3393 32.5534 15.2027C32.657 15.2798 32.9348 15.4626 33.1795 15.4296C33.4882 15.3855 33.9336 15.1366 33.9336 15.1366C33.9336 15.1366 33.6161 14.8458 33.2303 14.9053C32.9679 14.9449 32.7298 15.0529 32.6041 15.119C32.7143 14.9361 32.8091 14.7511 32.8753 14.5815C32.9194 14.4647 33.0009 14.3303 33.098 14.2003C33.1751 14.3391 33.3626 14.6255 33.6139 14.7026C33.9468 14.804 34.5179 14.7621 34.5179 14.7621C34.5179 14.7621 34.3327 14.3171 33.916 14.1959C33.6205 14.11 33.314 14.11 33.1619 14.1188C33.2589 13.9955 33.3625 13.8809 33.4529 13.7906C33.6073 13.8258 34.0174 13.8985 34.2798 13.7355C34.6083 13.5328 34.9919 13.0262 34.9919 13.0262C34.9919 13.0262 34.4848 12.8565 34.0791 13.1143C33.6977 13.3566 33.4309 13.7223 33.3978 13.7708C33.1068 13.9206 32.7716 14.2114 32.7121 14.3722C32.6967 14.4118 32.6812 14.4515 32.6658 14.4889C32.6967 14.3876 32.7121 14.2598 32.6658 14.1387C32.5644 13.8677 32.3417 13.6628 32.3417 13.6628C32.3417 13.6628 32.1344 13.9933 32.2138 14.2136C32.2888 14.4228 32.5423 14.685 32.5622 14.707C32.3902 15.0397 32.1896 15.2908 32.0749 15.4759C32.0308 15.5464 31.9029 15.6235 31.742 15.6984C31.7508 15.6058 31.742 15.4604 31.6582 15.3393C31.5171 15.141 31.3054 15.0132 31.3054 15.0132C31.3054 15.0132 31.2393 15.2996 31.3495 15.4582C31.4223 15.5618 31.5612 15.6741 31.6472 15.7402C31.2723 15.8966 30.7983 16.0266 30.7983 16.0266C30.7983 16.0266 30.2846 15.7314 29.9406 15.5838C30.053 15.5948 30.2162 15.5948 30.3287 15.5199C30.5183 15.3944 30.7299 15.0925 30.7299 15.0925C30.7299 15.0925 30.4323 15.0022 30.1986 15.1608C30.0089 15.2908 29.8722 15.4715 29.8259 15.5375C29.7973 15.5265 29.773 15.5199 29.7488 15.5133C29.202 15.3679 28.7985 15.4362 28.4281 15.4715C28.5626 15.445 28.783 15.3745 28.9264 15.1851C29.1424 14.8987 29.2262 14.544 29.2262 14.544C29.2262 14.544 28.7941 14.577 28.6177 14.8062C28.4523 15.0198 28.3266 15.4318 28.3134 15.4825C28.1172 15.4957 27.9275 15.4935 27.7291 15.434C27.1228 15.2534 26.2607 15.3128 26.2607 15.3128C26.2607 15.3128 26.8824 14.6938 27.1713 14.3766C27.244 14.4294 27.4337 14.5528 27.6012 14.5264C27.8129 14.4955 28.1194 14.3215 28.1194 14.3215C28.1194 14.3215 27.8989 14.1232 27.6343 14.1673C27.4756 14.1937 27.33 14.2554 27.2396 14.2995C27.5263 13.9492 27.6189 13.491 28.04 13.4778C28.234 13.4712 28.3884 13.4249 28.5317 13.372C28.5207 13.4689 28.5185 13.6254 28.5912 13.7311C28.7015 13.8919 28.966 14.0682 28.966 14.0682C28.966 14.0682 29.0388 13.8104 28.8977 13.6121C28.8117 13.491 28.6971 13.394 28.6221 13.339C28.8338 13.2575 29.0278 13.1826 29.2968 13.2398C29.5415 13.2905 29.7355 13.3478 29.8987 13.4051C29.7774 13.5196 29.4908 13.8192 29.4996 14.1012C29.5084 14.4603 29.7752 14.9934 29.7752 14.9934C29.7752 14.9934 30.2162 14.6564 30.1964 14.2069C30.1809 13.8809 30.0575 13.5769 29.9913 13.4381C30.2052 13.5218 30.3661 13.6055 30.5249 13.6804C30.7343 13.7796 30.8755 13.8831 31.0563 13.9117C31.0695 13.9602 31.1687 14.2995 31.3848 14.414C31.6185 14.5374 32.0484 14.5881 32.0484 14.5881C32.0484 14.5881 31.9735 14.2312 31.6802 14.0814C31.4906 13.9844 31.2834 13.9404 31.1621 13.9206C31.301 13.9206 31.473 13.8721 31.7111 13.7553C32.2822 13.4734 32.1829 13.3852 32.4608 13.1209C32.7364 12.8565 33.303 12.731 33.303 12.731C33.5786 12.6561 34.0284 12.4886 34.2357 12.167C34.5466 11.6867 34.734 10.7659 34.734 10.7659C34.734 10.7659 33.9446 10.8562 33.5654 11.462C33.2347 11.9863 33.1068 12.5944 33.0781 12.7464C32.8157 12.775 32.3946 12.8477 32.1984 13.0328C31.6185 13.5813 31.4928 13.5549 30.9769 13.383C31.0827 13.3654 31.2393 13.3258 31.3253 13.2244C31.462 13.0636 31.5766 12.7354 31.5766 12.7354C31.5766 12.7354 31.2834 12.731 31.1136 12.9358C30.9879 13.0878 30.9129 13.2707 30.8821 13.3522C30.8115 13.328 30.7343 13.3037 30.6506 13.2773C29.7377 12.9953 29.6936 12.9336 30.5469 12.4247C30.8556 12.2397 30.9681 12.0634 30.9681 11.755C31.0695 11.8652 31.2767 12.059 31.4972 12.0767C31.8081 12.1031 32.2976 11.9577 32.2976 11.9577C32.2976 11.9577 32.0529 11.6052 31.6626 11.5766C31.3693 11.5546 31.0849 11.6229 30.9637 11.6581C30.9637 11.6295 30.9592 11.6008 30.957 11.5722C30.9151 11.1801 31.3914 11.0325 32.0154 10.9333C32.4078 10.8738 32.7496 10.5192 32.8598 10.3473C32.9723 10.4288 33.2303 10.5764 33.4662 10.5434C33.7749 10.4993 34.2202 10.2504 34.2202 10.2504C34.2202 10.2504 33.9027 9.95961 33.5169 10.0191C33.2303 10.0631 32.9877 10.1799 32.8731 10.2438C32.8554 10.2526 32.8224 10.2834 32.7716 10.3429C32.5247 10.6271 32.1741 10.6888 31.742 10.7351C31.9029 10.6249 32.2292 10.3583 32.3263 9.93317C32.4608 9.3604 32.377 8.77881 32.377 8.77881C32.377 8.77881 31.7927 9.11807 31.6824 9.57629C31.5876 9.96401 31.6295 10.572 31.645 10.7461C31.4994 10.7615 31.3429 10.7769 31.1797 10.7989C30.6506 10.8716 30.5844 11.1492 30.5072 11.5215C30.5072 11.3959 30.4852 11.1779 30.3353 11.0126C30.1104 10.7637 29.8061 10.6227 29.8061 10.6227C29.8061 10.6227 29.7576 11.0236 29.9362 11.2241C30.0927 11.4026 30.4168 11.5832 30.4874 11.6207C30.4676 11.7066 30.4477 11.7969 30.4191 11.8894C30.2427 12.4402 30.0045 12.3278 29.6936 12.5062C29.3166 12.7243 29.2946 12.9557 28.9528 13.0306C29.0322 12.9314 29.149 12.7508 29.138 12.5283C29.1204 12.1956 28.9727 11.8916 28.9727 11.8916C28.9727 11.8916 28.6838 12.1736 28.6948 12.4402C28.7037 12.6428 28.8073 12.9226 28.8558 13.046C28.7566 13.057 28.6331 13.0592 28.4744 13.0482C27.6277 12.9865 27.2948 13.4712 27.0522 13.773C26.8097 14.0748 26.7524 13.1583 26.7391 12.6847C26.7369 12.5745 26.7413 12.46 26.759 12.341C26.8802 12.4247 27.1316 12.5767 27.3565 12.5459C27.663 12.504 28.1106 12.2529 28.1106 12.2529C28.1106 12.2529 27.7931 11.9643 27.4072 12.0216C27.1426 12.0612 26.9023 12.1714 26.7766 12.2375C26.8251 11.9996 26.9199 11.7528 27.0875 11.5127C27.319 11.1801 27.5373 11.0148 27.8482 10.691C27.9209 10.8232 28.1128 11.125 28.3707 11.2043C28.7037 11.3056 29.2747 11.2638 29.2747 11.2638C29.2747 11.2638 29.0895 10.8188 28.6728 10.6976C28.3751 10.6117 28.0709 10.6117 27.9165 10.6205C27.9694 10.5632 28.0268 10.4993 28.0863 10.431C28.2186 10.279 29.6936 9.97723 30.3705 9.93758C30.2625 9.89352 30.0486 9.86488 29.784 9.85827C29.9494 9.78998 30.2669 9.62035 30.408 9.2877C30.6021 8.82948 30.5998 8.3272 30.5998 8.3272C30.5998 8.3272 30.0288 8.51445 29.8678 8.88015C29.7333 9.19077 29.6937 9.71287 29.6826 9.85827C29.2417 9.85827 28.6882 9.91775 28.2627 10.0587C28.5273 9.70186 28.6022 8.95505 28.5714 8.47921C28.8073 8.44836 29.3232 8.33161 29.5922 7.99014C29.9362 7.55616 30.2008 6.69039 30.2008 6.69039C30.2008 6.69039 29.4379 6.70801 29.0168 7.25435C28.7676 7.57598 28.6044 7.94388 28.5118 8.19061C28.5207 7.97913 28.4898 7.68834 28.3112 7.4394C27.9871 6.98559 27.5064 6.69039 27.5064 6.69039C27.5064 6.69039 27.3521 7.34687 27.6056 7.71257C27.8526 8.06284 28.417 8.45277 28.4655 8.48581C28.3884 9.21059 28.2759 9.78777 28.0047 10.1116C27.8438 10.3033 27.6365 10.5258 27.4226 10.7659C27.4689 10.6844 27.5219 10.5544 27.4954 10.4112C27.4535 10.1711 27.319 9.96622 27.319 9.96622C27.319 9.96622 27.136 10.1953 27.1669 10.387C27.1955 10.5544 27.3234 10.7879 27.3543 10.843C27.0302 11.2131 26.7083 11.6229 26.5363 12.0216C26.5517 11.8916 26.5495 11.6735 26.4194 11.4907C26.221 11.2131 25.9255 11.0325 25.9255 11.0325C25.9255 11.0325 25.8307 11.4334 25.9873 11.6581C26.124 11.852 26.4194 12.0657 26.4966 12.1207C26.4635 12.2133 26.4371 12.3058 26.4238 12.3961C26.3643 12.7904 26.4415 13.4139 26.5032 13.7443C26.5539 14.0109 26.6553 14.4096 26.1703 14.7731C25.7249 15.108 25.586 15.2886 25.1626 15.3128C25.3214 15.1674 25.6632 14.815 25.6852 14.4471C25.7161 13.9646 25.4735 13.2068 25.4735 13.2068C25.4735 13.2068 24.9289 13.6011 24.8981 14.2047C24.8738 14.685 25.0039 15.1476 25.0568 15.315C25.0546 15.315 25.0524 15.315 25.0502 15.315H23.8375C23.8375 15.315 24.3821 15.0419 24.3821 14.6497C24.3821 14.2576 23.9808 14.1276 23.9213 13.7421C23.8772 13.4601 24.0448 13.0041 24.0602 12.6957C24.0712 12.449 24.0205 12.2309 24.0293 12.026C24.1572 12.1141 24.4306 12.2793 24.6732 12.2419C25.0039 12.1934 25.4779 11.9225 25.4779 11.9225C25.4779 11.9225 25.1362 11.614 24.7239 11.6801C24.4328 11.7286 24.1683 11.8542 24.0382 11.9247C24.0624 11.7749 24.1286 11.6317 24.2895 11.4863C24.5806 11.2263 25.9696 10.7681 26.7171 9.96181C26.7171 9.96181 27.2418 9.67102 27.33 9.28329C27.4182 8.89557 27.319 8.2523 27.319 8.2523C27.319 8.2523 26.8273 8.49903 26.7237 8.98589C26.6377 9.38903 26.684 9.74592 26.7016 9.87149C26.5054 9.98604 26.2298 10.1755 25.9101 10.3231C25.9255 10.2526 25.9233 10.0676 25.8087 9.90673C25.6676 9.70847 25.4581 9.58069 25.4581 9.58069C25.4581 9.58069 25.392 9.86708 25.5022 10.0257C25.5948 10.1601 25.7624 10.3165 25.8263 10.3605C25.5331 10.4971 25.2619 10.6161 25.048 10.7108C24.9179 10.7681 24.8099 9.83404 24.9576 8.91319C25.0678 8.93522 25.4096 8.9903 25.6191 8.8493C25.8748 8.68188 26.1592 8.27433 26.1592 8.27433C26.1592 8.27433 25.7161 8.14435 25.403 8.35804C25.1935 8.50123 25.0083 8.61138 24.9025 8.78762C24.7988 8.96386 24.7084 9.8076 24.7062 10.1557C24.6798 10.0676 24.5872 9.83404 24.3424 9.70626C24.0448 9.55426 23.7074 9.53002 23.7074 9.53002C23.7074 9.53002 23.8067 9.91995 24.0426 10.0455C24.2609 10.1623 24.6511 10.2416 24.7062 10.2482C24.7062 10.6073 24.7437 10.8188 24.6754 10.854C24.1264 11.125 23.8375 11.1756 23.7096 11.7352C23.6369 12.0524 23.8309 12.6186 23.6192 13.0416C23.5796 13.1209 23.5509 13.2046 23.5332 13.2905C23.5443 13.0284 23.5068 12.6142 23.2378 12.2793C22.8123 11.7484 22.2059 11.4246 22.2059 11.4246C22.2059 11.4246 22.0648 12.2331 22.4022 12.6627C22.7307 13.079 23.4671 13.5218 23.5046 13.5461C23.4958 13.8302 23.5641 14.099 23.6192 14.2356C23.7074 14.4537 23.7317 14.6696 23.6303 14.87C23.5751 14.7797 23.4627 14.6365 23.2841 14.5837C23.0129 14.5043 22.7285 14.5374 22.7285 14.5374C22.7285 14.5374 22.8718 14.8458 23.0879 14.9119C23.2356 14.9582 23.4561 14.9582 23.5795 14.9538C23.5465 15 23.5068 15.0463 23.4583 15.0903C23.2202 15.3106 22.9688 15.1961 22.6138 15.4737C22.1883 15.8085 22.1993 16.1676 21.9876 16.3504C21.8928 16.432 21.787 16.4958 21.69 16.5796C21.8068 16.4165 21.9656 16.1434 21.9413 15.89C21.9016 15.4935 21.6084 14.9141 21.6084 14.9141C21.6084 14.9141 21.2181 15.304 21.2733 15.7975C21.3196 16.2249 21.5114 16.6104 21.5621 16.7051C21.4937 16.7844 21.432 16.8836 21.3857 17.0157C21.2534 17.3902 21.2248 17.6943 21.0131 17.9388C20.9844 17.9718 20.9513 18.0049 20.9161 18.0357C20.9315 17.9057 20.9293 17.6877 20.7992 17.507C20.6008 17.2294 20.3053 17.0488 20.3053 17.0488C20.3053 17.0488 20.2105 17.4497 20.3693 17.6744C20.4861 17.8419 20.7242 18.0247 20.8367 18.1062C20.6228 18.2825 20.3538 18.4477 20.2436 18.6217C20.1664 18.7429 19.9812 19.0954 19.7651 19.1725C19.7321 19.1923 19.6924 19.2187 19.6461 19.2518C19.5557 19.1592 19.3859 18.9588 19.3374 18.853C18.9736 18.0666 18.8832 17.8264 18.9736 17.0091C19.0022 16.7514 19.0044 16.5553 19.0044 16.3879C19.0993 16.4077 19.2624 16.4253 19.3771 16.3593C19.5468 16.2601 19.7431 16.0112 19.7431 16.0112C19.7431 16.0112 19.4895 15.9187 19.2823 16.0442C19.1632 16.1169 19.0662 16.2117 19.0044 16.2799C19.0044 15.9803 19.0155 15.7711 19.2073 15.4384C19.3153 15.2512 19.4983 15.0529 19.7012 14.8678C19.7563 14.9626 19.8732 15.1278 20.0253 15.1741C20.2414 15.2401 20.6118 15.2115 20.6118 15.2115C20.6118 15.2115 20.4927 14.9229 20.2215 14.8458C20.0606 14.7995 19.8952 14.7907 19.7872 14.7929C19.99 14.6189 20.2017 14.4603 20.3693 14.3479C20.625 14.1783 20.7595 13.9889 20.8191 13.7355C20.9558 13.795 21.3306 13.9316 21.604 13.8214C21.9457 13.6848 22.3867 13.2751 22.3867 13.2751C22.3867 13.2751 21.9391 13.0284 21.5158 13.2024C21.2115 13.328 20.958 13.535 20.8389 13.6408C20.8521 13.5615 20.8565 13.4756 20.8565 13.3808C20.8565 12.9557 20.8102 12.1273 21.3085 11.5678C21.6084 11.2329 22.0361 10.8738 22.4088 10.561C22.4617 10.6557 22.5785 10.8254 22.7351 10.8716C22.9512 10.9377 23.3194 10.9091 23.3194 10.9091C23.3194 10.9091 23.1981 10.6205 22.9291 10.5434C22.766 10.4949 22.6006 10.4883 22.4926 10.4905C22.7858 10.2438 23.0349 10.0323 23.1474 9.88911C23.4208 9.53663 23.6236 8.90218 23.8133 8.27653C23.864 8.30517 24.2388 8.44616 24.5078 8.35584C24.7966 8.26111 25.1825 7.94608 25.1825 7.94608C25.1825 7.94608 24.8275 7.72138 24.4681 7.84475C24.1418 7.9549 23.8882 8.14656 23.8397 8.18621C23.9852 7.71477 24.1065 7.30281 24.2432 7.06489C24.316 6.93712 24.4064 6.82257 24.5078 6.72343C24.6092 6.82257 24.9863 7.16843 25.3545 7.15962C25.7844 7.15081 26.4371 6.88425 26.4371 6.88425C26.4371 6.88425 26.0512 6.43264 25.5132 6.45026C25.1185 6.46348 24.7459 6.58905 24.5762 6.65514C24.8319 6.41942 25.1274 6.2586 25.317 6.14845C25.5485 6.01187 26.1725 5.84444 26.5495 5.7365C26.7656 5.87308 27.3411 6.1793 27.8239 6.07796C28.4303 5.94798 29.2791 5.39283 29.2791 5.39283C29.2791 5.39283 28.6066 4.86191 27.8526 5.03375C27.1294 5.19897 26.5186 5.62415 26.4679 5.65939C26.3665 5.6682 26.2474 5.68142 26.124 5.69684C26.2563 5.65278 26.4812 5.54704 26.6002 5.32454C26.7744 4.9985 26.8097 4.6262 26.8097 4.6262C26.8097 4.6262 26.3731 4.72533 26.2298 4.98528C26.0997 5.2188 26.0358 5.63075 26.0247 5.71226C25.7624 5.75192 25.4757 5.8136 25.2332 5.90833C25.1781 5.92816 25.123 5.95679 25.0656 5.98543C25.2023 5.79818 25.5154 5.31793 25.4559 4.89716C25.3787 4.35743 24.94 3.57978 24.94 3.57978C24.94 3.57978 24.4284 4.13714 24.5343 4.80904C24.6247 5.38622 24.9047 5.89731 24.9841 6.0317C24.6291 6.23878 24.2432 6.56702 24.0051 6.6265C23.8 6.67937 23.5156 6.61549 23.2951 6.50534C23.4384 6.41501 23.7405 6.1859 23.8221 5.81801C23.9301 5.33115 23.8353 4.83768 23.8353 4.83768C23.8353 4.83768 23.3061 5.12627 23.2157 5.5162C23.1452 5.8158 23.1849 6.26962 23.2069 6.45907C23.1408 6.41942 23.0835 6.37536 23.0394 6.3313C22.7748 6.05593 22.5874 5.47875 22.4176 5.15491C22.5521 5.11746 22.8894 4.9963 23.0548 4.68788C23.2665 4.29575 23.3061 3.84854 23.3061 3.84854C23.3061 3.84854 22.7814 3.96971 22.6094 4.28033C22.4859 4.50503 22.411 4.86412 22.3801 5.04917C22.2963 4.83768 22.1354 4.56011 21.8443 4.39488C21.3284 4.10189 20.7309 4.0358 20.7309 4.0358C20.7309 4.0358 20.8742 4.73855 21.2865 4.97867C21.6768 5.20558 22.347 5.35318 22.4154 5.36419C22.4948 5.75632 22.5565 6.16828 22.8167 6.45687C23.0548 6.72123 23.348 6.80494 23.5531 7.03625C23.7405 7.24774 23.7185 7.76544 23.5663 8.30297C23.5156 8.15537 23.3877 7.8822 23.1187 7.74341C22.7351 7.54735 22.3029 7.5165 22.3029 7.5165C22.3029 7.5165 22.4286 8.01878 22.7329 8.1796C22.9776 8.30737 23.3877 8.37566 23.5377 8.39769C23.434 8.73255 23.2819 9.0674 23.0989 9.33616C22.8762 9.66 22.6116 9.93537 22.3492 10.1623C22.497 10.0037 22.68 9.75914 22.6976 9.50579C22.7241 9.07181 22.508 8.39549 22.508 8.39549C22.508 8.39549 22.0207 8.74577 21.9943 9.2877C21.97 9.77015 22.1177 10.2306 22.1486 10.3253C21.6657 10.702 21.227 10.9135 21.1167 10.9664C20.9447 11.0501 20.6316 11.0016 20.4464 10.6513C20.592 10.6359 20.8896 10.5808 21.0395 10.4046C21.2446 10.1645 21.4122 9.67983 21.4122 9.67983C21.4122 9.67983 20.9778 9.67322 20.7287 9.97503C20.5611 10.1777 20.453 10.4156 20.4023 10.55C20.2678 10.2152 20.237 9.66 20.4553 8.78983C20.3913 8.94183 20.3406 9.08502 20.2965 9.21941C20.2965 9.12908 20.2811 9.01233 20.2083 8.91099C20.0672 8.71272 19.8577 8.58495 19.8577 8.58495C19.8577 8.58495 19.7916 8.87134 19.9018 9.02995C19.9944 9.15993 20.1885 9.30312 20.2546 9.35158C20.065 9.98164 20.0804 10.3958 20.1642 10.6932C20.076 10.6051 19.9261 10.4905 19.7321 10.4729C19.4101 10.4443 19.1015 10.5456 19.1015 10.5456C19.1015 10.5456 19.333 10.8584 19.5887 10.8849C19.7916 10.9047 20.087 10.8386 20.2039 10.81C20.356 11.2109 20.625 11.3695 20.5412 11.614C20.3825 12.0811 20.4288 12.5437 20.3671 13.0284C20.3538 13.1297 20.3296 13.2222 20.2921 13.3059C20.3119 13.1561 20.3075 12.9468 20.1973 12.7574C19.9944 12.4115 19.6725 12.1714 19.6725 12.1714C19.6725 12.1714 19.5204 12.6296 19.6769 12.9072C19.8026 13.1275 20.0848 13.3808 20.1973 13.4778C20.0407 13.6981 19.7938 13.8391 19.505 13.8985C19.3705 13.925 19.258 13.9536 19.161 13.9933C19.1853 13.7972 19.2051 13.3191 18.9096 12.9513C18.5282 12.4754 17.9836 12.1846 17.9836 12.1846C17.9836 12.1846 17.8557 12.9072 18.1578 13.2927C18.3981 13.5989 18.881 13.9184 19.0684 14.0373C18.8854 14.1342 18.7575 14.2929 18.6274 14.5969C18.4731 14.9582 18.5062 15.7733 18.5062 15.7733C18.5062 15.7733 18.1225 15.1785 17.9726 14.9273C17.88 14.7753 17.7389 14.6431 17.6044 14.5088C17.6793 14.4603 17.7918 14.3744 17.8248 14.2642C17.8756 14.0946 17.8513 13.8038 17.8513 13.8038C17.8513 13.8038 17.6242 13.9007 17.5647 14.1144C17.5316 14.229 17.525 14.3457 17.525 14.4294C17.3839 14.2818 17.267 14.1254 17.256 13.9294C17.2339 13.5571 17.2361 13.1253 16.9738 12.6627C16.9297 12.5834 16.879 12.5129 16.826 12.4468C16.9275 12.3873 17.1171 12.2573 17.1678 12.0855C17.2384 11.8476 17.2053 11.4444 17.2053 11.4444C17.2053 11.4444 16.89 11.5788 16.8062 11.8762C16.7555 12.0568 16.7489 12.2419 16.7511 12.3609C16.4953 12.0767 16.2131 11.8872 16.1668 11.4951C16.105 10.9818 15.792 10.7989 16.4292 10.7989C16.9473 10.7989 17.2935 10.6535 17.5228 10.3914C17.5669 10.5786 17.6881 10.9664 17.9483 11.136C18.2967 11.3629 18.967 11.4995 18.967 11.4995C18.967 11.4995 18.9008 10.9245 18.4621 10.6491C18.1313 10.4421 17.7587 10.3429 17.5911 10.3055C17.6154 10.2702 17.6396 10.235 17.6595 10.1953C17.7477 10.0411 17.8006 9.87149 17.8337 9.68864C17.9175 9.74151 18.0497 9.8054 18.1688 9.78777C18.3628 9.75914 18.6384 9.60052 18.6384 9.60052C18.6384 9.60052 18.4378 9.42208 18.1975 9.45953C18.0608 9.48156 17.9329 9.53443 17.8491 9.57629C17.8711 9.40666 17.8778 9.22381 17.8778 9.02775C17.8778 8.79864 17.8601 8.42633 18.3143 8.21485C18.4576 8.14876 18.5877 8.11131 18.709 8.09368C18.6869 8.23688 18.6583 8.5497 18.795 8.74577C18.978 9.00792 19.4124 9.30092 19.4124 9.30092C19.4124 9.30092 19.5314 8.87574 19.2999 8.5519C19.1456 8.33601 18.9405 8.16858 18.8214 8.08267C19.0375 8.06945 19.2316 8.11131 19.4344 8.13995C19.5535 8.15757 19.9503 8.13113 20.27 7.89982C20.3119 8.02099 20.409 8.23688 20.5743 8.325C20.808 8.44836 21.238 8.49683 21.238 8.49683C21.238 8.49683 21.163 8.13995 20.8698 7.99014C20.6824 7.89321 20.4773 7.84915 20.356 7.82933C20.3715 7.81611 20.3847 7.80289 20.3979 7.78967C20.6515 7.53853 21.3857 7.38653 21.3857 7.38653C21.518 7.33806 21.7319 7.23232 21.8465 7.01863C22.0207 6.69259 22.056 6.32029 22.056 6.32029C22.056 6.32029 21.6194 6.41942 21.4761 6.67937C21.3615 6.88425 21.2975 7.23452 21.2755 7.3689C21.077 7.34027 20.6603 7.30061 20.4266 7.40195C20.5479 7.23012 20.7683 6.86442 20.722 6.54058C20.6581 6.09558 20.2965 5.45892 20.2965 5.45892C20.2965 5.45892 19.8776 5.91714 19.9636 6.47009C20.0385 6.94593 20.27 7.3689 20.334 7.47685C20.2171 7.60022 20.054 7.83373 19.8842 7.86017C19.6306 7.89982 19.5424 7.73019 19.0574 7.76103C18.5745 7.79188 18.4973 7.85356 18.2504 7.29621C18.246 7.28519 18.2416 7.27638 18.2372 7.26757C18.3628 7.28079 18.5833 7.28519 18.7244 7.18385C18.9317 7.03405 19.161 6.68157 19.161 6.68157C19.161 6.68157 18.817 6.59346 18.5591 6.78291C18.3915 6.90628 18.2636 7.0693 18.1931 7.16623C17.9836 6.64412 18.0299 6.39739 18.1975 6.11982C18.268 6.00085 18.354 5.51179 18.4135 4.93241C18.418 4.90157 18.4466 4.78701 18.4576 4.76498C18.5745 4.90597 18.881 5.221 19.3131 5.25625C19.871 5.30031 20.409 5.12187 20.409 5.12187C20.409 5.12187 20.0055 4.57773 19.5579 4.53808C19.2227 4.50724 18.7421 4.61298 18.5216 4.66805C18.731 4.45216 19.7828 3.87057 20.2789 3.60181C20.42 3.52471 20.9359 3.10394 21.1454 2.90567C21.2137 3.01362 21.4386 3.2956 21.8002 3.35728C22.2412 3.43439 22.6822 3.33305 22.6822 3.33305C22.6822 3.33305 22.4022 2.87042 22.0494 2.80433C21.7958 2.75587 21.4673 2.80433 21.2799 2.83297C21.6723 2.59505 21.8487 2.39238 21.9281 2.22495C22.0802 2.34611 22.53 2.65894 23.0592 2.58183C23.7118 2.4871 24.2829 2.14124 24.2829 2.14124C24.2829 2.14124 23.6766 1.62133 23.1518 1.68963C22.7329 1.7447 22.1662 2.02228 21.9546 2.13022C21.8046 2.19191 21.69 2.31087 21.3725 2.6281C21.4761 2.47389 21.6415 2.15886 21.5775 1.80638C21.4871 1.30851 21.2049 0.881134 21.2049 0.881134C21.2049 0.881134 20.8235 1.35918 20.8918 1.75792C20.9513 2.117 21.2336 2.61267 21.2887 2.70961C21.0969 2.81975 20.6581 3.1458 20.3935 3.27577C20.2458 3.34847 20.1025 3.42117 19.9636 3.49607C20.1466 3.35508 20.3494 3.13698 20.4376 2.83738C20.614 2.23376 20.5368 1.60371 20.5368 1.60371C20.5368 1.60371 19.8467 1.92314 19.7012 2.40559C19.5667 2.84619 19.6086 3.57317 19.6174 3.68993C19.0728 4.00275 18.6384 4.29795 18.4576 4.41471C18.5017 3.82211 18.5282 2.84619 18.4995 2.40559C18.6362 2.33951 19.2536 2.21173 19.4454 1.49356C19.6571 0.698287 19.6218 0.0219727 19.6218 0.0219727C19.6218 0.0219727 18.7421 0.354622 18.5657 0.991283C18.4378 1.45171 18.4356 1.85705 18.4598 2.20292C18.4422 2.2646 18.3849 2.46948 18.3187 2.74485C18.2746 2.71181 18.2107 2.66555 18.1313 2.61488C18.2107 2.44305 18.354 2.04651 18.2085 1.65438C18.0145 1.13448 17.6286 0.726926 17.6286 0.726926C17.6286 0.726926 17.3067 1.31732 17.4588 1.73589C17.5492 1.99143 17.7631 2.29324 17.9152 2.49151C17.7212 2.39678 17.4919 2.32188 17.2758 2.35052C16.7643 2.41881 16.0257 2.82416 16.0257 2.82416C16.0257 2.82416 16.5482 3.31102 17.1854 3.2207C17.6793 3.1502 18.1247 2.93211 18.3011 2.83738C18.2239 3.17223 18.1754 3.62164 18.2173 3.98733C18.257 4.34422 18.1049 4.73414 18.096 4.90377C18.0872 5.0734 18.0497 5.49197 18.0497 5.49197C17.9946 5.34877 17.7741 5.05798 17.4368 4.59976C16.8635 3.81991 16.3035 3.99614 15.7986 3.56216C15.2937 3.12597 15.545 2.91889 15.4546 2.34611C15.437 2.24037 15.4546 2.15005 15.4656 2.10599C15.6134 2.08176 15.9904 1.92094 16.244 1.53101C16.546 1.06398 16.6408 0.511034 16.6408 0.511034C16.6408 0.511034 15.975 0.607965 15.7302 0.978065C15.5494 1.24903 15.4193 1.70505 15.362 1.92975C15.3422 2.00686 15.3333 2.12802 15.3355 2.11921C15.3355 2.13903 15.3267 2.23597 15.2694 2.85941C15.104 2.73604 14.716 2.4849 14.3698 2.53116C13.9134 2.59064 13.2564 2.95193 13.2564 2.95193C13.2564 2.95193 13.7194 3.38592 14.2882 3.30441C14.7094 3.24493 15.0908 3.06208 15.2606 2.97396C15.2496 3.09292 15.2385 3.20528 15.2275 3.30882C15.1878 3.70315 15.4458 3.87939 15.7809 4.06444C15.6442 4.01157 15.4678 3.97411 15.2804 4.01817C14.8813 4.1107 14.5484 4.35523 14.5484 4.35523C14.5484 4.35523 14.9497 4.64162 15.2694 4.56892C15.5869 4.49842 16.0565 4.21424 16.0565 4.21424C16.3917 4.32219 16.6563 4.28914 16.7775 4.40149C16.8569 4.47419 16.9429 4.5557 17.0289 4.64823C16.8701 4.74736 16.4887 5.02053 16.4093 5.35979C16.3101 5.79157 16.4115 6.50974 16.4115 6.50974C16.4115 6.50974 16.9627 6.23657 17.0818 5.69684C17.1656 5.32234 17.1413 4.94342 17.1171 4.74736C17.4897 5.17033 17.8579 5.70786 18.0101 5.93917C17.8403 6.14184 17.6132 6.27182 17.7499 6.59125C17.9329 7.01422 17.9615 7.46584 17.8998 7.64868C17.8888 7.67952 17.8734 7.72579 17.8513 7.77425C17.8557 7.68173 17.8447 7.55175 17.7631 7.4394C17.622 7.24113 17.4147 7.11116 17.4147 7.11116C17.4147 7.11116 17.3464 7.39754 17.4566 7.55836C17.5448 7.68393 17.73 7.82272 17.8028 7.87339C17.6815 8.09589 17.4632 8.3272 17.1325 8.0298C16.8194 7.74782 16.9076 7.33145 16.7202 7.03405C16.5041 6.69259 16.0962 6.6287 15.8978 6.61989C15.9198 6.45687 15.9463 6.01407 15.6751 5.67702C15.3355 5.25405 14.8505 4.99409 14.8505 4.99409C14.8505 4.99409 14.738 5.63736 15.007 5.98103C15.2077 6.23437 15.5979 6.50093 15.7831 6.61989C15.7831 6.61989 16.3895 6.76309 16.5901 7.17504C16.6166 7.23012 16.6342 7.28519 16.643 7.33806C16.5129 7.25215 16.2616 7.11997 15.9794 7.16623C15.5649 7.23232 15.2077 7.45923 15.2077 7.45923C15.2077 7.45923 15.5979 7.78086 15.9287 7.73019C16.1778 7.69274 16.5063 7.52972 16.6563 7.45262C16.6695 7.67512 16.6232 7.88881 16.8304 8.15537C17.0576 8.44616 17.4765 8.34703 17.5073 8.9198C17.5338 9.4353 17.4875 9.8054 17.1898 10.0059C17.2053 9.82963 17.2009 9.47275 16.9738 9.19738C16.6585 8.81406 16.2153 8.58054 16.2153 8.58054C16.2153 8.58054 16.1183 9.17094 16.3652 9.48156C16.5526 9.71728 16.9209 9.95961 17.0884 10.0653C17.0862 10.0653 17.084 10.0676 17.0818 10.0676C16.6893 10.2482 15.9132 10.3187 15.4789 10.2394C15.3157 10.2085 15.0886 10.1513 14.8681 10.0103C15.0291 9.91114 15.3841 9.64458 15.4789 9.21941C15.6023 8.66205 15.4965 8.09589 15.4965 8.09589C15.4965 8.09589 14.8902 8.42633 14.7865 8.87134C14.7072 9.21059 14.7513 9.71948 14.7755 9.94419C14.6168 9.82082 14.4668 9.64458 14.3588 9.39344C14.178 8.97487 14.2353 8.56953 14.0435 8.19061C14.1582 8.16198 14.3588 8.09809 14.4514 7.9593C14.5859 7.76103 14.6741 7.37992 14.6741 7.37992C14.6741 7.37992 14.3456 7.41076 14.1802 7.6597C14.0788 7.8117 14.0192 7.98353 13.9884 8.09148C13.8803 7.92185 13.7084 7.75663 13.4305 7.59801C13.3247 7.53853 13.2321 7.48786 13.1483 7.44601C13.3379 7.32925 13.7701 7.01202 13.8847 6.49652C14.0325 5.83123 13.9046 5.15491 13.9046 5.15491C13.9046 5.15491 13.1814 5.54924 13.0579 6.08016C12.9609 6.50093 13.0182 7.142 13.0469 7.39093C12.6765 7.19927 12.4891 7.10014 12.1517 6.58024C12.0437 6.41501 11.9753 6.19472 11.929 5.97662C12.1209 5.94358 12.6985 5.80479 13.0116 5.32234C13.3887 4.73855 13.5077 4.04681 13.5077 4.04681C13.5077 4.04681 12.6743 4.16798 12.3678 4.63281C12.1385 4.97867 11.9731 5.55806 11.9048 5.83343C11.8739 5.63957 11.8607 5.45452 11.8541 5.31353C11.9753 5.15491 12.2642 4.70991 12.1804 4.19662C12.0745 3.55335 11.724 2.99599 11.724 2.99599C11.724 2.99599 11.2257 3.60181 11.3028 4.11731C11.3734 4.58654 11.7328 5.24523 11.7945 5.35758C11.7769 5.47214 11.7593 5.61313 11.7504 5.76514C11.7284 5.57127 11.6534 5.22541 11.3822 4.99409C10.9853 4.65483 10.4848 4.49402 10.4848 4.49402C10.4848 4.49402 10.4893 5.12407 10.8023 5.39944C11.0868 5.65058 11.6424 5.86647 11.7416 5.90392C11.7416 5.95019 11.7394 5.99865 11.7394 6.04491C11.7394 6.28063 11.7813 6.49432 11.8717 6.67717C11.7041 6.48331 11.3315 6.13524 10.8112 6.08016C10.0858 6.00306 9.3802 6.20353 9.3802 6.20353C9.3802 6.20353 9.88732 6.89086 10.4672 6.95915C10.992 7.02083 11.8056 6.84459 11.9489 6.81155C12.0547 6.96576 12.2046 7.09133 12.4031 7.18385C12.8198 7.37772 12.6721 7.96371 12.2708 8.1047C12.2796 8.01217 12.2708 7.86898 12.187 7.74782C12.0459 7.54955 11.8364 7.42178 11.8364 7.42178C11.8364 7.42178 11.7703 7.70596 11.8805 7.86678C11.9467 7.9615 12.0679 8.06505 12.1539 8.13113C11.638 8.19061 11.1882 7.45923 11.1573 7.40856C11.1728 7.45702 11.3734 8.08267 11.7769 8.31839C11.6865 8.31839 11.5696 8.33601 11.4704 8.41091C11.2742 8.55631 11.1485 8.76779 11.1485 8.76779C11.1485 8.76779 11.4351 8.82948 11.5939 8.71492C11.7152 8.62901 11.8452 8.45277 11.8982 8.37346C11.9974 8.40651 12.1054 8.41752 12.2245 8.39329C12.9499 8.24128 12.5177 8.14215 12.9719 7.97032C13.2652 7.86017 13.457 7.90863 13.5915 8.04742C13.4989 8.04522 13.3688 8.05844 13.2586 8.13995C13.0623 8.28314 12.9389 8.49683 12.9389 8.49683C12.9389 8.49683 13.2255 8.55851 13.3842 8.44396C13.4901 8.36685 13.6025 8.22366 13.6643 8.13554C13.7569 8.27213 13.8208 8.45497 13.8803 8.65324C13.931 8.82067 13.9333 8.9903 13.9399 9.16213C13.7899 9.07181 13.4791 8.92421 13.1417 9.00131C12.6677 9.10926 12.2708 9.39564 12.2708 9.39564C12.2708 9.39564 12.7448 9.73711 13.1241 9.6556C13.4085 9.59391 13.7789 9.38243 13.9465 9.28109C13.9641 9.55646 14.0214 9.82743 14.3257 10.0742C14.9254 10.5632 15.2121 10.5081 15.2429 11.0214C15.2738 11.5347 15.2121 11.907 15.545 12.1802C15.8625 12.4402 15.9331 12.3697 15.9904 13.0944C15.9507 13.0107 15.8802 12.9028 15.7611 12.8433C15.5428 12.7332 15.2981 12.7177 15.2981 12.7177C15.2981 12.7177 15.3708 13.0019 15.5428 13.0922C15.6817 13.1649 15.911 13.2024 15.9992 13.2134C16.061 14.0549 16.6342 14.359 16.9363 15.0529C17.1524 15.5486 17.3817 15.846 17.4853 15.9539C17.0972 15.6785 16.7202 15.4098 16.5747 15.2952C16.18 14.9934 15.6376 14.7819 15.5781 14.3567C15.5164 13.9338 15.093 13.3896 14.8527 13.2685C14.7005 13.1914 14.4161 13.1407 14.1493 13.1121C14.3059 12.9689 14.6212 12.6362 14.6432 12.2904C14.6719 11.8255 14.4404 11.103 14.4404 11.103C14.4404 11.103 13.9178 11.4797 13.8892 12.059C13.8671 12.5018 13.9796 12.927 14.0347 13.1033C13.9222 13.0944 13.8164 13.09 13.7326 13.09C13.4305 13.09 12.9433 13.0614 13.0976 12.6671C13.2828 12.1978 12.9918 11.8586 12.7073 11.603C12.8683 11.5678 13.177 11.4753 13.3181 11.2682C13.5121 10.984 13.64 10.4332 13.64 10.4332C13.64 10.4332 13.1638 10.4773 12.9256 10.8342C12.7536 11.0919 12.6655 11.3871 12.628 11.5303C12.5684 11.4797 12.5133 11.4312 12.4626 11.3871C12.1738 11.1272 12.4472 10.138 12.4714 10.0543C12.4604 10.083 12.4009 10.2262 12.3413 10.4156C12.3413 10.4156 12.3413 10.4156 12.3413 10.42C12.3413 10.42 12.3413 10.4222 12.3413 10.4244C12.3524 10.3341 12.3546 10.1755 12.2598 10.0433C12.1186 9.84505 11.9092 9.71728 11.9092 9.71728C11.9092 9.71728 11.8408 10.0015 11.9533 10.1623C12.0547 10.3099 12.284 10.4707 12.3215 10.4949C12.2531 10.713 12.187 10.973 12.1782 11.169C12.1253 11.0545 12.0305 10.9025 11.8651 10.8188C11.5718 10.669 11.2389 10.6447 11.2389 10.6447C11.2389 10.6447 11.3359 11.0303 11.5696 11.1536C11.757 11.2506 12.0679 11.3034 12.187 11.3188C12.1958 11.3651 12.2113 11.4026 12.2333 11.4312C12.445 11.6735 12.7228 11.8982 12.7779 12.167C12.8573 12.5613 12.7559 12.9336 12.3127 12.9138C12.2046 12.9094 12.1076 12.9028 12.0194 12.894C12.0437 12.7882 12.0679 12.59 11.9643 12.4159C11.8166 12.1648 11.5807 11.9885 11.5807 11.9885C11.5807 11.9885 11.4704 12.3234 11.5851 12.5239C11.6578 12.6516 11.8011 12.7926 11.8982 12.8808C11.3977 12.8235 11.2499 12.6979 11.1022 12.4269C10.9214 12.0943 11.003 11.5524 10.6987 11.2792C10.3966 11.006 10.1982 10.962 10.2842 10.4641C10.3481 10.1006 10.5179 10.1557 10.7384 9.83624C10.8178 9.88911 10.9677 9.97503 11.1022 9.9552C11.2962 9.92656 11.5718 9.76795 11.5718 9.76795C11.5718 9.76795 11.3712 9.58951 11.1309 9.62696C11.003 9.64678 10.8861 9.69305 10.8023 9.7327C10.8112 9.71728 10.82 9.70406 10.8288 9.68864C11.1706 9.05418 11.8056 9.33616 11.8056 9.33616C11.8056 9.33616 11.5233 9.03436 11.1 9.15552C10.9302 9.20398 10.7913 9.30312 10.6899 9.39785C10.7627 9.19958 10.8751 8.80965 10.7538 8.51886C10.5863 8.11351 10.0858 7.59581 10.0858 7.59581C10.0858 7.59581 9.79913 8.13334 10.0174 8.63782C10.196 9.04978 10.4981 9.38022 10.6017 9.48817C10.5333 9.56307 10.4959 9.62035 10.4959 9.62035C10.4959 9.62035 10.1387 10.0015 9.95126 9.37802C9.78149 8.81406 9.44855 8.61359 9.1553 8.54309C9.25673 8.37346 9.45517 7.9593 9.3361 7.52311C9.18397 6.95034 8.81355 6.4789 8.81355 6.4789C8.81355 6.4789 8.41447 7.07371 8.53133 7.53413C8.61952 7.8822 8.90175 8.3294 9.03183 8.52547C8.54897 8.49463 8.04185 8.91099 7.89192 8.37126C7.71112 7.71697 7.84561 7.53413 7.43992 7.22351C7.64056 7.15522 8.08594 6.95915 8.29541 6.52737C8.57322 5.95679 8.60409 5.31793 8.60409 5.31793C8.60409 5.31793 7.86766 5.52061 7.64056 5.97442C7.45976 6.3335 7.37598 6.92611 7.34731 7.15742C7.27235 7.10675 7.18195 7.05167 7.07611 6.98999C7.04084 6.97016 7.00997 6.95254 6.98131 6.93492C6.97028 6.79833 6.91957 6.46348 6.6616 6.24979C6.33087 5.97662 5.91635 5.85325 5.91635 5.85325C5.91635 5.85325 5.93179 6.36875 6.19196 6.58905C6.45434 6.81155 6.98351 6.9944 6.98351 6.9944C7.15549 7.13979 7.387 7.3667 7.47961 7.59581C7.40905 7.53633 7.2966 7.46583 7.1599 7.46143C6.91736 7.45482 6.68806 7.54294 6.68806 7.54294C6.68806 7.54294 6.87547 7.76985 7.0695 7.77866C7.21502 7.78527 7.41566 7.72799 7.51268 7.69935C7.51488 7.71257 7.51709 7.72799 7.51929 7.74121C7.57882 8.31618 7.45756 8.75898 7.82136 8.88015C8.48943 9.10265 8.68567 8.73475 9.15089 8.87134C9.46619 8.96386 9.80133 9.31413 9.84984 9.84285C9.76826 9.79659 9.64479 9.74592 9.50588 9.77015C9.26555 9.8098 9.05829 9.93978 9.05829 9.93978C9.05829 9.93978 9.28539 10.127 9.47722 10.0984C9.60069 10.0786 9.75944 10.0081 9.85645 9.95961C9.85645 9.96621 9.85645 9.97282 9.85645 9.97943C9.85645 10.583 9.91819 10.7042 10.099 11.0677C10.2798 11.429 10.8994 11.9445 9.93803 11.5722C9.35374 11.3453 9.1994 11.1734 8.79812 11.169C8.83119 11.0016 8.89072 10.5544 8.63275 10.2306C8.31084 9.82522 7.83238 9.59611 7.83238 9.59611C7.83238 9.59611 7.67363 10.2548 7.92719 10.5808C8.1124 10.821 8.48723 11.0611 8.67244 11.1712C8.64378 11.1712 8.61511 11.1757 8.58645 11.1779C8.01098 11.2395 7.64938 11.5193 7.31645 11.006C6.98351 10.4927 6.71231 10.6734 6.77184 9.97943C6.79169 9.74371 6.752 9.58069 6.64617 9.42649C6.65058 9.43309 6.65719 9.44191 6.64396 9.42208C6.72554 9.39344 7.03863 9.23262 7.16651 8.9176C7.31424 8.55851 7.30763 8.16418 7.30763 8.16418C7.30763 8.16418 6.86224 8.31618 6.74098 8.60477C6.63735 8.85151 6.59325 9.23923 6.58884 9.34938C6.41465 9.12027 6.51828 9.21941 6.22283 9.1423C6.22283 9.1423 6.06408 9.10485 5.99793 9.10485C5.95825 9.10485 5.91856 9.10485 5.88108 9.10044C5.96486 8.96827 6.19637 8.5475 6.07511 8.09809C5.92958 7.55395 5.57901 7.10675 5.57901 7.10675C5.57901 7.10675 5.19977 7.67071 5.31222 8.1091C5.40483 8.4726 5.71792 8.94844 5.81934 9.09604C5.58121 9.07621 5.36514 9.02775 5.22844 8.99911C5.25048 8.85812 5.26371 8.58495 5.10717 8.35804C4.88448 8.0342 4.54713 7.82272 4.54713 7.82272C4.54713 7.82272 4.43248 8.28094 4.60887 8.54089C4.72352 8.71272 4.94621 8.89777 5.08512 9.00351C5.11158 9.02775 5.1689 9.0674 5.26371 9.12908C5.77745 9.46173 6.24047 9.12908 6.30221 9.61154C6.33087 9.84285 6.28236 10.0103 6.27134 10.1623C6.13023 9.99706 5.79288 9.66661 5.32325 9.62916C4.69486 9.58069 4.09072 9.78117 4.09072 9.78117C4.09072 9.78117 4.54713 10.3892 5.04984 10.4354C5.45995 10.4729 6.06408 10.3297 6.27354 10.2746C6.28457 10.398 6.33969 10.5214 6.50726 10.669C6.75861 10.8915 6.84019 11.1426 6.57782 11.4554C6.40584 11.6603 6.24488 11.8211 6.07951 11.9181C6.09054 11.7705 6.07951 11.5105 5.91194 11.3034C5.665 10.9972 5.31443 10.81 5.31443 10.81C5.31443 10.81 5.23285 11.277 5.42687 11.5237C5.56578 11.7 5.82816 11.8828 5.96707 11.9753C5.75981 12.0634 5.54373 12.0502 5.29458 11.8982C4.85802 11.6339 4.55375 11.7594 4.28475 11.9159C4.28475 11.7044 4.25609 11.2506 4.01576 10.9994C3.69826 10.6646 3.01254 10.3451 3.01254 10.3451C3.01254 10.3451 2.93537 10.9796 3.33886 11.3915C3.63432 11.6911 4.00032 11.8916 4.17671 11.9775C4.10395 12.0216 4.0334 12.0634 3.96284 12.0965C3.6255 12.2551 3.3543 12.2727 3.14263 12.2265C3.04341 12.0546 2.83615 11.755 2.56275 11.6691C2.17469 11.5502 1.51323 11.5964 1.51323 11.5964C1.51323 11.5964 1.7249 12.1163 2.21218 12.2595C2.60464 12.3763 3.01475 12.3609 3.15586 12.3498C3.34327 12.4247 3.57699 12.4556 3.8526 12.3763C4.69927 12.1339 4.578 11.993 5.05205 12.0833C5.20418 12.1141 5.33427 12.2375 5.48861 12.3344C5.39821 12.3234 5.27253 12.3278 5.16229 12.3961C4.95283 12.5217 4.80951 12.7199 4.80951 12.7199C4.80951 12.7199 5.08953 12.8081 5.2571 12.7111C5.38939 12.634 5.53932 12.4644 5.59665 12.3939C5.7554 12.4688 5.94502 12.4908 6.20078 12.3542C6.4367 12.2265 6.58222 12.0811 6.70129 11.9511C6.63294 12.0921 6.55797 12.3058 6.60427 12.4864C6.68144 12.7882 6.9791 13.2024 6.9791 13.2024C6.9791 13.2024 7.23487 12.8543 7.13344 12.4798C7.05186 12.178 6.87988 11.9203 6.81594 11.8299C6.96367 11.6735 7.11139 11.559 7.41125 11.559C8.01539 11.559 8.22706 11.5678 8.89513 11.6603C9.17074 11.6978 9.4265 11.7991 9.65802 11.9313C9.50147 11.8762 9.24129 11.8233 8.98774 11.9269C8.58865 12.0921 8.28438 12.4027 8.28438 12.4027C8.28438 12.4027 8.74961 12.6362 9.07152 12.5085C9.35374 12.3961 9.70652 12.0855 9.7881 12.0128C10.0615 12.1868 10.2974 12.4005 10.4959 12.601C10.5488 12.6538 10.5929 12.7067 10.6326 12.7618C10.5642 12.7001 10.4628 12.634 10.3371 12.623C10.0946 12.601 9.86086 12.6781 9.86086 12.6781C9.86086 12.6781 10.035 12.9138 10.2291 12.9336C10.3922 12.949 10.6392 12.8896 10.7097 12.8719C10.8773 13.1297 11.0008 13.3874 11.4219 13.5306C11.3095 13.5372 11.1419 13.5703 11.014 13.6892C10.8001 13.8897 10.6833 14.1585 10.6833 14.1585C10.6833 14.1585 11.0339 14.1915 11.2058 14.0329C11.3469 13.9029 11.4859 13.6474 11.5299 13.5615C11.6137 13.5835 11.7085 13.6011 11.8144 13.6143C12.6236 13.7157 13.0756 13.8963 13.5254 13.9272C13.3776 13.9514 13.1417 14.0175 12.9808 14.2114C12.7294 14.5132 12.6169 14.8921 12.6169 14.8921C12.6169 14.8921 13.0888 14.8789 13.2938 14.6387C13.4746 14.425 13.6268 14.0175 13.6576 13.9316C13.7017 13.9316 13.7458 13.9316 13.7899 13.9272C14.1626 13.9007 14.4051 13.8721 14.6851 14.5308C14.5881 14.4735 14.4382 14.4118 14.2706 14.4383C13.9818 14.4823 13.7304 14.6365 13.7304 14.6365C13.7304 14.6365 13.9994 14.8634 14.2309 14.8304C14.3985 14.8062 14.6212 14.7004 14.7314 14.6453C14.7402 14.6674 14.7491 14.6894 14.7579 14.7136C15.0114 15.3988 15.5604 15.8504 16.0543 16.2249C15.9132 16.1698 15.6773 16.1125 15.4436 16.2006C15.0754 16.3372 14.7865 16.6104 14.7865 16.6104C14.7865 16.6104 15.2033 16.8351 15.4987 16.7294C15.7501 16.639 16.0698 16.3813 16.1602 16.3064C16.374 16.4694 16.5725 16.617 16.7246 16.769C17.2384 17.2823 17.148 17.615 17.3288 18.2208C17.5118 18.8244 17.5999 20.1241 17.6308 20.2145C17.6617 20.3048 17.2384 20.6969 17.0862 20.1836C16.9363 19.6703 16.9363 19.5183 16.5107 19.2782C16.1999 19.0998 15.6597 18.8707 15.34 18.5975C15.4678 18.5997 15.7898 18.5755 15.9728 18.4014C16.2021 18.1855 16.4203 17.7207 16.4203 17.7207C16.4203 17.7207 15.9904 17.6678 15.7082 17.941C15.4723 18.1679 15.3113 18.4455 15.2694 18.5358C15.1724 18.4477 15.1173 18.3706 15.0886 18.2781C14.9673 17.8859 15.1481 17.3418 14.2111 17.0686C14.189 17.062 14.167 17.0554 14.1471 17.051C14.2397 16.9056 14.4139 16.5597 14.3257 16.1874C14.2089 15.694 13.9046 15.282 13.9046 15.282C13.9046 15.282 13.5474 15.7821 13.6356 16.1786C13.6995 16.4694 13.9178 16.8417 14.0303 17.0224C13.5915 16.9166 13.2828 16.9166 13.0447 16.8307C13.1086 16.7558 13.199 16.628 13.199 16.5002C13.199 16.3064 13.08 16.0112 13.08 16.0112C13.08 16.0112 12.8727 16.183 12.8793 16.4275C12.8815 16.5663 12.9168 16.6985 12.9455 16.7888C12.7911 16.7095 12.6677 16.5729 12.5486 16.3174C12.3347 15.8482 12.1826 15.5882 11.9709 15.3966C12.0701 15.304 12.2708 15.0947 12.284 14.8744C12.3039 14.5792 12.1561 14.1188 12.1561 14.1188C12.1561 14.1188 11.8254 14.359 11.8056 14.7268C11.7945 14.9604 11.8408 15.1851 11.8783 15.3195C11.7857 15.249 11.6777 15.1873 11.552 15.1234C11.0669 14.8811 10.4694 14.4845 10.4319 14.3832C10.3966 14.2774 10.4694 13.9073 10.1828 13.4403C9.86968 12.9292 9.49485 12.8499 9.01199 12.8587C8.57983 12.8653 7.90074 12.4203 7.90074 12.4203C7.90074 12.4203 8.10579 12.7221 8.52912 12.949C9.09577 13.2531 9.37359 13.0438 9.73078 13.4117C9.94685 13.632 9.97772 14.1453 9.80354 14.5066C9.74621 14.4118 9.63597 14.2664 9.45517 14.2092C9.17735 14.121 8.88411 14.1475 8.88411 14.1475C8.88411 14.1475 9.02522 14.4691 9.2457 14.544C9.39564 14.5947 9.62274 14.6013 9.75062 14.6013C9.70652 14.6718 9.6514 14.7313 9.58966 14.7797C9.19499 15.0815 9.00096 15.2357 8.71213 15.0815C8.40124 14.9163 8.22926 14.6145 7.88971 14.5616C7.55457 14.511 7.47299 14.6387 7.08052 14.1761C7.04304 14.132 7.00776 14.088 6.97028 14.0461C7.17313 14.1254 7.58764 14.2554 7.89853 14.132C8.32628 13.9624 8.8797 13.4469 8.8797 13.4469C8.8797 13.4469 8.31966 13.1385 7.78829 13.3566C7.35834 13.5328 7.00997 13.8368 6.89091 13.9492C6.53151 13.5196 6.17212 13.1099 5.79509 13.1473C4.92857 13.2354 4.44791 12.7728 4.41925 12.7464C4.4413 12.7772 4.76762 13.2751 4.98811 13.35C5.69807 13.5857 6.17212 13.4007 6.35512 13.7619C6.53592 14.1254 6.70129 14.4867 6.70129 14.4867C6.70129 14.4867 6.36615 14.6652 5.98471 14.7401C5.99793 14.6497 6.00896 14.3039 5.79509 14.0395C5.54814 13.7333 5.19977 13.5461 5.19977 13.5461C5.19977 13.5461 5.11819 14.0109 5.31222 14.2598C5.47759 14.4713 5.79509 14.6982 5.8921 14.7577C5.63193 14.7995 5.36734 14.7819 5.21521 14.6189C4.92196 14.3039 4.79187 13.9756 4.46996 13.9184C4.45673 13.8038 4.40161 13.4822 4.14585 13.2905C3.83055 13.0548 3.4469 12.9579 3.4469 12.9579C3.4469 12.9579 3.48218 13.4293 3.73133 13.621C3.89229 13.7465 4.15687 13.8523 4.32224 13.9095C4.24507 13.914 4.15687 13.9316 4.05545 13.9624C3.78645 14.0483 3.54833 14.1431 3.32563 14.2136C3.31241 14.0219 3.23965 13.4976 2.83836 13.1693C2.34226 12.7596 1.71829 12.5767 1.71829 12.5767C1.71829 12.5767 1.74254 13.3522 2.13721 13.6848C2.43928 13.9382 2.97947 14.1585 3.21539 14.2488C2.93317 14.3259 2.6774 14.3501 2.42164 14.2378C2.07988 14.088 2.38636 14.3457 2.8097 14.4471C2.65976 14.4559 2.42164 14.4977 2.24304 14.6696C1.96082 14.9427 1.80648 15.3084 1.80648 15.3084C1.80648 15.3084 2.27832 15.3459 2.50542 15.1278C2.70386 14.9405 2.89569 14.566 2.94199 14.4713C3.07869 14.4911 3.22201 14.4889 3.3543 14.4471C3.95843 14.2664 4.45453 14.1959 4.58461 14.5682C4.61328 14.6519 4.64415 14.7246 4.67722 14.7885C4.47217 14.7819 4.03119 14.8062 3.70928 15.1058C3.27713 15.5089 3.03459 16.0552 3.03459 16.0552C3.03459 16.0552 3.74456 16.1279 4.09513 15.8107C4.36633 15.564 4.63312 15.0947 4.74116 14.8943C4.86463 15.0617 5.03441 15.1388 5.31884 15.1652C6.30882 15.26 6.29559 15.3327 5.59003 15.9803C5.54594 16.0222 5.50404 16.0597 5.46436 16.0971C5.41365 16.0024 5.3034 15.8416 5.11599 15.7777C4.84258 15.6829 4.54934 15.705 4.54934 15.705C4.54934 15.705 4.68163 16.0266 4.89991 16.1059C5.04323 16.1566 5.25489 16.1698 5.38498 16.172C4.95503 16.5862 4.87345 16.6809 4.08631 16.4231C3.96725 16.3835 3.81512 16.3879 3.66078 16.4121C3.47336 16.4253 3.18452 16.4694 2.90891 16.617C2.82293 16.5355 2.4481 16.2006 2.09091 16.2161C1.68521 16.2359 1.07887 16.5047 1.07887 16.5047C1.07887 16.5047 1.45591 16.921 1.96082 16.8924C2.28273 16.8726 2.587 16.7734 2.7656 16.7029C2.69284 16.7536 2.62449 16.8109 2.56055 16.8792C2.06004 17.4123 1.80648 18.1018 1.80648 18.1018C1.80648 18.1018 2.68402 18.1327 3.08971 17.7097C3.38076 17.4079 3.65416 16.8659 3.78204 16.5862C3.81732 16.5928 3.85039 16.6016 3.88347 16.6126C4.00032 16.6523 4.07529 16.6919 4.14364 16.7272C3.98048 16.8175 3.64975 17.04 3.5373 17.4211C3.38737 17.9366 3.44911 18.4741 3.44911 18.4741C3.44911 18.4741 4.0356 18.2031 4.16348 17.7912C4.2605 17.474 4.25168 16.9805 4.24286 16.7756C4.35751 16.8241 4.50303 16.8593 4.82935 16.8637C5.54814 16.8748 5.63193 16.335 5.97809 16.139C6.27354 15.9737 6.57341 15.575 6.6638 15.1807C6.7542 14.7885 7.09816 14.7775 7.58103 14.9295C7.80152 14.9978 7.89633 15.1476 7.99775 15.2908C7.83238 15.2864 7.51929 15.3106 7.28558 15.5221C6.95264 15.8239 6.76302 16.2359 6.76302 16.2359C6.76302 16.2359 7.30101 16.2998 7.57221 16.0619C7.77506 15.8834 7.98011 15.542 8.0683 15.3855C8.17634 15.5177 8.31525 15.6257 8.6107 15.6257C8.68567 15.6257 8.74961 15.6213 8.80694 15.6124C8.6989 15.705 8.55117 15.868 8.5181 16.0927C8.46298 16.454 8.55779 16.8131 8.55779 16.8131C8.55779 16.8131 8.93041 16.5751 8.97892 16.2844C9.0164 16.0552 8.96128 15.7138 8.93702 15.5816C9.25893 15.4759 9.27437 15.1983 9.73298 15.0044C10.1806 14.8172 10.3525 14.8194 10.5686 15.0154C10.476 15.0044 10.3481 15.0066 10.2335 15.0771C10.024 15.2027 9.88071 15.401 9.88071 15.401C9.88071 15.401 10.1585 15.4891 10.3283 15.3921C10.4474 15.3217 10.5819 15.1741 10.6502 15.097C10.6899 15.1366 10.7296 15.1829 10.7759 15.2335C11.0691 15.564 11.3117 15.7512 11.5145 15.9143C11.3227 15.8438 10.9765 15.7578 10.6392 15.8966C10.1409 16.1015 9.75723 16.4892 9.75723 16.4892C9.75723 16.4892 10.3415 16.78 10.7428 16.6214C11.0824 16.487 11.5079 16.1169 11.6292 16.009C11.7659 16.1257 11.8849 16.2447 11.9864 16.4121C12.1539 16.6897 12.2531 16.91 12.3744 17.0664C12.2509 16.9805 12.0415 16.8703 11.7989 16.8968C11.4087 16.9364 11.0603 17.1281 11.0603 17.1281C11.0603 17.1281 11.4065 17.4497 11.7196 17.4211C11.993 17.3969 12.3788 17.2206 12.4736 17.1766C12.5486 17.2449 12.639 17.2911 12.7581 17.3198C13.1505 17.4101 13.4548 17.4409 13.0601 17.833C12.6677 18.2252 12.2443 18.7076 11.9114 18.4367C11.6446 18.2186 11.358 17.963 11.0846 18.1635C11.0934 18.0159 11.0802 17.7581 10.917 17.5533C10.6723 17.2471 10.3217 17.0598 10.3217 17.0598C10.3217 17.0598 10.2401 17.5268 10.4341 17.7736C10.5796 17.9608 10.8707 18.1569 11.0008 18.2406C10.9611 18.2847 10.9214 18.3397 10.8817 18.4058C10.6105 18.8729 10.4209 19.1791 10.2291 19.2936C10.2555 19.0711 10.2754 18.5424 9.94685 18.1349C9.51911 17.6039 8.91277 17.2801 8.91277 17.2801C8.91277 17.2801 8.77166 18.0886 9.109 18.516C9.37138 18.8486 9.89614 19.1989 10.1144 19.3377C10.1078 19.3377 10.1034 19.3399 10.0968 19.3399C9.85425 19.3707 8.36155 19.6527 8.17855 19.2297C8.01759 18.8552 7.93381 18.2979 7.53252 18.2891C7.51709 18.1789 7.46197 17.9344 7.26353 17.7868C7.00115 17.5885 6.67703 17.507 6.67703 17.507C6.67703 17.507 6.7079 17.9035 6.91516 18.0644C7.04745 18.1679 7.26573 18.2538 7.40464 18.3045C7.38921 18.3089 7.37377 18.3111 7.35834 18.3155C6.95926 18.4345 6.37056 18.3838 6.06188 18.3441C6.15007 18.1855 6.31544 17.833 6.24047 17.5445C6.13905 17.1611 5.7576 16.6346 5.7576 16.6346C5.7576 16.6346 5.43349 17.0796 5.56578 17.5577C5.6209 17.7581 5.70689 17.9432 5.79068 18.0908C5.73997 18.0467 5.68264 18.0093 5.61208 17.9851C5.33868 17.8903 5.04543 17.9124 5.04543 17.9124C5.04543 17.9124 5.17772 18.234 5.39601 18.3133C5.59665 18.3838 5.93179 18.3816 5.98691 18.3794C6.2074 18.4895 6.66601 18.69 6.9791 18.6459C7.40244 18.5843 7.49945 18.4939 7.64497 18.8574C7.66481 18.9103 7.67804 18.9654 7.68686 19.0205C7.53473 18.9654 7.22384 18.8861 6.93059 19.016C6.52049 19.1989 6.2096 19.5315 6.2096 19.5315C6.2096 19.5315 6.70349 19.7607 7.03422 19.6175C7.27455 19.5139 7.56339 19.265 7.7023 19.1372C7.72655 19.3465 7.75962 19.5382 8.09917 19.6109C8.92379 19.7871 9.33169 19.6373 9.3361 19.6373C9.3361 19.6373 7.87428 20.5405 7.28337 20.2806C6.73877 20.0426 6.21401 19.9259 5.75099 19.9083C5.7113 19.721 5.5724 19.2275 5.14024 18.961C4.60225 18.6305 3.97166 18.5336 3.97166 18.5336C3.97166 18.5336 4.09734 19.2826 4.52508 19.5536C4.78085 19.7166 5.17331 19.8378 5.44892 19.9105C5.3034 19.9193 5.16449 19.9369 5.03661 19.9655L4.89771 20.0074C4.88448 20.0118 4.87345 20.0162 4.86243 20.0228C4.45232 20.1924 4.36854 20.2035 4.22743 20.2343C4.22302 20.2343 4.22081 20.2343 4.21861 20.2343C4.21861 20.0889 4.20097 19.7629 4.08852 19.4566C3.93859 19.0447 3.48439 18.8949 3.48439 18.8949C3.48439 18.8949 3.47336 19.4633 3.59683 19.7915C3.67621 20.0008 3.90552 20.155 4.06206 20.2387C3.94961 20.2343 3.80189 20.1506 3.71149 20.0933C3.34989 19.8576 2.96404 19.4985 2.20115 19.732C2.13501 19.5998 1.95641 19.2672 1.68301 19.0072C1.33023 18.6724 0.801061 18.7451 0.801061 18.7451C0.801061 18.7451 1.07667 19.3157 1.3633 19.58C1.5419 19.7452 1.83735 19.7871 2.03358 19.7959C2.01815 19.8025 2.00271 19.8091 1.98728 19.8157C1.48898 20.0382 1.19132 20.2739 1.03037 20.4326C0.984065 20.426 0.640106 20.3731 0.424029 20.4149C0.192518 20.4612 0.0117188 20.7586 0.0117188 20.7586C0.0117188 20.7586 0.302761 20.8203 0.591599 20.7674C0.717276 20.7432 0.816495 20.6793 0.889256 20.611C1.03478 20.5119 1.7712 20.0338 2.36211 19.9942C2.36652 19.9942 2.37093 19.9942 2.37534 19.9942C2.28053 20.0845 2.15926 20.2101 2.09311 20.3224C1.97626 20.5273 2.08209 20.8599 2.08209 20.8599C2.08209 20.8599 2.31801 20.6793 2.46794 20.4282C2.56055 20.2695 2.55393 20.0955 2.53409 19.9832C3.02577 19.9611 3.07869 20.0779 3.47777 20.307C3.74676 20.4612 3.91433 20.426 4.24066 20.459C4.09293 20.5912 3.82834 20.8511 3.70928 21.0626C3.53069 21.371 3.70046 21.8865 3.70046 21.8865C3.70046 21.8865 4.06427 21.6178 4.29137 21.23C4.44791 20.9635 4.41263 20.6198 4.37515 20.4568C4.4876 20.4502 4.6221 20.4149 4.64856 20.4083C4.77864 20.3863 4.9859 20.2894 5.47097 20.1572C5.70689 20.0933 5.92958 20.1572 6.15889 20.2563C5.91635 20.2453 5.42246 20.2673 5.05205 20.5978C4.54493 21.0516 4.24947 21.675 4.24947 21.675C4.24947 21.675 5.06528 21.7764 5.47759 21.4195C5.83036 21.1133 6.18755 20.4854 6.28016 20.3158C6.5249 20.4348 6.83799 20.578 7.13344 20.644C7.38921 20.7013 7.7023 20.6991 8.05508 20.4964C7.92278 20.6705 7.72214 21.0097 7.76403 21.4063C7.82577 21.9879 8.1124 22.5034 8.1124 22.5034C8.1124 22.5034 8.59306 21.9857 8.55117 21.5186C8.51369 21.1243 8.26233 20.5714 8.18516 20.4127C8.20721 20.3973 8.22485 20.3731 8.25131 20.3643C8.86647 20.1396 9.35815 19.8928 9.95788 19.6461C9.99756 19.6307 10.0417 19.6461 10.0769 19.6439C9.9689 19.7342 9.81456 19.9016 9.77928 20.1308C9.72416 20.4942 9.81677 20.8533 9.81677 20.8533C9.81677 20.8533 10.1916 20.6154 10.2379 20.3246C10.2754 20.1021 10.2247 19.7739 10.1982 19.6329C10.5995 19.58 10.6392 19.3817 10.8707 19.124C11.1419 18.8222 11.1331 18.6526 11.444 18.7715C11.7526 18.8905 11.9577 18.9764 12.1142 19.0116C11.8871 19.0998 11.4462 19.3201 11.2411 19.7717C10.9611 20.3907 10.9457 21.0802 10.9457 21.0802C10.9457 21.0802 11.735 20.8423 11.9665 20.3489C12.1605 19.9347 12.2333 19.2385 12.2509 19.0271C12.4141 19.0271 12.531 18.9323 12.7073 18.712C13.0689 18.2604 13.2718 17.5951 13.8164 18.1679C14.1361 18.505 14.1978 18.6504 14.2838 18.7693C14.1405 18.7231 13.8958 18.6768 13.6643 18.7825C13.3071 18.9434 13.0359 19.2341 13.0359 19.2341C13.0359 19.2341 13.4658 19.4302 13.7547 19.3046C13.9818 19.2055 14.2574 18.9588 14.3632 18.8596C14.4161 18.9103 14.4889 18.9632 14.6057 19.0337C14.7446 19.1174 14.8747 19.1879 14.996 19.265C14.7402 19.2165 14.1934 19.1636 13.7392 19.4699C13.1241 19.884 12.714 20.5141 12.714 20.5141C12.714 20.5141 13.5827 20.7454 14.0788 20.4193C14.5043 20.1396 14.9806 19.5183 15.1084 19.3443C15.3267 19.5095 15.5009 19.7298 15.6178 20.1506C15.6288 20.1836 15.6354 20.2145 15.6442 20.2453C15.5869 20.155 15.4767 20.0162 15.3003 19.9655C15.0291 19.8862 14.7446 19.9193 14.7446 19.9193C14.7446 19.9193 14.888 20.2277 15.104 20.2916C15.2892 20.3488 15.5847 20.3378 15.6663 20.3312C15.8228 20.9216 15.8802 21.2785 16.1161 21.512C16.4225 21.8116 16.729 21.9857 17.0642 22.8713C17.3993 23.7547 17.428 23.9683 17.3067 24.6028C17.1766 25.2857 17.1347 25.0875 17.0531 25.3518C16.987 25.5633 17.0421 25.8387 16.9936 26.114C16.9451 26.3894 16.4622 27.0856 16.4181 27.1605C16.3873 27.2133 16.1514 27.6209 16.1227 27.6693C15.9617 27.9403 15.889 28.0174 15.6067 28.0901C15.1217 28.2113 15.0842 28.4646 14.5021 28.4117C13.7436 28.3435 10.7141 28.4933 9.97552 28.5704C9.6492 28.6056 6.46537 28.6409 4.47437 28.751C2.92214 28.8369 0.690818 28.892 0.353473 28.9427C0.309376 28.9493 1.98067 28.9977 2.22982 28.9977C2.47897 28.9977 3.91433 28.9184 5.54814 28.892C6.61971 28.8744 7.78608 28.8545 8.89072 28.8391C10.2644 28.8171 14.3191 28.8501 14.8284 28.8501C14.9078 28.8501 14.996 28.8413 15.0886 28.8303C15.3907 28.7752 15.7986 28.6453 16.0676 28.6673C16.1866 28.6783 16.4799 28.5439 16.879 28.3853C17.2472 28.2421 18.806 27.9623 18.9868 27.98C19.0177 27.9822 18.2945 28.2311 18.2702 28.2443C17.988 28.3963 17.5911 28.306 17.2714 28.48C16.7775 28.7466 16.3807 28.9911 16.3674 29.0021C16.3983 28.9889 17.4809 28.4866 18.2129 28.5968C18.4775 28.6364 18.5745 28.6387 18.7509 28.566C19.1125 28.4162 19.1808 28.3545 19.2889 28.2862C19.3749 28.2289 19.4542 28.2553 19.6659 28.2553C19.8776 28.2553 19.9195 28.4536 19.818 28.5638C19.7254 28.6651 19.3308 28.8545 19.3308 28.8545C19.3308 28.8545 19.7475 28.8567 19.8842 28.7444C20.248 28.4426 20.6316 28.035 20.9954 28.035C21.3592 28.035 20.6669 28.0659 21.2115 28.187C21.7561 28.3082 21.6856 28.6078 22.1089 28.729C22.4044 28.8127 24.2873 28.9537 24.2873 28.9537C24.2873 28.9537 22.6513 28.61 22.5521 28.5373C22.2191 28.295 22.325 28.2267 22.7197 28.2884C23.1121 28.3479 23.1077 28.4382 23.4032 28.5814C23.8375 28.7907 24.7481 29.0176 27.1999 29.0176C27.3763 29.0176 32.6592 28.8986 32.8841 28.9691C33.2126 29.0748 37.08 28.925 37.08 28.925C37.08 28.925 36.4604 28.9162 35.6159 28.8942C34.767 28.8722 30.1964 28.7642 28.9242 28.7466C28.3641 28.7378 27.8658 28.74 27.5196 28.7554C26.684 28.7973 25.6279 28.6254 25.4096 28.5946C25.0326 28.5439 24.4659 28.4316 23.8993 28.1496C23.5663 27.9822 22.6601 27.9469 22.336 27.5834C22.0141 27.2199 22.0802 27.3719 21.8245 27.1164C21.6106 26.9005 21.4452 26.7375 21.4519 26.5921C21.4893 25.8365 21.3107 26.0149 21.2975 25.5236C21.2821 24.8782 21.2644 25.3276 21.2799 24.7218C21.3041 23.8318 20.8301 24.1181 20.9117 23.2744C20.9932 22.4263 20.7088 22.347 21.1939 21.8645C21.626 21.4327 22.9005 21.0935 23.3061 20.8776C23.3591 20.9701 23.4781 21.1485 23.6369 21.197C23.853 21.2631 24.2212 21.2344 24.2212 21.2344C24.2212 21.2344 24.1021 20.9459 23.8309 20.8688C23.6722 20.8225 23.509 20.8137 23.401 20.8159C23.4054 20.8115 23.4076 20.8093 23.4098 20.8071C23.7229 20.4854 23.7339 20.2145 24.5387 19.8906C24.5541 19.884 24.5717 19.8774 24.5872 19.873C24.5651 20.0206 24.5431 20.3246 24.6776 20.5163C24.8584 20.7784 25.2927 21.0714 25.2927 21.0714C25.2927 21.0714 25.4118 20.6463 25.1803 20.3224C25.0171 20.0955 24.7988 19.9215 24.6842 19.84C25.3346 19.6263 25.2751 20.0228 25.9917 20.1748C26.0578 20.188 26.124 20.2012 26.1879 20.2123C26.0997 20.3378 25.9388 20.6088 25.974 20.8489C26.0225 21.175 26.2893 21.6442 26.2893 21.6442C26.2893 21.6442 26.5936 21.3071 26.5297 20.8996C26.4834 20.6154 26.3621 20.3599 26.2937 20.2299C26.8295 20.307 27.2771 20.2695 27.5704 20.1263C27.5439 20.3422 27.5064 20.9326 27.7776 21.2785C28.1128 21.7059 28.8823 22.1619 28.8823 22.1619C28.8823 22.1619 29.0432 21.4261 28.6155 20.8974C28.2759 20.4744 27.8217 20.1836 27.6519 20.0823C27.6718 20.0691 27.6916 20.0559 27.7093 20.0426C28.0312 19.8025 28.1877 19.71 28.5648 19.6042C28.7522 19.5514 28.9771 19.4522 29.3806 19.8532C29.504 19.9765 29.676 20.0559 29.8678 20.1087C29.7885 20.2123 29.6496 20.4238 29.6694 20.6198C29.6981 20.8908 29.9009 21.2917 29.9009 21.2917C29.9009 21.2917 30.1677 21.023 30.128 20.6837C30.1038 20.4568 30.02 20.2475 29.9671 20.133C30.2625 20.199 30.5976 20.2145 30.8887 20.2277C30.8777 20.3048 30.8622 20.5207 30.9526 20.6551C31.0629 20.8203 31.3253 21.0053 31.3253 21.0053C31.3253 21.0053 31.3958 20.7366 31.2569 20.5317C31.1599 20.3885 31.0386 20.2828 30.9725 20.2321H30.9901C31.193 20.2431 31.3473 20.2519 31.4553 20.2828C31.6626 20.3422 31.7574 20.3488 32.1212 20.7322C32.3461 20.9679 32.4938 21.0516 32.7121 21.2477C32.6482 21.36 32.5423 21.5693 32.496 21.8094C32.4299 22.1597 32.6835 22.4593 32.6835 22.4593C32.6835 22.4593 32.9282 22.0606 32.9767 21.7808C32.9987 21.653 32.9569 21.5142 32.9061 21.3997C33.0054 21.468 33.1112 21.5957 33.2501 21.6662C33.5941 21.8381 33.9468 21.772 34.3966 21.4085C34.4077 21.3997 34.4187 21.3909 34.4319 21.3842C34.4782 21.4724 34.5818 21.6552 34.6899 21.7521C34.8332 21.8843 35.1264 21.8557 35.1264 21.8557C35.1264 21.8557 35.0272 21.631 34.8508 21.4636C34.7516 21.3688 34.6237 21.3402 34.5311 21.3314C34.7582 21.2344 35.2742 21.3049 35.5013 21.3204C35.5013 21.3204 36.0062 21.5649 36.3479 21.5935C36.6897 21.6222 37.0645 21.2675 37.0645 21.2675C37.0645 21.2675 36.6831 21.0626 36.2575 21.0208C35.9246 20.9899 35.6909 21.1397 35.5873 21.2278" fill="#223046"/>
<path d="M50.6318 6.20361C48.7841 6.20361 47.093 6.91297 45.8759 8.19951C44.7007 9.43979 44.0547 11.0964 44.0547 12.8654C44.0547 16.6435 46.8659 19.492 50.5965 19.492C52.4442 19.492 54.1353 18.7826 55.3524 17.4961C56.5276 16.2558 57.1736 14.5992 57.1736 12.8302C57.1736 9.05206 54.3624 6.20361 50.6318 6.20361ZM55.5553 12.8654C55.5553 15.8152 53.4386 18.038 50.6318 18.038C47.825 18.038 45.6731 15.7976 45.6731 12.828C45.6731 9.85835 47.7897 7.65317 50.5965 7.65317C53.4033 7.65317 55.5553 9.8936 55.5553 12.8632V12.8654Z" fill="#223046"/>
<path d="M66.5324 6.33154L60.6719 19.274H62.2836L63.794 15.9101H70.6467L72.1394 19.274H73.8239L67.9634 6.33154H66.5368H66.5324ZM70.0249 14.4958H64.4135L67.2291 8.2217L70.0271 14.4958H70.0249Z" fill="#223046"/>
<path d="M89.5576 6.42188H87.5269L80.2993 13.9296V6.42188H78.7383V19.274H80.2993V15.8198L82.943 13.1432L87.8135 19.274H89.7759L84.0322 12.0527L89.5576 6.42188Z" fill="#223046"/>
<path d="M100.465 7.87364H104.742V19.274H106.323V7.87364H110.598V6.42188H100.465V7.87364Z" fill="#223046"/>
<path d="M125.757 10.2837C125.757 7.93752 123.925 6.42188 121.092 6.42188H115.551V19.274H117.114V14.3284H120.659L124.353 19.274H126.275L122.348 14.0552C124.516 13.6278 125.757 12.2576 125.757 10.2859V10.2837ZM124.176 10.3388C124.176 11.9029 122.915 12.9118 120.964 12.9118H117.114V7.87364H120.981C122.981 7.87364 124.176 8.79448 124.176 10.3388Z" fill="#223046"/>
<path d="M132.782 13.5111H139.734V12.0769H132.782V7.85601H140.552V6.42188H131.219V19.274H140.642V17.8399H132.782V13.5111Z" fill="#223046"/>
<path d="M147.141 17.8399V13.5111H154.093V12.0769H147.141V7.85601H154.911V6.42188H145.578V19.274H155.002V17.8399H147.141Z" fill="#223046"/>
<path d="M48.9362 24.8165C48.9362 24.2724 48.7642 23.8604 48.4247 23.5872C48.0874 23.3163 47.5604 23.1797 46.8592 23.1797H45.2695V28.9206H45.9927V26.5591H47.1282L48.4953 28.9052L48.5041 28.9206H49.3596L47.8073 26.3542C48.5548 26.0832 48.934 25.5655 48.934 24.8143L48.9362 24.8165ZM45.9927 23.823H46.8196C47.3002 23.823 47.653 23.9045 47.8691 24.0653C48.0807 24.2239 48.1888 24.4883 48.1888 24.8517C48.1888 25.2152 48.0829 25.484 47.8735 25.6624C47.6618 25.8409 47.3245 25.9334 46.8681 25.9334H45.9927V23.8252V23.823Z" fill="#223046"/>
<path d="M51.8008 28.9206H55.0331V28.2686H52.5262V26.2418H54.881V25.5964H52.5262V23.8296H55.0331V23.1797H51.8008V28.9206Z" fill="#223046"/>
<path d="M57.3906 23.8296H59.1898V28.9206H59.913V23.8296H61.7144V23.1797H57.3906V23.8296Z" fill="#223046"/>
<path d="M64.5865 23.1797H63.8633V28.9206H64.5865V23.1797Z" fill="#223046"/>
<path d="M70.8229 24.8165C70.8229 24.2724 70.651 23.8604 70.3114 23.5872C69.9741 23.3163 69.4471 23.1797 68.746 23.1797H67.1562V28.9206H67.8794V26.5591H69.015L70.382 28.9052L70.3908 28.9206H71.2463L69.6941 26.3542C70.4415 26.0832 70.8207 25.5655 70.8207 24.8143L70.8229 24.8165ZM67.8794 23.823H68.7063C69.1869 23.823 69.5397 23.9045 69.7558 24.0653C69.9675 24.2239 70.0755 24.4883 70.0755 24.8517C70.0755 25.2152 69.9697 25.484 69.7602 25.6624C69.5485 25.8409 69.2112 25.9334 68.7548 25.9334H67.8794V23.8252V23.823Z" fill="#223046"/>
<path d="M73.457 28.9206H76.6872V28.2686H74.1802V26.2418H76.5372V25.5964H74.1802V23.8296H76.6872V23.1797H73.457V28.9206Z" fill="#223046"/>
<path d="M82.2171 27.85L80.4223 23.1797H79.375V28.9206H80.0475V25.2769C80.0475 24.7813 80.0321 24.3429 80.0034 23.9684L81.893 28.9008L81.8996 28.9206H82.475L84.3889 23.9706C84.358 24.42 84.3426 24.8429 84.3426 25.2307V28.9206H85.0658V23.1797H84.0251L82.2149 27.85H82.2171Z" fill="#223046"/>
<path d="M87.8594 28.9206H91.0917V28.2686H88.5848V26.2418H90.9396V25.5964H88.5848V23.8296H91.0917V23.1797H87.8594V28.9206Z" fill="#223046"/>
<path d="M97.5571 26.4685C97.5527 26.6337 97.5571 26.9003 97.577 27.2858C97.5902 27.5788 97.6012 27.7859 97.6078 27.8938L94.5408 23.1949L94.532 23.1816H93.7383V28.9226H94.4108V25.6644C94.4108 25.2194 94.3909 24.7237 94.3534 24.1906L97.4292 28.9094L97.438 28.9226H98.2406V23.1816H97.5593V26.4707L97.5571 26.4685Z" fill="#223046"/>
<path d="M100.75 23.8296H102.549V28.9206H103.272V23.8296H105.074V23.1797H100.75V23.8296Z" fill="#223046"/>
<path d="M113.219 26.8518C113.085 27.2241 112.972 27.6008 112.884 27.9775C112.8 27.6206 112.69 27.2505 112.556 26.876L111.25 23.2015L111.244 23.1816H110.477L112.529 28.9028L112.536 28.9226H113.233L115.29 23.2235L115.305 23.1816H114.527L113.222 26.854L113.219 26.8518Z" fill="#223046"/>
<path d="M118.481 23.1797H117.758V28.9206H118.481V23.1797Z" fill="#223046"/>
<path d="M121.817 23.1797H121.094V28.9206H124.324V28.2598H121.817V23.1797Z" fill="#223046"/>
<path d="M127.05 23.1797H126.324V28.9206H129.557V28.2598H127.05V23.1797Z" fill="#223046"/>
<path d="M133.728 23.1577H133.13L130.859 28.9229H131.596L132.295 27.1165H134.53L135.229 28.9031L135.238 28.9229H135.99L133.739 23.1775L133.73 23.1577H133.728ZM134.299 26.46H132.551L133.203 24.7417C133.294 24.4883 133.366 24.2526 133.421 24.0345C133.501 24.3077 133.578 24.5456 133.653 24.7417L134.299 26.46Z" fill="#223046"/>
<path d="M140.364 26.537H141.636V28.2289C141.272 28.3148 140.895 28.3589 140.514 28.3589C139.799 28.3589 139.253 28.1628 138.887 27.7751C138.521 27.3873 138.333 26.808 138.333 26.0523C138.333 25.2967 138.527 24.7636 138.906 24.3605C139.288 23.9573 139.826 23.7524 140.505 23.7524C140.972 23.7524 141.466 23.8604 141.973 24.0763L142.002 24.0873L142.284 23.4484L142.256 23.4352C141.731 23.2127 141.155 23.0981 140.549 23.0981C139.943 23.0981 139.416 23.2171 138.968 23.4528C138.518 23.6885 138.17 24.0366 137.93 24.4838C137.692 24.931 137.57 25.4575 137.57 26.0501C137.57 26.9754 137.815 27.7068 138.298 28.2223C138.781 28.7378 139.464 28.9999 140.331 28.9999C140.739 28.9999 141.105 28.9757 141.416 28.925C141.726 28.8766 142.035 28.8017 142.337 28.7069L142.359 28.7003V25.8849H140.364V26.537Z" fill="#223046"/>
<path d="M144.961 28.9206H148.193V28.2686H145.684V26.2418H148.041V25.5964H145.684V23.8296H148.193V23.1797H144.961V28.9206Z" fill="#223046"/>
<path d="M153.81 26.4095C153.583 26.1627 153.164 25.9314 152.566 25.7177C152.216 25.5922 151.951 25.4776 151.781 25.3741C151.614 25.2727 151.495 25.1604 151.424 25.0392C151.353 24.918 151.318 24.7616 151.318 24.5722C151.318 24.3166 151.413 24.114 151.603 23.9708C151.792 23.8254 152.063 23.7527 152.403 23.7527C152.84 23.7527 153.296 23.8518 153.759 24.0457L153.79 24.0589L154.017 23.4244L153.99 23.4134C153.514 23.2063 152.985 23.1006 152.418 23.1006C151.852 23.1006 151.426 23.2328 151.093 23.4949C150.758 23.7593 150.588 24.1184 150.588 24.5656C150.588 25.0128 150.705 25.3366 150.937 25.601C151.166 25.8631 151.552 26.0922 152.083 26.2817C152.458 26.4161 152.74 26.535 152.923 26.6408C153.104 26.7443 153.232 26.8567 153.309 26.9778C153.384 27.099 153.424 27.2554 153.424 27.4449C153.424 27.7312 153.316 27.9582 153.102 28.1168C152.886 28.2798 152.557 28.3613 152.125 28.3613C151.858 28.3613 151.587 28.3327 151.316 28.2776C151.045 28.2203 150.789 28.1432 150.56 28.0463L150.516 28.0286V28.7336L150.533 28.7424C150.899 28.9164 151.426 29.0068 152.101 29.0068C152.727 29.0068 153.23 28.8636 153.598 28.5816C153.966 28.2974 154.154 27.8943 154.154 27.3876C154.154 26.9932 154.037 26.6672 153.81 26.4183V26.4095Z" fill="#223046"/>
</g>
<defs>
<clipPath id="clip0_188_464">
<rect width="155" height="29" fill="white"/>
</clipPath>
</defs>
</svg>
