<svg width="140" height="34" viewBox="0 0 140 34" fill="none" xmlns="http://www.w3.org/2000/svg">
<g clip-path="url(#clip0_185_4120)">
<path d="M5.64284 33.3203C2.58537 33.3203 0 29.6187 0 24.4377C0 19.2568 2.58537 15.5552 5.64284 15.5552C8.70032 15.5552 11.3082 19.2568 11.3082 24.4377C11.3082 29.6187 8.70032 33.3203 5.64284 33.3203ZM5.64284 16.1227C3.33047 16.1227 2.48581 19.7478 2.48581 24.4377C2.48581 29.1277 3.33047 32.7528 5.64284 32.7528C7.95522 32.7528 8.82236 29.1277 8.82236 24.4377C8.82236 19.7478 7.95201 16.1227 5.64284 16.1227Z" fill="black"/>
<path d="M22.7049 19.0847V33.2949H22.6053L14.4799 17.4077V29.8675C14.4799 31.6944 15.1768 32.5552 16.3683 33.0239V33.0749H11.8945V33.0239C13.1117 32.5297 13.783 31.6912 13.783 29.791V18.7149C13.783 17.0857 13.5582 16.346 12.3409 15.855V15.804H16.044L22.0337 27.5974V19.0114C22.0337 17.1845 21.3367 16.3205 20.1452 15.8518V15.8008H24.619V15.8518C23.4018 16.346 22.7049 17.1845 22.7049 19.0847Z" fill="black"/>
<path d="M32.6945 15.8042C33.1185 15.8042 33.5906 15.7787 33.8636 15.6321L34.4609 19.8024H34.4096C33.1924 17.459 31.9494 16.3494 29.165 16.3494H28.3203V24.0237H28.6928C30.7065 24.0237 31.3264 23.5805 32.1967 21.2849H32.2449V26.8867H32.1967C31.3264 24.6167 30.7065 24.5178 28.6928 24.5178H28.3203V32.5364H29.3127C32.0972 32.5364 33.5617 31.4014 34.7789 28.6371H34.8303L34.2843 33.0784H24.8164V33.0306C26.0336 32.5364 26.2584 31.7967 26.2584 30.1675V18.7215C26.2584 17.0923 26.0336 16.3526 24.8164 15.8616V15.8106H32.6945V15.8042Z" fill="black"/>
<path d="M38.0878 30.6292C38.0396 30.8524 38.014 31.0246 38.014 31.1967C38.014 31.8886 38.3865 32.2584 38.9068 32.2584C39.4785 32.2584 40.2236 31.8631 40.9462 31.0246L40.9943 31.0724C40.124 32.5517 39.032 33.3169 37.7153 33.3169C36.5238 33.3169 35.875 32.5773 35.875 31.4422C35.875 31.1967 35.9007 30.948 35.9489 30.7025L38.2356 21.7211H36.967L36.9927 21.5968C39.4014 20.9304 40.3231 19.3012 41.4151 16.8367H41.5885L40.4708 21.0803H43.0305L42.7575 21.7211H40.3231L38.0878 30.626V30.6292Z" fill="black"/>
<path d="M47.8706 20.8352C49.8843 20.8352 51.0758 22.4867 51.0758 24.9545C51.0758 28.7039 48.5418 33.3174 45.1857 33.3174C43.172 33.3174 41.9805 31.6658 41.9805 29.1981C41.9805 25.4487 44.5144 20.8352 47.8706 20.8352ZM47.7967 21.3294C46.3804 21.3294 45.0123 24.2658 44.3924 27.1767C44.1676 28.2129 44.0455 29.2746 44.0455 30.1609C44.0455 32.0102 44.4181 32.8264 45.2628 32.8264C46.6791 32.8264 48.0472 29.8899 48.6671 26.979C48.8919 25.9428 49.0139 24.8811 49.0139 23.9948C49.0139 22.1456 48.6414 21.3294 47.7967 21.3294Z" fill="black"/>
<path d="M55.1564 33.0716H51.3281V33.0238C52.3719 32.5041 52.8922 31.4456 53.4414 29.7176L57.7899 15.5552H57.8638L62.3858 30.3106C62.9093 31.9876 63.1309 32.4818 64.149 33.0238V33.0716H59.5017V33.0238C60.2468 32.7273 60.5455 32.332 60.5455 31.7166C60.5455 31.3213 60.4203 30.8526 60.2468 30.2372L59.3283 27.2275H54.8802L54.1351 29.6442C53.9874 30.1129 53.9103 30.5816 53.9103 30.9769C53.9103 31.9143 54.2828 32.654 55.1532 33.0238V33.0716H55.1564ZM55.0568 26.609H59.1324L57.0962 19.9741L55.0568 26.609Z" fill="black"/>
<path d="M74.8885 19.0847V33.2949H74.7889L66.6635 17.4077V29.8675C66.6635 31.6944 67.3604 32.5552 68.5519 33.0239V33.0749H64.0781V33.0239C65.2953 32.5297 65.9666 31.6912 65.9666 29.791V18.7149C65.9666 17.0857 65.7418 16.346 64.5245 15.855V15.804H68.2276L74.2173 27.5974V19.0114C74.2173 17.1845 73.5203 16.3205 72.3288 15.8518V15.8008H76.8026V15.8518C75.5854 16.346 74.8885 17.1845 74.8885 19.0847Z" fill="black"/>
<path d="M82.9358 33.3203C79.8783 33.3203 77.293 29.6187 77.293 24.4377C77.293 19.2568 79.8783 15.5552 82.9358 15.5552C85.9933 15.5552 88.6011 19.2568 88.6011 24.4377C88.6011 29.6187 85.9933 33.3203 82.9358 33.3203ZM82.9358 16.1227C80.6234 16.1227 79.7788 19.7478 79.7788 24.4377C79.7788 29.1277 80.6234 32.7528 82.9358 32.7528C85.2482 32.7528 86.1153 29.1277 86.1153 24.4377C86.1153 19.7478 85.245 16.1227 82.9358 16.1227Z" fill="black"/>
<path d="M100.101 15.8042C100.525 15.8042 100.994 15.7787 101.27 15.6321L101.592 20.7397H101.543C100.301 17.5833 99.6293 16.2761 96.8223 16.2761H96.5237V30.362C96.5237 31.9912 96.8705 32.5587 98.0909 33.0274V33.0752H92.9202V33.0274C94.1149 32.5587 94.4618 31.9912 94.4618 30.362V16.2761H94.1888C91.3561 16.2761 90.6849 17.5833 89.442 20.7397H89.3906L89.7375 15.6321C90.0105 15.7819 90.4569 15.8042 90.8808 15.8042H100.101Z" fill="black"/>
<path d="M103.782 18.7149C103.782 17.0856 103.557 16.346 102.34 15.855V15.804H107.286V15.855C106.094 16.3492 105.844 17.0888 105.844 18.7149V23.9947H111.461V18.7149C111.461 17.0856 111.236 16.346 110.019 15.855V15.804H114.965V15.855C113.748 16.3492 113.523 17.0888 113.523 18.7149V30.164C113.523 31.7932 113.748 32.5329 114.965 33.0271V33.0781H110.019V33.0271C111.236 32.5329 111.461 31.7932 111.461 30.164V24.6132H105.844V30.164C105.844 31.7932 106.091 32.5329 107.286 33.0271V33.0781H102.34V33.0271C103.557 32.5329 103.782 31.7932 103.782 30.164V18.7149Z" fill="black"/>
<path d="M123.581 15.8042C124.005 15.8042 124.477 15.7787 124.75 15.6321L125.347 19.8024H125.296C124.078 17.459 122.835 16.3494 120.051 16.3494H119.206V24.0237H119.579C121.593 24.0237 122.212 23.5805 123.083 21.2849H123.131V26.8867H123.083C122.212 24.6167 121.593 24.5178 119.579 24.5178H119.206V32.5364H120.199C122.983 32.5364 124.448 31.4014 125.665 28.6371H125.713L125.167 33.0784H115.699V33.0306C116.916 32.5364 117.141 31.7967 117.141 30.1675V18.7215C117.141 17.0923 116.916 16.3526 115.699 15.8616V15.8106H123.577L123.581 15.8042Z" fill="black"/>
<path d="M131.41 15.804C134.666 15.804 137.473 16.9868 137.473 20.3441C137.473 23.3538 134.74 24.6355 132.206 24.7344C134.519 24.932 135.858 26.0926 136.256 27.9163L136.68 29.9887C137.052 31.79 137.65 32.4819 139.166 33.0239V33.0717H135.662C135.238 32.5775 134.792 31.5669 134.57 30.4063L134.172 28.2606C133.825 26.3604 133.128 24.9543 130.915 24.9543H130.27V30.1608C130.27 31.79 130.517 32.5297 131.712 33.0239V33.0717H126.766V33.0239C127.983 32.5297 128.208 31.79 128.208 30.1608V18.7149C128.208 17.0856 127.983 16.346 126.766 15.855V15.804H131.413H131.41ZM130.266 24.3645H131.011C133.398 24.3645 135.164 23.4016 135.164 20.3186C135.164 17.6308 133.622 16.397 131.011 16.397H130.266V24.3645Z" fill="black"/>
<path d="M23.9579 2.10391L24.687 3.56733H24.1089L23.4023 2.12304H22.092V3.56733H21.5781V0.0793457H23.6593C24.2984 0.0793457 24.7673 0.442811 24.7673 1.10916C24.7673 1.63842 24.4654 1.98275 23.9579 2.10391ZM23.6593 0.583095H22.092V1.60972H23.6593C24.0061 1.60972 24.2566 1.44712 24.2566 1.07728C24.2566 0.707439 23.9933 0.583095 23.6593 0.583095Z" fill="black"/>
<path d="M27.3828 3.56733V0.0793457H30.2733V0.59266H27.8935V1.50451H29.0914V2.00826H27.8935V3.05721H30.3632V3.56733H27.3828Z" fill="black"/>
<path d="M34.3239 0.589472V3.56733H33.8228V0.589472H32.5703V0.0793457H35.5603V0.589472H34.3239Z" fill="black"/>
<path d="M38.6331 0.0793457H38.1289V3.56733H38.6331V0.0793457Z" fill="black"/>
<path d="M43.9619 2.10391L44.6909 3.56733H44.1128L43.4062 2.12304H42.0959V3.56733H41.582V0.0793457H43.6632C44.3023 0.0793457 44.7712 0.442811 44.7712 1.10916C44.7712 1.63842 44.4693 1.98275 43.9619 2.10391ZM43.6632 0.583095H42.0959V1.60972H43.6632C44.0132 1.60972 44.2605 1.44712 44.2605 1.07728C44.2605 0.707439 43.9972 0.583095 43.6632 0.583095Z" fill="black"/>
<path d="M47.3906 3.56733V0.0793457H50.2811V0.59266H47.9045V1.50451H49.0992V2.00826H47.9045V3.05721H50.371V3.56733H47.3906Z" fill="black"/>
<path d="M55.9572 3.56733V1.1251L54.7079 3.28039L53.4939 1.1251V3.56733H52.9961V0.0793457H53.4971L54.7079 2.25376L55.9604 0.0793457H56.4711V3.56733H55.9572Z" fill="black"/>
<path d="M59.4805 3.56733V0.0793457H62.3742V0.59266H59.9943V1.50451H61.1923V2.00826H59.9943V3.05721H62.4609V3.56733H59.4805Z" fill="black"/>
<path d="M67.7144 3.56733L65.598 0.911489V3.56733H65.0938V0.0793457H65.5916L67.7048 2.74476V0.0793457H68.2251V3.56733H67.7144Z" fill="black"/>
<path d="M72.5543 0.589472V3.56733H72.0533V0.589472H70.8008V0.0793457H73.7908V0.589472H72.5543Z" fill="black"/>
<path d="M79.7695 3.56733V0.0793457H80.2834V3.05721H82.4191V3.56733H79.7695Z" fill="black"/>
<path d="M85.2972 0.0793457H84.793V3.56733H85.2972V0.0793457Z" fill="black"/>
<path d="M89.7924 3.56733H89.1854L87.6406 0.0793457H88.1962L89.4937 2.99663L90.7977 0.0793457H91.3629L89.7924 3.56733Z" fill="black"/>
<path d="M94.2503 0.0793457H93.7461V3.56733H94.2503V0.0793457Z" fill="black"/>
<path d="M99.8427 3.56733L97.723 0.911489V3.56733H97.2188V0.0793457H97.7198L99.833 2.74476V0.0793457H100.35V3.56733H99.8427Z" fill="black"/>
<path d="M105.651 3.57088C105.449 3.62827 105.237 3.65059 105.025 3.65059C103.965 3.65059 103.098 2.89178 103.098 1.81732C103.098 0.742871 103.978 0 105.034 0C105.683 0 106.107 0.219992 106.528 0.634469L106.174 0.994746C105.853 0.647223 105.539 0.50375 105.063 0.50375C104.276 0.50375 103.599 0.997934 103.599 1.8237C103.599 2.64947 104.267 3.14046 105.054 3.14046C105.188 3.14046 105.327 3.12771 105.458 3.09264C105.702 3.03206 106.104 2.85352 106.104 2.55382V2.16166H104.986V1.65791H106.605V2.58889C106.605 3.11177 106.107 3.44335 105.648 3.57088" fill="black"/>
<path d="M115.474 3.28995C115.188 3.55777 114.941 3.56415 114.572 3.56415H112.555V0.0793457H114.572C115.166 0.0793457 115.606 0.420493 115.606 1.03264C115.606 1.33234 115.506 1.51726 115.291 1.71813C115.577 1.94131 115.776 2.23782 115.776 2.61085C115.776 2.87547 115.673 3.11141 115.474 3.28676M114.572 0.583095H113.065V1.51726H114.572C114.883 1.51726 115.095 1.35785 115.095 1.03583C115.095 0.713815 114.883 0.583095 114.572 0.583095ZM114.572 2.03695H113.065V3.05083H114.623C114.812 3.05083 114.979 3.03808 115.121 2.89779C115.214 2.80533 115.265 2.6778 115.265 2.54708C115.265 2.13898 114.912 2.03695 114.568 2.03695" fill="black"/>
<path d="M119.777 2.05608V3.56733H119.27V2.05608L117.844 0.0793457H118.46L119.533 1.55552L120.593 0.0793457H121.229L119.777 2.05608Z" fill="black"/>
</g>
<defs>
<clipPath id="clip0_185_4120">
<rect width="139.163" height="33.3208" fill="white"/>
</clipPath>
</defs>
</svg>
