<svg width="140" height="55" viewBox="0 0 140 55" fill="none" xmlns="http://www.w3.org/2000/svg">
<path d="M70.7149 54.6441L69.8757 51.3988H65.9488L65.0706 54.6441H63.8242L66.8517 43.1379H68.8772L71.9472 54.6441H70.7185H70.7149ZM68.0132 44.2935H67.8078L66.2533 50.1976H69.5464L68.0132 44.2935Z" fill="#336114"/>
<path d="M78.7009 54.6436V53.9728C78.3114 54.4785 77.4934 54.7841 76.7569 54.7841C74.8129 54.7841 73.6055 53.6075 73.6055 51.739V46.158H74.8342V51.739C74.8342 52.5714 75.1812 53.5864 76.7569 53.5864C77.9042 53.5864 78.7009 52.9156 78.7009 51.8197V46.158H79.9296V54.6401H78.7009V54.6436Z" fill="#336114"/>
<path d="M85.2179 54.7637C83.3766 54.7637 82.0664 53.6889 82.0664 51.8626H83.2951C83.2951 52.9795 84.0529 53.5485 85.2391 53.5485C86.2022 53.5485 87.2043 53.3061 87.2043 52.1084C87.2043 51.5605 86.7936 51.2549 86.2412 51.0934C85.6074 50.9318 84.6867 50.7281 84.0741 50.5876C83.0295 50.3453 82.2116 49.5515 82.2116 48.4978C82.2116 46.7311 83.6032 46.0427 85.1789 46.0427C86.96 46.0427 88.2489 47.0156 88.3091 48.7823H87.0804C87.0202 47.8094 86.3864 47.2404 85.1364 47.2404C84.2972 47.2404 83.4191 47.4828 83.4191 48.4978C83.4191 48.9439 83.8086 49.3302 84.3609 49.4531C84.9735 49.5936 85.9154 49.7973 86.6095 50.0011C87.6115 50.3066 88.3906 50.995 88.3906 52.133C88.3906 54.0612 86.9175 54.7707 85.2214 54.7707L85.2179 54.7637Z" fill="#336114"/>
<path d="M89.5742 46.1825H91.2101V43.1584H92.4388V46.1825H94.3014V47.4013H92.4388V52.5362C92.4388 53.2457 92.8673 53.4705 93.3383 53.4705H94.3403V54.6682H93.2781C92.1308 54.6682 91.2314 54.0395 91.2314 52.4765V47.4048H89.5955L89.5742 46.186V46.1825Z" fill="#336114"/>
<path d="M99.0919 47.3771C98.4368 47.3771 97.5764 47.8653 97.5764 49.2421V54.6405H96.3477V46.1794H97.5764V46.9521C97.9871 46.4464 98.621 46.1794 99.1096 46.1794H99.7859V47.3982L99.0919 47.3771Z" fill="#336114"/>
<path d="M107.559 54.6439H106.33V53.8325C105.962 54.3805 105.02 54.7879 104.082 54.7879C102.69 54.7879 101.238 53.9555 101.238 52.0272C101.238 50.4432 102.403 49.6319 103.979 49.6319H106.351V48.8205C106.351 47.5842 105.594 47.2189 104.592 47.2189C103.671 47.2189 102.832 47.6263 102.793 48.7819H101.564C101.624 46.7729 103.281 46.0212 104.57 46.0212C106.043 46.0212 107.577 46.7307 107.577 48.7608L107.555 54.6439H107.559ZM106.312 50.7663H103.979C103.058 50.7663 102.425 51.1105 102.425 52.0237C102.425 53.2811 103.345 53.5656 104.245 53.5656C105.268 53.5656 106.309 52.8948 106.309 51.7392V50.7663H106.312Z" fill="#336114"/>
<path d="M110.035 43.0359H111.264V52.512C111.264 53.2215 111.675 53.4463 112.163 53.4463H112.553V54.644H112.082C110.956 54.644 110.035 54.0153 110.035 52.4523V43.0359Z" fill="#336114"/>
<path d="M114.184 44.7815V43.0359H115.678V44.7815H114.184ZM114.325 54.644V46.1618H115.554V54.644H114.325Z" fill="#336114"/>
<path d="M124.235 54.6439H123.006V53.8325C122.638 54.3805 121.696 54.7879 120.757 54.7879C119.366 54.7879 117.914 53.9555 117.914 52.0272C117.914 50.4432 119.079 49.6319 120.655 49.6319H123.027V48.8205C123.027 47.5842 122.269 47.2189 121.267 47.2189C120.347 47.2189 119.507 47.6263 119.469 48.7819H118.24C118.3 46.7729 119.957 46.0212 121.246 46.0212C122.719 46.0212 124.252 46.7307 124.252 48.7608V54.6439H124.231H124.235ZM123.006 50.7663H120.672C119.752 50.7663 119.118 51.1105 119.118 52.0237C119.118 53.2811 120.039 53.5656 120.938 53.5656C121.961 53.5656 123.002 52.8948 123.002 51.7392V50.7663H123.006Z" fill="#336114"/>
<path d="M52.1865 25.889C52.1865 40.1945 40.5049 51.7815 26.0827 51.7815C11.6816 51.7604 0 40.1734 0 25.889C0 11.6046 11.6816 0 26.1039 0C40.5262 0 52.1865 11.587 52.1865 25.8925V25.889ZM15.7112 20.0867H20.4561C20.5977 20.0867 20.7004 19.9638 20.7216 19.8233C21.1112 17.2277 23.3597 15.2362 26.0827 15.2362C28.8056 15.2362 31.0541 17.2242 31.4436 19.8233C31.4649 19.9638 31.5853 20.0867 31.7305 20.0867H36.4753C36.617 20.0867 36.7409 19.9638 36.7409 19.8233C36.3302 14.3441 31.7092 10.024 26.0827 10.024C20.4561 10.024 15.8351 14.3476 15.4244 19.8233C15.4456 19.9638 15.5483 20.0867 15.7112 20.0867ZM31.217 29.907C34.3047 28.2211 36.4753 25.0776 36.7409 21.4038C36.7409 21.2633 36.617 21.1404 36.4753 21.1404H31.7092C31.5676 21.1404 31.4649 21.2633 31.4436 21.4038C31.0541 23.9994 28.8056 25.9908 26.0827 25.9908C23.3597 25.9908 21.1112 24.0029 20.7216 21.4038C20.7004 21.2422 20.5977 21.1404 20.4561 21.1404H15.69C15.5483 21.1404 15.4244 21.2633 15.4244 21.4038C15.69 25.0776 17.857 28.2211 20.9483 29.907C17.7154 31.6737 15.4881 35.042 15.3854 38.9371C15.3854 39.0776 15.5094 39.2005 15.651 39.2005H20.3782C20.5198 39.2005 20.6437 39.0776 20.6437 38.9371C20.7854 36.0956 23.1614 33.8232 26.0649 33.8232C28.9685 33.8232 31.341 36.0956 31.4861 38.9371C31.4861 39.0776 31.6101 39.2005 31.7517 39.2005H36.4966C36.6382 39.2005 36.7622 39.0776 36.7622 38.9371C36.6807 35.042 34.4499 31.6737 31.217 29.907Z" fill="#336114"/>
<path d="M73.0129 28.6914C73.0129 30.2543 71.3982 30.7812 70.4563 30.7812C69.5144 30.7812 67.8997 30.2543 67.8997 28.6914V20.2092C67.8997 18.6463 69.5144 18.1194 70.4563 18.1194C71.3982 18.1194 73.0129 18.6463 73.0129 20.2092V28.6914ZM70.474 14.0206C65.9133 14.0417 63.7852 17.2062 63.7852 19.9037V29.0145C63.7852 31.7119 65.9133 34.88 70.474 34.8976C75.0348 34.8765 77.1629 31.7119 77.1629 29.0145V19.8826C77.1416 17.2027 75.0348 14.0171 70.474 14.0171V14.0206Z" fill="#336114"/>
<path d="M99.7417 34.5148V26.5806H105.899V22.5029H99.7629V18.4637H106.901V14.386H95.6094V34.5148H99.7417Z" fill="#336114"/>
<path d="M113.897 20.6554L115.555 26.9845H112.219L113.897 20.6554ZM117.499 34.5148H121.61L116.231 14.386H111.422L106.125 34.5148H110.257L111.199 30.9428H116.578L117.499 34.5148Z" fill="#336114"/>
<path d="M88.2665 24.4311L93.5248 14.386H88.7375L85.8728 20.248L82.9905 14.386H78.2244L83.4827 24.4311L78.2031 34.5148H83.0294L85.8728 28.6704L88.7197 34.5148H93.5461L88.2665 24.4311Z" fill="#336114"/>
<path d="M134.888 14.386L131.248 22.1165L127.565 14.386H123.352V34.5148H127.381V23.0508L129.98 28.407H132.558L135.136 23.0683V34.5148H139.165V14.386H134.888Z" fill="#336114"/>
</svg>
