<svg width="158" height="42" viewBox="0 0 158 42" fill="none" xmlns="http://www.w3.org/2000/svg">
<g clip-path="url(#clip0_185_4206)">
<path d="M48.9397 23.0504C48.9397 24.0572 48.8676 24.309 48.6513 24.7764C48.327 25.3878 47.57 25.8193 46.8492 25.8193C46.0923 25.8193 45.3354 25.3878 45.011 24.7764C44.7587 24.273 44.7227 24.0572 44.7227 23.0504V10.4284C44.7227 9.1338 44.7947 8.81016 45.1552 8.34268C45.6598 7.6954 46.2725 7.40771 47.2457 7.40771H47.7863H51.5348C55.4274 7.40771 57.9504 9.60128 57.9504 13.0535C57.9504 14.5278 57.4458 15.8583 56.5087 16.7214C55.7878 17.4046 55.1391 17.6923 53.6613 18.0159L57.2296 21.9356C58.0225 22.7986 58.2388 23.2302 58.2388 23.8055C58.2388 24.9203 57.2656 25.8553 56.1122 25.8553C55.3553 25.8553 54.8868 25.5676 54.0938 24.5607L48.9036 18.1957V23.0504H48.9397ZM51.5348 15.283C52.8684 15.283 53.8055 14.4559 53.8055 13.2333C53.8055 11.9746 52.7963 11.0397 51.4627 11.0397H48.9397V15.283H51.5348Z" fill="#0054A6"/>
<path d="M63.0027 19.9578C63.6154 21.576 64.6246 22.3311 66.2105 22.3311C67.1837 22.3311 67.436 22.2592 69.5265 21.2164C69.7788 21.1085 70.1032 21.0366 70.3915 21.0366C71.2205 21.0366 72.0134 21.8277 72.0134 22.6548C72.0134 24.273 69.0579 25.8193 65.9582 25.8193C61.6331 25.8193 58.6055 22.9425 58.6055 18.843C58.6055 14.5997 61.561 11.4712 65.5618 11.4712C69.3463 11.4712 72.2657 14.4918 72.2657 18.3755C72.2657 19.4903 71.7251 19.9578 70.4996 19.9578H63.0027ZM68.3371 17.2608C68.1568 16.5056 68.0127 16.182 67.7604 15.7864C67.2918 15.1391 66.5349 14.7436 65.7059 14.7436C64.3723 14.7436 63.4713 15.4987 62.8946 17.2608H68.3371Z" fill="#0054A6"/>
<path d="M83.2197 14.24C83.2197 15.1391 82.4628 15.9661 81.6338 15.9661C81.2013 15.9661 81.1652 15.9661 79.9398 15.4267C79.327 15.1391 78.8224 15.0312 78.3899 15.0312C77.7412 15.0312 77.3086 15.3189 77.3086 15.7504C77.3086 16.2538 77.5249 16.3977 79.4352 17.1528C81.2373 17.872 81.814 18.1957 82.5349 18.8789C83.1836 19.5621 83.5441 20.3892 83.5441 21.3961C83.5441 24.0212 81.3815 25.8552 78.2097 25.8552C75.4704 25.8552 73.0195 24.4887 73.0195 22.9784C73.0195 22.0434 73.8485 21.1804 74.7135 21.1804C75.1821 21.1804 75.1821 21.1804 76.804 21.8996C77.4528 22.1872 77.9935 22.3311 78.426 22.3311C79.0747 22.3311 79.6154 21.9355 79.6154 21.3961C79.6154 20.9286 79.327 20.6769 78.0655 20.2094C76.0471 19.4902 75.5065 19.2025 74.8217 18.6991C73.8485 18.0159 73.452 17.1169 73.452 15.8223C73.452 13.341 75.6867 11.5071 78.6422 11.5071C81.0931 11.4711 83.2197 12.7657 83.2197 14.24Z" fill="#0054A6"/>
<path d="M89.5341 7.91131C89.5341 9.20587 88.4889 10.2487 87.1913 10.2487C85.8577 10.2487 84.8125 9.20587 84.8125 7.91131C84.8125 6.61675 85.8938 5.60986 87.1913 5.60986C88.4889 5.60986 89.5341 6.68867 89.5341 7.91131Z" fill="#00ABE6"/>
<path d="M85.1367 14.2401C85.1367 13.3052 85.1728 13.0535 85.4251 12.586C85.7134 11.9747 86.4343 11.5791 87.1912 11.5791C87.912 11.5791 88.6329 11.9747 88.9212 12.586C89.1735 13.0535 89.2096 13.2692 89.2096 14.2401V23.0863C89.2096 24.0213 89.1735 24.273 88.9212 24.7405C88.6329 25.3518 87.912 25.7474 87.1912 25.7474C86.4343 25.7474 85.7494 25.3518 85.4251 24.7405C85.1728 24.273 85.1367 24.0573 85.1367 23.0863V14.2401Z" fill="#0054A6"/>
<path d="M95.4088 23.0865C95.4088 24.0214 95.3727 24.2732 95.1204 24.7406C94.8321 25.352 94.1112 25.7475 93.3904 25.7475C92.6335 25.7475 91.9487 25.352 91.6243 24.7406C91.372 24.2732 91.3359 24.0574 91.3359 23.0865V8.23495C91.3359 7.29999 91.372 7.04827 91.6243 6.61675C91.9126 6.00542 92.6335 5.60986 93.3904 5.60986C94.1112 5.60986 94.8321 6.00542 95.1204 6.58079C95.3727 7.04827 95.4088 7.26403 95.4088 8.23495V23.0865Z" fill="#0054A6"/>
<path d="M102.007 7.91131C102.007 9.20587 100.962 10.2487 99.664 10.2487C98.3304 10.2487 97.2852 9.20587 97.2852 7.91131C97.2852 6.61675 98.3664 5.60986 99.664 5.60986C100.962 5.60986 102.007 6.68867 102.007 7.91131Z" fill="#00ABE6"/>
<path d="M97.5664 14.2401C97.5664 13.3052 97.6024 13.0535 97.8547 12.586C98.1431 11.9747 98.8639 11.5791 99.6208 11.5791C100.342 11.5791 101.063 11.9747 101.351 12.586C101.603 13.0535 101.639 13.2692 101.639 14.2401V23.0863C101.639 24.0213 101.603 24.273 101.351 24.7405C101.063 25.3518 100.342 25.7474 99.6208 25.7474C98.8639 25.7474 98.1791 25.3518 97.8547 24.7405C97.6024 24.273 97.5664 24.0573 97.5664 23.0863V14.2401Z" fill="#0054A6"/>
<path d="M107.374 19.9578C107.987 21.576 108.996 22.3311 110.582 22.3311C111.555 22.3311 111.807 22.2592 113.898 21.2164C114.15 21.1085 114.474 21.0366 114.763 21.0366C115.592 21.0366 116.385 21.8277 116.385 22.6548C116.385 24.273 113.429 25.8193 110.329 25.8193C106.004 25.8193 102.977 22.9425 102.977 18.843C102.977 14.5997 105.932 11.4712 109.933 11.4712C113.717 11.4712 116.637 14.4918 116.637 18.3755C116.637 19.4903 116.096 19.9578 114.871 19.9578H107.374ZM112.672 17.2608C112.492 16.5056 112.348 16.182 112.095 15.7864C111.627 15.1391 110.87 14.7436 110.041 14.7436C108.707 14.7436 107.806 15.4987 107.23 17.2608H112.672Z" fill="#0054A6"/>
<path d="M118.08 13.9167C118.08 12.5142 118.909 11.5792 120.134 11.5792C121.035 11.5792 121.612 11.9748 122.009 12.9817C123.198 11.9029 124.171 11.5073 125.721 11.5073C127.127 11.5073 128.316 11.9029 129.253 12.694C130.335 13.629 130.695 14.6359 130.695 16.5417V23.0865C130.695 24.0214 130.659 24.2732 130.407 24.7406C130.118 25.352 129.397 25.7475 128.677 25.7475C127.92 25.7475 127.235 25.352 126.91 24.7406C126.658 24.2732 126.622 24.0574 126.622 23.0865V17.4767C126.622 15.9304 125.757 14.9595 124.351 14.9595C123.054 14.9595 122.081 16.0023 122.081 17.3329V23.0865C122.081 24.0214 122.045 24.2732 121.792 24.7406C121.504 25.352 120.783 25.7475 120.062 25.7475C119.305 25.7475 118.621 25.352 118.296 24.7406C118.044 24.2732 118.008 24.0574 118.008 23.0865V13.9167H118.08Z" fill="#0054A6"/>
<path d="M142.407 12.2979C143.092 12.6934 143.524 13.3767 143.524 14.1318C143.524 15.1027 142.803 15.9298 141.938 15.9298C141.578 15.9298 141.47 15.8939 140.497 15.5343C139.92 15.3185 139.487 15.2466 139.055 15.2466C137.325 15.2466 136.063 16.685 136.063 18.6988C136.063 20.7485 137.289 22.115 139.163 22.115C139.668 22.115 140.208 21.9711 140.749 21.7194C141.434 21.3958 141.542 21.3598 141.902 21.3598C142.839 21.3598 143.596 22.1509 143.596 23.1938C143.596 23.7332 143.308 24.3085 142.839 24.6681C141.866 25.3873 140.316 25.8548 138.803 25.8548C136.82 25.8548 135.162 25.1356 133.901 23.8051C132.603 22.4026 132.062 20.8923 132.062 18.6628C132.062 16.4692 132.819 14.5993 134.153 13.3767C135.451 12.19 137.253 11.5427 138.983 11.5427C140.172 11.4708 141.47 11.7944 142.407 12.2979Z" fill="#0054A6"/>
<path d="M148.319 19.9578C148.932 21.576 149.941 22.3311 151.527 22.3311C152.5 22.3311 152.752 22.2592 154.843 21.2164C155.095 21.1085 155.42 21.0366 155.708 21.0366C156.537 21.0366 157.33 21.8277 157.33 22.6548C157.33 24.273 154.374 25.8193 151.275 25.8193C146.949 25.8193 143.922 22.9425 143.922 18.843C143.922 14.5997 146.877 11.4712 150.878 11.4712C154.663 11.4712 157.582 14.4918 157.582 18.3755C157.582 19.4903 157.042 19.9578 155.816 19.9578H148.319ZM153.653 17.2608C153.473 16.5056 153.329 16.182 153.077 15.7864C152.608 15.1391 151.851 14.7436 151.022 14.7436C149.689 14.7436 148.788 15.4987 148.211 17.2608H153.653Z" fill="#0054A6"/>
<path d="M45.5586 37.9736V29.1274H46.9282V37.9377H45.5586V37.9736Z" fill="#98A4AB"/>
<path d="M51.1836 31.4293H52.4811V32.3643C53.3462 31.5372 53.9589 31.2495 55.0402 31.2495C55.8692 31.2495 56.59 31.5012 57.0586 31.9328C57.5272 32.3283 57.6713 32.8318 57.6713 33.8027V37.9381H56.3738V33.9106C56.3738 33.2633 56.2657 33.0116 55.9052 32.7239C55.6169 32.4722 55.2204 32.3643 54.7518 32.3643C53.4903 32.3643 52.4451 33.1914 52.4451 34.1623V37.9741H51.1836V31.4293Z" fill="#98A4AB"/>
<path d="M66.54 33.479C66.4318 32.652 65.8552 32.2924 64.7018 32.2924C63.6565 32.2924 62.9717 32.652 62.9717 33.1554C62.9717 33.4071 63.188 33.6588 63.4763 33.7667C63.7286 33.8746 63.9809 33.9106 65.0622 34.0904C66.8283 34.378 67.0806 34.414 67.4771 34.7017C67.8736 34.9894 68.1259 35.4568 68.1259 36.0682C68.1259 37.4347 66.9725 38.1539 64.846 38.1539C62.7194 38.1539 61.6742 37.4706 61.4219 35.8524H62.7555C62.8636 36.6795 63.5845 37.111 64.846 37.111C66.1075 37.111 66.7923 36.7514 66.7923 36.176C66.7923 35.9243 66.6481 35.6726 66.3958 35.5647C66.1435 35.4568 66.1435 35.4568 64.7739 35.2411C63.5124 35.0253 63.188 34.9534 62.7555 34.7736C62.1067 34.5219 61.7102 33.9465 61.7102 33.2633C61.7102 32.0047 62.8636 31.2495 64.7739 31.2495C66.7202 31.2495 67.6934 31.9328 67.8736 33.4431H66.54V33.479Z" fill="#98A4AB"/>
<path d="M78.2534 37.9739H76.9558V37.039C76.0908 37.8661 75.478 38.1537 74.3968 38.1537C73.5678 38.1537 72.8469 37.902 72.3784 37.4705C71.9098 37.0749 71.7656 36.5715 71.7656 35.6006V31.4292H73.0632V35.4927C73.0632 36.14 73.1713 36.3917 73.5317 36.6794C73.8201 36.9311 74.2165 37.039 74.6851 37.039C75.9466 37.039 76.9919 36.2119 76.9919 35.241V31.4292H78.2894V37.9739H78.2534Z" fill="#98A4AB"/>
<path d="M83.6921 31.4293V32.4002C84.485 31.5012 84.9536 31.2495 85.8547 31.2495C86.107 31.2495 86.2872 31.2495 86.6476 31.3214V32.616C86.2872 32.5081 86.0709 32.5081 85.7826 32.5081C85.1338 32.5081 84.5571 32.7239 84.1606 33.1554C83.8002 33.515 83.6921 33.8027 83.6921 34.414V37.9741H82.3945V31.4293H83.6921Z" fill="#98A4AB"/>
<path d="M89.9671 33.5866C90.0392 32.9393 90.1474 32.6157 90.3997 32.292C90.9403 31.6088 91.8774 31.2852 93.2471 31.2852C94.3283 31.2852 95.0852 31.465 95.6619 31.8246C96.0944 32.1122 96.3107 32.5797 96.3107 33.3708V36.2836C96.3107 36.9309 96.4549 37.1467 96.9234 37.1467C96.9955 37.1467 97.1037 37.1467 97.2118 37.1107V37.9737C96.9595 38.0457 96.8153 38.0816 96.527 38.0816C95.734 38.0816 95.3375 37.8299 95.0852 37.1107C94.2923 37.8659 93.4633 38.1895 92.2739 38.1895C90.688 38.1895 89.7148 37.4343 89.7148 36.2477C89.7148 35.5644 90.1113 34.9531 90.724 34.6654C91.1926 34.4496 91.481 34.3777 92.8506 34.2339C94.004 34.126 94.2202 34.09 94.5446 33.9822C94.905 33.8743 95.0492 33.6585 95.0492 33.3349C95.0492 32.6516 94.4725 32.328 93.2831 32.328C91.8774 32.328 91.3368 32.6876 91.2287 33.6585H89.9671V33.5866ZM95.0852 34.7014C94.3644 34.9171 93.6075 35.061 92.5622 35.1688C91.4089 35.2767 91.0484 35.5285 91.0484 36.1038C91.0484 36.7511 91.5891 37.1107 92.6343 37.1107C93.4994 37.1107 94.1481 36.8949 94.6167 36.4634C94.9771 36.1038 95.0852 35.8521 95.0852 35.2408V34.7014Z" fill="#98A4AB"/>
<path d="M100.594 31.4293H101.891V32.3643C102.756 31.5372 103.369 31.2495 104.45 31.2495C105.279 31.2495 106 31.5012 106.469 31.9328C106.901 32.3283 107.081 32.8318 107.081 33.8027V37.9381H105.784V33.9106C105.784 33.2633 105.676 33.0116 105.351 32.7239C105.063 32.4722 104.667 32.3643 104.198 32.3643C102.937 32.3643 101.891 33.1914 101.891 34.1623V37.9741H100.594V31.4293Z" fill="#98A4AB"/>
<path d="M117.787 35.6004C117.427 37.2186 116.238 38.1535 114.471 38.1535C112.237 38.1535 110.867 36.859 110.867 34.7373C110.867 32.5797 112.237 31.2852 114.471 31.2852C116.202 31.2852 117.427 32.1482 117.751 33.5866H116.49C116.202 32.7236 115.517 32.292 114.471 32.292C112.994 32.292 112.129 33.191 112.129 34.7014C112.129 36.2117 113.03 37.1467 114.471 37.1467C115.517 37.1467 116.202 36.6432 116.49 35.6363H117.787V35.6004Z" fill="#98A4AB"/>
<path d="M122.405 35.0969C122.549 36.3555 123.486 37.1467 124.928 37.1467C125.937 37.1467 126.622 36.7511 126.983 35.96H128.388C127.74 37.4343 126.586 38.1535 124.82 38.1535C122.657 38.1535 121.18 36.7871 121.18 34.7373C121.18 32.6876 122.693 31.2852 124.82 31.2852C126.37 31.2852 127.631 32.0044 128.136 33.227C128.352 33.7664 128.46 34.2698 128.46 35.0969H122.405ZM127.163 34.09C126.874 32.9393 126.009 32.292 124.82 32.292C123.631 32.292 122.766 32.9393 122.477 34.09H127.163Z" fill="#98A4AB"/>
<path d="M28.0839 15.0674C27.6875 15.0674 27.291 15.0674 26.8945 15.1033C26.8945 15.1033 26.8945 15.1033 26.8945 15.1393C27.0747 15.6427 27.1829 16.1821 27.2189 16.7215C32.2289 17.1171 36.0134 19.1309 36.0134 21.5042C36.0134 23.1584 34.2112 24.6328 31.4359 25.4958V26.0352C35.5809 25.2801 38.5364 23.1584 38.5364 20.7131C38.5364 17.5846 33.8508 15.0674 28.0839 15.0674Z" fill="url(#paint0_linear_185_4206)"/>
<path d="M23.1345 31.8252C22.5938 36.1044 20.7917 39.233 18.6291 39.2689C16.9711 39.3049 15.4573 37.5069 14.5563 34.7739H14.0156C14.8446 38.8734 17.0072 41.7861 19.4942 41.7502C22.4857 41.6783 24.8285 37.3631 24.9366 31.9331C24.7204 31.969 24.5041 32.005 24.2518 32.005C23.8193 32.041 23.4589 31.9331 23.1345 31.8252Z" fill="url(#paint1_linear_185_4206)"/>
<path d="M2.52334 20.0663C2.48729 18.4121 4.28944 16.9018 7.0287 16.0028V15.4634C2.88377 16.2905 -0.0357129 18.4481 0.000330054 20.9293C0.0724159 24.0578 4.79404 26.4672 10.5609 26.3593C10.8132 26.3593 11.0655 26.3233 11.2818 26.3233V24.6692C6.34389 24.3455 2.55938 22.4756 2.52334 20.0663Z" fill="url(#paint2_linear_185_4206)"/>
<path d="M15.2821 10.4649C15.7867 5.89795 17.661 2.5177 19.9317 2.5177C21.5896 2.5177 23.0674 4.3157 23.9685 7.04867H24.5091C23.7162 2.94922 21.5896 0.000488281 19.1027 0.000488281C15.9669 0.0364484 13.48 4.71126 13.516 10.4649C13.516 10.5368 13.516 10.6087 13.516 10.6806C13.9485 10.5368 14.4531 10.4289 15.0298 10.4289H15.2821V10.4649Z" fill="url(#paint3_linear_185_4206)"/>
<path d="M21.8378 17.6567C21.8378 16.3262 20.7925 15.3552 19.3869 15.3552H16.7557V19.8143H19.495C20.8646 19.8143 21.8378 18.9153 21.8378 17.6567ZM26.4873 28.8043C26.4873 29.991 25.4781 30.9619 24.2887 30.9619C23.5318 30.9619 23.0272 30.6383 22.1982 29.5954L16.7918 22.9069V28.0132C16.7918 29.056 16.7197 29.3437 16.5034 29.8472C16.143 30.4944 15.3861 30.926 14.5932 30.926C13.8002 30.926 13.0073 30.4585 12.6829 29.8472C12.4306 29.3437 12.3945 29.092 12.3945 28.0132V14.7079C12.3945 13.3774 12.4666 13.0178 12.8631 12.5144C13.3677 11.8311 14.0525 11.5435 15.0257 11.5435H15.5663H19.4589C23.4958 11.5435 26.1269 13.8449 26.1269 17.4769C26.1269 19.0232 25.6223 20.4256 24.6491 21.3246C23.8922 22.0438 23.2074 22.3675 21.6576 22.6911L25.37 26.8265C26.235 27.7255 26.4873 28.157 26.4873 28.8043Z" fill="#0054A6"/>
</g>
<defs>
<linearGradient id="paint0_linear_185_4206" x1="20.3172" y1="20.5565" x2="38.5474" y2="20.5565" gradientUnits="userSpaceOnUse">
<stop offset="0.000531056" stop-color="#35517D"/>
<stop offset="0.7199" stop-color="#C7CFD4"/>
</linearGradient>
<linearGradient id="paint1_linear_185_4206" x1="14.0108" y1="36.7843" x2="24.939" y2="36.7843" gradientUnits="userSpaceOnUse">
<stop offset="0.000531056" stop-color="#35517D"/>
<stop offset="0.7206" stop-color="#C7CFD4"/>
</linearGradient>
<linearGradient id="paint2_linear_185_4206" x1="0.000330054" y1="20.9128" x2="18.301" y2="20.9128" gradientUnits="userSpaceOnUse">
<stop offset="0.000531056" stop-color="#35517D"/>
<stop offset="0.7206" stop-color="#C7CFD4"/>
</linearGradient>
<linearGradient id="paint3_linear_185_4206" x1="13.5196" y1="5.35344" x2="24.4993" y2="5.35344" gradientUnits="userSpaceOnUse">
<stop offset="0.000531056" stop-color="#35517D"/>
<stop offset="0.7206" stop-color="#C7CFD4"/>
</linearGradient>
<clipPath id="clip0_185_4206">
<rect width="157.652" height="41.7497" fill="white"/>
</clipPath>
</defs>
</svg>
