<svg width="120" height="64" viewBox="0 0 120 64" fill="none" xmlns="http://www.w3.org/2000/svg">
<g clip-path="url(#clip0_185_4245)">
<path d="M87.0234 5.40283H89.2788V8.93926C89.6323 8.26603 90.3523 7.72164 91.4464 7.72164C92.7177 7.72164 93.6011 8.50702 93.6011 10.1735V14.4038H92.2507C92.2128 14.4038 91.4129 14.4038 91.3458 13.5104V10.6181C91.3458 9.88255 91.055 9.52098 90.3987 9.52098C89.7424 9.52098 89.2788 9.91993 89.2788 10.7511V14.3955H87.0234V5.40283Z" fill="#005881"/>
<path d="M58.4577 11.5734H60.9154C60.9785 12.2093 61.2689 12.7286 62.3379 12.7286C63.0828 12.7286 63.4952 12.3672 63.4952 11.8435C63.4952 11.3199 63.1543 11.1454 62.0727 10.9833C59.5266 10.6842 58.668 9.93614 58.668 8.14507C58.668 6.54101 60.0022 5.36914 62.1569 5.36914C64.3116 5.36914 65.5489 6.26675 65.7088 8.14507H63.3142C63.2258 7.50927 62.8597 7.18513 62.1569 7.18513C61.4541 7.18513 61.109 7.4968 61.109 7.9456C61.109 8.44427 61.3868 8.66865 62.5062 8.81831C64.7872 9.06759 65.9572 9.65356 65.9572 11.5818C65.9572 13.2107 64.6483 14.5447 62.3294 14.5447C59.8085 14.5447 58.525 13.4975 58.4492 11.5693L58.4577 11.5734Z" fill="#005881"/>
<path d="M66.5273 11.2241V11.1244C66.5273 9.03411 68.1013 7.7168 70.1424 7.7168C72.1835 7.7168 73.7323 8.99674 73.7323 11.0662V11.1659C73.7323 13.2811 72.1582 14.5527 70.1298 14.5527C68.1013 14.5527 66.5273 13.3352 66.5273 11.2282V11.2241ZM71.4428 11.1867V11.087C71.4428 9.98989 71.0009 9.38319 70.1466 9.38319C69.2923 9.38319 68.8377 9.96916 68.8377 11.062V11.1617C68.8377 12.2838 69.2796 12.8905 70.1466 12.8905C71.0135 12.8905 71.4428 12.2672 71.4428 11.1867Z" fill="#005881"/>
<path d="M94.3594 11.2241V11.1244C94.3594 9.03411 95.9335 7.7168 97.9239 7.7168C99.7251 7.7168 101.279 8.73904 101.279 11.0787V11.6646H96.6405C96.7033 12.5248 97.2091 13.0194 98.0125 13.0194C98.7574 13.0194 99.0731 12.6827 99.1617 12.2464H101.279C101.076 13.7133 99.9315 14.5485 97.9368 14.5485C95.9421 14.5485 94.3594 13.356 94.3594 11.2241ZM99.086 10.4013C99.0481 9.61592 98.6568 9.18368 97.9282 9.18368C97.2469 9.18368 96.779 9.62008 96.6698 10.4013H99.0903H99.086Z" fill="#005881"/>
<path d="M102.141 7.89272H104.397V9.18508C104.813 8.21269 105.507 7.79298 106.526 7.80545V9.88325C105.154 9.84587 104.397 10.2697 104.397 11.3128V13.5069C104.375 14.2009 103.774 14.4004 103.492 14.4004H102.141V7.89272Z" fill="#005881"/>
<path d="M107.156 7.89206H109.412V8.93923C109.766 8.26606 110.485 7.72168 111.579 7.72168C112.851 7.72168 113.734 8.50708 113.734 10.1735V14.4039H112.383C112.346 14.4039 111.546 14.4039 111.479 13.5104V10.6181C111.479 9.88261 111.188 9.52104 110.532 9.52104C109.875 9.52104 109.412 9.91998 109.412 10.7511V14.3956H107.156V7.8879V7.89206Z" fill="#005881"/>
<path d="M82.5493 12.3092V9.40863H81.7539V7.89183H82.5493V6.53711H84.805V7.89183H86.1011V9.40863H84.805V12.0973C84.805 12.571 85.0449 12.7829 85.4742 12.7829C85.7267 12.7829 85.9161 12.7456 86.1183 12.6707V14.3621C85.8276 14.4369 85.3984 14.5491 84.8723 14.5491C83.3868 14.5491 82.5535 13.8384 82.5535 12.3092H82.5493Z" fill="#005881"/>
<path d="M81.07 14.399H78.8143V13.3518C78.4607 14.025 77.7411 14.5694 76.6469 14.5694C75.3759 14.5694 74.4922 13.784 74.4922 12.1176V7.88721H75.8431C75.8809 7.88721 76.6805 7.88721 76.7479 8.78063V11.6729C76.7479 12.4085 77.0383 12.77 77.6948 12.77C78.3513 12.77 78.8143 12.3711 78.8143 11.5399V7.89551H81.07V14.4032V14.399Z" fill="#005881"/>
<path d="M58.0273 23.0749V22.9752C58.0273 20.2366 59.9927 18.4331 62.6272 18.4331C64.9714 18.4331 66.5959 19.5052 66.8105 21.8532H64.1507C64.0497 20.9431 63.5447 20.4486 62.6399 20.4486C61.4825 20.4486 60.7503 21.3462 60.7503 22.9627V23.0624C60.7503 24.6665 61.4447 25.5766 62.6777 25.5766C63.5868 25.5766 64.2265 25.1028 64.3527 24.1222H66.9241C66.7474 26.4243 65.0597 27.617 62.7282 27.617C59.5761 27.617 58.0273 25.801 58.0273 23.0749Z" fill="#005881"/>
<path d="M72.5508 24.2959V24.1961C72.5508 22.1058 74.1247 20.7886 76.1658 20.7886C78.207 20.7886 79.7557 22.0685 79.7557 24.1379V24.2377C79.7557 26.3529 78.1817 27.6245 76.1532 27.6245C74.1247 27.6245 72.5508 26.4069 72.5508 24.3V24.2959ZM77.4663 24.2584V24.1587C77.4663 23.0616 77.0243 22.4549 76.17 22.4549C75.3157 22.4549 74.8612 23.0409 74.8612 24.1338V24.2336C74.8612 25.3555 75.303 25.9622 76.17 25.9622C77.037 25.9622 77.4663 25.3389 77.4663 24.2584Z" fill="#005881"/>
<path d="M80.1602 25.4025H82.2392C82.3149 25.8762 82.5296 26.138 83.1734 26.138C83.729 26.138 83.9814 25.9261 83.9814 25.6019C83.9814 25.2778 83.6658 25.1406 82.761 25.016C80.9977 24.7916 80.2528 24.2805 80.2528 22.9258C80.2528 21.4837 81.549 20.7856 83.0766 20.7856C84.7011 20.7856 85.8374 21.3342 85.9889 22.8883H83.9478C83.8594 22.452 83.6196 22.2401 83.1019 22.2401C82.5843 22.2401 82.357 22.452 82.357 22.7512C82.357 23.0504 82.66 23.1875 83.468 23.2872C85.2945 23.5116 86.1785 23.9854 86.1785 25.3775C86.1785 26.9193 85.0167 27.6174 83.1903 27.6174C81.3638 27.6174 80.2149 26.8444 80.1644 25.4025H80.1602Z" fill="#005881"/>
<path d="M86.6094 25.4025H88.6875C88.7641 25.8762 88.9783 26.138 89.6225 26.138C90.1773 26.138 90.4302 25.9261 90.4302 25.6019C90.4302 25.2778 90.1145 25.1406 89.2096 25.016C87.4463 24.7916 86.7014 24.2805 86.7014 22.9258C86.7014 21.4837 87.9977 20.7856 89.5253 20.7856C91.1502 20.7856 92.2865 21.3342 92.4378 22.8883H90.3967C90.3081 22.452 90.0681 22.2401 89.5503 22.2401C89.0333 22.2401 88.8054 22.452 88.8054 22.7512C88.8054 23.0504 89.109 23.1875 89.9167 23.2872C91.7437 23.5116 92.6271 23.9854 92.6271 25.3775C92.6271 26.9193 91.4659 27.6174 89.6389 27.6174C87.8127 27.6174 86.6636 26.8444 86.6128 25.4025H86.6094Z" fill="#005881"/>
<path d="M67.7969 20.9592H70.0527V22.2515C70.4692 21.2791 71.1636 20.8594 72.1822 20.8718V22.9497C70.8101 22.9123 70.0527 23.3362 70.0527 24.3792V26.5733C70.0316 27.2673 69.4298 27.4668 69.1479 27.4668H67.7969V20.9592Z" fill="#005881"/>
<path d="M58.4492 37.7623V32.4722H61.0332V37.6501C61.0332 38.905 61.3489 39.5159 62.443 39.5159C63.5373 39.5159 63.8529 38.9425 63.8529 37.6126V32.4722H66.4622V37.7248C66.4622 40.3137 64.9261 41.5189 62.443 41.5189C59.9601 41.5189 58.4492 40.2515 58.4492 37.7623Z" fill="#005881"/>
<path d="M75.3438 33.0956C75.3438 32.4349 75.874 31.9404 76.5768 31.9404C77.2796 31.9404 77.8225 32.4391 77.8225 33.0956C77.8225 33.7523 77.2796 34.2426 76.5768 34.2426C75.874 34.2426 75.3438 33.7564 75.3438 33.0956ZM75.4574 34.8618H77.7131V41.3694H75.4574V34.8618Z" fill="#005881"/>
<path d="M78.2308 34.8618H80.638L82.01 39.0548L83.3568 34.8618H85.5115L83.1042 41.3695H80.6465L78.2266 34.8618H78.2308Z" fill="#005881"/>
<path d="M85.3867 38.1943V38.0946C85.3867 36.0044 86.9604 34.687 88.9517 34.687C90.7529 34.687 92.3055 35.7093 92.3055 38.0489V38.6349H87.6674C87.7311 39.495 88.236 39.9896 89.0394 39.9896C89.7843 39.9896 90.1 39.653 90.1886 39.2166H92.3055C92.1033 40.6835 90.9584 41.5188 88.9637 41.5188C86.969 41.5188 85.3867 40.3262 85.3867 38.1943ZM90.1129 37.3716C90.075 36.5862 89.6837 36.1539 88.9551 36.1539C88.2739 36.1539 87.8068 36.5903 87.6976 37.3716H90.1172H90.1129Z" fill="#005881"/>
<path d="M97.9141 39.3039H99.9931C100.069 39.7776 100.284 40.0395 100.927 40.0395C101.483 40.0395 101.736 39.8275 101.736 39.5034C101.736 39.1792 101.42 39.0421 100.515 38.9175C98.7519 38.693 98.007 38.1819 98.007 36.8272C98.007 35.3852 99.3032 34.687 100.831 34.687C102.455 34.687 103.591 35.2356 103.743 36.7898H101.702C101.614 36.3534 101.374 36.1415 100.856 36.1415C100.338 36.1415 100.111 36.3534 100.111 36.6527C100.111 36.9518 100.414 37.089 101.222 37.1887C103.048 37.4131 103.933 37.8869 103.933 39.279C103.933 40.8207 102.771 41.5188 100.944 41.5188C99.1174 41.5188 97.9691 40.7459 97.9184 39.3039H97.9141Z" fill="#005881"/>
<path d="M104.609 33.0956C104.609 32.4349 105.14 31.9404 105.843 31.9404C106.546 31.9404 107.088 32.4391 107.088 33.0956C107.088 33.7523 106.546 34.2426 105.843 34.2426C105.14 34.2426 104.609 33.7564 104.609 33.0956ZM104.723 34.8618H106.979V41.3694H104.723V34.8618Z" fill="#005881"/>
<path d="M108.428 39.278V36.3774H107.633V34.8606H108.428V33.5059H110.684V34.8606H111.98V36.3774H110.684V39.0661C110.684 39.5398 110.924 39.7518 111.353 39.7518C111.606 39.7518 111.795 39.7143 111.997 39.6396V41.3309C111.707 41.4056 111.277 41.5178 110.751 41.5178C109.265 41.5178 108.433 40.8072 108.433 39.278H108.428Z" fill="#005881"/>
<path d="M114.974 40.7088L112.34 34.8618H114.784L116.144 38.3318L117.402 34.8618H119.557L116.03 43.547H113.875L114.974 40.7088Z" fill="#005881"/>
<path d="M93.0859 34.86H95.3413V36.1524C95.7585 35.18 96.4526 34.7602 97.4711 34.7727V36.8505C96.0991 36.8131 95.3413 37.237 95.3413 38.2801V40.4742C95.3206 41.1682 94.7185 41.3676 94.4364 41.3676H93.0859V34.86Z" fill="#005881"/>
<path d="M67.7422 34.8607H69.998V35.908C70.3514 35.2348 71.0711 34.6904 72.1653 34.6904C73.4362 34.6904 74.32 35.4758 74.32 37.1422V41.3726H72.9691C72.9312 41.3726 72.1316 41.3726 72.0643 40.4791V37.5868C72.0643 36.8513 71.7739 36.4898 71.1174 36.4898C70.4608 36.4898 69.998 36.8887 69.998 37.7198V41.3642H67.7422V34.8566V34.8607Z" fill="#005881"/>
<path d="M22.6938 23.5617C25.0422 25.9719 25.0127 29.8033 25.0127 29.8033V43.1885C25.0127 43.1885 25.0253 41.651 22.6981 39.6563C17.5089 35.2098 10.1778 31.2994 7.36232 29.1718C6.67634 29.741 6.01561 30.3311 5.39696 30.9378C9.83266 34.0462 20.5895 40.6287 22.6981 43.4503C24.7391 46.1847 25.0169 49.4676 25.0169 49.4676V63.26C25.0169 63.26 24.4319 61.1531 22.2645 58.9589C21.7511 58.4396 19.2555 56.2412 18.2707 55.4849C13.9612 52.1688 5.52742 46.5754 4.38272 45.8065C3.25484 45.0003 0.148987 43.5459 0.0185238 38.1395V38.0231C0.0185238 37.9441 0.0143153 37.8652 0.0143153 37.7862V23.4162C0.0143153 22.4771 0.165821 21.6501 0.414121 20.9271C0.161612 20.1375 0.0143153 19.3105 0.0143153 18.4586C0.0143153 18.3381 0.0143153 18.2176 0.0143153 18.0971C0.0143153 17.8686 0.00589832 14.9097 0.00589832 11.8471C0.00168985 8.80519 0.00168985 6.17887 0.0311492 5.19399C0.0311492 5.03193 0.0395661 4.92804 0.0437747 4.89895C4.77411 3.82265 12.5598 2.40975 20.7916 2.03991C18.9104 3.86421 17.5594 4.8283 13.0522 7.40892C9.4455 9.47422 6.97935 10.9661 5.27912 12.1255H5.27071C5.27071 12.1255 5.29596 12.1546 5.30437 12.1629C5.82623 12.6034 6.41121 13.0564 7.04247 13.5177C10.9648 10.7126 17.3154 7.19699 20.4381 4.98621C24.1205 2.0773 25.0127 -0.000488281 25.0127 -0.000488281V13.3846C25.0127 13.3846 25.0422 16.813 22.6938 19.2233C22.1846 19.7468 21.0315 20.4533 19.508 21.3343C21.0357 22.2776 22.2014 23.0506 22.6938 23.5617ZM50.0237 11.8471C50.0237 14.8973 50.0153 17.8436 50.0153 18.093C50.0153 18.2135 50.0153 18.3339 50.0153 18.4544C50.0153 19.3063 49.868 20.1334 49.6154 20.9229C49.8638 21.6501 50.0153 22.4729 50.0153 23.4121C50.0153 23.6697 50.0153 23.9398 50.0153 24.2141C50.0153 25.4109 50.0153 32.571 50.0153 37.7821C50.0153 37.8611 50.0153 37.94 50.011 38.019V38.1395C49.8805 43.5459 46.7748 45.0003 45.6468 45.8107C44.5021 46.5753 36.0684 52.1729 31.7589 55.4891C30.7741 56.2453 28.2827 58.4436 27.765 58.9631C25.5977 61.1572 25.0127 63.2642 25.0127 63.2642V49.4717C25.0127 49.4717 25.2904 46.1888 27.3316 43.4545C29.44 40.6329 40.1969 34.0462 44.6326 30.942C44.0098 30.3311 43.3532 29.7452 42.6672 29.1759C39.8476 31.3036 32.5206 35.214 27.3316 39.6604C25.0042 41.6551 25.0169 43.1926 25.0169 43.1926V29.8075C25.0169 29.8075 24.9875 25.9761 27.3357 23.5659C27.8282 23.0589 28.9939 22.2818 30.5216 21.3384C28.9981 20.4575 27.845 19.751 27.3357 19.2274C24.9875 16.8171 25.0169 13.3888 25.0169 13.3888V-0.000488281C25.0169 -0.000488281 25.9091 2.0773 29.5915 4.98621C32.7142 7.19699 39.0648 10.7126 42.9871 13.5177C43.6184 13.0564 44.2034 12.6034 44.7252 12.1629C44.7378 12.1505 44.7504 12.1421 44.7589 12.1296H44.7504C43.0502 10.9661 40.5841 9.47006 36.9774 7.40477C32.4701 4.82415 31.1192 3.86005 29.238 2.03575C37.4698 2.4056 45.2554 3.82265 49.9858 4.89479C49.99 4.92804 49.9942 5.02777 49.9984 5.18984C50.0279 6.17471 50.0279 8.80519 50.0237 11.8471Z" fill="white"/>
<path d="M0.0417558 4.89453C-0.0297883 5.90018 0.0122965 12.9273 0.0122965 18.4584C0.0122965 23.9895 6.20718 28.3736 7.3603 29.1756C10.18 31.3033 17.5069 35.2137 22.696 39.6601C25.0233 41.6548 25.0107 43.1924 25.0107 43.1924V29.8073C25.0107 29.8073 25.0401 25.9759 22.6917 23.5656C20.8948 21.7163 10.2389 16.3348 5.30236 12.1626C1.64939 8.97528 0.0712152 4.97349 0.0417558 4.89453Z" fill="url(#paint0_linear_185_4245)" style="mix-blend-mode:multiply"/>
<g style="mix-blend-mode:multiply">
<path d="M0.0106159 18.1131C0.0106159 18.1131 0.894399 15.0754 5.27963 12.1207C6.97986 10.9614 9.44598 9.46948 13.0527 7.40418C17.56 4.82356 18.9109 3.85946 20.7921 2.03516C12.5561 2.40501 4.7704 3.82206 0.0400752 4.8942C-0.0272605 5.30976 0.0106159 18.1131 0.0106159 18.1131Z" fill="#FFD000"/>
</g>
<path d="M0.0237397 38.1395C0.0237397 38.1395 0.0195312 28.9474 0.0195312 23.4162C0.0195312 22.4563 0.175245 21.621 0.431962 20.8855C2.1869 16.6094 6.51743 13.8958 7.04769 13.5135C10.97 10.7084 17.3206 7.19283 20.4433 4.98206C24.1257 2.0773 25.0179 -0.000488281 25.0179 -0.000488281V13.3846C25.0179 13.3846 25.0474 16.813 22.699 19.2233C20.902 21.0725 11.1383 25.1865 5.17913 31.1622C2.72979 33.6224 0.0237397 38.1312 0.0237397 38.1395Z" fill="url(#paint1_linear_185_4245)" style="mix-blend-mode:multiply"/>
<path d="M0.0195312 24.043C0.0195312 24.043 0.0195312 32.0841 0.0195312 37.7855C0.0195312 43.487 3.23481 44.9829 4.38793 45.814C5.53264 46.5787 13.9664 52.1763 18.2759 55.4924C19.2607 56.2488 21.7521 58.4471 22.2697 58.9665C24.4371 61.1607 25.0221 63.2675 25.0221 63.2675V49.4752C25.0221 49.4752 24.7443 46.1922 22.7033 43.4578C20.5948 40.6362 9.83795 34.0496 5.40218 30.9454C0.96644 27.8412 0.0195312 24.043 0.0195312 24.043Z" fill="url(#paint2_linear_185_4245)" style="mix-blend-mode:multiply"/>
<path d="M49.9807 4.896C50.0523 5.90165 50.0101 12.9246 50.0101 18.4599C50.0101 23.9909 43.8153 28.375 42.6621 29.1771C39.8424 31.3047 32.5155 35.2152 27.3264 39.6616C24.9992 41.6563 25.0117 43.1939 25.0117 43.1939V29.8088C25.0117 29.8088 24.9823 25.9773 27.3307 23.567C29.1277 21.7178 39.7835 16.3363 44.7201 12.1641C48.3772 8.9809 49.9513 4.97911 49.9849 4.90015L49.9807 4.896Z" fill="url(#paint3_linear_185_4245)" style="mix-blend-mode:multiply"/>
<path d="M50.0041 18.1131C50.0041 18.1131 49.1203 15.0754 44.735 12.1207C43.0348 10.9614 40.5687 9.46948 36.962 7.40418C32.4547 4.82356 31.1038 3.85946 29.2227 2.03516C37.4544 2.40501 45.2401 3.82206 49.9704 4.8942C50.0336 5.30976 49.9998 18.1131 49.9998 18.1131H50.0041Z" fill="url(#paint4_linear_185_4245)" style="mix-blend-mode:multiply"/>
<path d="M50.0059 38.1395C50.0059 38.1395 50.0101 28.9474 50.0101 23.4162C50.0101 22.4563 49.8544 21.621 49.5977 20.8855C47.8427 16.6094 43.5122 13.8958 42.982 13.5135C39.0597 10.7084 32.7091 7.19283 29.5864 4.98206C25.904 2.0773 25.0117 -0.000488281 25.0117 -0.000488281V13.3846C25.0117 13.3846 24.9823 16.813 27.3307 19.2233C29.1277 21.0725 38.8914 25.1865 44.8506 31.1622C47.2999 33.6182 50.0059 38.1312 50.0059 38.1395Z" fill="url(#paint5_linear_185_4245)" style="mix-blend-mode:multiply"/>
<path d="M50.0143 24.043C50.0143 24.043 50.0143 32.0841 50.0143 37.7855C50.0143 43.487 46.799 44.9829 45.6459 45.814C44.5012 46.5787 36.0674 52.1763 31.7579 55.4924C30.7731 56.2488 28.2817 58.4471 27.7641 58.9665C25.5967 61.1607 25.0117 63.2675 25.0117 63.2675V49.4752C25.0117 49.4752 25.2895 46.1922 27.3306 43.4578C29.4391 40.6362 40.1959 34.0496 44.6316 30.9454C48.9832 27.8994 50.0101 24.043 50.0101 24.043H50.0143Z" fill="url(#paint6_linear_185_4245)" style="mix-blend-mode:multiply"/>
</g>
<defs>
<linearGradient id="paint0_linear_185_4245" x1="3.20653" y1="19.3726" x2="28.9912" y2="32.6304" gradientUnits="userSpaceOnUse">
<stop stop-color="#FFD000"/>
<stop offset="1" stop-color="#CAD300"/>
</linearGradient>
<linearGradient id="paint1_linear_185_4245" x1="3.50836" y1="23.1918" x2="30.5768" y2="10.493" gradientUnits="userSpaceOnUse">
<stop stop-color="#FFD000"/>
<stop offset="1" stop-color="#CAD300"/>
</linearGradient>
<linearGradient id="paint2_linear_185_4245" x1="5.67993" y1="38.6415" x2="23.5964" y2="52.1148" gradientUnits="userSpaceOnUse">
<stop stop-color="#FFD000"/>
<stop offset="1" stop-color="#CAD300"/>
</linearGradient>
<linearGradient id="paint3_linear_185_4245" x1="15.0882" y1="34.3384" x2="51.2133" y2="17.3208" gradientUnits="userSpaceOnUse">
<stop stop-color="#CAD300"/>
<stop offset="0.51" stop-color="#00A1B4"/>
<stop offset="1" stop-color="#006D97"/>
</linearGradient>
<linearGradient id="paint4_linear_185_4245" x1="29.2269" y1="10.0762" x2="50.0167" y2="10.0762" gradientUnits="userSpaceOnUse">
<stop offset="0.4" stop-color="#00A1B4"/>
<stop offset="1" stop-color="#006D97"/>
</linearGradient>
<linearGradient id="paint5_linear_185_4245" x1="18.9642" y1="5.72175" x2="50.7169" y2="29.1592" gradientUnits="userSpaceOnUse">
<stop offset="0.01" stop-color="#CAD300"/>
<stop offset="0.51" stop-color="#00A1B4"/>
<stop offset="1" stop-color="#006D97"/>
</linearGradient>
<linearGradient id="paint6_linear_185_4245" x1="15.9719" y1="51.582" x2="47.1436" y2="39.8214" gradientUnits="userSpaceOnUse">
<stop offset="0.01" stop-color="#CAD300"/>
<stop offset="0.51" stop-color="#00A1B4"/>
<stop offset="1" stop-color="#006D97"/>
</linearGradient>
<clipPath id="clip0_185_4245">
<rect width="119.563" height="63.7015" fill="white"/>
</clipPath>
</defs>
</svg>
