<svg width="120" height="72" viewBox="0 0 120 72" fill="none" xmlns="http://www.w3.org/2000/svg">
<g clip-path="url(#clip0_185_4103)">
<path d="M119.531 0H0V71.5662H119.531V0Z" fill="white"/>
<path d="M91.1069 18.2781L77.7677 31.7948L76.0742 33.5098H106.169V20.0861H98.4203V23.5859C96.4484 21.8011 94.4707 20.0222 92.4988 18.2374L91.7855 17.592L91.1069 18.2781Z" fill="#EA0029"/>
<path d="M43.4412 38.0271L38.8131 44.2652L34.2197 38.0271H32.2305V51.602H34.8925V43.1489H34.9331L38.8131 48.5033L42.7162 43.1315H42.7336V51.602H45.4015V38.0271H43.4412Z" fill="#EA0029"/>
<path d="M28.9433 38.0271H26.2812V51.602H28.9433V38.0271Z" fill="#EA0029"/>
<path d="M106.165 49.4394C106.409 48.8929 106.525 48.2766 106.525 47.579C106.525 46.7825 106.368 46.143 106.055 45.6605C105.742 45.1838 105.348 44.7943 104.878 44.4978C104.408 44.2013 103.892 43.9745 103.335 43.8059C102.778 43.6432 102.262 43.4746 101.792 43.2943C101.323 43.1141 100.928 42.9048 100.615 42.6665C100.302 42.4223 100.145 42.0851 100.145 41.6491C100.145 41.1782 100.314 40.7887 100.656 40.4689C100.998 40.155 101.421 39.998 101.937 39.998C102.396 39.998 102.836 40.0968 103.254 40.3003C103.672 40.5096 104.182 40.7654 104.768 41.0793L105.788 38.876C104.454 38.0504 103.132 37.6318 101.839 37.6318C101.224 37.6318 100.644 37.7423 100.099 37.9458C99.5538 38.1551 99.084 38.4457 98.6838 38.812C98.2837 39.1783 97.9647 39.6085 97.7327 40.1026C97.4949 40.591 97.3789 41.12 97.3789 41.684C97.3789 42.4804 97.5355 43.1083 97.8487 43.5734C98.1677 44.0327 98.5562 44.4048 99.026 44.6838C99.5016 44.9629 100.012 45.1838 100.569 45.3407C101.125 45.4977 101.642 45.6721 102.111 45.8582C102.587 46.05 102.976 46.2884 103.295 46.5791C103.608 46.8697 103.764 47.2825 103.764 47.8174C103.764 48.0267 103.724 48.236 103.643 48.4452C103.567 48.6545 103.44 48.8464 103.26 49.015C103.086 49.1836 102.854 49.3231 102.57 49.4278C102.291 49.5324 101.949 49.5847 101.56 49.5847C101.311 49.5847 101.056 49.5324 100.783 49.4336C100.517 49.3347 100.244 49.2126 99.9772 49.0615C99.7104 48.9103 99.4378 48.7417 99.1652 48.5557C98.8868 48.3697 98.6258 48.1953 98.3764 48.0267L97.3963 50.3463C98.1967 50.8579 98.9564 51.2532 99.6872 51.5265C100.412 51.8055 101.149 51.9393 101.897 51.9393C102.541 51.9393 103.144 51.8404 103.706 51.6428C104.269 51.4451 104.762 51.1602 105.179 50.7882C105.597 50.4103 105.933 49.9568 106.177 49.4103" fill="#EA0029"/>
<path d="M62.5394 47.6196C62.928 46.7533 63.1193 45.8173 63.1193 44.8057C63.1193 43.7942 62.928 42.8756 62.5394 42.0036C62.1508 41.1315 61.623 40.3757 60.9445 39.7362C60.2717 39.0909 59.4772 38.5851 58.5666 38.2072C57.6561 37.8352 56.6759 37.6433 55.6262 37.6433C54.5765 37.6433 53.5963 37.8293 52.6858 38.2072C51.7752 38.5793 50.9807 39.0909 50.3195 39.7362C49.6526 40.3757 49.1248 41.1315 48.7362 42.0036C48.3476 42.8756 48.1562 43.8116 48.1562 44.8057C48.1562 45.7999 48.3476 46.7533 48.7362 47.6196C49.1248 48.4858 49.6526 49.2416 50.3195 49.8927C50.9865 50.538 51.7752 51.0496 52.6858 51.4159C53.5963 51.7821 54.5765 51.9682 55.6262 51.9682C56.6759 51.9682 57.6561 51.7821 58.5666 51.4159C59.4772 51.0496 60.2717 50.538 60.9445 49.8927C61.6172 49.2416 62.1508 48.4858 62.5394 47.6196ZM60.0397 46.7068C59.7961 47.2882 59.4598 47.7998 59.0306 48.23C58.5956 48.666 58.091 49.0032 57.5169 49.2416C56.9369 49.4857 56.3164 49.6078 55.6494 49.6078C54.9824 49.6078 54.3561 49.4857 53.7819 49.2416C53.2019 48.9974 52.7032 48.6602 52.2798 48.23C51.8564 47.7998 51.52 47.2882 51.2707 46.7068C51.0213 46.1254 50.8937 45.4918 50.8937 44.8057C50.8937 44.1197 51.0213 43.4919 51.2707 42.9105C51.52 42.3291 51.8564 41.8175 52.2798 41.3873C52.709 40.9571 53.2077 40.6199 53.7819 40.3757C54.3561 40.1374 54.9824 40.0153 55.6494 40.0153C56.3164 40.0153 56.9369 40.1374 57.5169 40.3757C58.091 40.6199 58.5956 40.9571 59.0306 41.3873C59.4598 41.8233 59.7961 42.3291 60.0397 42.9105C60.2833 43.4977 60.4051 44.1255 60.4051 44.8057C60.4051 45.4859 60.2833 46.1196 60.0397 46.7068Z" fill="#EA0029"/>
<path d="M93.417 49.352C93.997 48.6835 94.4146 47.9451 94.6698 47.1312C94.9249 46.3231 95.0525 45.5092 95.0525 44.7011C95.0525 43.957 94.9307 43.1896 94.6988 42.3931C94.461 41.5966 94.0492 40.8757 93.4634 40.2188C92.8719 39.5676 92.0889 39.0328 91.103 38.6142C90.1228 38.1956 88.8817 37.9863 87.3854 37.9863H82.1367V51.5961H87.6638C89.0383 51.5961 90.1982 51.3868 91.1436 50.9682C92.0889 50.5555 92.8429 50.0148 93.4228 49.3462M91.9381 46.7185C91.6829 47.2998 91.3408 47.794 90.9058 48.1893C90.4766 48.5905 89.972 48.8928 89.4037 49.0962C88.8353 49.2997 88.2322 49.4044 87.6058 49.4044H84.8162V40.2188H87.4492C88.1742 40.2188 88.8295 40.3292 89.4269 40.5443C90.0242 40.7653 90.5346 41.0676 90.9696 41.4571C91.3988 41.8466 91.7351 42.3175 91.9729 42.8698C92.2107 43.4221 92.3267 44.0325 92.3267 44.6953C92.3267 45.4627 92.1991 46.1429 91.9439 46.7243" fill="#EA0029"/>
<path d="M76.1477 38.0095V46.9916L68.15 38.0095H65.8359V51.5844H68.5038V42.2302L76.8727 51.5844H78.7924V38.0095H76.1477Z" fill="#EA0029"/>
<path d="M23.2413 48.9975C23.9256 46.829 23.2123 45.3232 23.0789 45.0849C22.9455 44.8465 22.2147 43.428 19.4773 42.6373C16.6413 41.8176 16.0091 41.1025 15.7945 40.8118C15.5857 40.5211 15.145 39.3293 16.0265 38.2654C16.5601 37.6259 17.3488 37.3934 18.0912 37.3934C18.619 37.3934 19.1235 37.5097 19.4889 37.6841C20.3589 38.0968 21.4434 38.6491 21.4434 38.6491L22.4989 36.3644C20.4748 35.2481 19.2685 34.9982 17.8244 34.9807C17.8012 34.9807 17.7838 34.9807 17.7606 34.9807C16.9313 34.9807 15.6147 35.2016 14.3968 36.1551C12.8599 37.3585 12.6105 38.9631 12.5931 39.2538C12.5235 40.2479 12.5641 41.4339 13.4341 42.4455C14.2576 43.3989 15.3074 43.8291 17.4648 44.4744C19.2627 45.0093 19.9413 45.7999 19.9413 45.7999C21.1244 47.0034 20.3125 48.6486 20.3125 48.6486C19.9065 49.4916 18.8741 49.9916 17.7316 49.9916C17.2154 49.9916 16.6819 49.8869 16.1657 49.6718C15.435 49.3579 13.8864 48.3754 13.6777 48.1894C13.5791 48.3928 12.6569 50.5788 12.6569 50.5788C12.6569 50.5788 13.3471 51.0613 14.3446 51.5206C15.7307 52.1659 16.6935 52.4101 17.8824 52.4101C18.1608 52.4101 18.445 52.3985 18.7582 52.3694C20.3937 52.2415 22.5569 51.1776 23.2413 49.0091" fill="#EA0029"/>
</g>
<defs>
<clipPath id="clip0_185_4103">
<rect width="119.531" height="71.5662" fill="white"/>
</clipPath>
</defs>
</svg>
