<svg width="138" height="29" viewBox="0 0 138 29" fill="none" xmlns="http://www.w3.org/2000/svg">
<path d="M25.7554 12.9132C24.9315 12.5548 24.0756 12.2675 23.2005 12.0544C21.5335 11.662 17.7893 11.1708 16.0005 10.9979C14.1252 10.8094 10.8682 10.5499 9.56668 10.1607C9.17238 10.0402 8.36775 9.67567 8.36775 8.77362C8.36775 8.13416 8.73641 7.59046 9.46089 7.15179C10.6149 6.45363 12.9423 6.02114 15.3722 6.02114C17.7219 5.99334 20.0557 6.43201 22.2227 7.30934C22.8062 7.55339 23.3511 7.86849 23.8512 8.24537C24.6655 8.91573 25.2297 9.82395 25.4573 10.8341H28.0507V4.04405H25.1591V4.8318C25.1591 5.08511 24.8963 5.41875 24.3705 5.14381C23.0658 4.4889 19.4017 3.07713 14.9106 3.05859C12.362 3.05859 9.47051 3.51888 7.02457 4.57848C4.74212 5.56085 2.88283 7.13943 2.88283 9.75599C2.87962 11.1276 3.42138 12.4467 4.39591 13.4445C5.05628 14.0314 6.12057 15.0293 8.8999 15.6193C10.1437 15.8726 12.8012 16.2804 15.4491 16.5492C18.097 16.8179 20.6616 17.0558 21.713 17.3276C22.5497 17.5315 23.9538 17.8126 23.9538 19.3325C23.9538 20.8524 22.4728 21.3096 22.2163 21.4085C21.9599 21.5073 20.1807 22.292 16.991 22.292C14.8753 22.2364 12.782 21.8873 10.7688 21.2602C9.5795 20.8493 8.32928 20.3087 7.16562 18.9402C6.69438 18.2946 6.43472 17.5284 6.41549 16.7407H3.52396V24.544H6.73606V23.4875C6.73606 23.2435 6.93802 23.0458 7.19127 23.0427C7.27461 23.0427 7.35796 23.0643 7.43169 23.1075C8.94478 23.7408 10.5188 24.232 12.1312 24.5718C13.8174 24.9116 14.9106 25.1557 17.0071 25.1557C19.2222 25.1958 21.4277 24.8962 23.5435 24.266C24.9476 23.8953 26.2651 23.2682 27.4255 22.4186C28.7495 21.4394 29.5189 19.9195 29.506 18.3131C29.5157 16.8056 28.913 15.3567 27.8263 14.2755C27.2204 13.7102 26.5215 13.2468 25.7554 12.9101V12.9132Z" fill="black"/>
<path d="M88.2783 6.78711H90.9326C92.1508 6.78711 92.3559 7.24123 92.372 8.32863L92.5162 16.6015L78.3856 4.31266H68.2812V6.7902H70.5316C72.1569 6.7902 72.2659 7.66136 72.2659 8.4213V20.0151C72.2659 20.7102 72.3076 21.6616 71.2722 21.6616H68.496V24.1361H80.3474V21.6616H77.4559C76.3019 21.6616 76.2506 21.1519 76.2378 20.0707V10.1389L92.5162 24.1361H96.658L96.44 8.32554C96.4624 7.17017 96.5362 6.78402 97.7768 6.78402H100.37V4.30957H88.2783V6.78402V6.78711Z" fill="black"/>
<path d="M122.706 4.30957V6.78093H124.459C124.578 6.77476 124.693 6.80874 124.786 6.8767C125.001 7.03425 125.043 7.3339 124.879 7.54088C124.844 7.59031 120.016 13.0613 119.955 13.1138C119.894 13.1663 119.856 13.154 119.811 13.0953C119.766 13.0366 114.999 7.54088 114.999 7.54088C114.663 7.14237 114.926 6.78093 115.32 6.78093H117.028V4.30957H102.859V6.78711H105.369C106.466 6.78711 107.187 7.45438 107.597 7.88378C107.928 8.23904 115.153 16.1381 115.329 16.3451C115.503 16.5521 115.503 16.5552 115.503 16.688V20.602C115.503 20.7812 115.483 20.9604 115.448 21.1365C115.346 21.3651 115.14 21.5412 114.89 21.6122C114.653 21.64 114.416 21.6555 114.175 21.6555H111.662V24.1299H125.758V21.6524H123.106C122.869 21.6524 122.632 21.64 122.398 21.6091C122.148 21.5381 121.946 21.362 121.843 21.1334C121.805 20.9573 121.786 20.7781 121.786 20.5989V16.688C121.77 16.5583 121.805 16.4285 121.882 16.3235L129.704 7.72623C130.422 6.95702 130.794 6.7902 131.736 6.7902H134.33V4.31266H122.712L122.706 4.30957Z" fill="black"/>
<path d="M61.8629 6.98466C58.779 4.29087 54.7431 3.06445 49.7037 3.06445C45.1484 3.06445 40.3111 4.58434 37.5766 6.97848C35.4705 8.82891 34.2716 11.4486 34.278 14.1949C34.2459 16.9535 35.448 19.5917 37.5766 21.436C40.5194 23.9876 44.9369 25.3562 49.7037 25.3562C54.4706 25.3562 58.9874 24.0031 61.8629 21.436C63.9273 19.5515 65.1038 16.935 65.1167 14.1949C65.1455 11.4547 63.9626 8.832 61.8629 6.98157V6.98466ZM56.2145 20.0118C54.5764 21.5812 52.233 22.4245 49.7069 22.4245C47.1809 22.4245 44.8054 21.5657 43.1866 20.0118C41.6254 18.4518 40.7727 16.3542 40.8208 14.1856C40.8208 11.9521 41.6286 9.84526 43.1866 8.35935C44.8022 6.81784 47.2129 5.96213 49.7069 5.96213C52.201 5.96213 54.5988 6.82711 56.2145 8.35935C57.7788 9.84526 58.5963 11.9397 58.5963 14.1856C58.5963 16.4314 57.8526 18.4425 56.2145 20.0118Z" fill="black"/>
</svg>
