<svg width="163" height="28" viewBox="0 0 163 28" fill="none" xmlns="http://www.w3.org/2000/svg">
<path d="M80.3721 3.59277C79.8197 3.59277 79.376 3.75202 79.0413 4.07008C78.7061 4.38835 78.5391 4.81541 78.5391 5.35125C78.5391 5.8871 78.7061 6.31842 79.0413 6.64499C79.376 6.97157 79.8197 7.13485 80.3721 7.13485C80.9077 7.13485 81.3469 6.97157 81.6904 6.64499C82.0332 6.31842 82.2051 5.88732 82.2051 5.35125C82.2051 4.83223 82.0332 4.40921 81.6904 4.08264C81.3469 3.75606 80.9077 3.59277 80.3721 3.59277ZM78.9409 22.0317H81.7532V9.24503H78.9409V22.0317ZM73.3514 8.79285C72.5479 8.79285 71.8278 9.0149 71.192 9.45856C70.5555 9.90244 70.0621 10.5179 69.7105 11.305H69.6854L69.3088 9.24503H66.9987V22.0317H69.8361V15.048C69.8361 13.8256 70.0872 12.8625 70.5894 12.1591C71.0916 11.4557 71.7859 11.104 72.6735 11.104C73.3093 11.104 73.8241 11.3301 74.2177 11.7823C74.6108 12.2344 74.841 12.8793 74.9083 13.7166L77.3188 13.0132C77.1845 11.6735 76.7664 10.6352 76.0633 9.89818C75.3602 9.16137 74.4563 8.79285 73.3514 8.79285ZM62.5042 9.68465C61.5751 9.10686 60.5243 8.81797 59.3529 8.81797C58.3147 8.81797 57.3899 9.05662 56.5783 9.53392C55.766 10.0112 55.1174 10.6938 54.6323 11.5813H54.6072L54.2305 9.24503H51.82V27.3071H54.6574V19.7457H54.6825C55.1847 20.6166 55.8375 21.2906 56.6411 21.7679C57.4446 22.2452 58.3566 22.4839 59.378 22.4839C60.5495 22.4839 61.596 22.195 62.5168 21.6172C63.4371 21.0394 64.1615 20.2315 64.6888 19.193C65.2161 18.1547 65.4797 16.974 65.4797 15.6509C65.4797 14.3278 65.2161 13.1473 64.6888 12.1088C64.1615 11.0706 63.4333 10.2624 62.5042 9.68465ZM62.115 17.8616C61.7635 18.5315 61.2821 19.0548 60.6712 19.4316C60.0598 19.8085 59.3693 19.9969 58.5996 19.9969C57.8293 19.9969 57.1388 19.8085 56.5281 19.4316C55.9167 19.0548 55.4358 18.5315 55.0842 17.8616C54.7327 17.1918 54.5569 16.4548 54.5569 15.6509C54.5569 14.8304 54.7327 14.0894 55.0842 13.4277C55.4358 12.7662 55.9167 12.243 56.5281 11.8576C57.1388 11.4725 57.8293 11.2798 58.5996 11.2798C59.3693 11.2798 60.0598 11.4682 60.6712 11.8451C61.2821 12.2219 61.7635 12.7454 62.115 13.4151C62.4665 14.0851 62.6423 14.8304 62.6423 15.6509C62.6423 16.4548 62.4665 17.1918 62.115 17.8616ZM44.8347 11.8576L42.1229 11.305C41.1016 11.0874 40.3564 10.7817 39.8881 10.388C39.4193 9.99485 39.185 9.47964 39.185 8.84309C39.185 8.03921 39.4989 7.37777 40.1266 6.85852C40.7544 6.3395 41.587 6.07977 42.625 6.07977C43.6294 6.07977 44.4744 6.38122 45.1611 6.98413C45.8474 7.58703 46.2492 8.37431 46.3664 9.34551L49.2541 8.69236C49.1034 7.68752 48.7225 6.79998 48.1116 6.02952C47.5002 5.25929 46.722 4.66042 45.7763 4.23336C44.8305 3.8063 43.7801 3.59277 42.625 3.59277C41.3527 3.59277 40.2228 3.82739 39.2352 4.29617C38.2472 4.76517 37.4775 5.42258 36.9251 6.26817C36.3727 7.11399 36.0965 8.08946 36.0965 9.19479C36.0965 10.4845 36.5108 11.5185 37.3394 12.2972C38.168 13.076 39.4612 13.6498 41.2189 14.018L43.9057 14.5958C45.0771 14.847 45.9308 15.1821 46.4669 15.6007C47.0025 16.0194 47.2704 16.5721 47.2704 17.2587C47.2704 18.1128 46.9063 18.8121 46.1781 19.3563C45.4499 19.9007 44.4744 20.1727 43.2528 20.1727C42.3488 20.1727 41.5285 19.9969 40.792 19.6452C40.0553 19.2935 39.4612 18.7996 39.0092 18.163C38.5573 17.5267 38.2976 16.8065 38.2308 16.0026L35.293 16.5553C35.4268 17.7779 35.8494 18.8498 36.561 19.7708C37.2724 20.692 38.2015 21.4037 39.3482 21.9061C40.4947 22.4085 41.7713 22.6597 43.1775 22.6597C44.5836 22.6597 45.8304 22.4168 46.9188 21.9312C48.0069 21.4456 48.848 20.7673 49.4424 19.8964C50.0365 19.0257 50.3338 18.0123 50.3338 16.8567C50.3338 15.5338 49.8818 14.4619 48.9778 13.6412C48.0739 12.8208 46.6928 12.2261 44.8347 11.8576ZM130.621 8.79285C129.817 8.79285 129.097 9.0149 128.461 9.45856C127.825 9.90244 127.331 10.5179 126.98 11.305H126.955L126.578 9.24503H124.268V22.0317H127.105V15.048C127.105 13.8256 127.356 12.8625 127.859 12.1591C128.361 11.4557 129.055 11.104 129.943 11.104C130.579 11.104 131.094 11.3301 131.487 11.7823C131.88 12.2344 132.111 12.8793 132.178 13.7166L134.588 13.0132C134.454 11.6735 134.036 10.6352 133.333 9.89818C132.63 9.16137 131.726 8.79285 130.621 8.79285ZM145.169 19.708C144.424 20.1016 143.608 20.2983 142.721 20.2983C141.499 20.2983 140.474 19.9466 139.645 19.2432C138.817 18.5398 138.343 17.6189 138.227 16.4799H148.321C148.387 16.2123 148.421 15.8519 148.421 15.3997C148.421 14.1102 148.153 12.963 147.618 11.9581C147.082 10.9533 146.328 10.1662 145.358 9.59672C144.387 9.02746 143.265 8.74261 141.993 8.74261C140.687 8.74261 139.528 9.0315 138.515 9.60929C137.502 10.1871 136.711 10.9909 136.142 12.0209C135.573 13.0509 135.289 14.2275 135.289 15.5504C135.289 16.8904 135.603 18.0919 136.23 19.1553C136.858 20.2189 137.732 21.0479 138.854 21.6423C139.976 22.2365 141.24 22.5341 142.646 22.5341C144.035 22.5341 145.286 22.241 146.4 21.6549C147.513 21.0688 148.296 20.2983 148.748 19.3437L146.864 18.1882C146.479 18.8079 145.914 19.3148 145.169 19.708ZM139.457 11.9707C140.143 11.3092 140.989 10.9784 141.993 10.9784C142.98 10.9784 143.788 11.2924 144.416 11.9204C145.044 12.5485 145.408 13.4237 145.508 14.5456H138.227C138.36 13.4905 138.77 12.6323 139.457 11.9707ZM91.5305 8.81797C89.4547 8.81797 87.8728 9.66379 86.7848 11.3552H86.7596L86.4081 9.24503H83.9473V22.0317H86.7848V14.8973C86.7848 13.8088 87.1237 12.9212 87.8017 12.2344C88.4797 11.5479 89.346 11.2045 90.4006 11.2045C91.2375 11.2045 91.9072 11.4725 92.4094 12.0084C92.9116 12.5444 93.1627 13.2729 93.1627 14.1939V22.0317H96.0001V13.5156C96.0001 12.042 95.6023 10.8905 94.8073 10.0615C94.0121 9.23247 92.9199 8.81797 91.5305 8.81797ZM161.074 18.1882C160.689 18.8079 160.124 19.3148 159.379 19.708C158.634 20.1016 157.818 20.2983 156.931 20.2983C155.709 20.2983 154.683 19.9466 153.855 19.2432C153.026 18.5398 152.553 17.6189 152.436 16.4799H162.53C162.597 16.2123 162.631 15.8519 162.631 15.3997C162.631 14.1102 162.363 12.963 161.827 11.9581C161.291 10.9533 160.538 10.1662 159.567 9.59672C158.596 9.02746 157.475 8.74261 156.203 8.74261C154.897 8.74261 153.738 9.0315 152.725 9.60929C151.712 10.1871 150.921 10.9909 150.352 12.0209C149.783 13.0509 149.498 14.2275 149.498 15.5504C149.498 16.8904 149.812 18.0919 150.44 19.1553C151.068 20.2189 151.942 21.0479 153.064 21.6423C154.185 22.2365 155.449 22.5341 156.855 22.5341C158.245 22.5341 159.496 22.241 160.609 21.6549C161.722 21.0688 162.505 20.2983 162.957 19.3437L161.074 18.1882ZM153.666 11.9707C154.353 11.3092 155.198 10.9784 156.203 10.9784C157.19 10.9784 157.998 11.2924 158.626 11.9204C159.253 12.5485 159.617 13.4237 159.718 14.5456H152.436C152.57 13.4905 152.98 12.6323 153.666 11.9707ZM108.033 11.5059H108.007C107.539 10.7189 106.873 10.0783 106.011 9.58416C105.149 9.09026 104.249 8.84309 103.312 8.84309C102.14 8.84309 101.106 9.11942 100.211 9.67209C99.3152 10.2248 98.6164 11.0078 98.1142 12.0209C97.612 13.0343 97.3609 14.2024 97.3609 15.5253C97.3609 16.815 97.612 17.958 98.1142 18.9543C98.6164 19.9509 99.3235 20.7214 100.236 21.2655C101.148 21.8099 102.19 22.0819 103.362 22.0819C104.266 22.0819 105.149 21.8601 106.011 21.4162C106.873 20.9728 107.53 20.3737 107.982 19.6201H108.007V20.851C108.007 22.2239 107.568 23.3254 106.689 24.1544C105.81 24.9834 104.651 25.3979 103.212 25.3979C102.14 25.3979 101.127 25.1676 100.173 24.7071C99.219 24.2464 98.474 23.6307 97.9384 22.8607L96.5323 24.8955C97.2017 25.783 98.1557 26.4907 99.3948 27.0182C100.633 27.5458 101.964 27.8095 103.387 27.8095C104.877 27.8095 106.187 27.529 107.317 26.968C108.447 26.4066 109.317 25.6029 109.928 24.5564C110.539 23.5096 110.845 22.2912 110.845 20.9012V9.24503H108.409L108.033 11.5059ZM107.631 17.6606C107.296 18.2972 106.827 18.7953 106.225 19.1553C105.622 19.5155 104.936 19.6954 104.166 19.6954C102.994 19.6954 102.035 19.3103 101.291 18.5398C100.546 17.7698 100.173 16.7648 100.173 15.5253C100.173 14.2527 100.541 13.2184 101.278 12.4229C102.015 11.6275 102.977 11.2296 104.166 11.2296C104.936 11.2296 105.622 11.414 106.225 11.7823C106.827 12.1508 107.296 12.6615 107.631 13.3147C107.966 13.9678 108.133 14.7051 108.133 15.5253C108.133 16.3126 107.966 17.0243 107.631 17.6606ZM120.929 19.6452C120.46 20.0137 119.916 20.1978 119.297 20.1978C118.66 20.1978 118.145 19.9803 117.752 19.5447C117.359 19.1093 117.162 18.5398 117.162 17.8365L117.137 11.4808H122.561V9.24503H117.137L117.162 4.97444L114.325 5.60246V9.24503H111.713V11.4808H114.325V18.2133C114.325 19.5196 114.73 20.5664 115.543 21.3534C116.354 22.1405 117.438 22.5341 118.794 22.5341C119.815 22.5341 120.753 22.2616 121.607 21.7177C122.46 21.1735 123.038 20.4491 123.339 19.5447L121.958 18.0625C121.74 18.7493 121.397 19.2771 120.929 19.6452Z" fill="#054A47"/>
<path d="M5.09394 27.1477H0V22.0515C0 17.8082 3.43781 14.3689 7.67868 14.3689H12.7731V19.4651C12.7731 23.7084 9.33481 27.1477 5.09394 27.1477Z" fill="#054A47"/>
<path d="M27.1403 22.0515V27.1477H22.0463C17.805 27.1477 14.3672 23.7084 14.3672 19.4656V14.3689H19.4611C23.7024 14.3689 27.1403 17.8087 27.1403 22.0515Z" fill="#054A47"/>
<path d="M22.0463 0H27.1403V5.09623C27.1403 9.33946 23.7024 12.7788 19.4616 12.7788H14.3672V7.68258C14.3672 3.43935 17.8054 0 22.0463 0Z" fill="#054A47"/>
<path d="M0 5.09647V0.000244141H5.09394C9.33526 0.000244141 12.7731 3.4396 12.7731 7.68238V12.7791H7.67913C3.43781 12.7791 0 9.33925 0 5.09647Z" fill="#054A47"/>
</svg>
