<svg width="108" height="62" viewBox="0 0 108 62" fill="none" xmlns="http://www.w3.org/2000/svg">
<g clip-path="url(#clip0_185_4151)">
<path d="M65.1755 22.5855C67.0876 22.5855 68.6655 24.1472 68.6655 26.0393C68.6655 27.9312 67.0876 29.4931 65.1755 29.4931C63.2627 29.4931 61.6839 27.9312 61.6839 26.0393C61.6839 24.1472 63.2627 22.5855 65.1755 22.5855ZM65.1755 33.2409C69.3156 33.2409 72.6386 30.1358 72.6386 26.0395C72.6386 21.9426 69.3156 18.8382 65.1755 18.8382C61.0338 18.8382 57.7109 21.9426 57.7109 26.0395C57.7109 30.1358 61.034 33.2409 65.1755 33.2409ZM80.8388 25.7821H78.2949V22.5304H80.8388C81.6925 22.5304 82.2498 23.4861 82.2498 24.1656C82.2498 24.8453 81.6925 25.7821 80.8388 25.7821ZM83.6971 28.2991C85.0351 27.3808 86.0937 26.0211 86.0937 24.1656C86.0937 21.2812 83.7715 19.1501 80.8388 19.1501H74.5072V32.9289H78.2949V29.1807H80.0778L81.8048 32.9289H86.0559L83.6971 28.2991ZM92.1783 19.1503H88.3918V32.9289H92.1783V19.1503ZM99.546 28.0959L100.721 25.4137H100.8L101.974 28.0959H99.546ZM100.05 19.1485L93.6649 32.9281H97.7253L98.3919 31.3668H103.128L103.796 32.9281H107.856L101.471 19.1485H100.05ZM29.19 32.8072H25.3224V19.2746H29.19V32.8072ZM49.3 32.9289H53.0873V22.5306H56.8928V19.1503H47.7257L56.6306 -0.0581055H0L8.96233 19.2748H13.1408L16.5695 26.6707L19.9982 19.2748H24.1846L17.9113 32.8072H15.2358L28.3149 61.021L41.696 32.1566C40.6242 32.7771 39.4073 33.1032 38.1687 33.1018C34.1254 33.1018 30.9128 30.0528 30.9128 26.0288C30.9128 22.0048 34.1254 18.9554 38.1687 18.9554C40.75 18.9554 43.0061 20.3451 44.2333 22.4025L41.0746 24.2968C40.4787 23.323 39.3961 22.6362 38.1687 22.6362C36.2916 22.6362 34.7753 24.1709 34.7753 26.0288C34.7753 27.8867 36.2916 29.4214 38.1687 29.4214C39.3961 29.4214 40.4787 28.7534 41.0746 27.761L43.1555 29.009L46.1587 22.5306H49.3V32.9289ZM51.5441 44.3039C50.6578 44.3039 49.8453 43.9596 49.3481 43.561L48.6339 44.6683C49.3725 45.2639 50.4954 45.5692 51.5393 45.5692C53.0218 45.5692 54.3612 44.8459 54.3612 43.3244C54.3612 42.1231 53.3964 41.5968 52.1645 41.3949L51.776 41.3311C50.9486 41.1929 50.3525 41.0407 50.3525 40.5331C50.3525 40.0118 50.8989 39.7067 51.6725 39.7067C52.4257 39.7067 53.0855 39.9573 53.6274 40.2919L54.2775 39.1701C53.4109 38.653 52.6078 38.4362 51.6426 38.4362C50.175 38.4362 48.8949 39.1838 48.8949 40.6216C48.8949 41.8671 49.7811 42.4038 50.9975 42.5961L51.436 42.6648C52.3962 42.8172 52.8987 42.9948 52.8987 43.4719C52.8987 44.0037 52.3076 44.3039 51.5441 44.3039ZM59.029 45.0669L58.5558 44.0627C58.295 44.2205 57.9649 44.3726 57.6595 44.3726C57.2603 44.3726 56.946 44.1558 56.946 43.561V41.8182H58.6739V40.6764H56.9458V39.2586H55.6601V40.6764H54.739V41.8182H55.6601V43.664C55.6601 44.8998 56.2653 45.5692 57.4475 45.5692C58.1277 45.5692 58.6098 45.352 59.029 45.0669ZM61.8004 44.3722C61.0468 44.3722 60.5693 43.7869 60.5693 43.0587C60.5693 42.3304 61.0468 41.7443 61.8004 41.7443C62.5345 41.7443 63.0324 42.306 63.0324 43.0587C63.0324 43.8123 62.5345 44.372 61.8004 44.372M64.2489 45.4462V40.6762H62.9924V41.2015C62.6771 40.8132 62.2196 40.5479 61.5637 40.5479C60.2489 40.5479 59.2544 41.6265 59.2544 43.0585C59.2544 44.4911 60.2489 45.568 61.5637 45.568C62.2196 45.568 62.6827 45.3033 62.9924 44.9192V45.4462H64.2489ZM67.635 45.5692C68.316 45.5692 68.7973 45.3518 69.2173 45.0667L68.7441 44.0627C68.4829 44.2205 68.1528 44.3726 67.847 44.3726C67.4484 44.3726 67.1339 44.1558 67.1339 43.561V41.8182H68.8618V40.6764H67.1339V39.2586H65.848V40.6764H64.9271V41.8182H65.848V43.664C65.848 44.8998 66.4528 45.5692 67.635 45.5692ZM71.8456 41.656C72.397 41.656 72.7665 42.0005 72.8844 42.6109H70.7712C70.885 42.0203 71.2401 41.656 71.8456 41.656ZM73.1999 44.0182C72.8549 44.3092 72.4071 44.4759 71.9927 44.4759C71.3877 44.4759 70.9046 44.1764 70.7671 43.4866H74.1504C74.1645 43.3785 74.1744 43.2009 74.1744 43.0534C74.1704 41.5671 73.2294 40.5479 71.8553 40.5479C70.4273 40.5479 69.4419 41.5719 69.4419 43.0726C69.4419 44.5751 70.4567 45.5692 71.9195 45.5692C72.7214 45.5692 73.4122 45.3419 73.9527 44.8459L73.1999 44.0182ZM52.4012 50.4809V51.6271H54.1542C53.9723 52.6069 53.3173 53.1486 52.1944 53.1486C51.0024 53.1486 50.0424 52.2673 50.0424 50.8599C50.0424 49.5162 50.9581 48.5908 52.2195 48.5908C52.9233 48.5908 53.4944 48.8656 53.8831 49.3142L54.8736 48.3443C54.2629 47.6789 53.3515 47.2855 52.2583 47.2855C50.1411 47.2855 48.6192 48.7771 48.6192 50.8599C48.6192 53.085 50.3135 54.4283 52.2239 54.4283C54.1786 54.4283 55.5924 52.9565 55.5924 50.8696C55.5924 50.7411 55.5876 50.6134 55.5726 50.4809H52.4012ZM58.8164 53.2321C58.0927 53.2321 57.5508 52.6912 57.5508 51.9181C57.5508 51.145 58.0929 50.6029 58.8162 50.6029C59.5408 50.6029 60.0868 51.1452 60.0868 51.9183C60.0868 52.6914 59.541 53.2321 58.8164 53.2321ZM58.8164 49.4073C57.3339 49.4073 56.2407 50.4809 56.2407 51.9181C56.2407 53.3557 57.3339 54.4285 58.8164 54.4285C60.3041 54.4285 61.4017 53.3555 61.4017 51.9181C61.4017 50.4807 60.3041 49.4073 58.8164 49.4073ZM64.1648 52.9516L62.9277 49.5358H61.5293L63.4153 54.3056H64.898L66.7643 49.5358H65.41L64.1648 52.9516ZM68.226 51.4701C68.3396 50.8793 68.6934 50.5154 69.3 50.5154C69.8518 50.5154 70.2197 50.8599 70.339 51.4703L68.226 51.4701ZM69.3095 49.4073C67.8808 49.4073 66.8965 50.4312 66.8965 51.9326C66.8965 53.4341 67.9115 54.4285 69.373 54.4285C70.1761 54.4285 70.8656 54.202 71.4073 53.7051L70.6533 52.8777C70.3093 53.1682 69.8601 53.3359 69.4474 53.3359C68.8426 53.3359 68.3592 53.0357 68.2216 52.3463H71.6038C71.6194 52.238 71.6291 52.0612 71.6291 51.913C71.6234 50.4263 70.6829 49.4075 69.3097 49.4075M73.7265 50.0569V49.5356H72.4799V54.3056H73.7659V51.7065C73.7659 50.9973 74.1742 50.633 74.7697 50.633C75.0307 50.633 75.3367 50.692 75.549 50.786L75.74 49.5114C75.5629 49.4467 75.3468 49.4073 75.0701 49.4073C74.4849 49.4073 74.0271 49.6094 73.7265 50.0569ZM79.0741 49.4073C78.532 49.4073 78.0101 49.5896 77.6703 50.0963V49.5358H76.4192V54.3056H77.704V51.6914C77.704 50.9729 78.1629 50.6134 78.7147 50.6134C79.3003 50.6134 79.6454 50.9923 79.6454 51.6817V54.3056H80.93V51.2683C80.93 50.161 80.1564 49.4073 79.0743 49.4073M87.8921 49.4073C87.2675 49.4073 86.6413 49.6191 86.2722 50.2244C85.9518 49.7177 85.3862 49.4073 84.6969 49.4073C84.1547 49.4073 83.6326 49.5896 83.2928 50.0963V49.5358H82.0416V54.3056H83.3268V51.6914C83.3268 50.9729 83.7856 50.6134 84.3375 50.6134C84.9229 50.6134 85.2681 50.9923 85.2681 51.6817V54.3056H86.5529V51.6914C86.5529 50.9729 87.0104 50.6134 87.5622 50.6134C88.1434 50.6134 88.4929 50.9923 88.4929 51.6817V54.3056H89.7734V51.2683C89.7734 50.161 89.0152 49.4073 87.8921 49.4073ZM91.9198 51.4701C92.0322 50.8793 92.3873 50.5154 92.9925 50.5154C93.5442 50.5154 93.9135 50.8599 94.0315 51.4703L91.9198 51.4701ZM93.0022 49.4073C91.5743 49.4073 90.5891 50.4312 90.5891 51.9326C90.5891 53.4341 91.604 54.4285 93.0667 54.4285C93.8698 54.4285 94.5591 54.202 95.1011 53.7051L94.3471 52.8777C94.0018 53.1682 93.5541 53.3359 93.1413 53.3359C92.5349 53.3359 92.0518 53.0357 91.9143 52.3463H95.2978C95.3119 52.238 95.3216 52.0612 95.3216 51.913C95.3176 50.4263 94.3768 49.4075 93.0022 49.4075M98.8269 49.4073C98.2868 49.4073 97.7643 49.5896 97.4245 50.0963V49.5358H96.1736V54.3056H97.4582V51.6914C97.4582 50.9729 97.9161 50.6134 98.4675 50.6134C99.0543 50.6134 99.3982 50.9923 99.3982 51.6817V54.3056H100.684V51.2683C100.684 50.161 99.911 49.4073 98.8269 49.4073ZM104.194 53.2321C103.796 53.2321 103.48 53.0159 103.48 52.4202V50.6773H105.209V49.5356H103.48V48.1174H102.195V49.5358H101.274V50.6773H102.195V52.5233C102.195 53.759 102.8 54.4285 103.982 54.4285C104.662 54.4285 105.145 54.2117 105.563 53.9262L105.091 52.9219C104.831 53.0797 104.5 53.2321 104.194 53.2321Z" fill="#0052C2"/>
</g>
<defs>
<clipPath id="clip0_185_4151">
<rect width="107.741" height="61.0215" fill="white"/>
</clipPath>
</defs>
</svg>
