<svg width="149" height="31" viewBox="0 0 149 31" fill="none" xmlns="http://www.w3.org/2000/svg">
<g clip-path="url(#clip0_185_4165)">
<mask id="mask0_185_4165" style="mask-type:luminance" maskUnits="userSpaceOnUse" x="0" y="0" width="149" height="30">
<path d="M148.144 0.000488281H0V29.9616H148.144V0.000488281Z" fill="white"/>
</mask>
<g mask="url(#mask0_185_4165)">
<path d="M94.0803 0.324061C94.0266 0.324061 94 0.297069 94 0.243085C94 0.189101 94.0266 0.162109 94.0803 0.162109H142.515V29.7993C131.424 13.982 114.065 2.96928 94.0803 0.324061Z" fill="#FF6B00"/>
<path d="M134.537 17.4367C134.859 12.5511 134.752 9.71695 135.582 8.93416C136.359 8.23239 137.725 8.01646 140.083 7.85449C134.939 7.26068 135.046 7.42265 134.537 2.34814C134.029 7.39564 134.136 7.23367 128.992 7.85449C131.349 8.01646 132.716 8.23239 133.492 8.93416C134.323 9.71695 134.216 12.5511 134.537 17.4367Z" fill="black"/>
<path d="M32.4969 18.7065V29.2603H35.3902V20.6769C36.3546 19.8401 37.0511 20.1101 38.9799 21.7026L40.1586 19.0574C39.5693 18.8145 38.8192 18.5175 37.7476 18.5175C36.676 18.5175 35.8456 19.0574 35.4705 19.5163L35.3366 19.6782L35.3098 19.6512L35.3366 18.6795L32.4969 18.7065ZM44.2306 13.1191H41.3373V29.2334H44.2306C44.2306 29.2603 44.2306 13.1191 44.2306 13.1191ZM19.4506 23.97C19.4506 26.9121 21.6205 29.3684 25.1299 29.3684C28.6393 29.3684 30.8092 26.939 30.8092 23.9969C30.8092 21.0548 28.6393 18.6255 25.1299 18.6255C21.6205 18.6255 19.4506 21.0278 19.4506 23.97ZM80.8513 18.7065H77.958V29.2603H80.8513V18.7065ZM79.7798 13.9559C78.9226 13.9559 78.2526 14.6307 78.2526 15.4945C78.2526 16.3582 78.9226 17.033 79.7798 17.033C80.637 17.033 81.3065 16.3582 81.3065 15.4945C81.3065 14.6307 80.637 13.9559 79.7798 13.9559ZM82.646 21.5946C82.3786 25.6164 88.2184 24.6447 88.0578 27.101C87.9775 28.0727 87.1469 28.4236 86.236 28.3966C84.7896 28.2886 83.9053 27.4519 83.1283 26.5072L82.2711 28.4506C83.4501 29.1254 84.7087 29.4493 85.8339 29.5573C88.3524 29.7193 90.4417 28.6396 90.6028 26.1833C90.8437 22.4044 84.8162 22.8633 84.9236 20.9468C84.9767 20.1101 85.9142 19.6782 86.9055 19.7322C87.8967 19.8132 88.6736 20.38 89.5579 21.1628L90.3348 19.4353C89.2633 18.9494 88.2184 18.7335 87.3075 18.6525C84.5753 18.4636 82.78 19.8942 82.646 21.5946ZM51.169 29.4763C52.5352 29.4763 53.6336 28.9905 54.6515 28.2077L54.7051 28.2347V29.2334H57.3841V13.1191H54.4908V19.5433C53.6871 18.9224 52.4549 18.5445 51.1958 18.5445C49.6152 18.5445 45.8111 19.5163 45.8111 24.1589C45.8379 27.5869 48.8383 29.4763 51.169 29.4763ZM70.0555 29.2603H71.2876L77.4225 15.0896H75.815L71.5556 25.0496L67.3499 15.0896H63.8402L70.0555 29.2603ZM121.303 29.2603V23.4571C121.303 19.5163 118.33 18.5445 116.561 18.5445C115.302 18.5445 114.257 19.0304 113.186 19.7592L113.132 19.7322V18.7335H110.454V29.2873H113.347V20.7579C114.204 20.0021 115.034 19.7052 115.758 19.7052C117.285 19.7052 118.356 21.1897 118.356 22.8093V29.2603H121.303ZM11.8961 16.4392H10.2619L6.96684 24.9956L3.45747 15.1436H0.0820312L5.27913 29.2334H6.85969L10.2351 20.542L13.5838 29.2334H15.1644L20.3614 15.1975H18.7809L15.1644 24.9956L11.8961 16.4392ZM27.7284 23.97C27.7284 26.3992 26.9248 28.3426 25.1031 28.3426C23.2815 28.3426 22.5046 26.4262 22.5046 23.97C22.5046 21.5137 23.3083 19.5972 25.1299 19.5972C26.9516 19.5972 27.7284 21.5407 27.7284 23.97ZM97.2461 23.97C97.2461 26.9121 99.4163 29.3414 102.926 29.3414C106.435 29.3414 108.605 26.9121 108.605 23.97C108.605 21.0278 106.435 18.5986 102.926 18.5986C99.4163 18.5986 97.2461 21.0278 97.2461 23.97ZM105.551 23.97C105.551 26.3992 104.747 28.3426 102.926 28.3426C101.104 28.3426 100.3 26.3992 100.3 23.97C100.3 21.5407 101.104 19.5972 102.926 19.5972C104.747 19.5972 105.551 21.5407 105.551 23.97ZM54.4908 20.8119V27.182C53.7407 27.8298 53.0442 28.3156 51.9727 28.3156C50.6868 28.3156 49.0259 27.209 49.0259 24.0509C49.0259 20.6229 51.678 18.1397 54.4908 20.8119Z" fill="black"/>
<path d="M95.3465 18.7065H92.4531V29.2604H95.3465V18.7065Z" fill="black"/>
<path d="M93.9993 13.9282C93.1421 13.9282 92.4727 14.6031 92.4727 15.4668C92.4727 16.3305 93.1421 17.0053 93.9993 17.0053C94.8565 17.0053 95.5266 16.3305 95.5266 15.4668C95.5266 14.6031 94.8565 13.9282 93.9993 13.9282Z" fill="black"/>
<path d="M147.562 1.35033C147.83 1.62025 147.99 1.97114 147.99 2.37603C147.99 2.78091 147.857 3.10481 147.562 3.37473C147.267 3.64465 146.946 3.8066 146.544 3.8066C146.142 3.8066 145.821 3.67164 145.526 3.37473C145.258 3.07782 145.098 2.75391 145.098 2.37603C145.098 1.99814 145.232 1.64724 145.526 1.35033C145.821 1.05342 146.142 0.918457 146.544 0.918457C146.946 0.918457 147.294 1.08041 147.562 1.35033ZM147.455 3.26676C147.696 3.02383 147.83 2.72692 147.83 2.34903C147.83 1.97114 147.696 1.70122 147.455 1.4583C147.214 1.21537 146.919 1.08041 146.571 1.08041C146.222 1.08041 145.928 1.21537 145.687 1.4583C145.446 1.70122 145.312 1.99814 145.312 2.34903C145.312 2.69993 145.446 2.99684 145.687 3.23977C145.928 3.48269 146.222 3.61765 146.571 3.61765C146.919 3.61765 147.214 3.53668 147.455 3.26676ZM145.955 1.56626H146.624C146.812 1.56626 146.946 1.59326 147.026 1.67423C147.133 1.75521 147.16 1.86318 147.16 1.99814C147.16 2.1061 147.107 2.21407 147.026 2.29505C146.946 2.37603 146.866 2.43001 146.758 2.43001C146.812 2.457 146.892 2.48399 146.919 2.53798C146.973 2.56497 146.999 2.64595 147.053 2.69993L147.348 3.15879H146.973L146.732 2.75391C146.678 2.64595 146.598 2.56497 146.571 2.53798C146.544 2.51099 146.464 2.51099 146.383 2.51099H146.276V3.15879H145.955V1.56626ZM146.49 2.29505C146.598 2.29505 146.678 2.26806 146.732 2.24106C146.785 2.18708 146.812 2.1331 146.812 2.05212C146.812 1.89017 146.705 1.80919 146.49 1.80919H146.276V2.32204L146.49 2.29505Z" fill="black"/>
<path d="M124.43 18.6794C124.697 18.9493 124.858 19.3002 124.858 19.7051C124.858 20.11 124.724 20.4339 124.43 20.7038C124.135 20.9737 123.813 21.1357 123.411 21.1357C123.01 21.1357 122.688 21.0007 122.393 20.7038C122.125 20.4069 121.965 20.083 121.965 19.7051C121.965 19.3272 122.099 18.9763 122.393 18.6794C122.688 18.3825 123.01 18.2476 123.411 18.2476C123.813 18.2476 124.162 18.3825 124.43 18.6794ZM124.322 20.5958C124.564 20.3529 124.697 20.056 124.697 19.7051C124.697 19.3542 124.564 19.0573 124.322 18.8144C124.081 18.5714 123.787 18.4365 123.438 18.4365C123.09 18.4365 122.795 18.5714 122.554 18.8144C122.313 19.0573 122.179 19.3542 122.179 19.7051C122.179 20.056 122.313 20.3529 122.554 20.5958C122.795 20.8388 123.09 20.9737 123.438 20.9737C123.787 20.9737 124.081 20.8388 124.322 20.5958ZM122.822 18.8684H123.492C123.679 18.8684 123.813 18.8953 123.894 18.9763C124.001 19.0573 124.028 19.1653 124.028 19.3002C124.028 19.4082 124.001 19.5161 123.894 19.5972C123.787 19.6781 123.706 19.7321 123.572 19.7321C123.626 19.7591 123.706 19.7861 123.733 19.8131C123.787 19.867 123.813 19.894 123.867 19.9751L124.162 20.4339H123.787L123.545 20.029C123.492 19.921 123.411 19.8401 123.385 19.8131C123.331 19.7861 123.277 19.7861 123.224 19.7861H123.09V20.4339H122.768L122.822 18.8684ZM123.358 19.6241C123.465 19.6241 123.545 19.5972 123.599 19.5702C123.653 19.5161 123.706 19.4622 123.706 19.3812C123.706 19.2193 123.599 19.1383 123.385 19.1383H123.144V19.6511L123.358 19.6241Z" fill="black"/>
</g>
</g>
<defs>
<clipPath id="clip0_185_4165">
<rect width="148.144" height="30.195" fill="white"/>
</clipPath>
</defs>
</svg>
