<svg xmlns="http://www.w3.org/2000/svg" viewBox="0 0 187 187"><path d="M178.036 79.5284C172.376 78.1489 161.381 79.285 150.71 80.394C143.209 81.1515 136.14 81.8818 131.157 81.7466L129.478 81.6925L115.206 81.422C115.504 81.1515 115.721 80.9621 115.694 80.9351C121.002 75.3086 127.366 70.4124 133.486 65.7056C140.094 60.6472 146.919 55.3994 152.525 49.1507L153.012 48.6368C155.287 46.094 159.133 41.8471 160.216 39.5749C162.572 34.5164 162.328 29.8096 159.539 26.9423C156.641 23.9938 151.712 23.8044 146.946 26.4013C141.855 29.2145 134.488 37.4649 127.366 45.4719C122.356 51.0984 117.616 56.4003 113.852 59.6463L112.579 60.7283L100.555 71.3051C100.609 70.2772 100.69 69.2222 100.636 69.1951C100.419 61.4587 101.449 53.5329 102.423 45.8776C103.507 37.6272 104.617 29.1063 104.157 20.7477V20.0444C103.94 16.636 103.642 10.9284 102.776 8.54795C100.853 3.21901 97.3321 0.054101 93.324 0C89.2075-0.0270505 85.5515 3.30016 84.0349 8.5209C82.41 14.0933 83.0599 25.1299 83.6828 35.8419C84.1161 43.3619 84.5224 50.4492 84.1432 55.3994L84.0078 57.0765L82.9516 73.5503C82.1662 72.6847 80.9476 71.278 80.8934 71.3051C75.2604 66.0032 70.3857 59.6463 65.6463 53.56C60.582 46.9596 55.3282 40.1429 49.0723 34.5435L48.5577 34.0566C46.012 31.7843 41.7602 27.9432 39.4853 26.8611C34.421 24.5077 29.7088 24.7512 26.8381 27.5644C23.8862 30.4588 23.6966 35.382 26.2965 40.1429C29.0859 45.2284 37.3729 52.5861 45.3621 59.7004C50.9951 64.7048 56.3031 69.4386 59.5529 73.1986L60.6362 74.47L67.7316 82.531C58.7134 83.1261 49.7764 83.7754 43.3851 84.2352C29.9796 85.1279 17.2782 85.9935 13.2159 86.9403C12.7014 87.0755 12.1597 87.1837 11.6452 87.2919C5.958 88.5633 0.5958 89.7265 0.0270818 97.4088C-0.0812455 98.9507 0.541636 100.682 1.59783 102.251C3.54772 105.145 6.90586 107.634 9.69529 108.067C12.3222 108.445 16.9261 106.822 21.3676 105.253C24.0487 104.307 26.5944 103.414 28.3005 103.116C36.6146 101.656 53.1075 99.6269 61.882 99.1941C62.4507 99.1671 63.0465 99.14 63.6423 99.0859C65.3755 98.9777 67.19 98.8425 68.8962 98.9777C69.6544 98.9777 70.494 98.9777 71.3877 98.9236C63.886 106.714 56.0323 115.019 50.6972 120.591C41.4081 130.275 32.6336 139.472 30.2504 142.908C29.9525 143.368 29.6275 143.773 29.3296 144.233C25.9986 148.994 22.8029 153.484 27.5693 159.544C28.5172 160.761 30.1692 161.6 32.0107 162.059C35.3959 162.898 39.5665 162.465 41.8956 160.896C44.0892 159.409 46.3912 155.107 48.639 150.969C49.966 148.453 51.2388 146.1 52.3221 144.72C57.4676 138.039 68.2462 125.433 74.475 119.184C74.8812 118.779 75.2875 118.346 75.7208 117.913C76.9124 116.642 78.1852 115.343 79.5122 114.315C80.2705 113.639 81.1101 112.801 81.9767 111.935C82.1663 123.107 82.5183 135.117 82.7079 143.151C83.0058 156.568 83.3037 169.282 84.062 173.394C84.1703 173.908 84.2515 174.449 84.3328 174.963C85.3348 180.697 86.2827 186.107 93.9198 187.027C95.4634 187.216 97.2237 186.648 98.8487 185.675C101.828 183.862 104.482 180.616 105.023 177.857C105.538 175.26 104.103 170.58 102.748 166.063C101.909 163.331 101.151 160.761 100.907 159.03C99.8236 150.671 98.5237 134.116 98.4966 125.352C98.4966 124.784 98.4966 124.189 98.4966 123.567C98.4424 121.835 98.4153 119.996 98.632 118.346C98.6591 117.453 98.6862 116.452 98.6862 115.37C106.54 122.944 114.989 130.897 120.65 136.28C130.345 145.559 139.553 154.323 142.992 156.703C143.452 157.001 143.859 157.326 144.319 157.623C149.085 160.95 153.581 164.142 159.647 159.381C160.866 158.435 161.706 156.785 162.166 154.945C163.006 151.564 162.572 147.398 161.001 145.072C159.512 142.881 155.206 140.581 151.035 138.336C148.517 137.011 146.161 135.739 144.779 134.657C138.09 129.518 125.47 118.752 119.214 112.530C118.808 112.124 118.375 111.719 117.941 111.286C116.668 110.095 115.369 108.824 114.339 107.499C111.875 104.821 107.867 101.088 104.725 98.1392C106.919 98.3285 109.708 98.5449 114.231 98.8425C114.258 98.7343 118.185 98.8695 118.239 98.7884C125.958 98.2203 133.947 98.8966 141.665 99.5187C149.952 100.222 158.537 100.952 166.878 100.114L167.582 100.060C170.968 99.7351 176.682 99.1671 179.011 98.2203C184.156 96.0833 187.162 92.4315 187.027 88.428C186.865 84.3164 183.371 80.8269 178.090 79.5555"/></svg>
