<svg width="123" height="67" viewBox="0 0 123 67" fill="none" xmlns="http://www.w3.org/2000/svg">
<path d="M46.9999 64.226C45.049 64.226 43.8516 62.9105 43.8516 61.2151V55.7897C43.8516 54.0984 45.049 52.7788 46.9999 52.7788C48.9508 52.7788 49.9527 53.9962 49.9527 55.6426V56.9745H48.1321V55.659C48.1321 55.0176 47.7696 54.5723 47.0325 54.5723C46.2953 54.5723 45.9165 55.0176 45.9165 55.6222V61.3785C45.9165 61.9872 46.2912 62.4325 47.0325 62.4325C47.7737 62.4325 48.1321 61.9872 48.1321 61.3458V60.0303H49.9527V61.3622C49.9527 63.0045 48.9345 64.2219 46.9999 64.2219" fill="#054A47"/>
<path d="M54.0838 64.2258C52.1818 64.2258 50.9844 62.9757 50.9844 61.2312V55.7732C50.9844 54.045 52.1818 52.7949 54.0838 52.7949C55.9858 52.7949 57.1832 54.045 57.1832 55.7732V61.2312C57.1832 62.9757 56.0021 64.2258 54.0838 64.2258ZM55.1305 55.6424C55.1305 55.001 54.7558 54.5761 54.0797 54.5761C53.4036 54.5761 53.0493 55.001 53.0493 55.6424V61.366C53.0493 62.0074 53.424 62.4323 54.0797 62.4323C54.7355 62.4323 55.1305 62.0033 55.1305 61.366V55.6424Z" fill="#054A47"/>
<path d="M64.9648 63.9766V56.0347L64.5208 58.4205L63.356 63.9766H61.8165L60.7209 58.4205L60.2932 56.0347V63.9766H58.4727V53.0278H61.2096L62.3419 58.5839L62.688 60.6062L63.0465 58.5839L64.1624 53.0278H66.8831V63.9766H64.9648Z" fill="#054A47"/>
<path d="M74.781 63.9766V56.0347L74.3411 58.4205L73.1763 63.9766H71.6368L70.5371 58.4205L70.1135 56.0347V63.9766H68.293V53.0278H71.0299L72.1622 58.5839L72.5043 60.6062L72.8668 58.5839L73.9787 53.0278H76.7034V63.9766H74.781Z" fill="#054A47"/>
<path d="M81.1613 64.2258C79.3896 64.2258 78.0781 63.0901 78.0781 61.4478V53.0278H80.143V61.4478C80.143 62.0892 80.5055 62.4487 81.1613 62.4487C81.817 62.4487 82.1917 62.0892 82.1917 61.4478V53.0278H84.1752V61.4478C84.1752 63.0901 82.9289 64.2258 81.1572 64.2258" fill="#054A47"/>
<path d="M90.2999 63.9766L88.1861 59.307L87.4163 57.5626V63.9766H85.5469V53.0278H87.3023L89.3183 57.7791L90.0392 59.5195V53.0278H91.8761V63.9766H90.2999Z" fill="#054A47"/>
<path d="M95.3136 53.0278H93.2812V63.9807H95.3136V53.0278Z" fill="#054A47"/>
<path d="M100.268 54.8336V63.9766H98.2192V54.8336H96.2031V53.0278H102.268V54.8336H100.268Z" fill="#054A47"/>
<path d="M105.165 53.0278H103.133V63.9807H105.165V53.0278Z" fill="#054A47"/>
<path d="M106.27 63.9766V53.0278H111.483V54.7845H108.302V57.4972H110.497V59.1109H108.302V62.1505H111.483V63.9766H106.27Z" fill="#054A47"/>
<path d="M115.265 64.2259C113.395 64.2259 112.234 63.1065 112.234 61.3988V60.643H114.104V61.2844C114.104 62.0893 114.479 62.5346 115.22 62.5346C115.961 62.5346 116.303 62.1056 116.303 61.4356C116.303 60.5654 115.745 59.973 114.666 59.1641C113.55 58.3593 112.336 57.2726 112.336 55.7447C112.336 54.2168 113.354 52.8032 115.318 52.8032C117.04 52.8032 118.189 53.988 118.189 55.614V56.3207H116.336V55.663C116.336 54.9889 115.99 54.4946 115.301 54.4946C114.711 54.4946 114.316 54.8704 114.316 55.4791C114.316 56.3983 114.857 56.8763 116.071 57.7629C117.366 58.7311 118.283 59.7197 118.283 61.1987C118.283 62.9594 117.069 64.2259 115.265 64.2259Z" fill="#054A47"/>
<path d="M4.37599 53.8244C9.70327 52.2802 15.0876 50.3682 28.0474 47.631C28.1451 47.1285 28.3162 46.434 28.5361 45.6251C28.5972 45.3514 28.695 44.9592 28.8253 44.4648C11.9963 48.1008 5.03986 51.1117 4.58777 51.218C3.36999 51.4712 2.56764 54.1921 4.37599 53.8244Z" fill="#054A47"/>
<path d="M37.0794 43.1452C36.9898 43.4435 36.8962 43.7294 36.8106 44.0072C36.7536 44.187 36.7007 44.3586 36.6477 44.5342C36.4767 45.0939 36.3097 45.7966 36.1875 46.3563C45.7994 44.4566 54.4094 43.0227 64.9662 42.2669C69.9107 41.8461 72.7372 41.7644 77.3803 41.5478C77.6572 40.3427 78.5818 39.113 79.9584 37.728C72.2689 38.2836 66.0415 38.8188 57.8428 39.8156C49.9008 40.6572 44.1743 41.7235 37.0794 43.1452Z" fill="#054A47"/>
<path d="M119.726 36.3999C117.893 36.0363 107.768 35.8484 91.8434 36.7757C91.2895 38.369 90.8048 39.6968 90.3242 40.7876C106.526 40.3749 116.382 41.1389 116.826 40.9837C118.154 40.6854 121.465 37.1761 119.726 36.3958" fill="#054A47"/>
<path d="M119.253 27.2286C119.09 27.2286 118.654 27.5922 118.589 27.6453C113.074 32.033 110.309 29.0671 111.408 26.6118C113.669 26.6036 115.559 24.9082 116.801 23.4824C118.043 22.0566 118.45 20.2835 118.267 18.9925C118.165 18.2654 117.298 15.9326 115.314 15.5935C111.909 15.1646 109.128 19.3112 107.902 22.5509C107.421 23.7357 107.197 24.8918 107.193 25.9826C106.334 26.6771 102.562 30.7135 101.695 29.9822C100.742 29.1733 108.728 6.12773 108.969 5.32291C109.213 4.5181 108.341 3.89304 108.341 3.89304L106.672 2.85535C106.672 2.85535 105.979 2.43048 105.214 3.53352C104.22 6.12773 101.34 15.4015 99.3649 22.1097C97.7847 23.7152 94.9826 26.1828 92.7466 28.0743C94.2535 23.3312 95.3206 19.4583 95.4632 18.9272C95.508 18.7638 95.5283 18.6371 95.5242 18.5391L95.6057 18.2939C95.789 17.485 94.8644 16.9458 94.8644 16.9458L93.1009 16.0633C93.1009 16.0633 92.3719 15.6997 91.6835 16.8477L91.5573 17.2399C91.5206 17.2849 91.4881 17.3625 91.4473 17.4932C91.374 17.7343 91.2274 18.2122 91.0441 18.821L90.7549 19.7034C90.7468 19.7443 90.7427 19.781 90.7387 19.8178C90.0178 22.1832 89.0403 25.378 89.0403 25.378C89.0403 25.378 84.3972 31.2241 83.9777 30.9463C83.6723 30.7421 85.1426 25.6149 86.2381 22.1955C86.2422 22.1873 86.2463 22.1832 86.2504 22.175L87.2849 19.3929C87.3541 19.1478 87.3256 18.9231 87.2564 18.7229C87.2279 18.6167 87.1749 18.5186 87.1138 18.4288C86.9387 18.151 86.7228 17.9753 86.7228 17.9753L85.2118 16.9294C85.2118 16.9294 84.5846 16.5005 83.8922 17.5872L82.8577 20.3693C82.8577 20.3693 82.8495 20.402 82.8495 20.4183C82.1775 22.126 81.3222 24.5364 80.7194 26.6689C79.0088 28.3235 75.0623 32.3476 74.3088 31.7062C73.7182 31.2037 76.6588 21.9258 79.0292 14.7683L83.4971 14.2821C83.9085 14.2372 84.4665 13.3302 84.4665 13.3302C84.4665 13.3302 85.9531 11.165 85.6965 10.6298C85.5946 10.4419 83.1754 10.5889 80.3366 10.8627C81.1593 8.4237 81.7499 6.71194 81.811 6.50358C82.0553 5.69877 81.1837 5.07779 81.1837 5.07779L79.5139 4.04011C79.5139 4.04011 78.8215 3.61115 78.0558 4.71828C77.62 5.86218 76.7932 8.35425 75.8361 11.3652C73.3883 11.6757 71.3763 12.0066 71.1075 12.219C70.3785 12.791 69.8775 14.9194 69.8775 14.9194C69.8775 14.9194 69.625 15.7937 70.0364 15.7488L74.6142 15.2504C74.1662 16.6925 73.7101 18.1755 73.2661 19.6217C73.2539 19.6462 73.2458 19.6748 73.2376 19.7034C72.4841 21.5745 68.3421 30.023 67.2261 31.2446C67.275 30.8279 67.279 30.4193 67.2465 30.0108C66.9695 27.294 65.2019 24.5282 65.2263 23.1719C65.2548 21.4233 66.1386 21.599 66.7088 20.9739C66.9166 20.7493 66.9125 20.2917 66.5215 19.9812C65.8372 19.4379 65.2752 18.8414 63.4546 19.0416C57.1051 19.732 62.4201 28.0825 63.3773 30.2273C63.5361 30.2927 59.1619 28.5932 57.9319 28.7239C56.6937 28.8587 56.0339 30.4234 56.319 31.8737C56.3272 31.9105 56.3353 31.9513 56.3434 31.9922C56.1561 32.1025 55.928 32.2904 55.8791 32.3313C55.2804 32.8052 54.7143 33.1974 54.1848 33.5038C49.8065 36.0816 47.7172 33.4833 48.6987 31.2936C50.9591 31.2854 52.8489 29.59 54.0912 28.1642C55.3374 26.7384 55.7407 24.9653 55.5615 23.6744C55.4596 22.9472 54.5921 20.6144 52.6086 20.2753C50.059 19.9526 47.8638 22.1955 46.4016 24.7039C44.7847 24.8183 42.6913 25.0225 40.72 25.2554C40.9603 24.4874 41.4083 22.9513 41.5712 22.4202H41.5957C42.9641 17.7302 44.5444 14.0452 45.0535 13.9144C46.3609 13.5794 45.5137 18.0407 45.7581 18.1101C45.9862 18.535 46.646 18.3797 46.646 18.3797L47.933 18.0039C47.933 18.0039 48.3607 17.8609 48.3607 17.0643C48.4584 16.6353 47.428 11.7492 47.2121 11.4632C46.9963 11.1772 46.5197 10.7973 46.1735 10.6993C45.8274 10.6012 45.8314 10.6053 44.1208 10.8382C42.4143 11.071 41.4409 11.9208 40.9277 12.8604C40.4471 13.7347 38.9198 18.0447 37.3273 22.8859C37.1155 23.5314 36.6512 25.1043 36.4109 25.8519C35.4416 26.0153 34.7818 26.1664 34.6352 26.2808C33.9061 26.8528 33.4052 28.9813 33.4052 28.9813C33.4052 28.9813 33.1527 29.8555 33.564 29.8106L35.2176 29.6308C34.851 30.8115 34.4804 32.0003 34.122 33.1728C32.2933 34.8601 27.524 39.5705 26.742 38.9087C25.7889 38.0998 29.8536 28.0866 30.098 27.2818C30.3424 26.4769 29.4708 25.856 29.4708 25.856L27.805 24.8183C27.805 24.8183 27.1126 24.3893 26.3469 25.4964C24.8237 29.4797 22.7669 36.1797 22.4533 38.1938C22.3148 39.2029 22.6773 40.3182 24.0458 41.1924C25.4102 42.0667 25.9844 42.3282 26.351 42.3813C26.7175 42.4344 27.3692 42.2955 27.7358 42.1361C28.0046 42.0177 30.937 39.7299 32.5539 38.3531C31.5561 41.6949 30.7904 44.3831 30.5664 45.4249C30.3017 46.4176 30.1062 47.2306 30.0288 47.7413C29.8211 49.7349 32.0082 51.9533 33.2178 51.6755C34.4152 51.1607 33.7147 49.0322 33.9591 47.5697C33.9591 47.5697 34.289 45.8906 34.6229 44.7794C34.6759 44.6037 34.7288 44.428 34.7899 44.2524C35.4945 42.0136 36.4069 39.0313 36.92 37.3358C37.8486 34.378 38.6266 31.9922 39.5063 29.1774L44.7684 28.6054C44.6096 29.2509 44.5118 29.8841 44.4955 30.501C44.4752 31.1016 44.524 31.6817 44.6299 32.2332C45.1431 34.9336 47.0329 37.0254 49.5255 37.7158C51.3176 38.2796 53.7776 37.2255 55.5574 36.1552C56.2131 35.763 56.7629 35.3708 57.1662 35.0521C57.2802 35.3136 57.4105 35.5342 57.549 35.6772C58.4002 36.5678 59.8583 36.9436 61.5445 36.7598C63.8375 36.4289 65.3241 35.4075 66.2038 34.1615C67.1487 33.6508 68.0529 32.8297 68.8593 31.8002C69.2422 31.3099 69.8734 30.1864 70.5862 28.7893C70.2807 29.9005 70.0771 30.6889 70.0282 31.0117C69.8897 32.0208 70.2563 33.1361 71.6207 34.0103C72.9851 34.8846 73.5594 35.1461 73.9259 35.1992C74.2925 35.2523 74.9441 35.1134 75.3107 34.9541C75.5754 34.8356 78.4509 32.5927 80.0759 31.216C80.0922 31.2568 80.1085 31.2936 80.1289 31.3263C81.0738 32.8297 82.1246 34.0757 82.6826 34.4434C83.2405 34.8152 84.3687 34.5946 84.9023 34.2922C85.4358 33.9899 88.2339 30.5746 88.2339 30.5746C88.2339 30.5746 88.1483 31.1792 87.8225 32.3027C82.1409 37.3113 78.2309 40.1833 79.6076 43.4189C80.8661 46.4135 84.0022 45.5392 85.4806 44.7998C87.794 43.4598 88.8122 39.9954 91.1663 33.0544C94.0132 30.3172 96.6728 27.9027 98.0942 26.6281C97.7236 27.964 97.4792 28.9241 97.4222 29.2917C97.2837 30.3008 97.6503 31.4161 99.0147 32.2904C100.379 33.1647 100.953 33.4261 101.32 33.4792C101.686 33.5324 102.338 33.3935 102.705 33.2341C102.994 33.1075 106.338 30.4888 107.845 29.1733C108.028 29.59 108.244 29.9863 108.496 30.3539C109.392 31.6613 110.7 32.6172 112.239 33.0462C115.343 34.0144 120.438 30.1579 120.556 29.7371C120.678 29.3163 119.754 27.245 119.265 27.2613M115.803 19.2295C117.799 21.0148 112.911 24.6875 112.304 24.1646C111.698 23.6417 114.809 18.343 115.803 19.2295ZM53.0933 23.9072C55.089 25.6925 50.2016 29.3653 49.5907 28.8424C48.9838 28.3194 52.0955 23.0166 53.0933 23.9072ZM60.4285 33.418C59.9357 33.4711 59.5936 33.1565 59.3655 32.8664C58.889 32.2659 58.9256 31.2241 59.2067 31.0035C59.227 30.9872 59.2515 30.9749 59.28 30.9627C59.6628 30.8033 60.7951 31.0566 62.9129 31.6286C62.1961 32.8542 60.9254 33.3689 60.4326 33.4221M82.3934 42.7489C81.758 42.1811 82.4667 41.1271 86.2137 37.1724C84.6334 41.8011 83.0328 43.3168 82.3934 42.7489Z" fill="#054A47"/>
<path d="M28.432 23.3028L30.1019 24.3405C30.1019 24.3405 30.7942 24.7694 31.5599 23.6623L32.7044 20.8475C32.9488 20.0427 32.0772 19.4217 32.0772 19.4217L30.4114 18.384C30.4114 18.384 29.719 17.955 28.9533 19.0622L27.8088 21.877C27.5645 22.6818 28.4361 23.3028 28.4361 23.3028" fill="#054A47"/>
<path d="M20.0623 39.2518C19.8342 39.2518 16.523 39.7338 10.9025 41.4374C11.0369 33.4628 17.7408 15.7936 19.9931 12.8562C20.2985 11.8512 19.207 11.0628 19.207 11.0628L17.4028 9.95562C17.4028 9.95562 16.5352 9.41635 15.574 10.7931H15.5822C12.3972 14.997 5.56298 41.274 5.40414 42.8387C3.44917 43.5741 3.16815 43.7457 2.67941 44.2073C1.9748 44.9876 2.89527 47.8392 4.97649 47.6227C10.4952 46.5156 14.1933 44.9223 19.1215 43.8396C19.1296 43.8396 19.1419 43.8396 19.1419 43.8396C19.8994 43.7375 20.2904 42.7203 20.2904 42.7203L20.9746 40.5795C20.9746 40.5795 21.5 39.1047 20.0664 39.2518" fill="#054A47"/>
</svg>
