<svg width="164" height="50" viewBox="0 0 164 50" fill="none" xmlns="http://www.w3.org/2000/svg">
<path d="M123.416 43.1991C123.416 40.9717 124.879 39.5173 126.776 39.5173C128.673 39.5173 130.136 40.9717 130.136 43.1991C130.136 45.4264 128.673 46.8809 126.776 46.8809C124.879 46.8809 123.416 45.4264 123.416 43.1991ZM122.381 43.1991C122.381 45.9405 124.362 47.9089 126.692 47.9089C129.021 47.9089 130.052 46.1118 130.052 46.1118H130.14L130.225 47.6538H131.171V38.7482H130.225L130.14 40.2902H130.052C130.052 40.2902 129.018 38.4931 126.692 38.4931C124.366 38.4931 122.381 40.4615 122.381 43.2029M120.22 38.7329H119.185V47.6538H120.22V38.7329ZM116.611 34.8455H115.576V47.6538H116.611V34.8455ZM99.2682 38.7482H98.3218V47.6538H99.3564V41.9997C99.3564 41.9997 100.218 39.5173 102.115 39.5173C102.713 39.5173 103.15 39.6772 103.449 39.8599L103.87 38.9918C103.518 38.7482 102.966 38.4893 102.199 38.4893C100.218 38.4893 99.4407 40.2864 99.4407 40.2864H99.3525L99.2682 38.7444V38.7482ZM86.8458 28.2472V24.2227H89.6889V22.4256H86.8458V19.7718H86.7577L83.2249 23.5412V24.2265H84.861V28.3386C84.861 30.3946 86.068 31.594 87.7922 31.594C89.1717 31.594 89.9457 30.8249 89.9457 30.8249V29.1115H89.6889C89.6889 29.1115 89.1717 29.7968 88.2252 29.7968C87.4512 29.7968 86.8458 29.2828 86.8458 28.2548M83.0179 45.5978L82.6731 46.5382C82.6731 46.5382 83.9644 47.9089 86.1216 47.9089C88.2789 47.9089 89.3977 46.7971 89.3977 45.2551C89.3977 41.916 83.9682 43.0277 83.9682 40.9717C83.9682 40.115 84.5698 39.5173 85.8649 39.5173C87.6735 39.5173 88.5356 40.6291 88.5356 40.6291L88.9648 39.7724C88.9648 39.7724 88.0183 38.4893 85.8611 38.4893C84.0525 38.4893 82.9298 39.601 82.9298 40.9717C82.9298 44.0558 88.3593 42.9402 88.3593 45.2551C88.3593 46.1955 87.6696 46.8809 86.1178 46.8809C84.1368 46.8809 83.0141 45.5978 83.0141 45.5978M73.8908 38.7482H72.8563V44.2309C72.8563 46.4583 74.32 47.9127 76.3891 47.9127C78.7149 47.9127 79.5771 46.1156 79.5771 46.1156H79.6652L79.7495 47.6576H80.6959V38.752H79.6614V43.4618C79.6614 45.4302 78.1977 46.8885 76.4734 46.8885C74.7491 46.8885 73.887 45.9481 73.887 44.2347V38.752L73.8908 38.7482ZM62.6792 42.8564L65.6105 36.6046H65.6948L68.626 42.8564H62.6792ZM65.1813 35.1501L59.4069 47.6538H60.5258L62.2501 43.8844H69.059L70.7833 47.6538H71.9022L66.1278 35.1501H65.1813ZM65.3193 4.21073H69.3272V2.32605H59.2422V4.21073H63.2502V14.864H65.3193V4.21073ZM68.5456 31.3274H70.6147V18.8238H68.5456V24.0476H62.5145V18.8238H60.4453V31.3274H62.5145V25.9323H68.5456V31.3274ZM77.6152 14.864H79.5962V9.38126C79.5962 7.07013 78.2168 5.69945 76.0634 5.69945C73.91 5.69945 73.1321 7.32523 73.1321 7.32523H73.044V2.22705H71.063V14.8602H73.044V10.0628C73.044 8.60835 74.251 7.49276 75.6304 7.49276C76.8374 7.49276 77.6114 8.1781 77.6114 9.46122V14.8564L77.6152 14.864ZM80.2553 26.8765C80.2553 28.5899 79.0483 29.7892 77.4122 29.7892C75.776 29.7892 74.569 28.5899 74.569 26.8765C74.569 25.1632 75.776 23.9638 77.4122 23.9638C79.0483 23.9638 80.2553 25.1632 80.2553 26.8765ZM82.3244 26.8765C82.3244 24.2227 80.2553 22.1667 77.4122 22.1667C74.569 22.1667 72.4999 24.2227 72.4999 26.8765C72.4999 29.5303 74.569 31.5863 77.4122 31.5863C80.2553 31.5863 82.3244 29.5303 82.3244 26.8765ZM83.3935 9.2975C83.7383 8.44082 84.6004 7.50038 86.1523 7.50038C87.616 7.50038 88.3938 8.35705 88.5663 9.2975H83.3935ZM83.3092 10.8395H90.463V10.2075C90.463 7.41661 88.7387 5.70326 86.068 5.70326C83.3973 5.70326 81.4125 7.75928 81.4125 10.4131C81.4125 13.0669 83.3935 15.1229 86.1868 15.1229C88.5663 15.1229 89.8575 14.0949 89.8575 14.0949V12.2102H89.6008C89.6008 12.2102 88.5663 13.322 86.4128 13.322C84.5161 13.322 83.4816 12.2102 83.3092 10.8395ZM92.2447 38.7482H90.5204V39.7762H92.2447V45.0876C92.2447 46.8847 93.2793 47.9127 94.743 47.9127C95.8618 47.9127 96.5515 47.1436 96.5515 47.1436V46.1156H96.3791C96.3791 46.1156 95.7775 46.8847 94.8273 46.8847C93.877 46.8847 93.2754 46.3707 93.2754 45.0876V39.7762H96.2067V38.7482H93.2754V36.0944L92.2409 36.5208V38.7482H92.2447ZM93.057 25.7609C93.4019 24.9043 94.264 23.9638 95.8158 23.9638C97.2796 23.9638 98.0574 24.8205 98.2298 25.7609H93.057ZM92.9727 27.303H100.127V26.6709C100.127 23.8801 98.4023 22.1667 95.7316 22.1667C93.0608 22.1667 91.076 24.2227 91.076 26.8765C91.076 29.5303 93.057 31.5863 95.8503 31.5863C98.2298 31.5863 99.5211 30.5583 99.5211 30.5583V28.6736H99.2644C99.2644 28.6736 98.2298 29.7854 96.0764 29.7854C94.1797 29.7854 93.1452 28.6736 92.9727 27.303ZM102.062 31.3274H104.043V18.5915H102.062V31.3274ZM111.967 43.1991C111.967 45.4264 110.503 46.8809 108.606 46.8809C106.709 46.8809 105.246 45.4264 105.246 43.1991C105.246 40.9717 106.709 39.5173 108.606 39.5173C110.503 39.5173 111.967 40.9717 111.967 43.1991ZM108.518 38.4893C106.192 38.4893 104.207 40.4577 104.207 43.1991C104.207 45.9405 106.188 47.9089 108.518 47.9089C110.848 47.9089 111.878 46.1118 111.878 46.1118H111.967L112.051 47.6538H112.997V38.7482H112.051L111.967 40.2902H111.878C111.878 40.2902 110.844 38.4931 108.518 38.4931M111.694 21.9078C111.694 21.0511 112.384 20.4533 113.591 20.4533C115.488 20.4533 116.522 21.7365 116.522 21.7365L117.212 20.1107C117.212 20.1107 115.921 18.5686 113.507 18.5686C111.093 18.5686 109.541 20.1107 109.541 21.824C109.541 25.7647 115.576 25.5934 115.576 27.9883C115.576 28.9287 114.714 29.7016 113.25 29.7016C111.269 29.7016 109.974 28.4185 109.974 28.4185L109.284 30.0443C109.284 30.0443 110.748 31.5863 113.334 31.5863C116.093 31.5863 117.729 29.9606 117.729 27.817C117.729 24.0476 111.698 24.0476 111.698 21.9078M119.703 35.0702C119.274 35.0702 118.929 35.3253 118.929 35.8393C118.929 36.3533 119.274 36.6084 119.703 36.6084C120.132 36.6084 120.477 36.3533 120.477 35.8393C120.477 35.3253 120.132 35.0702 119.703 35.0702ZM126.765 24.9956H127.033V23.2023C127.033 23.2023 126.083 22.1857 124.04 22.1781C124.033 22.1781 124.021 22.1781 124.013 22.1781C121.347 22.1781 119.285 24.2303 119.285 26.8765C119.285 29.5227 121.35 31.5749 124.013 31.5749C126.079 31.5749 127.033 30.5507 127.033 30.5507V28.7574H126.765C126.765 28.7574 125.906 29.7816 124.27 29.7816C122.55 29.7816 121.262 28.5861 121.262 26.8765C121.262 25.167 122.554 23.9714 124.27 23.9714C124.305 23.9714 124.335 23.9714 124.37 23.9714C125.941 24.0133 126.768 24.9918 126.768 24.9918M135.581 31.3274H137.562V25.8447C137.562 23.5336 136.183 22.1629 134.029 22.1629C131.876 22.1629 131.098 23.7887 131.098 23.7887H131.01V18.5153H129.029V31.3236H131.01V26.5262C131.01 25.0718 132.217 23.9562 133.597 23.9562C134.803 23.9562 135.578 24.6415 135.578 25.9247V31.3198L135.581 31.3274ZM146.981 26.8765C146.981 28.5899 145.774 29.7892 144.138 29.7892C142.501 29.7892 141.294 28.5899 141.294 26.8765C141.294 25.1632 142.501 23.9638 144.138 23.9638C145.774 23.9638 146.981 25.1632 146.981 26.8765ZM149.046 26.8765C149.046 24.2227 146.977 22.1667 144.134 22.1667C141.291 22.1667 139.221 24.2227 139.221 26.8765C139.221 29.5303 141.291 31.5863 144.134 31.5863C146.977 31.5863 149.046 29.5303 149.046 26.8765ZM158.254 26.8765C158.254 28.5899 157.047 29.7892 155.41 29.7892C153.774 29.7892 152.567 28.5899 152.567 26.8765C152.567 25.1632 153.774 23.9638 155.41 23.9638C157.047 23.9638 158.254 25.1632 158.254 26.8765ZM160.323 26.8765C160.323 24.2227 158.254 22.1667 155.41 22.1667C152.567 22.1667 150.498 24.2227 150.498 26.8765C150.498 29.5303 152.567 31.5863 155.41 31.5863C158.254 31.5863 160.323 29.5303 160.323 26.8765ZM164.001 18.5915H162.02V31.3274H164.001V18.5915Z" fill="white"/>
<path d="M24.5647 14.3922C24.5647 13.5203 24.3042 11.9592 23.2543 10.5695C22.3577 9.38538 18.798 7.16563 15.9319 5.2619C14.9203 4.59179 14.0045 3.97498 13.3378 3.50286C11.6404 2.30351 10.8165 0.80718 10.4525 0H10.4219V7.4588C10.4219 9.81943 11.8971 11.1482 12.6558 11.6508C12.7439 11.7079 13.0428 11.9135 13.0428 11.9135C17.5872 14.9633 19.8057 16.5853 20.8709 17.4077C21.4534 17.857 22.76 18.9687 23.1776 19.4294C23.898 20.2214 24.3157 20.8458 24.5417 21.3179H24.5647V14.396V14.3922Z" fill="white"/>
<path d="M25.5508 14.3922C25.5508 13.5203 25.8113 11.9592 26.8612 10.5695C27.7578 9.38538 31.3175 7.16563 34.1836 5.2619C35.1952 4.59179 36.111 3.97498 36.7777 3.50286C38.4751 2.30351 39.299 0.80718 39.663 0H39.6936V7.4588C39.6936 9.81943 38.2184 11.1482 37.4597 11.6508C37.3716 11.7079 37.0727 11.9135 37.0727 11.9135C32.5283 14.9633 30.3098 16.5853 29.2445 17.4077C28.6621 17.857 27.3555 18.9687 26.9379 19.4294C26.2175 20.2214 25.7998 20.8458 25.5738 21.3179H25.5508V14.396V14.3922Z" fill="white"/>
<path d="M25.5508 35.4019C25.5508 36.2738 25.8113 37.8349 26.8612 39.2246C27.7578 40.4087 31.3175 42.6285 34.1836 44.5322C35.1952 45.2023 36.111 45.8191 36.7777 46.2913C38.4751 47.4906 39.299 48.9869 39.663 49.7941H39.6936V42.3353C39.6936 39.9747 38.2184 38.6459 37.4597 38.1433C37.3716 38.0862 37.0727 37.8806 37.0727 37.8806C32.5283 34.8308 30.3098 33.2088 29.2445 32.3864C28.6621 31.9371 27.3555 30.8254 26.9379 30.3685C26.2175 29.5765 25.7998 28.9521 25.5738 28.48H25.5508V35.4019Z" fill="white"/>
<path d="M24.5647 35.4019C24.5647 36.2738 24.3042 37.8349 23.2543 39.2246C22.3577 40.4087 18.798 42.6285 15.9319 44.5322C14.9203 45.2023 14.0045 45.8191 13.3378 46.2913C11.6404 47.4906 10.8165 48.9869 10.4525 49.7941H10.4219V42.3353C10.4219 39.9747 11.8971 38.6459 12.6558 38.1433C12.7439 38.0862 13.0428 37.8806 13.0428 37.8806C17.5872 34.8308 19.8057 33.2088 20.8709 32.3864C21.4534 31.9371 22.76 30.8254 23.1776 30.3685C23.898 29.5765 24.3157 28.9521 24.5417 28.48H24.5647V35.4019Z" fill="white"/>
<path d="M35.63 24.4093C36.5075 24.4093 38.0785 24.1504 39.4771 23.1071C40.6687 22.2162 42.9026 18.6791 44.8185 15.8311C45.4929 14.8259 46.1136 13.9159 46.5887 13.2534C47.7957 11.5667 49.3016 10.7481 50.1139 10.3864V10.356H42.6076C40.2319 10.356 38.8947 11.8218 38.3889 12.5757C38.3314 12.6633 38.1245 12.9603 38.1245 12.9603C35.0553 17.4759 33.423 19.6804 32.5953 20.7389C32.1432 21.3176 31.0243 22.616 30.5607 23.031C29.7637 23.7468 29.1353 24.1618 28.6602 24.3864V24.4093H35.6262H35.63Z" fill="white"/>
<path d="M35.63 25.3843C36.5075 25.3843 38.0785 25.6432 39.4771 26.6864C40.6687 27.5774 42.9026 31.1145 44.8185 33.9625C45.4929 34.9676 46.1136 35.8776 46.5887 36.5401C47.7957 38.2268 49.3016 39.0454 50.1139 39.4071V39.4376H42.6076C40.2319 39.4376 38.8947 37.9717 38.3889 37.2178C38.3314 37.1303 38.1245 36.8333 38.1245 36.8333C35.0553 32.3177 33.423 30.1131 32.5953 29.0547C32.1432 28.4759 31.0243 27.1776 30.5607 26.7626C29.7637 26.0468 29.1353 25.6318 28.6602 25.4071V25.3843H35.6262H35.63Z" fill="white"/>
<path d="M14.4839 25.3843C13.6064 25.3843 12.0354 25.6432 10.6368 26.6864C9.44517 27.5774 7.21128 31.1145 5.29542 33.9625C4.62104 34.9676 4.00031 35.8776 3.52517 36.5401C2.31818 38.2268 0.812323 39.0454 0 39.4071V39.4376H7.50632C9.88198 39.4376 11.2192 37.9717 11.725 37.2178C11.7825 37.1303 11.9894 36.8333 11.9894 36.8333C15.0586 32.3177 16.6909 30.1131 17.5186 29.0547C17.9707 28.4759 19.0896 27.1776 19.5532 26.7626C20.3502 26.0468 20.9786 25.6318 21.4537 25.4071V25.3843H14.4877H14.4839Z" fill="white"/>
<path d="M14.4839 24.4093C13.6064 24.4093 12.0354 24.1504 10.6368 23.1071C9.44517 22.2162 7.21128 18.6791 5.29542 15.8311C4.62104 14.8259 4.00031 13.9159 3.52517 13.2534C2.31818 11.5667 0.812323 10.7481 0 10.3864V10.356H7.50632C9.88198 10.356 11.2192 11.8218 11.725 12.5757C11.7825 12.6633 11.9894 12.9603 11.9894 12.9603C15.0586 17.4759 16.6909 19.6804 17.5186 20.7389C17.9707 21.3176 19.0896 22.616 19.5532 23.031C20.3502 23.7468 20.9786 24.1618 21.4537 24.3864V24.4093H14.4877H14.4839Z" fill="white"/>
</svg>
