<svg width="1280" height="203" viewBox="0 0 1280 203" fill="none" xmlns="http://www.w3.org/2000/svg">
<g clip-path="url(#clip0_37_149)">
<g clip-path="url(#clip1_37_149)">
<path d="M334.201 202.358L403.92 0.783203H466.556L535.265 202.358H487.695L474.132 158.033H394.618L380.897 202.358H334.247H334.201ZM463.013 121.666L434.677 28.7685L405.916 121.666H463.036H463.013Z" fill="#D4F2DE"/>
<path d="M546.637 202.362V0.720703H646.665C658.03 0.720703 668.207 2.15127 677.242 5.01238C686.276 7.8735 693.921 11.964 700.22 17.2392C706.52 22.5143 711.339 28.9295 714.679 36.4399C718.02 43.9504 719.701 52.3773 719.701 61.676C719.701 69.8122 718.378 77.1885 715.733 83.8496C713.088 90.4883 709.343 96.2105 704.458 100.972C699.57 105.733 693.696 109.465 686.792 112.17C679.888 114.875 672.176 116.372 663.634 116.641C671.683 117.199 678.789 120.15 684.954 125.493C691.096 130.834 696.387 138.456 700.826 148.359L725.149 202.34H675.605L651.081 148.493C649.287 144.492 647.472 141.206 645.633 138.591C643.795 135.975 641.71 133.896 639.401 132.354C637.091 130.812 634.447 129.717 631.443 129.114C628.438 128.51 624.852 128.197 620.659 128.197H591.315V202.34H546.637V202.362ZM641.486 92.2765C646.754 92.2765 651.485 91.6506 655.632 90.4212C659.779 89.1694 663.298 87.3589 666.167 84.9896C669.037 82.6201 671.234 79.7143 672.736 76.2498C674.238 72.7851 675 68.851 675 64.4477C675 55.7525 672.109 49.0915 666.303 44.4646C660.519 39.8375 652.201 37.5129 641.419 37.5129H591.293V92.2765H641.486Z" fill="#D4F2DE"/>
<path d="M741.809 0.783203H815.539C825.717 0.783203 835.289 1.85613 844.279 3.9796C853.246 6.12545 861.54 9.23244 869.118 13.3229C876.695 17.4135 883.51 22.398 889.519 28.2544C895.526 34.1107 900.638 40.7942 904.83 48.2822C909.021 55.748 912.227 63.9513 914.469 72.87C916.711 81.7886 917.832 91.3554 917.832 101.548C917.832 111.741 916.711 121.308 914.469 130.226C912.227 139.145 909.021 147.349 904.83 154.815C900.638 162.279 895.526 168.963 889.519 174.842C883.51 180.721 876.717 185.706 869.118 189.795C861.54 193.886 853.246 196.993 844.234 199.139C835.222 201.285 825.673 202.336 815.539 202.336H741.809V0.783203ZM814.531 164.157C823.767 164.157 831.994 162.794 839.235 160.044C846.477 157.296 852.574 153.272 857.551 147.952C862.528 142.632 866.316 136.105 868.938 128.327C871.562 120.548 872.862 111.629 872.862 101.571C872.862 91.5119 871.562 82.5934 868.938 74.8146C866.316 67.036 862.528 60.4867 857.551 55.1892C852.574 49.8693 846.477 45.8458 839.235 43.0964C831.994 40.3471 823.767 38.9837 814.531 38.9837H786.038V164.157H814.531Z" fill="#D4F2DE"/>
<path d="M1076.3 0.783203V38.6931H981.298V83.7333H1068.1V119.676H981.298V164.425H1078.84V202.336H936.619V0.783203H1076.3Z" fill="#D4F2DE"/>
<path d="M1280.01 202.358H1216.61L1137.73 40.593V202.358H1094.89V0.783203H1162.46L1237.18 152.959V0.783203H1280.01V202.358Z" fill="#D4F2DE"/>
<path d="M322.914 83.9186L248.33 83.7622L210.511 83.6951L210.422 123.93L252.947 124.019C249.159 127.842 245.168 131.462 241.021 134.815C215.936 155.067 186.816 166.421 164.936 164.499C156.575 163.761 150.364 161.057 146.509 156.498C130.166 137.184 154.063 93.642 186.345 67.579C209.592 48.8252 236.314 37.6937 257.476 37.6937C259.158 37.6937 260.817 37.7608 262.408 37.9172C270.77 38.6549 276.98 41.3595 280.835 45.9194C284.647 50.4123 286.238 56.2239 286.081 62.8178H326.075C326.276 47.5959 321.927 33.6926 312.489 22.561C301.684 9.7978 285.678 2.15326 266.22 0.409758C233.287 -2.51841 193.564 11.9437 159.937 39.0795C105.193 83.248 85.376 145.097 114.833 179.878C125.638 192.641 141.644 200.286 161.103 202.029C163.905 202.275 166.729 202.409 169.621 202.409C200.715 202.409 236.606 188.194 267.385 163.359C272.788 159.001 277.832 154.463 282.516 149.814V202.409H322.869V83.9633L322.914 83.9186Z" fill="#D4F2DE"/>
<path d="M70.4852 10.0572C65.9793 11.689 66.181 9.78899 63.0201 9.27488C60.3076 8.85018 53.3805 8.62666 50.3991 8.64901C48.9419 8.64901 47.1932 8.80549 46.0276 9.83369C44.9515 10.7725 39.7954 17.8359 38.6521 19.4899C31.3216 30.1298 22.7132 46.0447 17.7814 57.9139C16.638 60.6409 14.1273 72.2195 11.3475 72.3089C8.74701 72.3983 7.13294 69.5372 7.24503 67.1455C7.35711 64.8656 20.4491 43.4071 22.6907 39.2272C27.7796 29.7945 32.5321 20.1605 37.464 10.6384L36.1414 9.83369C27.3312 11.8007 18.2297 12.0243 9.3747 13.9018C6.55008 14.483 -0.645991 18.6183 0.0265391 11.689C0.542146 6.36906 10.2266 8.44784 14.1048 8.13491C19.7989 7.66551 25.5154 6.50318 31.187 5.96671C36.814 5.43025 36.0293 6.8161 41.3871 4.08911C44.5032 2.50208 44.6153 3.97734 46.6329 4.26792C54.5014 5.36319 60.5767 3.88794 68.1538 2.81501C74.1168 1.96562 76.2242 7.97843 70.4852 10.0796V10.0572Z" fill="#D4F2DE"/>
<path d="M86.479 49.8971C86.2324 50.3665 80.6281 55.8205 79.5969 57.0051C73.8355 60.9616 66.4153 70.6179 58.2553 67.8462C55.5203 66.9073 57.0671 61.8557 57.4707 59.6427L63.6355 45.4936C61.4162 47.2819 58.9278 48.8465 56.7532 50.7017C53.8838 53.1382 47.6068 58.6593 45.4771 61.3863C42.944 64.605 41.7334 71.4225 36.2187 69.5225C31.6231 67.9356 38.6622 58.8604 39.5141 56.7145C39.671 56.3346 46.7549 43.9066 47.3827 42.9901C54.2873 32.9763 58.7933 20.2577 64.7563 9.84141C64.9356 9.52848 69.3744 4.54387 69.6659 4.32035C73.0509 1.63805 77.3551 3.51566 76.4135 8.32144C74.4408 18.5142 58.5467 32.708 52.6733 42.2301C50.9023 45.1136 50.2073 45.6724 48.5708 48.0194C48.1 48.69 45.0736 54.0099 45.0064 54.524C44.6029 57.6534 48.2794 53.0712 48.4812 52.8476C53.7045 47.5501 60.0934 43.996 65.3617 38.9668C67.6706 37.4467 72.0197 39.2796 71.5265 42.3195C71.0109 45.4489 64.4201 53.3841 63.0078 58.011C62.5595 59.4639 61.7748 61.2745 63.1871 62.5262C68.9709 63.9791 79.7762 53.0041 82.2869 49.2488C82.7129 48.6229 83.9011 48.0641 84.4614 46.9019C85.6721 47.7513 87.1291 48.6677 86.5015 49.9194L86.479 49.8971ZM59.5331 27.3882C60.8557 28.6398 68.3656 17.2401 68.8364 16.1001C69.2398 15.1166 69.5986 14.2448 69.4416 13.1272C65.2944 17.0613 62.4474 22.5152 59.5331 27.3882Z" fill="#D4F2DE"/>
<path d="M119.595 49.782C113.632 56.8453 103.073 63.6405 103.073 63.6405C97.581 66.7252 82.8525 71.598 78.7053 65.1157C77.8983 62.9699 75.3651 57.3595 81.6645 49.0667C84.9151 44.7975 96.9758 33.04 103.096 33.04C110.359 33.04 108.431 41.3551 105.091 45.1997C103.41 47.1444 94.6443 52.7102 91.8421 54.6325C89.533 56.2196 79.1313 60.3324 85.1617 63.0146C92.2456 66.1887 105.203 58.723 110.606 54.1183C112.713 52.3078 115.246 50.1844 117.398 47.9043C117.712 47.5692 118.205 47.5244 118.564 47.7926C118.743 47.9043 118.9 48.0385 119.057 48.1502C119.237 48.2843 119.371 48.3961 119.505 48.5079C119.886 48.8208 119.931 49.3797 119.618 49.7597L119.595 49.782ZM85.8341 53.2914C86.5291 54.0736 90.4971 51.0784 91.2144 50.6537C92.268 50.0503 93.5235 48.9773 94.4649 48.4632C97.9397 46.4962 102.782 42.9868 100.675 40.1257C97.7379 37.5105 88.0983 48.7538 86.6412 51.0784C86.1704 51.8161 85.5427 52.129 85.8341 53.2914Z" fill="#D4F2DE"/>
</g>
</g>
<defs>
<clipPath id="clip0_37_149">
<rect width="1280" height="202.357" fill="white"/>
</clipPath>
<clipPath id="clip1_37_149">
<rect width="1280.03" height="202.357" fill="white" transform="translate(-0.0175781 0.00195312)"/>
</clipPath>
</defs>
</svg>
