<svg width="217" height="44" viewBox="0 0 217 44" fill="none" xmlns="http://www.w3.org/2000/svg">
<mask id="mask0_24_1011" style="mask-type:luminance" maskUnits="userSpaceOnUse" x="0" y="0" width="217" height="44">
<path d="M217 0H0V43.8867H217V0Z" fill="white"/>
</mask>
<g mask="url(#mask0_24_1011)">
<path d="M208.764 43.6494C192.518 20.4804 167.09 4.3493 137.816 0.474609C137.738 0.474468 137.699 0.434402 137.699 0.355469C137.699 0.276834 137.738 0.237446 137.816 0.237305H208.764V43.6494ZM197.068 3.43945C196.323 10.8325 196.48 10.5955 188.945 11.5049C192.398 11.7421 194.4 12.0581 195.537 13.0859C196.754 14.2325 196.598 18.384 197.068 25.54C197.54 18.384 197.382 14.2325 198.599 13.0859C199.737 12.0581 201.738 11.7421 205.19 11.5049C197.657 10.6351 197.814 10.872 197.068 3.43945Z" fill="white"/>
<path d="M47.5982 27.3997V42.8588H51.8362V30.2859C53.2488 29.0602 54.2691 29.4556 57.0944 31.7883L58.821 27.9136C57.9577 27.5578 56.859 27.1229 55.2894 27.1229C53.7197 27.1229 52.5032 27.9136 51.9539 28.5858L51.7577 28.823L51.7185 28.7835L51.7577 27.3601L47.5982 27.3997ZM64.7855 19.2153H60.5476V42.8193H64.7855C64.7855 42.8588 64.7855 19.2153 64.7855 19.2153ZM28.4881 35.1095C28.4881 39.4191 31.6665 43.017 36.8071 43.017C41.9476 43.017 45.1261 39.4586 45.1261 35.149C45.1261 30.8395 41.9476 27.281 36.8071 27.281C31.6665 27.281 28.4881 30.7999 28.4881 35.1095ZM118.427 27.3997H114.189V42.8588H118.427V27.3997ZM116.858 20.4411C115.602 20.4411 114.621 21.4295 114.621 22.6947C114.621 23.9599 115.602 24.9483 116.858 24.9483C118.113 24.9483 119.094 23.9599 119.094 22.6947C119.094 21.4295 118.113 20.4411 116.858 20.4411ZM121.056 31.6302C120.664 37.5213 129.218 36.0979 128.983 39.6958C128.866 41.1192 127.649 41.6332 126.315 41.5936C124.196 41.4355 122.901 40.2098 121.763 38.826L120.507 41.6727C122.234 42.6612 124.078 43.1356 125.726 43.2938C129.415 43.531 132.475 41.9495 132.711 38.3516C133.064 32.8163 124.235 33.4885 124.392 30.6812C124.47 29.4556 125.843 28.823 127.295 28.9021C128.747 29.0207 129.885 29.851 131.181 30.9976L132.319 28.4672C130.749 27.7555 129.218 27.4391 127.884 27.3206C123.882 27.0438 121.252 29.1393 121.056 31.6302ZM74.9488 43.1752C76.9501 43.1752 78.559 42.4635 80.0501 41.3169L80.1286 41.3564V42.8193H84.0526V19.2153H79.8147V28.6253C78.6374 27.716 76.8324 27.1624 74.9881 27.1624C72.6729 27.1624 67.1007 28.5858 67.1007 35.3862C67.14 40.4075 71.5349 43.1752 74.9488 43.1752ZM102.614 42.8588H104.418L113.405 22.1016H111.05L104.811 36.691L98.6505 22.1016H93.5095L102.614 42.8588ZM177.681 42.8588V34.3583C177.681 28.5858 173.325 27.1624 170.735 27.1624C168.891 27.1624 167.36 27.8741 165.79 28.9416L165.712 28.9021V27.4391H161.788V42.8984H166.026V30.4045C167.282 29.2974 168.498 28.8626 169.558 28.8626C171.794 28.8626 173.364 31.0371 173.364 33.4094V42.8588H177.681ZM17.4223 24.0785H15.0286L10.202 36.6119L5.06149 22.1807H0.117188L7.72985 42.8193H10.045L14.9893 30.0882L19.8944 42.8193H22.2096L29.8223 22.2597H27.5071L22.2096 36.6119L17.4223 24.0785ZM40.6134 35.1095C40.6134 38.6679 39.4362 41.5146 36.7678 41.5146C34.0995 41.5146 32.9615 38.7074 32.9615 35.1095C32.9615 31.5116 34.1388 28.7044 36.8071 28.7044C39.4755 28.7044 40.6134 31.5511 40.6134 35.1095ZM142.442 35.1095C142.442 39.4191 145.621 42.9775 150.762 42.9775C155.902 42.9775 159.081 39.4191 159.081 35.1095C159.081 30.7999 155.902 27.2415 150.762 27.2415C145.621 27.2415 142.442 30.7999 142.442 35.1095ZM154.607 35.1095C154.607 38.6679 153.43 41.5146 150.762 41.5146C148.093 41.5146 146.916 38.6679 146.916 35.1095C146.916 31.5511 148.093 28.7044 150.762 28.7044C153.43 28.7044 154.607 31.5511 154.607 35.1095ZM79.8147 30.4835V39.8144C78.7159 40.7633 77.6957 41.475 76.1261 41.475C74.2425 41.475 71.8096 39.854 71.8096 35.2281C71.8096 30.2068 75.6944 26.5693 79.8147 30.4835Z" fill="white"/>
<path d="M139.656 27.4004H135.418V42.8596H139.656V27.4004Z" fill="white"/>
<path d="M137.693 20.4014C136.438 20.4014 135.457 21.3898 135.457 22.6551C135.457 23.9203 136.438 24.9087 137.693 24.9087C138.949 24.9087 139.93 23.9203 139.93 22.6551C139.93 21.3898 138.949 20.4014 137.693 20.4014Z" fill="white"/>
<path d="M216.141 1.97684C216.533 2.37222 216.769 2.88621 216.769 3.47927C216.769 4.07234 216.573 4.54678 216.141 4.94216C215.709 5.33753 215.239 5.57476 214.65 5.57476C214.061 5.57476 213.591 5.37707 213.159 4.94216C212.766 4.50725 212.531 4.0328 212.531 3.47927C212.531 2.92574 212.728 2.41175 213.159 1.97684C213.591 1.54193 214.061 1.34424 214.65 1.34424C215.239 1.34424 215.749 1.58147 216.141 1.97684ZM215.984 4.78401C216.337 4.42817 216.533 3.99326 216.533 3.43973C216.533 2.88621 216.337 2.49083 215.984 2.13499C215.631 1.77915 215.199 1.58147 214.689 1.58147C214.179 1.58147 213.747 1.77915 213.394 2.13499C213.041 2.49083 212.845 2.92574 212.845 3.43973C212.845 3.95372 213.041 4.38863 213.394 4.74447C213.747 5.10031 214.179 5.298 214.689 5.298C215.199 5.298 215.631 5.17939 215.984 4.78401ZM213.787 2.29314H214.767C215.042 2.29314 215.239 2.33268 215.356 2.45129C215.513 2.56991 215.553 2.72806 215.553 2.92574C215.553 3.08389 215.474 3.24204 215.356 3.36065C215.239 3.47927 215.121 3.55834 214.964 3.55834C215.042 3.59788 215.16 3.63742 215.199 3.7165C215.278 3.75603 215.317 3.87465 215.395 3.95372L215.827 4.62586H215.278L214.925 4.0328C214.846 3.87465 214.729 3.75603 214.689 3.7165C214.65 3.67696 214.532 3.67696 214.415 3.67696H214.257V4.62586H213.787V2.29314ZM214.571 3.36065C214.729 3.36065 214.846 3.32112 214.925 3.28158C215.003 3.2025 215.042 3.12343 215.042 3.00481C215.042 2.7676 214.885 2.64898 214.571 2.64898H214.257V3.40019L214.571 3.36065Z" fill="white"/>
<path d="M182.27 27.3606C182.662 27.756 182.898 28.27 182.898 28.863C182.898 29.4561 182.702 29.9306 182.27 30.326C181.839 30.7213 181.368 30.9585 180.779 30.9585C180.191 30.9585 179.719 30.7608 179.288 30.326C178.895 29.891 178.66 29.4166 178.66 28.863C178.66 28.3095 178.856 27.7955 179.288 27.3606C179.719 26.9257 180.191 26.728 180.779 26.728C181.368 26.728 181.878 26.9257 182.27 27.3606ZM182.113 30.1677C182.467 29.8119 182.662 29.377 182.662 28.863C182.662 28.3491 182.467 27.9141 182.113 27.5583C181.76 27.2024 181.329 27.0048 180.819 27.0048C180.308 27.0048 179.877 27.2024 179.523 27.5583C179.17 27.9141 178.974 28.3491 178.974 28.863C178.974 29.377 179.17 29.8119 179.523 30.1677C179.877 30.5237 180.308 30.7213 180.819 30.7213C181.329 30.7213 181.76 30.5237 182.113 30.1677ZM179.916 27.6374H180.896C181.171 27.6374 181.368 27.6769 181.485 27.7955C181.643 27.9141 181.682 28.0723 181.682 28.27C181.682 28.4281 181.643 28.5862 181.485 28.7049C181.329 28.8235 181.211 28.9026 181.015 28.9026C181.093 28.9421 181.211 28.9816 181.25 29.0212C181.329 29.1002 181.368 29.1398 181.446 29.2584L181.878 29.9306H181.329L180.975 29.3375C180.896 29.1793 180.779 29.0607 180.74 29.0212C180.661 28.9816 180.583 28.9816 180.505 28.9816H180.308V29.9306H179.837L179.916 27.6374ZM180.701 28.7444C180.857 28.7444 180.975 28.7049 181.054 28.6654C181.132 28.5862 181.211 28.5072 181.211 28.3885C181.211 28.1514 181.054 28.0327 180.74 28.0327H180.387V28.7839L180.701 28.7444Z" fill="white"/>
</g>
</svg>
