<svg preserveAspectRatio="none" width="153" height="57" overflow="visible" style="display: block;" viewBox="0 0 153 57" fill="none" xmlns="http://www.w3.org/2000/svg">
<g id="Frasers" clip-path="url(#clip0_0_4)">
<path id="Vector" d="M58.9575 29.5759C56.8659 30.2756 41.0509 38.1922 29.375 57C27.963 54.5445 26.2244 52.089 24.3049 49.6995C31.8152 37.5585 44.9297 31.3273 58.9531 29.5759M21.9485 46.8832C19.8658 44.4981 17.6506 42.2098 15.4619 40.0844C22.0986 34.927 31.727 32.181 41.2098 30.7905C42.5468 30.5924 45.5518 30.3108 45.7283 30.324C32.9052 34.4605 25.6772 41.7214 21.9441 46.8788M13.1012 37.8445C11.0625 35.9523 9.09889 34.2361 7.33825 32.7487C13.6175 30.0336 25.0904 28.1326 31.1445 28.2602C34.1187 28.3218 36.9472 28.5682 38.1298 28.8938C25.5051 30.9137 17.7521 34.5749 13.1012 37.8445ZM4.64653 30.522C1.84008 28.2514 0 26.9136 0 26.9136C5.80705 25.5098 17.9419 23.7276 26.2685 25.6111C26.8775 25.7475 27.4644 25.8883 28.0336 26.0291C16.0621 26.9752 8.87385 28.841 4.64653 30.5176" fill="var(--fill-0, #ED1C24)"/>
<path id="Vector_2" d="M8.89062 21.831C23.1479 15.8463 29.3786 0 29.3786 0C30.517 2.45109 32.1894 4.93739 34.1089 7.33567C28.6549 16.1543 19.0883 20.6341 8.89062 21.831ZM35.8078 9.35992C37.3037 11.0717 38.8967 12.7175 40.4676 14.2445C35.6975 17.9453 28.7829 19.9212 21.9697 20.9201C21.0122 21.0609 18.85 21.2633 18.722 21.2545C27.9356 18.2798 33.1249 13.0652 35.8078 9.35992ZM42.162 15.8507C43.627 17.2105 45.0391 18.4426 46.3011 19.5119C41.7914 21.4614 33.5485 22.8299 29.1977 22.7375C27.0619 22.6935 25.0277 22.5175 24.1805 22.2799C33.2529 20.8277 38.8217 18.2006 42.1576 15.8507M48.2383 21.1093C50.2549 22.7419 51.5742 23.7012 51.5742 23.7012C47.3999 24.7089 38.6849 25.9895 32.7057 24.6341C32.2689 24.5329 31.8453 24.4361 31.4393 24.3349C40.0396 23.6572 45.2024 22.3151 48.2383 21.1093Z" fill="var(--fill-0, #817979)"/>
<path id="Vector_3" d="M84.153 29.6068L79.9919 22.2624H79.7712V29.6068H76.2676V13.7209H82.0923C85.4018 13.7209 87.0653 15.0939 87.0653 17.435C87.0653 19.7761 85.4636 21.3471 83.4073 21.7211L88.3803 29.6068H84.153ZM80.7994 15.0939H79.7712V21.281C81.6996 21.281 83.4779 20.8234 83.4779 17.919C83.4779 16.4713 83.1469 15.0983 80.8038 15.0983" fill="var(--fill-0, black)"/>
<path id="Vector_4" d="M67.5445 15.4018V20.5593H73.1265V22.2579H67.5445V29.6067H64.0409V13.7208H73.2368V15.4018H67.5445Z" fill="var(--fill-0, black)"/>
<path id="Vector_5" d="M100.274 29.6068L98.628 24.9027H93.3682L91.5766 29.6068H89.4453L96.0202 13.7166H97.7985L104.197 29.6068H100.278H100.274ZM96.0202 18.1127L93.8933 23.5033H98.125L96.0202 18.1127Z" fill="var(--fill-0, black)"/>
<path id="Vector_6" d="M109.235 29.9104C107.849 29.9104 106.671 29.6948 105.4 28.8851L106.124 25.9367H106.539C106.782 27.4901 108.185 28.5154 109.76 28.5154C111.56 28.5154 112.496 27.5297 112.496 26.2184C112.496 24.643 111.291 23.9697 109.888 23.3404C107.916 22.4119 105.506 21.5406 105.506 18.1962C105.506 15.4019 107.567 13.4172 110.832 13.4172C112.359 13.4172 113.546 13.7165 114.601 14.5042L113.859 16.8188H113.506C113.175 15.5515 112.037 14.8078 110.832 14.8078C109.341 14.8078 108.269 15.4019 108.269 16.9289C108.269 18.4558 109.888 19.1423 111.574 19.9828C113.418 20.9465 115.369 22.1039 115.369 24.9246C115.369 27.9258 112.739 29.9104 109.235 29.9104Z" fill="var(--fill-0, black)"/>
<path id="Vector_7" d="M117.822 29.6067V13.7208H126.661V15.4018H121.322V20.5593H126.551V22.2579H121.322V27.9213H126.661V29.6067H117.822Z" fill="var(--fill-0, black)"/>
<path id="Vector_8" d="M137.486 29.6068L133.32 22.2624H133.099V29.6068H129.596V13.7209H135.429C138.734 13.7209 140.402 15.0939 140.402 17.435C140.402 19.7761 138.801 21.3471 136.744 21.7211L141.717 29.6068H137.49H137.486ZM134.132 15.0939H133.099V21.281C135.023 21.281 136.802 20.8234 136.802 17.919C136.802 16.4713 136.479 15.0983 134.132 15.0983" fill="var(--fill-0, black)"/>
<path id="Vector_9" d="M146.861 29.9104C145.485 29.9104 144.298 29.6948 143.031 28.8851L143.759 25.9367H144.17C144.412 27.4901 145.811 28.5154 147.391 28.5154C149.187 28.5154 150.127 27.5297 150.127 26.2184C150.127 24.643 148.922 23.9697 147.519 23.3404C145.551 22.4119 143.142 21.5406 143.142 18.1962C143.142 15.4019 145.198 13.4172 148.463 13.4172C149.999 13.4172 151.181 13.7165 152.227 14.5042L151.486 16.8188H151.137C150.802 15.5515 149.668 14.8078 148.463 14.8078C146.972 14.8078 145.895 15.4019 145.895 16.9289C145.895 18.4558 147.519 19.1423 149.205 19.9828C151.049 20.9465 152.995 22.1039 152.995 24.9246C152.995 27.9258 150.365 29.9104 146.857 29.9104" fill="var(--fill-0, black)"/>
<path id="Vector_10" d="M66.0177 39.1383V42.9975H64.0409V33.9809H67.0944C68.7183 33.9809 70.1039 34.3769 70.1039 36.2295C70.1039 38.531 68.4623 39.1383 66.0177 39.1383ZM66.6532 34.7597H66.0177V38.355C67.0635 38.355 68.0652 37.9809 68.0652 36.4936C68.0652 35.1338 67.3283 34.7641 66.6532 34.7641" fill="var(--fill-0, black)"/>
<path id="Vector_11" d="M76.233 43.0019L73.8855 38.8302H73.7575V43.0019H71.7851V33.9853H75.0725C76.9346 33.9853 77.8745 34.7597 77.8745 36.0887C77.8745 37.4177 76.9744 38.311 75.8182 38.5222L78.6203 43.0019H76.233ZM74.34 34.7597H73.7575V38.2758C74.8519 38.2758 75.8447 38.0117 75.8447 36.3659C75.8447 35.5474 75.6638 34.7597 74.34 34.7597Z" fill="var(--fill-0, black)"/>
<path id="Vector_12" d="M84.2641 43.1736C81.6694 43.1736 79.344 41.8842 79.344 38.597C79.344 35.9347 81.1973 33.8136 84.445 33.8136C87.6927 33.8136 89.4357 35.5254 89.4357 38.597C89.4357 41.2637 87.1014 43.1736 84.2597 43.1736M84.445 34.5881C82.1107 34.5881 81.5459 36.9028 81.5459 38.8258C81.5459 41.2901 82.7991 42.3727 84.2641 42.3727C86.0115 42.3727 87.247 40.8545 87.247 38.2318C87.247 36.3571 86.3115 34.5837 84.445 34.5837" fill="var(--fill-0, black)"/>
<path id="Vector_13" d="M93.2313 39.1384V42.9976H91.25V33.981H94.308C95.9318 33.981 97.3218 34.377 97.3218 36.2296C97.3218 38.5311 95.6759 39.1384 93.2313 39.1384ZM93.8579 34.7598H93.2313V38.3551C94.2771 38.3551 95.2788 37.981 95.2788 36.4937C95.2788 35.1339 94.5374 34.7642 93.8579 34.7642" fill="var(--fill-0, black)"/>
<path id="Vector_14" d="M98.9979 43.0019V33.9809H103.922V34.9358H100.979V37.8621H103.861V38.8302H100.979V42.0426H103.922V43.0019H98.9979Z" fill="var(--fill-0, black)"/>
<path id="Vector_15" d="M110.581 43.002L108.238 38.8303H108.11V43.002H106.133V33.9854H109.42C111.282 33.9854 112.227 34.7598 112.227 36.0888C112.227 37.4178 111.322 38.3111 110.162 38.5223L112.964 43.002H110.581ZM108.697 34.7598H108.11V38.2759C109.204 38.2759 110.197 38.0118 110.197 36.366C110.197 35.5475 110.012 34.7598 108.692 34.7598" fill="var(--fill-0, black)"/>
<path id="Vector_16" d="M117.708 34.9359V43.002H115.713V34.9359H113.344V33.981H120.077V34.9359H117.708Z" fill="var(--fill-0, black)"/>
<path id="Vector_17" d="M126.136 38.8698V43.0019H124.146V39.1955L121.361 33.9809H123.484L125.672 37.9985L127.698 33.9809H128.907L126.136 38.8698Z" fill="var(--fill-0, black)"/>
</g>
<defs>
<clipPath id="clip0_0_4">
<rect width="153" height="57" fill="white"/>
</clipPath>
</defs>
</svg>
