<svg preserveAspectRatio="none" width="168" height="48.3137" overflow="visible" style="display: block;" viewBox="0 0 168 48.3137" fill="none" xmlns="http://www.w3.org/2000/svg">
<g id="LandscapeLogo.rgb Copy">
<g id="Group 3">
<mask id="mask0_0_4" style="mask-type:luminance" maskUnits="userSpaceOnUse" x="0" y="0" width="168" height="49">
<path id="Clip 2" fill-rule="evenodd" clip-rule="evenodd" d="M0 0H168V48.3137H0V0Z" fill="var(--fill-0, white)"/>
</mask>
<g mask="url(#mask0_0_4)">
<path id="Fill 1" fill-rule="evenodd" clip-rule="evenodd" d="M166.145 0H1.85386C0.834001 0 0 0.839931 0 1.87191V46.4564C0 47.4913 0.834001 48.3281 1.85386 48.3281H166.145C167.166 48.3281 168 47.4913 168 46.4564V1.87191C168 0.839931 167.166 0 166.145 0" fill="var(--fill-0, #FFFFFE)"/>
</g>
</g>
<path id="Fill 4" fill-rule="evenodd" clip-rule="evenodd" d="M93.8166 41.264V24.8822H103.386L105.733 32.6277L108.108 24.8822H117.651V41.264H110.364V33.2412L107.786 41.264H103.656L101.1 33.2412V41.264H93.8166V41.264ZM59.6753 41.2641V36.0094H63.6603V41.2641H71.1335V24.8823H63.6603V30.5448H59.7092V24.8823H52.1742V41.2641H59.6753ZM144.33 41.6854C148.46 41.6854 150.69 40.9449 151.401 40.5892C153.395 39.5648 154.435 37.713 154.435 35.5535C154.435 33.2413 153.395 31.7671 151.203 31.1971C149.444 30.7485 147.631 30.921 145.848 30.8431C144.742 30.8012 144.692 30.4742 144.692 30.26C144.692 30.0019 144.784 29.753 145.421 29.663C145.46 29.663 146.018 29.6164 146.875 29.6164C147.015 29.6164 147.179 29.6164 147.325 29.6164C149.458 29.6164 151.499 29.762 153.64 30.1101V25.1806C150.836 24.6799 148.292 24.4728 146.36 24.4728C141.89 24.4728 140.169 25.2122 139.251 25.7774C137.523 26.8544 136.713 28.3553 136.713 30.5448C136.713 33.022 137.797 34.5759 139.716 35.3437C140.317 35.5715 141.467 35.8475 143.273 35.8475C143.739 35.8475 144.226 35.8354 144.709 35.8354C145.795 35.8354 145.903 35.8999 145.974 35.9344C146.266 36.0394 146.347 36.2056 146.347 36.3916C146.347 36.6978 146.233 36.9122 145.661 37.0156C145.623 37.0156 144.978 37.0755 144.094 37.0755C143.78 37.0755 143.464 37.0755 143.151 37.0755C141.98 37.0755 139.789 36.9287 137.311 36.5285V41.0407C140.158 41.5234 142.374 41.6854 144.33 41.6854ZM135.884 41.2641V36.7294H126.414V35.5203H135.67V31.5333H126.425V30.278H135.884V24.8823H118.936L118.959 41.2641H135.884ZM92.744 33.0285C92.744 36.2436 91.6206 38.5486 89.7394 40.0601C88.4579 41.1022 85.9771 42.1324 82.4489 42.0005C82.3464 42.0005 82.2456 42.0005 82.168 42.0005C78.6601 42.0005 76.4735 41.0319 75.2651 40.0526C73.3958 38.5124 72.2912 36.107 72.2912 33.102C72.2912 29.8626 73.4909 27.4858 75.4508 26.0145C76.6152 25.1328 78.8283 24.1569 82.6098 24.1569C90.0612 24.1569 92.744 28.1051 92.744 33.0285ZM84.3154 32.6982C84.3154 30.4384 83.3178 29.5656 82.1929 29.5656C81.0299 29.5656 80.0588 30.3843 80.0588 32.697C80.0588 35.0842 81.0708 35.9 82.1432 35.8685C82.168 35.8685 82.1929 35.8685 82.1929 35.8685C83.35 35.8685 84.3154 35.0003 84.3154 32.6982V32.6982Z" fill="var(--fill-0, #1F3253)"/>
<path id="Fill 5" fill-rule="evenodd" clip-rule="evenodd" d="M145.832 17.6931V13.4122H153.391V20.7933C149.353 21.7939 146.853 22.0562 144.495 22.0562C142.548 22.0562 137.494 21.9932 134.957 18.4859C134.144 17.3416 133.512 15.5718 133.512 13.7227C133.512 11.065 134.474 9.10315 136.103 7.68495C137.42 6.51134 139.737 5.25146 145.405 5.25146C148.166 5.25146 150.744 5.53562 153.092 6.05417V11.6701C150.201 11.2188 148.311 11.1032 146.983 11.1032C145.286 11.1032 144.356 11.2802 144.068 11.3653C142.243 11.8796 141.405 13.0925 141.405 14.5124C141.405 16.2794 142.707 17.7533 145.039 17.7533C145.286 17.7533 145.562 17.7225 145.832 17.6931V17.6931ZM120.21 21.7721V14.9504L125.463 21.7721H132.514V5.77287H124.679V12.1829L120.313 5.77287H112.264V21.7721H120.21ZM51.4828 22.0562C52.4718 22.0562 53.3727 21.9522 54.1649 21.7794C56.5082 21.1758 57.8579 19.731 57.8579 17.2099L57.8726 5.74084H54.5698L54.5523 16.9387C54.5523 18.3934 54.1502 18.9854 53.5576 19.444C52.8664 20.0154 52.008 20.3055 50.6818 20.3055C49.7751 20.3055 48.2652 20.0154 46.9551 19.3473V21.2973C48.4809 21.8351 50.0478 22.0562 51.4828 22.0562ZM76.2759 13.6289V13.5966H70.2691V15.8384H72.6342V19.1421L72.4991 19.2007C71.4399 19.838 70.1253 20.1676 68.7532 20.1676C67.9434 20.1676 67.1087 20.0738 66.3485 19.8221C64.0523 19.1421 62.1742 17.3253 62.1742 14.0465C62.1742 10.5083 63.9701 8.70336 66.4396 8.02341C67.2466 7.79044 68.1326 7.68498 69.0572 7.68498C71.8479 7.68498 74.2231 8.63723 75.6742 10.4204V7.22354C73.7361 5.97812 71.3238 5.3406 68.8194 5.3406C66.0597 5.3406 63.6343 6.12032 61.9015 7.49443C60.515 8.63723 59.1268 10.7529 59.1268 13.8723C59.1268 18.061 61.6946 20.5606 65.0897 21.5683C66.2165 21.9041 67.455 22.0563 68.6697 22.0563C71.682 22.0563 74.5094 21.0661 76.3153 19.3358V13.6289H76.2759ZM101.051 20.682L95.6372 13.9221L100.979 7.26319V7.22669L102.185 5.77295H92.5238L88.7266 11.6818V5.77295H80.8242V21.7722H88.7266V16.5724L92.647 21.7722H101.926L101.051 20.682ZM103.119 21.7633H110.933V5.78333H103.119V21.7633Z" fill="var(--fill-0, #1F3253)"/>
<path id="Fill 6" fill-rule="evenodd" clip-rule="evenodd" d="M6.26172 6.30176H29.2182L17.1726 20.4946L27.5732 40.9616H6.26172V6.30176" fill="var(--fill-0, #1F3253)"/>
<path id="Fill 7" fill-rule="evenodd" clip-rule="evenodd" d="M39.6526 6.30176V40.9616L27.1309 20.567L39.6526 6.30176" fill="var(--fill-0, #D9362C)"/>
<path id="Fill 8" fill-rule="evenodd" clip-rule="evenodd" d="M159.544 37.5115C159.789 37.5115 160.013 37.4654 160.24 37.3732C160.456 37.2783 160.571 37.0886 160.571 36.807C160.571 36.5465 160.466 36.3731 160.267 36.2867C160.061 36.2 159.856 36.1593 159.635 36.1593H158.862V37.5115H159.544ZM158.028 35.4308H159.668C159.894 35.4308 160.105 35.4521 160.31 35.5063C160.518 35.5553 160.707 35.6366 160.873 35.7474C161.035 35.8587 161.163 36.0022 161.262 36.173C161.358 36.3518 161.411 36.5659 161.411 36.8259C161.411 37.1728 161.31 37.4546 161.118 37.6713C160.918 37.8854 160.659 38.0344 160.326 38.1076L161.592 40.1883H160.571L159.47 38.2025H158.862V40.1883H158.028V35.4308ZM156.137 37.831C156.137 38.3161 156.233 38.7715 156.414 39.2074C156.601 39.6385 156.846 40.0228 157.164 40.348C157.481 40.679 157.851 40.9362 158.275 41.1231C158.707 41.3047 159.166 41.3968 159.651 41.3968C160.139 41.3968 160.598 41.3047 161.027 41.1231C161.451 40.9362 161.824 40.679 162.139 40.348C162.456 40.0228 162.706 39.6385 162.891 39.2074C163.074 38.7715 163.165 38.3161 163.165 37.831C163.165 37.3325 163.074 36.8691 162.891 36.4329C162.706 36.0021 162.456 35.6227 162.139 35.3004C161.824 34.9807 161.451 34.7261 161.027 34.539C160.598 34.3522 160.139 34.257 159.651 34.257C159.166 34.257 158.707 34.3522 158.275 34.539C157.851 34.7261 157.481 34.9807 157.164 35.3004C156.846 35.6227 156.601 36.0021 156.414 36.4329C156.233 36.8691 156.137 37.3325 156.137 37.831ZM155.479 37.831C155.479 37.2461 155.588 36.6983 155.812 36.1837C156.028 35.6686 156.329 35.2246 156.708 34.8426C157.087 34.4656 157.529 34.1651 158.033 33.9427C158.537 33.7208 159.078 33.6095 159.651 33.6095C160.227 33.6095 160.763 33.7208 161.272 33.9427C161.773 34.1651 162.222 34.4656 162.6 34.8426C162.979 35.2246 163.272 35.6686 163.496 36.1837C163.717 36.6983 163.827 37.2461 163.827 37.831C163.827 38.4162 163.717 38.9555 163.496 39.4651C163.272 39.9743 162.979 40.4133 162.6 40.7953C162.222 41.1719 161.773 41.4726 161.272 41.687C160.763 41.9063 160.227 42.0119 159.651 42.0119C159.078 42.0119 158.537 41.9063 158.033 41.687C157.529 41.4726 157.087 41.1719 156.708 40.7953C156.329 40.4133 156.028 39.9743 155.812 39.4651C155.588 38.9555 155.479 38.4162 155.479 37.831V37.831Z" fill="var(--fill-0, #1F3253)"/>
</g>
</svg>
