<svg preserveAspectRatio="none" width="159.647" height="47.0847" overflow="visible" style="display: block;" viewBox="0 0 159.647 47.0847" fill="none" xmlns="http://www.w3.org/2000/svg">
<g id="Macquarie University">
<path id="Vector" d="M60.1905 14.3209L57.9613 10.3444C57.2183 9.03122 56.9571 8.20356 56.9571 8.20356H56.8688C56.8688 8.20356 57.0013 8.99076 57.0013 10.4769V17.3851H54.6397V4.53242H57.2183L60.1022 9.95452C60.6687 11.047 60.8453 11.6172 60.8453 11.6172H60.9336C60.9336 11.6172 61.1101 11.0066 61.6766 9.95452L64.5164 4.53242H67.0067V17.4292H64.6452V10.4805C64.6452 8.95029 64.7334 8.20724 64.7334 8.20724H64.6452C64.6452 8.20724 64.384 9.08272 63.6851 10.3481L61.4559 14.3246H60.1868L60.1905 14.3209ZM77.2845 14.1443H72.1272L70.9906 17.3777H68.5444L73.2639 4.52507H76.2802L80.9593 17.3777H78.4248L77.2881 14.1443H77.2845ZM72.782 12.2205H76.5855L75.7542 9.81474C75.0111 7.75846 74.75 6.31649 74.75 6.31649H74.6617C74.6617 6.31649 74.3564 7.75846 73.6575 9.77059L72.782 12.2168V12.2205ZM92.5833 14.8874C91.4025 16.7671 89.9605 17.6426 87.2936 17.6426C83.8837 17.6426 81.5662 15.2368 81.5662 10.9551C81.5662 6.67331 83.972 4.22343 87.6872 4.22343C90.1334 4.22343 91.7961 5.31594 92.6716 7.37222L90.4424 8.46473C89.9605 7.02276 89.0005 6.23556 87.5585 6.23556C85.2852 6.23556 83.9756 8.02699 83.9756 10.9551C83.9756 13.8831 85.1564 15.5458 87.518 15.5458C88.96 15.5458 89.9642 14.9352 90.7514 13.5778L92.587 14.8911L92.5833 14.8874ZM103.38 20.7877C100.363 20.8318 98.7889 19.434 98.1341 17.5543C95.2943 17.0283 93.5875 14.7145 93.5875 10.9955C93.5875 6.66963 95.8608 4.26389 99.4878 4.26389C103.115 4.26389 105.388 6.66963 105.388 10.9955C105.388 14.8874 103.508 17.2453 100.492 17.6389C101.368 18.5144 102.721 18.8638 104.034 18.7755L103.38 20.7877ZM96.0815 10.9955C96.0815 13.8795 97.2623 15.6746 99.5356 15.6746C101.809 15.6746 103.034 13.8831 103.034 10.9955C103.034 8.10792 101.853 6.31649 99.5356 6.31649C97.2182 6.31649 96.0815 8.06378 96.0815 10.9955ZM117.498 4.52874V13.1842C117.498 16.5942 115.052 17.6867 112.385 17.6867C109.718 17.6867 107.316 16.5501 107.316 13.1842V4.52874H109.677V12.5295C109.677 14.7145 110.553 15.7629 112.432 15.7629C114.312 15.7629 115.188 14.7145 115.188 12.5736V4.52874H117.505H117.498ZM127.161 14.1443H122.004L120.867 17.3777H118.421L123.1 4.52507H126.116L130.795 17.3777H128.261L127.168 14.1443H127.161ZM122.659 12.2205H126.462L125.631 9.81474C124.932 7.75846 124.627 6.31649 124.627 6.31649H124.538C124.538 6.31649 124.233 7.75846 123.534 9.77059L122.659 12.2168V12.2205ZM139.576 17.3777C139.227 17.0283 139.094 16.6347 138.965 16.1086L138.484 13.9678C138.134 12.5699 137.435 12.3051 136.298 12.3051H134.724V17.3336H132.363V4.52507H137.042C139.97 4.52507 141.544 5.70586 141.544 8.28448C141.544 10.2966 140.231 11.3891 138.616 11.5179C139.841 11.6944 140.496 12.2168 140.845 13.53L141.5 16.0204C141.632 16.5464 141.849 16.9804 142.199 17.374H139.576V17.3777ZM134.68 10.4732H136.909C138.395 10.4732 139.094 9.86256 139.094 8.46105C139.094 7.19197 138.395 6.44892 136.909 6.44892H134.68V10.4695V10.4732ZM146.525 4.52874V17.4255H144.163V4.52874H146.525ZM157.803 17.3777H149.629V4.52507H157.803V6.58134H151.947V9.99131H157.104V12.0034H151.947V15.4575H157.803V17.3814V17.3777Z" fill="var(--fill-0, black)"/>
<g id="Group">
<path id="Vector_2" d="M25.7012 25.6391L29.4606 27.78H29.7218L29.6777 27.9124L42.3096 35.2142V11.8264L25.6975 21.442V25.6391H25.7012Z" fill="var(--fill-0, #D6001C)"/>
<path id="Vector_3" d="M14.733 27.7836L18.4483 25.6427V21.4456L1.83619 11.83V35.2178L14.5123 27.916L14.4681 27.7836H14.7293H14.733Z" fill="var(--fill-0, #76232F)"/>
<path id="Vector_4" d="M22.0765 0.154364L42.3156 11.8262V0.154364H22.0765Z" fill="var(--fill-0, #D6001C)"/>
<path id="Vector_5" d="M1.83619 0.154364V11.8262L22.0753 0.154364H1.83619ZM30.3813 31.0611V32.503H29.6824C29.0276 32.8966 28.5899 33.5072 28.4133 34.5152H27.6702L27.7585 36.0896L28.1521 43.3472L42.2702 35.2177L29.6824 27.9159L28.9835 31.0647H30.3813V31.0611ZM29.4617 27.7835L25.7022 25.6426V27.7835H29.4617Z" fill="var(--fill-0, #76232F)"/>
<path id="Vector_6" d="M15.2112 31.0612L14.5123 27.9124L1.83619 35.2142L15.9542 43.3436L16.4361 34.5153H15.7372C15.5606 33.511 15.1266 32.8526 14.4681 32.5031H13.7692V31.0612H15.2112ZM18.4483 25.6391L14.733 27.7799H18.4483V25.6391Z" fill="var(--fill-0, #D6001C)"/>
<path id="Vector_7" d="M22.5563 14.5374C22.6446 14.5374 22.7329 14.5374 22.8175 14.4933C22.9941 14.3167 23.1228 14.0555 23.1228 13.7502C23.1228 13.1837 22.6409 12.7018 22.0744 12.7018C21.9862 12.7018 21.8979 12.7018 21.8133 12.746C21.6367 12.9225 21.508 13.1837 21.508 13.489C21.508 14.0555 21.9898 14.5374 22.5563 14.5374ZM23.7371 34.8206C20.809 34.8647 19.9777 36.6562 19.9777 36.6562L19.8011 37.0056L19.4958 45.4404L22.0744 46.9265L28.1955 43.3841L27.8019 36.1265C27.8019 35.994 27.0588 34.7728 23.7371 34.8132V34.8206Z" fill="var(--fill-0, white)"/>
<path id="Vector_8" d="M13.7683 31.0611V32.5031H14.4672C15.122 32.8967 15.5597 33.5073 15.7363 34.5152H16.4352L15.9533 43.3436L19.5362 45.3999L19.8415 36.9651L20.0181 36.6156C20.0181 36.6156 20.8494 34.8242 23.7775 34.7801C27.0992 34.7359 27.8422 35.9609 27.8863 36.0491L27.7981 34.4747H28.5411C28.7177 33.4705 29.1517 32.8121 29.8102 32.4626H30.5091V31.0206C30.3767 31.0648 13.7683 31.0648 13.7683 31.0648V31.0611Z" fill="var(--fill-0, #B2B2B2)"/>
<path id="Vector_9" d="M22.7731 40.7649C22.7731 40.5037 22.4678 40.066 22.0742 40.066C21.6806 40.066 21.3753 40.5037 21.3753 40.7649V42.5563H22.7731V40.7649Z" fill="var(--fill-0, #B2B2B2)"/>
<path id="Vector_10" d="M19.4096 20.1763V21.1805L22.0765 22.7549L24.7876 21.1805V20.1763H19.4096ZM22.0765 24.3293L19.4096 25.9037V26.9079H24.7876V25.9037L22.0765 24.3293Z" fill="var(--fill-0, #76232F)"/>
<path id="Vector_11" d="M25.7035 19.3008H26.0088C26.2259 19.3008 26.4466 19.4774 26.4466 19.7386C26.4466 19.9556 26.27 20.1763 26.0088 20.1763H25.7035V21.4454L42.3156 11.874L22.0765 0.157956V12.7458C22.643 12.7458 23.1249 13.2276 23.1249 13.7941C23.1249 14.0553 22.9925 14.3201 22.8196 14.5372C22.643 14.6696 22.5584 14.8866 22.5584 15.1037C22.5584 15.3648 22.6908 15.6297 22.9079 15.7584C24.5264 16.152 25.7072 17.594 25.7072 19.3008H25.7035Z" fill="var(--fill-0, #76232F)"/>
<path id="Vector_12" d="M22.0752 26.9081H19.4083V25.8597L22.0752 24.3295V22.711L19.4083 21.1807V20.1323H20.5891C20.5009 20.0882 20.4567 19.9153 20.4567 19.6946C20.4567 19.4334 20.545 19.2569 20.6333 19.2569H20.7216C20.7216 17.2447 21.3322 15.6299 22.0752 15.6299C22.3364 15.6299 22.6417 15.674 22.9066 15.7181C22.6896 15.5857 22.5571 15.3245 22.5571 15.0634C22.5571 14.8463 22.6454 14.6256 22.8183 14.4969C22.73 14.4969 22.6417 14.541 22.5571 14.541C21.9906 14.541 21.5088 14.0591 21.5088 13.4927C21.5088 13.1873 21.6412 12.9262 21.8141 12.7496C21.3763 12.882 21.0269 13.2756 21.0269 13.7538C21.0269 14.015 21.1593 14.2799 21.3322 14.4969C21.5088 14.6293 21.5934 14.8463 21.5934 15.1075C21.5934 15.3687 21.4609 15.6335 21.2439 15.8064C19.6254 16.1559 18.4446 17.5979 18.4446 19.3488H18.1834C17.9222 19.3488 17.7457 19.5254 17.7457 19.7866C17.7457 20.0036 17.9222 20.2243 18.1834 20.2243H18.4446V27.8314H22.0716V26.9118L22.0752 26.9081Z" fill="var(--fill-0, #B2B2B2)"/>
<path id="Vector_13" d="M22.0766 22.7552V24.3737L24.7435 25.904V26.9523H22.0766V27.8278H14.4695L15.2126 31.1053H29.0253L29.7684 27.8278H25.7478V20.1766H26.0531C26.2701 20.1766 26.4908 20 26.4908 19.7388C26.4908 19.4776 26.3143 19.3011 26.0531 19.3011H25.7478C25.7478 17.2889 24.1292 15.6741 22.1208 15.6741C21.3777 15.6741 20.7671 17.2926 20.7671 19.3011H20.6347C20.5464 19.3011 20.4581 19.4776 20.4581 19.7388C20.4581 19.9558 20.5022 20.1324 20.5905 20.1766H24.7877V21.2249L22.0766 22.7552Z" fill="var(--fill-0, white)"/>
<path id="Vector_14" d="M19.4096 22.5379L21.1128 23.5422L19.4096 24.5464V22.5342V22.5379Z" fill="var(--fill-0, #76232F)"/>
<path id="Vector_15" d="M24.7865 22.5379L23.0392 23.5422L24.7865 24.5464V22.5342V22.5379Z" fill="var(--fill-0, #D6001C)"/>
<path id="Vector_16" d="M29.6375 12.834L28.0631 14.276L28.2397 12.1793L26.143 11.8298L27.8903 10.649L26.8419 8.81343L28.854 9.42406L29.6412 7.50021L30.3843 9.42406L32.3964 8.81343L31.348 10.649L33.0953 11.8298L30.9986 12.1793L31.1752 14.276L29.6449 12.834H29.6375Z" fill="var(--fill-0, white)"/>
<path id="Vector_17" d="M18.1834 20.1764C17.9222 20.1764 17.7457 19.9998 17.7457 19.7387C17.7457 19.4775 17.9222 19.3009 18.1834 19.3009H18.4446C18.4446 17.5978 19.6254 16.1521 21.2439 15.7585C21.4609 15.582 21.5934 15.3649 21.5934 15.0596C21.5934 14.7984 21.5051 14.6219 21.3322 14.449C21.1556 14.2724 21.0269 14.0112 21.0269 13.7059C21.0269 13.224 21.3763 12.8304 21.8141 12.7017C21.9024 12.7017 21.9906 12.6576 22.0753 12.6576V0.154364L1.83619 11.8262L18.4483 21.3977V20.1286L18.1871 20.1727L18.1834 20.1764Z" fill="var(--fill-0, #D6001C)"/>
<g id="Group_2">
<path id="Vector_18" d="M18.8834 30.4063H19.9318L19.7994 28.4383H18.6186L18.8798 30.4063H18.8834ZM20.6307 30.4063H22.0285V28.4383H20.4983L20.6307 30.4063Z" fill="var(--fill-0, #B2B2B2)"/>
<path id="Vector_19" d="M17.178 30.4063H18.1381L17.8769 28.4383H16.7844L17.178 30.4063ZM15.736 30.4063H16.4791L16.1296 28.4383H15.3424L15.736 30.4063Z" fill="var(--fill-0, #D6001C)"/>
<path id="Vector_20" d="M26.0101 30.4063H26.9701L27.3196 28.4383H26.2271L26.0101 30.4063ZM27.7132 30.4063H28.5004L28.9381 28.4383H28.0627L27.7132 30.4063Z" fill="var(--fill-0, #76232F)"/>
</g>
</g>
<g id="Group_3">
<path id="Vector_21" d="M60.5439 21.8796H61.6805V28.35C61.6805 29.8803 61.4194 30.8845 60.9375 31.3664C60.4115 31.8924 59.7567 32.1536 58.9695 32.1536C58.1382 32.1536 57.4834 31.8924 57.0015 31.3222C56.7403 31.0169 56.5638 30.6675 56.435 30.1856C56.3467 29.7478 56.3026 29.0048 56.3026 28.0006V21.8796H57.351V21.1365H53.5033V21.8796H54.6399V28.3059C54.6399 29.8803 54.9894 31.0611 55.6441 31.76C56.2989 32.503 57.3473 32.8525 58.7929 32.8525C60.2386 32.8525 61.2391 32.4589 61.8976 31.6276C62.247 31.1898 62.5082 30.7079 62.5965 30.2297C62.7289 29.7478 62.7731 28.9606 62.7731 27.9123V21.8796H63.9097V21.1365H60.4556L60.5439 21.8796ZM72.7859 26.6469C72.7859 25.8155 72.5689 25.1608 72.1753 24.6789C71.7817 24.197 71.2152 23.98 70.4721 23.98C69.8615 23.98 69.2913 24.1124 68.769 24.4177C68.2467 24.723 67.8089 25.1608 67.4153 25.7309V24.1565H64.7484V24.9437H65.8851V31.8519H64.7484V32.6391H68.5961V31.8519H67.4153V26.474C67.8089 26.0362 68.2467 25.6868 68.6403 25.4698C69.078 25.2527 69.4716 25.1203 69.9093 25.1203C70.3912 25.1203 70.7407 25.2527 70.9136 25.5139C71.0901 25.7751 71.2189 26.257 71.2189 26.9117V31.8519H70.0822V32.6391H73.9299V31.8519H72.7933V26.6506L72.7859 26.6469ZM77.5496 24.1529H74.8385V24.9401H76.0193V31.8041H74.8385V32.5913H78.6862V31.8041H77.5496V24.1529ZM76.0193 21.096H77.5496V22.6263H76.0193V21.096ZM84.936 24.9401H86.1168L83.5381 30.6675L81.1324 24.9401H82.3132V24.1529H78.815V24.9401H79.5139L82.7031 32.6759H83.4903L86.9444 24.9401H87.5992V24.1529H84.9323V24.9401H84.936ZM91.3182 23.98C90.2256 23.98 89.3502 24.3736 88.6512 25.2049C87.9523 25.9921 87.6029 27.0405 87.6029 28.3096C87.6029 29.5786 87.9965 30.7153 88.7395 31.5429C89.5267 32.3743 90.531 32.812 91.7559 32.812C92.5872 32.812 93.459 32.6355 94.4228 32.2455V31.1089C93.6356 31.5466 92.8043 31.7637 91.9766 31.7637C91.1011 31.7637 90.4464 31.4583 89.9645 30.8036C89.4826 30.1929 89.2214 29.3175 89.2214 28.1808H94.4228V27.8755C94.4228 26.6064 94.1616 25.6463 93.5915 24.9474C93.1096 24.2926 92.3224 23.9873 91.3182 23.9873V23.98ZM92.8484 27.4341H89.3502C89.3943 26.5586 89.6113 25.8597 89.9166 25.4219C90.222 24.9842 90.6597 24.7672 91.2703 24.7672C92.3187 24.7672 92.8447 25.5985 92.8447 27.2575V27.4341H92.8484ZM98.6641 25.7273V24.1529H95.9972V24.9401H97.1338V31.8483H95.9972V32.6355H99.8449V31.8483H98.7082V26.4703C99.4072 25.6831 100.106 25.3337 100.765 25.3337H101.026V26.2091H101.986V24.1124C101.809 24.0683 101.636 24.0241 101.46 24.0241C100.235 23.98 99.3189 24.5501 98.6604 25.7273H98.6641ZM106.926 27.9123L106.227 27.607C105.528 27.3016 105.046 27.0405 104.785 26.8198C104.524 26.5991 104.392 26.3379 104.392 25.9884C104.392 25.639 104.524 25.3337 104.785 25.0688C105.046 24.8076 105.396 24.6752 105.789 24.6752C106.051 24.6752 106.315 24.7193 106.577 24.8076C106.838 24.8959 107.143 25.0247 107.408 25.2454V26.2055H108.368V24.3699C107.93 24.1933 107.492 24.0646 107.055 24.0204C106.617 23.9321 106.223 23.888 105.786 23.888C104.954 23.888 104.255 24.105 103.729 24.5428C103.203 24.9805 102.898 25.547 102.898 26.2459C102.898 27.3384 103.685 28.2139 105.304 28.8245L106.091 29.1299C107.011 29.4793 107.445 29.9612 107.445 30.5718C107.445 30.9654 107.312 31.3149 106.963 31.5761C106.657 31.8372 106.264 31.9697 105.782 31.9697C105.477 31.9697 105.171 31.9255 104.822 31.7931C104.517 31.6607 104.167 31.4878 103.818 31.2266V30.2665H102.858V32.1462C103.295 32.3633 103.777 32.4957 104.255 32.6281C104.737 32.7164 105.215 32.8047 105.742 32.8047C106.702 32.8047 107.489 32.5876 108.103 32.1058C108.717 31.6239 109.023 31.0132 109.023 30.2702C109.023 29.7442 108.846 29.266 108.541 28.957C108.236 28.5634 107.71 28.2139 106.922 27.9086L106.926 27.9123ZM111.296 21.096H112.826V22.6263H111.296V21.096ZM112.87 24.1529H110.159V24.9401H111.296V31.8041H110.159V32.5913H114.007V31.8041H112.87V24.1529ZM120.478 30.7116H119.646C119.646 30.7116 119.646 31.5429 118.859 31.8483C118.727 31.8924 118.598 31.9365 118.51 31.9365C118.16 31.9365 117.943 31.8041 117.767 31.4988C117.59 31.1935 117.505 30.7557 117.505 30.1856V24.9401H119.646V24.197H117.505V22.2732L115.975 22.6667V24.197H114.838V24.9401H115.975V30.009C115.975 30.9691 116.192 31.7122 116.586 32.1499C116.979 32.5876 117.59 32.8488 118.333 32.8488C118.465 32.8488 118.594 32.8488 118.682 32.8047H118.815C118.859 32.8047 118.947 32.7605 118.991 32.7605C119.036 32.7605 119.036 32.7605 119.08 32.7164C119.124 32.7164 119.168 32.6722 119.212 32.6722C119.256 32.6722 119.256 32.6722 119.3 32.6281C119.826 32.2786 120.393 31.7526 120.481 30.7043L120.478 30.7116Z" fill="var(--fill-0, black)"/>
<path id="Vector_22" d="M126.773 24.1969V24.9841H127.909L125.375 30.7115L122.969 24.9841H124.106V24.1969H120.607V24.9841H121.262L124.496 32.7641C124.363 33.0694 124.234 33.3306 124.058 33.5954C123.753 34.0773 123.491 34.5151 122.965 34.7321C122.704 34.8645 122.399 34.9491 122.09 34.9491C121.74 34.9491 121.435 34.8167 121.13 34.6438V33.9449H120.343V35.431C120.475 35.5193 120.78 35.6076 121.086 35.648C121.523 35.7363 121.917 35.7363 122.355 35.6922C123.01 35.6039 123.58 35.3427 124.017 34.905C124.323 34.5555 124.716 33.9449 124.937 33.5513C125.025 33.4189 125.069 33.3343 125.069 33.2018L125.286 32.7641L128.741 25.0282H129.395V24.1969H126.773Z" fill="var(--fill-0, black)"/>
</g>
<path id="Vector_23" d="M55.2111 42.5567C55.2994 43.0827 55.6488 43.2997 56.0866 43.2997C56.5243 43.2997 56.8738 43.0827 56.8738 42.6891C56.8738 42.2955 56.6972 42.1226 55.9983 41.8578C55.3435 41.6407 54.7733 41.3318 54.7733 40.5446C54.7733 39.6691 55.4723 39.3196 56.127 39.3196C56.9142 39.3196 57.4807 39.6249 57.569 40.4563L56.9142 40.5887C56.8701 40.1068 56.5648 39.8898 56.127 39.8898C55.7334 39.8898 55.4281 40.1068 55.4281 40.5004C55.4281 40.9382 55.7776 41.0669 56.3477 41.2876C57.0025 41.5046 57.5285 41.7695 57.5285 42.6008C57.5285 43.4322 56.8738 43.8258 56.0424 43.8258C55.2111 43.8258 54.6887 43.4763 54.5563 42.7333L55.2111 42.5567ZM60.2801 40.8094C60.5412 41.2913 60.5854 41.5525 60.5854 41.5525H60.6295C60.6295 41.5525 60.6736 41.3354 60.8907 40.8094L61.5013 39.4557H62.2002L60.887 42.1226V43.7412H60.2322V42.1226L58.8344 39.4557H59.5775L60.2764 40.8094H60.2801ZM63.9953 43.7375V39.4962H65.3085C66.4893 39.4962 67.3648 40.0627 67.3648 41.5929C67.3648 43.1232 66.4452 43.7779 65.3085 43.7779L63.9953 43.7338V43.7375ZM65.2203 43.171C66.0516 43.171 66.6622 42.7333 66.6622 41.5966C66.6622 40.46 66.0516 40.0222 65.3085 40.0222H64.6538V43.171H65.2203ZM71.6907 41.9019C71.9519 42.2955 72.1726 42.6891 72.1726 42.6891H72.2168C72.2168 42.6891 72.1726 42.2514 72.1726 41.6849V39.4116H72.8274V43.6529H72.2168L70.5136 41.2067C70.2524 40.8131 70.0317 40.3753 70.0317 40.3753H69.9876C69.9876 40.3753 70.0317 40.8131 70.0317 41.3796V43.6087H69.377V39.3674H70.0759L71.6944 41.9019H71.6907ZM77.7639 43.7375H75.1412V39.4962H77.7639V40.0627H75.7959V41.3318H77.5432V41.8982H75.7959V43.1673H77.7639V43.7338V43.7375ZM80.6957 40.8094C80.9569 41.2913 81.001 41.5525 81.001 41.5525H81.0451C81.0451 41.5525 81.0893 41.3354 81.3063 40.8094L81.9169 39.4557H82.6159L81.3026 42.1226V43.7412H80.6479V42.1226L79.25 39.4557H79.9931L80.692 40.8094H80.6957ZM85.0216 41.2913C85.2828 41.2913 85.5035 41.5083 85.5035 41.7732C85.5035 42.038 85.2864 42.2551 85.0216 42.2551C84.7567 42.2551 84.5397 42.038 84.5397 41.7732C84.5397 41.5083 84.7567 41.2913 85.0216 41.2913ZM90.5724 42.5567H88.8251L88.4315 43.7375H87.7326L89.307 39.4962H90.1825L91.7128 43.7375H91.0138L90.5761 42.5567H90.5724ZM89.0017 42.0343H90.3554L90.0501 41.0743C89.833 40.3753 89.7006 39.9376 89.7006 39.9376C89.7006 39.9376 89.6123 40.3753 89.3512 41.0301L89.0017 42.0343ZM96.5169 39.4557V42.2955C96.5169 43.388 95.6855 43.7816 94.8542 43.7816C94.0229 43.7816 93.1915 43.388 93.1915 42.2955V39.4557H93.8463V42.1668C93.8463 42.954 94.1957 43.2593 94.8064 43.2593C95.417 43.2593 95.7665 42.9098 95.7665 42.1668V39.4557H96.5095H96.5169ZM98.8343 42.5567C98.9226 43.0827 99.2721 43.2997 99.7098 43.2997C100.148 43.2997 100.497 43.0827 100.497 42.6891C100.497 42.2955 100.32 42.1226 99.6215 41.8578C98.9667 41.6407 98.3966 41.3318 98.3966 40.5446C98.3966 39.6691 99.0955 39.3196 99.7503 39.3196C100.537 39.3196 101.104 39.6249 101.192 40.4563L100.537 40.5887C100.493 40.1068 100.188 39.8898 99.7503 39.8898C99.3567 39.8898 99.0513 40.1068 99.0513 40.5004C99.0513 40.9382 99.4008 41.0669 99.971 41.2876C100.626 41.5046 101.152 41.7695 101.152 42.6008C101.152 43.4322 100.497 43.8258 99.6657 43.8258C98.8343 43.8258 98.312 43.4763 98.1795 42.7333L98.8343 42.5567ZM103.863 43.7375V40.0664H102.638V39.4999H105.787V40.0664H104.562V43.7375H103.863ZM109.896 43.7375C109.807 43.6051 109.763 43.5205 109.719 43.3439L109.542 42.6008C109.41 42.1189 109.149 41.9902 108.755 41.9902H108.189V43.7375H107.534V39.4962H109.02C109.98 39.4962 110.462 39.8898 110.462 40.7211C110.462 41.3759 110.024 41.7254 109.502 41.7695V41.8136C109.896 41.8578 110.113 42.0307 110.245 42.5126L110.462 43.3439C110.506 43.5205 110.594 43.6492 110.679 43.7816H109.892V43.7375H109.896ZM108.189 41.42H108.976C109.502 41.42 109.763 41.203 109.763 40.7211C109.763 40.2834 109.502 40.0222 108.976 40.0222H108.189V41.42ZM114.876 42.5567H113.129L112.735 43.7375H112.036L113.611 39.4962H114.486L116.017 43.7375H115.318L114.88 42.5567H114.876ZM113.35 42.0343H114.703L114.398 41.0743C114.181 40.4195 114.049 39.9376 114.049 39.9376H114.004C114.004 39.9376 113.916 40.3753 113.655 41.0301L113.35 42.0343ZM118.419 39.4557V43.1269H120.342V43.6933H117.764V39.452H118.419V39.4557ZM122.833 39.4557V43.697H122.178V39.4557H122.833ZM127.468 42.5567H125.72L125.327 43.7375H124.628L126.202 39.4962H127.078L128.608 43.7375H127.909L127.471 42.5567H127.468ZM125.893 42.0343H127.247L126.942 41.0743C126.725 40.4195 126.592 39.9376 126.592 39.9376H126.548C126.548 39.9376 126.46 40.3753 126.199 41.0301L125.893 42.0343Z" fill="var(--fill-0, black)"/>
</g>
</svg>
