<svg preserveAspectRatio="none" width="126" height="44" overflow="visible" style="display: block;" viewBox="0 0 126 44" fill="none" xmlns="http://www.w3.org/2000/svg">
<g id="Monash University" clip-path="url(#clip0_0_4)">
<path id="Vector" d="M48.9212 22.4653V31.4227C48.9212 35.1037 47.4192 36.8208 44.1873 36.8208C40.4465 36.8208 39.6599 33.8874 39.6599 31.4227V22.4653H38.5672V31.4227C38.5672 35.6474 40.4572 37.7938 44.1838 37.7938C47.9104 37.7938 50.0068 35.651 50.0068 31.4227V22.4653H48.9141H48.9212Z" fill="var(--fill-0, #231F20)"/>
<path id="Vector_2" d="M57.0749 26.3573C55.402 26.3573 53.9498 27.2623 53.3305 28.6324V26.6077H52.3623V37.4432H53.3305V31.5908C53.3305 28.9401 54.7898 27.2301 57.0535 27.2301C59.9722 27.2301 59.9722 29.7807 59.9722 30.6214V37.4467H60.9403V30.7645C60.9403 29.5625 60.9403 26.3609 57.0784 26.3609" fill="var(--fill-0, #231F20)"/>
<path id="Vector_3" d="M63.3323 26.6043V37.4397H64.3004V26.6043H64.2079H63.3323Z" fill="var(--fill-0, #231F20)"/>
<path id="Vector_4" d="M63.3323 23.2918V24.7514H64.3004V23.2918H64.2079H63.3323Z" fill="var(--fill-0, #231F20)"/>
<path id="Vector_5" d="M73.8959 26.6043C73.8959 26.6043 70.4718 35.9015 70.3508 36.2306C70.2191 35.9015 66.5601 26.6043 66.5601 26.6043H65.4567L69.7991 37.4397H70.8954L74.9637 26.6043H73.8995H73.8959Z" fill="var(--fill-0, #231F20)"/>
<path id="Vector_6" d="M80.2272 26.3539C78.9744 26.3539 77.8781 26.7975 77.0559 27.6345C76.013 28.697 75.4293 30.364 75.4542 32.2062C75.4328 33.9054 75.9525 35.3936 76.9278 36.3845C77.7642 37.2358 78.9032 37.6866 80.2272 37.6866C82.8184 37.6866 84.4735 36.2879 84.8935 33.7552L84.9113 33.6479H83.9467L83.9325 33.723C83.5659 35.6619 82.1813 36.8173 80.2272 36.8173C79.2093 36.8173 78.3515 36.4739 77.6895 35.7942C76.8815 34.9679 76.4223 33.6765 76.4223 32.2384V32.217H84.9754L84.9825 32.1275C84.9896 31.9916 84.9896 31.8557 84.9896 31.7197C84.9896 30.0635 84.4984 28.6362 83.5908 27.681C82.7544 26.801 81.6225 26.3503 80.2272 26.3503M80.2272 27.2267C82.6262 27.2267 83.9254 29.2872 84.0037 31.3513H76.4401C76.6395 29.2836 77.9849 27.2267 80.2308 27.2267" fill="var(--fill-0, #231F20)"/>
<path id="Vector_7" d="M87.6779 28.7541V26.6042H86.7098V37.4396H87.6779V31.5229C87.7634 29.8988 88.1086 29.2871 88.8489 28.5216C89.9915 27.3983 91.3191 27.4663 91.7 27.5128L91.8032 27.5271V26.5505H91.7142C89.9452 26.4683 88.251 27.4234 87.6779 28.7577" fill="var(--fill-0, #231F20)"/>
<path id="Vector_8" d="M96.9044 31.4335L96.5769 31.3655C94.9716 31.0221 93.4518 30.7002 93.4518 29.1834C93.4518 27.6667 94.9788 27.2231 96.4096 27.2231C97.5344 27.2231 99.4279 27.5629 99.4528 29.8452V29.9346H100.417V29.8452C100.417 27.5915 98.9937 26.3538 96.4096 26.3538C95.4877 26.3538 92.4837 26.5577 92.4837 29.1798C92.4837 31.5408 94.6335 31.9772 96.2067 32.2956L96.4844 32.3528C98.1679 32.6927 99.7625 33.0146 99.7625 34.6494C99.7625 36.6062 97.4774 36.8172 96.495 36.8172C94.5339 36.8172 93.1956 35.6296 93.0817 33.7945L93.0745 33.7086H92.11V33.8016C92.174 36.1984 93.8505 37.6829 96.495 37.6829C97.4881 37.6829 100.731 37.4647 100.731 34.6494C100.731 32.3349 98.9972 31.8234 96.9044 31.4299" fill="var(--fill-0, #231F20)"/>
<path id="Vector_9" d="M102.713 26.6043V37.4397H103.677V26.6043H103.585H102.713Z" fill="var(--fill-0, #231F20)"/>
<path id="Vector_10" d="M107.841 26.6041V23.288H106.873V26.6041H104.915V27.4734H106.873V34.8174C106.873 34.8818 106.873 34.9426 106.873 35.0035C106.873 35.837 107.076 36.4451 107.496 36.8493C108.136 37.4753 109.193 37.4932 110.048 37.4396L110.133 37.4324V36.5667H110.041C109.165 36.5917 108.592 36.5417 108.243 36.2018C107.973 35.9371 107.848 35.4971 107.848 34.8139V27.4698H110.539C111.6 29.9989 114.625 37.2285 114.646 37.2857C114.169 38.6415 113.881 39.4285 113.586 39.7254C113.087 40.2298 112.585 40.3836 111.447 40.3836H111.354V41.2493H111.447C112.625 41.2493 113.383 41.2171 113.977 40.7556C114.433 40.4015 114.774 39.6395 115.244 38.5199L119.829 26.6005H118.747C118.747 26.6005 115.333 35.7368 115.177 36.1553C115.009 35.7404 111.304 26.6005 111.304 26.6005H107.852L107.841 26.6041Z" fill="var(--fill-0, #231F20)"/>
<path id="Vector_11" d="M102.71 23.2918V24.7514H103.678V23.2918H103.589H102.71Z" fill="var(--fill-0, #231F20)"/>
<path id="Vector_12" d="M63.045 20.0291C58.7596 19.9397 55.1575 16.6343 55.2679 12.0626C55.3782 8.46749 58.2541 4.38586 63.4828 4.53968C67.124 4.60765 71.2136 7.35854 71.1033 12.4168C70.993 17.475 66.7289 20.14 63.0414 20.0291M63.198 5.47334C59.9306 5.47334 57.6526 7.89155 57.6526 11.9517C57.6526 16.8132 60.525 19.006 63.2408 19.006C66.5082 19.006 68.6758 16.4805 68.6758 12.4847C68.7186 8.20277 66.5082 5.47334 63.198 5.47334Z" fill="var(--fill-0, #231F20)"/>
<path id="Vector_13" d="M126.001 4.95132V4.73669H121.719V4.95132C122.567 5.00855 122.801 5.17669 122.801 6.38579V11.6372H115.117V6.38579C115.117 5.17669 115.352 5.00855 116.199 4.95132V4.73669H111.917V4.95132C112.764 5.00855 112.999 5.17669 112.999 6.38579V18.1799C112.999 19.3926 112.764 19.5608 111.917 19.618V19.829H116.199V19.618C115.352 19.5643 115.117 19.3926 115.117 18.1799V12.5494H122.801V18.1799C122.801 19.3926 122.567 19.5608 121.719 19.618V19.829H126.001V19.618C125.154 19.5643 124.919 19.3926 124.919 18.1799V6.38579C124.919 5.17669 125.154 5.00855 126.001 4.95132Z" fill="var(--fill-0, #231F20)"/>
<path id="Vector_14" d="M72.2388 4.73669V4.95132C73.0646 4.99425 73.2959 5.08726 73.2959 5.95652V18.1764C73.2959 19.389 73.0646 19.5572 72.2139 19.6144V19.8255H75.4493V19.6144C74.6022 19.5608 74.3673 19.389 74.3673 18.1764V7.19783C74.3673 7.39815 82.7281 17.6183 84.5327 19.8219H84.878V5.95652C84.878 5.08368 85.1129 4.99425 85.9386 4.95132V4.73669H82.7602V4.95132C83.5859 4.99425 83.8208 5.08726 83.8208 5.95652V15.5435L75.1005 4.73669H72.2424H72.2388Z" fill="var(--fill-0, #231F20)"/>
<path id="Vector_15" d="M93.3006 4.74026H93.0017C92.24 6.55392 88.7305 14.9068 87.5061 17.7936C87.2925 18.2873 86.9544 19.0886 86.6981 19.3676C86.4988 19.5822 86.3066 19.6037 86.1286 19.6144V19.8255H88.9832V19.6144C88.7554 19.6144 88.2678 19.6144 88.2322 19.1851C88.2322 19.0528 88.2571 18.9061 88.314 18.738C88.403 18.4697 88.9761 17.0066 89.7057 15.3432H95.422C95.9844 16.7455 96.5005 17.9474 96.739 18.4804C96.8066 18.6378 96.9525 19.0063 96.9525 19.1851C96.9525 19.6037 96.5859 19.6144 96.173 19.6144V19.8255H100.163V19.6144C99.6718 19.5822 99.5152 19.457 99.1593 18.6414L93.3006 4.73669V4.74026ZM90.083 14.3881C91.0547 11.9913 92.5568 8.17799 92.5568 8.17799C92.5568 8.17799 93.9022 11.5942 95.0518 14.3881H90.083Z" fill="var(--fill-0, #231F20)"/>
<path id="Vector_16" d="M37.7988 4.73669V4.95132C38.2615 4.97636 38.532 5.01929 38.6886 5.20173C38.7349 5.27327 38.7776 5.34839 38.8061 5.42709C38.8346 5.50579 38.8417 5.58807 38.8488 5.67034C38.8559 5.7562 38.8595 5.84921 38.8595 5.95652V18.1764C38.8595 19.389 38.6246 19.5572 37.7775 19.6144V19.8255H40.9773V19.6144C40.1302 19.5608 39.8952 19.389 39.8952 18.1764V7.71295C39.8952 7.51262 39.8525 7.13343 39.8525 7.13343L40.0519 7.71295L45.2378 19.7682H45.551L50.8473 7.35522L51.0003 6.84368C51.0003 6.84368 50.9576 7.09051 50.9576 7.3123V18.1764C50.9576 19.389 50.7263 19.5572 49.8756 19.6144V19.8255H54.1574V19.6144C53.3103 19.5608 53.0754 19.389 53.0754 18.1764V5.95652C53.0754 5.08368 53.3103 4.99425 54.1325 4.95132V4.73669H50.801L46.0102 16.1194L41.1517 4.73669H37.7952H37.7988Z" fill="var(--fill-0, #231F20)"/>
<path id="Vector_17" d="M100.916 18.8093C101.923 19.4174 103.414 20.0577 104.998 20.0506C105.03 20.0506 105.059 20.0506 105.091 20.0506C107.433 20.0148 109.903 18.2727 109.903 15.529C109.903 12.5563 107.828 11.8694 105.728 10.7784C103.61 9.73741 102.728 9.2044 102.728 7.8057C102.728 6.85058 103.301 5.45546 105.18 5.45546C105.774 5.45546 106.301 5.6057 106.757 5.84896C108.276 6.69676 108.351 7.89513 108.547 8.65708H108.768L108.64 5.29806C107.675 4.89383 106.906 4.7114 106.369 4.62912C106.045 4.58619 105.742 4.5683 105.49 4.5683C103.393 4.5683 100.919 5.83465 100.919 8.49611C100.919 10.3169 102.001 11.4473 104.144 12.5133C106.262 13.6008 107.874 14.0229 107.874 16.1514C107.874 17.2389 107.259 19.1241 104.874 19.1241C103.92 19.1241 103.162 18.7914 102.564 18.2906C101.151 16.9491 101.183 15.8831 101.076 15.486H100.855L100.923 18.8129" fill="var(--fill-0, #231F20)"/>
<path id="Vector_18" d="M4.05922 16.2873C4.05922 16.9062 3.99515 21.6782 6.96718 26.6148C9.64023 31.0721 13.6231 33.0324 15.3209 33.6512C17.0365 33.0324 21.0158 31.0721 23.6889 26.6148C26.668 21.6782 26.5968 16.9062 26.5968 16.2873V4.67206H4.05566V16.2873H4.05922Z" fill="var(--fill-0, #006CAB)"/>
<path id="Vector_19" d="M27.9485 21.7465L27.8381 22.1221C27.7064 22.5692 27.5605 23.0021 27.4074 23.4206L26.4357 22.5406L26.3183 22.8947C25.7986 24.4365 25.1259 25.8889 24.3108 27.1946C22.193 30.6001 19.2032 33.0863 15.683 34.3777C15.683 34.3777 15.4303 34.4671 15.3235 34.5065C15.2239 34.4671 14.9747 34.3777 14.9747 34.3777C11.4581 33.0827 8.47184 30.6001 6.35404 27.1946C5.53896 25.8925 4.85557 24.4401 4.34659 22.8947L4.22913 22.5406L3.94794 22.7874L3.26099 23.4134C3.10794 22.9985 2.95845 22.5692 2.82676 22.1221L2.71998 21.75L2.43167 22.0112L0.00421397 24.2112L0.0504842 24.3578C0.623535 26.2216 1.57387 28.1354 2.27862 29.4053L2.42099 29.6736L3.43184 28.765C3.47099 28.833 3.50303 28.9081 3.54218 28.9725C6.05862 33.0112 9.61794 35.9624 13.8393 37.5149L15.3271 38.0622L16.8327 37.5149C21.054 35.9624 24.6062 33.0112 27.1227 28.976C27.1618 28.9117 27.201 28.833 27.2401 28.7686L28.2368 29.6736L28.3862 29.4053C29.0874 28.1461 30.0342 26.2466 30.6144 24.3543L30.6607 24.2076L27.9556 21.7429L27.9485 21.7465Z" fill="var(--fill-0, #006CAB)"/>
<path id="Vector_20" d="M24.7056 9.77708C24.7056 9.93806 24.6665 10.0955 24.6024 10.2278C24.5668 10.3101 24.5063 10.3852 24.4387 10.4532C24.3426 10.4961 24.25 10.5498 24.1717 10.6177C24.1646 10.582 24.1575 10.539 24.1575 10.5068C24.1575 10.3423 24.1931 10.192 24.2678 10.0525C24.3604 9.87009 24.517 9.73415 24.6914 9.63757C24.6985 9.6805 24.7092 9.73058 24.7092 9.7735" fill="var(--fill-0, white)"/>
<path id="Vector_21" d="M22.8736 12.8463C23.0693 12.8177 23.2722 12.8606 23.4466 12.9501C23.3078 13.0967 23.1298 13.1969 22.9305 13.2291C22.7312 13.2577 22.5283 13.2148 22.3361 13.1289C22.4963 12.9822 22.6742 12.8785 22.8736 12.8499" fill="var(--fill-0, white)"/>
<path id="Vector_22" d="M21.9051 13.1537C21.9051 13.1537 21.9051 13.1251 21.9051 13.1072C21.9051 12.9176 21.9549 12.7423 22.051 12.5885C22.1543 12.4275 22.3002 12.3095 22.4888 12.2272C22.4888 12.2451 22.496 12.263 22.496 12.2809C22.496 12.4669 22.4461 12.6314 22.3536 12.7853C22.2575 12.957 22.1009 13.075 21.9087 13.1537" fill="var(--fill-0, white)"/>
<path id="Vector_23" d="M22.6536 12.102C22.7212 11.984 22.8173 11.8838 22.9347 11.7944C22.9597 11.8838 22.9917 11.9768 22.9917 12.0627C22.9917 12.1664 22.9739 12.2666 22.9419 12.3632C22.8956 12.4955 22.8102 12.61 22.7034 12.7137C22.6642 12.7245 22.6215 12.7388 22.5824 12.7567C22.5824 12.7459 22.5788 12.7388 22.5753 12.7316C22.6571 12.542 22.682 12.331 22.6536 12.1056" fill="var(--fill-0, white)"/>
<path id="Vector_24" d="M23.0758 11.6194C23.1149 11.487 23.1861 11.3618 23.2822 11.2473C23.3677 11.4011 23.421 11.5585 23.421 11.7267C23.421 11.7517 23.421 11.7768 23.421 11.8018C23.4139 11.9449 23.357 12.0737 23.2787 12.1989C23.236 12.2203 23.1968 12.2454 23.1612 12.274C23.1612 12.2668 23.1541 12.2561 23.1505 12.2489C23.1861 12.0415 23.1648 11.834 23.0793 11.6194" fill="var(--fill-0, white)"/>
<path id="Vector_25" d="M23.3741 11.0434C23.3812 10.9038 23.4204 10.7715 23.4702 10.6391C23.6126 10.7858 23.7122 10.9575 23.7407 11.1471C23.7443 11.19 23.7478 11.2329 23.7478 11.2759C23.7478 11.376 23.7265 11.469 23.6909 11.5656C23.6553 11.5978 23.6268 11.63 23.5948 11.6694C23.5877 11.6622 23.5841 11.6551 23.577 11.6443C23.5592 11.4368 23.488 11.2365 23.3705 11.0469" fill="var(--fill-0, white)"/>
<path id="Vector_26" d="M23.5142 10.421C23.5 10.3566 23.4929 10.2922 23.4929 10.2278C23.4929 10.1634 23.5143 10.0847 23.5285 10.0096C23.6993 10.1241 23.8346 10.2564 23.9058 10.4353C23.952 10.5498 23.9734 10.6714 23.9734 10.7895C23.9734 10.8073 23.9663 10.8252 23.9663 10.8431C23.9342 10.8825 23.9129 10.9254 23.888 10.9719C23.8809 10.9647 23.8702 10.9612 23.8631 10.954C23.799 10.7608 23.6815 10.5784 23.5071 10.421" fill="var(--fill-0, white)"/>
<path id="Vector_27" d="M23.529 9.79139C23.465 9.65903 23.4401 9.52667 23.4401 9.36928C23.6287 9.4444 23.7995 9.55529 23.9099 9.70553C23.9918 9.81643 24.0416 9.94879 24.0665 10.0919C24.0487 10.1384 24.0345 10.1849 24.0238 10.2314C24.0131 10.2314 24.0024 10.2242 23.9953 10.2242C23.8885 10.049 23.7284 9.89513 23.529 9.79139Z" fill="var(--fill-0, white)"/>
<path id="Vector_28" d="M23.9706 9.47994C23.9706 9.47994 23.9457 9.47995 23.935 9.47279C23.7927 9.32612 23.6076 9.21881 23.4047 9.15799C23.3193 9.05068 23.2623 8.92547 23.2232 8.78238C23.4225 8.80385 23.5969 8.86824 23.7393 8.99344C23.8425 9.07929 23.9243 9.2045 23.9813 9.34401C23.9742 9.38694 23.9742 9.43344 23.9742 9.47637" fill="var(--fill-0, white)"/>
<path id="Vector_29" d="M23.7206 8.77164C23.5426 8.65717 23.3504 8.59636 23.1191 8.58921C23.0087 8.4962 22.9197 8.3853 22.845 8.25295C23.0514 8.23148 23.2436 8.2601 23.418 8.34953C23.5319 8.41392 23.6352 8.51051 23.717 8.62856C23.7241 8.67506 23.7313 8.72156 23.7419 8.77164C23.7348 8.77164 23.7277 8.77164 23.7206 8.77164Z" fill="var(--fill-0, white)"/>
<path id="Vector_30" d="M23.3338 12.7101C23.2342 12.6815 23.131 12.6636 23.0313 12.6636C23.1452 12.5026 23.2876 12.3703 23.4477 12.2952C23.6364 12.22 23.8393 12.2165 24.0457 12.2594C23.9282 12.4347 23.7859 12.5742 23.5972 12.6457C23.5082 12.6851 23.4264 12.703 23.3338 12.7101Z" fill="var(--fill-0, white)"/>
<path id="Vector_31" d="M23.8729 12.0521C23.7661 12.045 23.6628 12.0521 23.5596 12.0772C23.6344 11.8947 23.7412 11.7266 23.8978 11.6157C24.0579 11.4976 24.2573 11.4368 24.4744 11.4297C24.3996 11.6372 24.2857 11.816 24.1256 11.9305C24.0473 11.9806 23.9618 12.0199 23.8729 12.0485" fill="var(--fill-0, white)"/>
<path id="Vector_32" d="M24.469 11.1111C24.405 11.1862 24.3302 11.2434 24.2484 11.2935C24.1451 11.315 24.049 11.3436 23.9601 11.3865C23.985 11.1898 24.0526 11.0038 24.1772 10.8535C24.3089 10.7104 24.4904 10.6138 24.679 10.5602C24.6541 10.7748 24.6007 10.9608 24.4726 11.1146" fill="var(--fill-0, white)"/>
<path id="Vector_33" d="M24.5703 9.12228C24.5703 9.1974 24.5631 9.27252 24.5418 9.34764C24.5204 9.44065 24.4813 9.52651 24.4279 9.60878C24.346 9.6696 24.2713 9.74472 24.2072 9.82699C24.1645 9.70895 24.1325 9.59805 24.1325 9.48358C24.1325 9.40488 24.1431 9.32976 24.1609 9.25464C24.2108 9.06147 24.3318 8.89691 24.4884 8.75025C24.5347 8.87903 24.5667 9.00781 24.5667 9.12586" fill="var(--fill-0, white)"/>
<path id="Vector_34" d="M23.8822 8.48918C23.8822 8.29958 23.9605 8.10641 24.078 7.92755C24.1954 8.10284 24.2702 8.296 24.2702 8.49275C24.2702 8.58934 24.2488 8.68235 24.2203 8.77535C24.1527 8.85763 24.1029 8.94706 24.0602 9.03649C23.9534 8.87194 23.8822 8.6895 23.8822 8.49991V8.49275V8.48918Z" fill="var(--fill-0, white)"/>
<path id="Vector_35" d="M23.4819 7.22992C23.6421 7.36943 23.7595 7.54114 23.8058 7.73789C23.82 7.80943 23.8307 7.87382 23.8307 7.94537C23.8307 7.96683 23.8307 7.98829 23.8236 8.00618C23.7773 8.10634 23.7417 8.21008 23.7239 8.31382C23.5815 8.17431 23.4676 8.01334 23.4356 7.8309C23.4249 7.75935 23.4178 7.68423 23.4178 7.61269C23.4178 7.4839 23.4392 7.35155 23.4819 7.22992Z" fill="var(--fill-0, white)"/>
<path id="Vector_36" d="M23.3692 8.12072C23.3692 8.12072 23.3514 8.1243 23.3407 8.12787C23.1414 8.0599 22.9243 8.0456 22.7001 8.0921C22.5755 8.03129 22.458 7.93828 22.3584 7.83096C22.5541 7.75942 22.757 7.74153 22.9421 7.78803C23.0773 7.82381 23.2019 7.89178 23.3087 7.98836C23.3265 8.03486 23.3479 8.07779 23.3656 8.12072" fill="var(--fill-0, white)"/>
<path id="Vector_37" d="M22.7551 6.68608C22.9438 6.78625 23.0968 6.92218 23.1858 7.1082C23.2249 7.19047 23.2534 7.27275 23.2712 7.3586C23.2499 7.46592 23.2392 7.57324 23.2427 7.68055C23.0683 7.57681 22.9224 7.44446 22.8299 7.27633C22.7658 7.14397 22.7338 6.99373 22.7338 6.83633C22.7338 6.78267 22.7444 6.73259 22.7516 6.68251" fill="var(--fill-0, white)"/>
<path id="Vector_38" d="M22.5342 7.07621C22.5556 7.0941 22.5734 7.11198 22.5947 7.12987C22.6161 7.20857 22.641 7.28012 22.6766 7.35166C22.7157 7.42678 22.762 7.49833 22.819 7.56272C22.6303 7.54841 22.4559 7.49475 22.31 7.39101C22.1569 7.27296 22.0466 7.10125 21.9718 6.89735C22.189 6.89735 22.3705 6.96174 22.5378 7.07621" fill="var(--fill-0, white)"/>
<path id="Vector_39" d="M19.8615 11.4045C19.9754 11.4045 20.0751 11.5047 20.0751 11.6299C20.0751 11.6657 20.0608 11.7014 20.0501 11.7229C20.0323 11.7622 20.0181 11.8087 20.1 11.8087H20.4025V7.95964C20.4025 7.43378 20.4452 6.81134 20.7442 6.19606L20.8332 6.02435L20.9186 6.19606C21.2069 6.81492 21.2461 7.43378 21.2461 7.95964V11.8087H21.5486C21.634 11.8087 21.6198 11.7622 21.5984 11.7229C21.5878 11.7014 21.5771 11.6657 21.5771 11.6299C21.5771 11.5047 21.6767 11.4045 21.8049 11.4045C21.933 11.4045 22.0327 11.5154 22.0327 11.637C22.0327 11.7944 21.9117 11.959 21.6269 11.959H21.1286C21.1998 12.1486 21.2425 12.4097 21.2425 12.6923C21.2425 13.0536 21.1713 13.3648 21.0788 13.5616C21.449 13.5008 21.7373 13.4113 21.9971 13.2647L22.022 13.2504L22.0932 13.4149L22.0718 13.4257C21.8369 13.558 21.5984 13.6152 21.3137 13.6868C21.3137 13.6868 21.1108 13.7226 20.972 13.7512C21.0112 13.787 21.0325 13.8406 21.0325 13.9014C21.0325 14.0159 20.9435 14.1053 20.8261 14.1053C20.7086 14.1053 20.6161 14.0159 20.6161 13.9014C20.6161 13.8406 20.6445 13.7905 20.6801 13.7512C20.5306 13.7261 20.3171 13.6868 20.31 13.6868C20.0359 13.6188 19.8152 13.5616 19.5767 13.4257L19.5554 13.4149L19.6266 13.2504L19.6479 13.2647C19.9149 13.4113 20.1996 13.5044 20.584 13.5652C20.4737 13.3684 20.4061 13.0536 20.4061 12.6923C20.4061 12.4097 20.4488 12.1486 20.52 11.959H20.0217C19.7547 11.959 19.6301 11.7944 19.6301 11.637C19.6301 11.5118 19.7334 11.4045 19.8615 11.4045Z" fill="var(--fill-0, white)"/>
<path id="Vector_40" d="M19.0761 12.7246C19.0761 12.7246 19.0761 12.746 19.069 12.7532C19.0298 12.7353 18.9907 12.721 18.9444 12.7102C18.8376 12.6065 18.7593 12.492 18.7237 12.3561C18.6917 12.2595 18.6739 12.1594 18.6739 12.0592C18.6739 11.9733 18.7059 11.8803 18.7273 11.7909C18.8305 11.8839 18.9302 11.9841 18.9978 12.1021C18.9658 12.3275 18.9978 12.5421 19.0761 12.7281" fill="var(--fill-0, white)"/>
<path id="Vector_41" d="M18.5499 8.5893C18.3185 8.59646 18.1085 8.65727 17.9341 8.77174C17.927 8.77174 17.9199 8.77174 17.9092 8.77174C17.9234 8.72166 17.9306 8.67516 17.9377 8.62865C18.0231 8.50703 18.1263 8.41402 18.2509 8.34963C18.4253 8.2602 18.6211 8.23158 18.8097 8.24946C18.7456 8.3854 18.6602 8.4963 18.5499 8.5893Z" fill="var(--fill-0, white)"/>
<path id="Vector_42" d="M18.5233 12.2489C18.5233 12.2489 18.5162 12.2668 18.5091 12.274C18.4699 12.2454 18.4308 12.2203 18.3916 12.1989C18.3133 12.0737 18.2599 11.9449 18.2457 11.7982C18.2457 11.7732 18.2457 11.7481 18.2457 11.7231C18.2457 11.5585 18.3026 11.3976 18.3845 11.2473C18.4841 11.3654 18.5553 11.4834 18.5945 11.6194C18.5091 11.834 18.4913 12.0415 18.5269 12.2489" fill="var(--fill-0, white)"/>
<path id="Vector_43" d="M17.9115 11.1471C17.94 10.9575 18.0432 10.7894 18.1785 10.6391C18.2426 10.7715 18.2853 10.9003 18.2924 11.0398C18.1643 11.2294 18.0895 11.4297 18.0717 11.6408C18.0646 11.6479 18.061 11.6551 18.0539 11.6658C18.0219 11.63 17.9898 11.5978 17.9578 11.5621C17.9258 11.4655 17.9009 11.3725 17.9009 11.2723C17.9009 11.2294 17.9044 11.1864 17.9115 11.1435" fill="var(--fill-0, white)"/>
<path id="Vector_44" d="M17.7788 10.9537C17.7788 10.9537 17.7646 10.9645 17.7575 10.9716C17.7361 10.9251 17.7112 10.8822 17.6863 10.8393C17.6827 10.8214 17.6756 10.8035 17.6756 10.7856C17.6756 10.6676 17.697 10.5459 17.7433 10.4315C17.8144 10.2562 17.9533 10.1202 18.1205 10.0058C18.1348 10.0809 18.1561 10.156 18.1561 10.224C18.1561 10.292 18.149 10.3528 18.1348 10.4172C17.9639 10.5746 17.8465 10.7606 17.7788 10.9502" fill="var(--fill-0, white)"/>
<path id="Vector_45" d="M17.9197 8.99694C18.0585 8.87173 18.2436 8.80734 18.45 8.78588C18.4073 8.92897 18.3503 9.05417 18.2685 9.16149C18.0478 9.22588 17.8663 9.3332 17.7203 9.47628C17.7097 9.47628 17.699 9.47986 17.6883 9.48344C17.6883 9.44051 17.6883 9.39401 17.6812 9.35108C17.731 9.20799 17.8129 9.08637 17.9197 9.00051" fill="var(--fill-0, white)"/>
<path id="Vector_46" d="M17.748 9.70545C17.8584 9.55521 18.0257 9.44431 18.2214 9.37277C18.2214 9.52659 18.1858 9.66253 18.1253 9.79131C17.926 9.89862 17.7694 10.0489 17.6591 10.2242C17.6484 10.2277 17.6377 10.2313 17.6341 10.2349C17.6235 10.1884 17.6128 10.1419 17.595 10.0954C17.6163 9.9487 17.6626 9.81992 17.748 9.70903" fill="var(--fill-0, white)"/>
<path id="Vector_47" d="M17.6939 11.3866C17.6084 11.3472 17.523 11.3151 17.4234 11.2936C17.3379 11.2435 17.2632 11.1827 17.1991 11.1112C17.0674 10.9609 16.9998 10.7713 16.9749 10.5567C17.1813 10.6103 17.3664 10.7069 17.4945 10.85C17.6084 11.0038 17.669 11.1899 17.6939 11.383" fill="var(--fill-0, white)"/>
<path id="Vector_48" d="M17.7506 11.6156C17.9072 11.7265 18.0104 11.8946 18.0887 12.0771C17.9855 12.0556 17.8823 12.0449 17.7755 12.052C17.6865 12.0234 17.6047 11.9841 17.537 11.934C17.3769 11.8195 17.263 11.6442 17.1918 11.4332C17.4089 11.4367 17.5975 11.4976 17.7506 11.6156Z" fill="var(--fill-0, white)"/>
<path id="Vector_49" d="M18.1997 12.2953C18.3777 12.3704 18.5236 12.5028 18.634 12.6637C18.5308 12.6637 18.4311 12.6816 18.3314 12.7103C18.2353 12.7031 18.1428 12.6852 18.0502 12.6459C17.8616 12.5743 17.7157 12.4384 17.6089 12.2595C17.8082 12.213 18.0111 12.2202 18.1997 12.2953Z" fill="var(--fill-0, white)"/>
<path id="Vector_50" d="M18.7814 12.8461C18.9736 12.8747 19.1515 12.9784 19.3081 13.1251C19.1195 13.2109 18.9166 13.2574 18.728 13.2252C18.5358 13.193 18.3578 13.0929 18.2012 12.9462C18.3934 12.8568 18.5927 12.8139 18.7814 12.8425" fill="var(--fill-0, white)"/>
<path id="Vector_51" d="M19.3001 12.7853C19.2076 12.635 19.1578 12.4669 19.1578 12.2809C19.1578 12.263 19.1613 12.2451 19.1649 12.2272C19.3535 12.3095 19.5137 12.4275 19.6205 12.5885C19.7166 12.7388 19.7628 12.9176 19.7628 13.1072C19.7628 13.1215 19.7628 13.1358 19.7628 13.1537C19.5706 13.075 19.4069 12.957 19.3037 12.7853" fill="var(--fill-0, white)"/>
<path id="Vector_52" d="M18.9748 7.35166C19.0104 7.28012 19.0353 7.20857 19.0531 7.12987C19.0744 7.11198 19.0922 7.0941 19.1172 7.07621C19.2809 6.95816 19.4802 6.90093 19.6938 6.89735C19.619 7.10125 19.5087 7.27296 19.3414 7.39101C19.1955 7.49475 19.0211 7.54841 18.8324 7.56272C18.8822 7.49833 18.9356 7.43036 18.9748 7.35524V7.35166Z" fill="var(--fill-0, white)"/>
<path id="Vector_53" d="M18.4805 7.10846C18.5695 6.92245 18.7225 6.78651 18.8969 6.68635C18.904 6.73643 18.9147 6.78651 18.9147 6.83659C18.9147 6.99399 18.8791 7.14423 18.8151 7.27659C18.7367 7.44472 18.5979 7.57708 18.4235 7.68082C18.4306 7.5735 18.4235 7.46261 18.3986 7.35529C18.4129 7.26944 18.4413 7.18716 18.4805 7.10488" fill="var(--fill-0, white)"/>
<path id="Vector_54" d="M18.3519 7.98836C18.4622 7.89178 18.5833 7.82381 18.7221 7.78803C18.8965 7.74153 19.0922 7.75942 19.288 7.83096C19.1883 7.9347 19.0744 8.02771 18.9499 8.08852C18.7363 8.04202 18.5227 8.05633 18.327 8.12787C18.3163 8.12787 18.3092 8.12072 18.2985 8.12072C18.3199 8.07779 18.3377 8.03486 18.3555 7.98836" fill="var(--fill-0, white)"/>
<path id="Vector_55" d="M17.8471 7.73431C17.8899 7.54114 18.0109 7.36586 18.171 7.22992C18.2173 7.35155 18.2529 7.4839 18.2529 7.61269C18.2529 7.68423 18.2458 7.75935 18.228 7.8309C18.1853 8.00976 18.0749 8.17431 17.929 8.31382C17.9076 8.21008 17.8721 8.10634 17.8258 8.00618C17.8258 7.98829 17.8258 7.96325 17.8258 7.94537C17.8258 7.8774 17.8329 7.80943 17.8507 7.73789" fill="var(--fill-0, white)"/>
<path id="Vector_56" d="M17.4003 8.49275C17.4003 8.296 17.4751 8.10284 17.5854 7.92755C17.6993 8.10641 17.7741 8.29601 17.7741 8.48918V8.49991C17.7741 8.6895 17.7064 8.87194 17.6032 9.03649C17.5676 8.94706 17.5178 8.85763 17.4537 8.77535C17.4217 8.68592 17.4039 8.59292 17.4039 8.49633L17.4003 8.49275Z" fill="var(--fill-0, white)"/>
<path id="Vector_57" d="M17.1728 8.74675C17.3329 8.89342 17.4539 9.05797 17.5038 9.25114C17.5216 9.32627 17.5287 9.40497 17.5287 9.48009C17.5287 9.59814 17.5002 9.70903 17.4611 9.82708C17.4006 9.74123 17.3223 9.6661 17.2404 9.60887C17.1906 9.53017 17.1478 9.44074 17.1229 9.34773C17.1051 9.27618 17.0945 9.19749 17.0945 9.12236C17.0945 9.00431 17.13 8.87553 17.1728 8.74675Z" fill="var(--fill-0, white)"/>
<path id="Vector_58" d="M16.9649 9.64106C17.1535 9.73765 17.3101 9.87358 17.4027 10.056C17.4739 10.192 17.5095 10.3422 17.5095 10.5103C17.5095 10.5461 17.5023 10.5855 17.4988 10.6212C17.4169 10.5533 17.3244 10.4996 17.2283 10.4567C17.1606 10.3887 17.1001 10.3136 17.0574 10.2313C16.9791 10.0989 16.9471 9.94155 16.9471 9.78057C16.9471 9.73407 16.9578 9.68757 16.9649 9.64464" fill="var(--fill-0, white)"/>
<path id="Vector_59" d="M21.0702 7.95984C21.0702 7.52342 21.0275 7.01545 20.8317 6.50749V11.5729H21.0702V7.95984Z" fill="var(--fill-0, #006CAB)"/>
<path id="Vector_60" d="M11.5844 12.1022C11.983 12.2059 12.4137 12.3132 12.8337 12.281V6.96166C12.3817 6.99028 11.9368 6.87939 11.5203 6.77207C11.1502 6.68264 10.7942 6.59321 10.4846 6.60752C10.0432 6.62183 9.8083 6.75061 9.65881 6.88296V12.1522C9.88305 12.0091 10.1429 11.9376 10.4775 11.9269C10.8227 11.9126 11.1893 12.002 11.5844 12.1022Z" fill="var(--fill-0, white)"/>
<path id="Vector_61" d="M8.5948 11.9304C8.92937 11.9412 9.1892 12.0091 9.40988 12.1558V6.88296C9.25683 6.74703 9.02547 6.62183 8.58412 6.60752C8.26378 6.59321 7.92208 6.68264 7.54835 6.77207C7.12479 6.88296 6.69056 6.99028 6.23852 6.96166V12.281C6.65852 12.3096 7.07852 12.2059 7.48785 12.1022C7.87937 12.002 8.24242 11.9126 8.5948 11.9269" fill="var(--fill-0, white)"/>
<path id="Vector_62" d="M13.498 7.07595H13.1598L13.1883 7.194C13.1883 7.194 13.1919 7.21904 13.1919 7.22977V12.7029C12.9249 12.7029 9.98137 12.6958 9.81764 12.6958C9.75714 12.7995 9.68239 12.8174 9.52934 12.8174C9.38696 12.8174 9.3229 12.7995 9.26239 12.6958C9.1129 12.6958 6.40069 12.7029 5.87035 12.7029V7.22977C5.87035 7.22977 5.87035 7.20115 5.87035 7.19042L5.89883 7.07237H5.44324V13.1251H9.08086C9.15917 13.2717 9.31578 13.3898 9.52578 13.3898C9.75002 13.3898 9.91019 13.2717 9.98849 13.1251H13.6261V7.07237H13.498V7.07595Z" fill="var(--fill-0, white)"/>
<path id="Vector_63" d="M10.4765 7.88808C10.2842 7.89523 10.117 7.92385 9.96747 7.97035V8.24222C10.0992 8.19214 10.2665 8.15279 10.4836 8.14563C10.7932 8.13848 11.1456 8.22434 11.5158 8.32092C11.829 8.4032 12.16 8.4819 12.5017 8.50694V8.25653C12.1885 8.23149 11.8753 8.15279 11.5834 8.07409C11.1919 7.97393 10.8253 7.88092 10.48 7.89165" fill="var(--fill-0, #006CAB)"/>
<path id="Vector_64" d="M10.4765 10.9753C10.2842 10.9825 10.117 11.0075 9.96747 11.0576V11.3295C10.0992 11.2758 10.2665 11.24 10.4836 11.2364C10.7932 11.2221 11.1456 11.3116 11.5122 11.4046C11.8254 11.4869 12.1565 11.5656 12.4981 11.5906V11.3402C12.1849 11.3187 11.8681 11.24 11.5763 11.1577C11.1883 11.0612 10.8181 10.9646 10.4765 10.9753Z" fill="var(--fill-0, #006CAB)"/>
<path id="Vector_65" d="M10.4765 10.3565C10.2842 10.3637 10.117 10.3923 9.96747 10.4388V10.7143C10.0992 10.6606 10.2665 10.6212 10.4836 10.6141C10.7968 10.6034 11.1456 10.6928 11.5158 10.7858C11.829 10.8645 12.16 10.9503 12.4981 10.9718V10.7214C12.1849 10.6964 11.8717 10.6177 11.5798 10.539C11.1883 10.4388 10.8217 10.3422 10.4729 10.3565" fill="var(--fill-0, #006CAB)"/>
<path id="Vector_66" d="M10.4765 8.50326C10.2842 8.51042 10.117 8.53546 9.96747 8.58554V8.85741C10.0992 8.80733 10.2665 8.76798 10.4836 8.76082C10.7932 8.75009 11.142 8.83953 11.5122 8.93611C11.8254 9.01839 12.1565 9.09709 12.4981 9.12213V8.87172C12.1849 8.84668 11.8681 8.76798 11.5727 8.68928C11.1848 8.58912 10.8181 8.49611 10.4729 8.50684" fill="var(--fill-0, #006CAB)"/>
<path id="Vector_67" d="M10.4765 9.74132C10.2842 9.74132 10.117 9.76636 9.96747 9.81644V10.0883C10.0992 10.0382 10.2629 10.0025 10.4836 9.99888C10.7932 9.98815 11.1456 10.0776 11.5122 10.1706C11.8254 10.2457 12.16 10.3316 12.5017 10.3566V10.1062C12.1849 10.0812 11.8681 10.0025 11.5763 9.92376C11.1883 9.8236 10.8253 9.73059 10.48 9.7449" fill="var(--fill-0, #006CAB)"/>
<path id="Vector_68" d="M11.5798 7.45185C11.1883 7.35526 10.8217 7.26583 10.4765 7.27656C10.2842 7.28014 10.117 7.30876 9.96747 7.35526V7.62713C10.0992 7.57705 10.2665 7.5377 10.4871 7.53055C10.7968 7.51982 11.1492 7.60924 11.5158 7.70225C11.829 7.78811 12.16 7.86681 12.5017 7.88827V7.63786C12.1885 7.61282 11.8753 7.53412 11.5834 7.45542" fill="var(--fill-0, #006CAB)"/>
<path id="Vector_69" d="M7.48929 10.5389C7.18319 10.614 6.88065 10.6963 6.56387 10.7213V10.9717C6.90912 10.9467 7.2259 10.8644 7.5498 10.7821C7.91997 10.6891 8.26166 10.5997 8.582 10.6104C8.80268 10.6176 8.96997 10.6533 9.10166 10.707V10.4315C8.94861 10.385 8.78488 10.3564 8.58912 10.3528C8.23675 10.3421 7.87726 10.4315 7.48573 10.5353" fill="var(--fill-0, #006CAB)"/>
<path id="Vector_70" d="M7.49641 9.92356C7.18675 10.0023 6.88421 10.081 6.56387 10.1096V10.3564C6.90912 10.3349 7.22946 10.2491 7.55692 10.1704C7.92353 10.0774 8.26522 9.98795 8.582 9.99868C8.80268 9.99868 8.97353 10.038 9.10522 10.0917V9.81982C8.95217 9.77331 8.78488 9.7447 8.59268 9.74112C8.24387 9.73039 7.88437 9.8234 7.49641 9.91998" fill="var(--fill-0, #006CAB)"/>
<path id="Vector_71" d="M10.4765 9.12244C10.2842 9.12959 10.117 9.15464 9.96747 9.20472V9.47659C10.0992 9.4265 10.2665 9.38716 10.4836 9.38358C10.7968 9.37285 11.1456 9.4587 11.5158 9.55886C11.829 9.63756 12.16 9.71626 12.4981 9.7413V9.49089C12.1849 9.46585 11.8717 9.38716 11.5798 9.30488C11.1883 9.20472 10.8217 9.11171 10.4765 9.12244Z" fill="var(--fill-0, #006CAB)"/>
<path id="Vector_72" d="M7.48929 11.1578C7.18319 11.2365 6.88065 11.3188 6.56387 11.3403V11.5907C6.90912 11.5656 7.2259 11.4834 7.55336 11.4011C7.92353 11.3117 8.26166 11.2186 8.582 11.233C8.80268 11.233 8.96997 11.2723 9.10522 11.326V11.0541C8.95217 11.004 8.78488 10.9754 8.59268 10.9718C8.24031 10.9611 7.88082 11.0577 7.48929 11.1543" fill="var(--fill-0, #006CAB)"/>
<path id="Vector_73" d="M7.48929 7.45158C7.18319 7.53386 6.88065 7.61255 6.56387 7.63402V7.88443C6.90556 7.86296 7.2259 7.78426 7.5498 7.69841C7.91997 7.60182 8.26166 7.51597 8.582 7.5267C8.80268 7.53386 8.96997 7.57321 9.10522 7.62329V7.35142C8.95217 7.30491 8.78488 7.2763 8.59624 7.27272C8.24031 7.26199 7.87726 7.35142 7.48929 7.448" fill="var(--fill-0, #006CAB)"/>
<path id="Vector_74" d="M7.48929 8.07066C7.18319 8.15294 6.88065 8.23164 6.56387 8.25668V8.50708C6.90556 8.48204 7.2259 8.40692 7.5498 8.32107C7.91997 8.22806 8.26166 8.13863 8.582 8.14578C8.80268 8.15294 8.96997 8.19229 9.10522 8.24237V7.9705C8.95217 7.92042 8.78488 7.89538 8.59268 7.88822C8.24031 7.87749 7.88082 7.9705 7.48929 8.07066Z" fill="var(--fill-0, #006CAB)"/>
<path id="Vector_75" d="M7.48929 9.30488C7.18319 9.38358 6.88065 9.46585 6.56387 9.48732V9.73415C6.90912 9.70911 7.2259 9.63041 7.5498 9.55171C7.91997 9.45512 8.26166 9.36927 8.582 9.38C8.80268 9.38716 8.96997 9.42651 9.10166 9.47301V9.20472C8.94861 9.15464 8.78488 9.12602 8.59268 9.12244C8.23675 9.11171 7.87726 9.20472 7.48573 9.30488" fill="var(--fill-0, #006CAB)"/>
<path id="Vector_76" d="M7.49641 8.68572C7.18675 8.76442 6.88065 8.8467 6.56387 8.86816V9.11857C6.90912 9.09352 7.22946 9.01483 7.55692 8.93255C7.92353 8.83596 8.26522 8.75011 8.582 8.76084C8.80268 8.768 8.97353 8.80735 9.10522 8.85385V8.58556C8.95217 8.53548 8.78844 8.51043 8.59624 8.50328C8.24387 8.48897 7.88437 8.58556 7.49641 8.68572Z" fill="var(--fill-0, #006CAB)"/>
<path id="Vector_77" d="M12.2088 25.8888L12.1982 26.6686L11.586 26.1857L10.956 26.6686L10.9417 25.8888L10.1871 25.692L10.7851 25.1984L10.4648 24.4829L11.2265 24.6403L11.586 23.9392L11.9241 24.6403L12.7 24.4829L12.369 25.1984L12.967 25.692L12.2088 25.8888Z" fill="var(--fill-0, white)"/>
<path id="Vector_78" d="M16.4623 31.3979L15.69 31.1045L15.3447 31.8665L15.0101 31.1045L14.2271 31.3979L14.519 30.6145L13.7715 30.2603L14.519 29.9169L14.2271 29.1299L15.0101 29.4232L15.3447 28.6577L15.69 29.4232L16.4623 29.1299L16.1812 29.9169L16.9251 30.2639L16.1812 30.6145L16.4623 31.3979Z" fill="var(--fill-0, white)"/>
<path id="Vector_79" d="M14.2073 20.9056L14.9797 21.0666L15.3249 20.3654L15.6773 21.0666L16.4461 20.9056L16.1258 21.6175L16.7202 22.1219L15.9656 22.3079L15.9514 23.0949L15.3249 22.6155L14.7127 23.0949L14.6985 22.3079L13.9439 22.1219L14.5419 21.6175L14.2073 20.9056Z" fill="var(--fill-0, white)"/>
<path id="Vector_80" d="M17.296 27.2447L16.6909 26.9406L16.1001 27.2447L16.2104 26.5757L15.7263 26.0999L16.3919 25.9926L16.6909 25.3952L17.0041 25.9926L17.6555 26.0999L17.1928 26.5757L17.296 27.2447Z" fill="var(--fill-0, white)"/>
<path id="Vector_81" d="M19.7564 24.7835L19.0623 24.7764L18.7349 25.3738L18.4003 24.7764L17.7062 24.7835L18.0621 24.1933L17.7062 23.5995L18.4003 23.6138L18.7349 23.0092L19.0623 23.6138L19.7564 23.5995L19.4005 24.1933L19.7564 24.7835Z" fill="var(--fill-0, white)"/>
<path id="Vector_82" d="M15.3236 17.4786L23.9158 25.2269C24.4782 24.1465 24.8875 23.0877 25.2043 22.086L15.32 13.168L5.45714 22.086C5.77036 23.0912 6.17968 24.1501 6.74561 25.2269L15.32 17.4786H15.3236Z" fill="var(--fill-0, white)"/>
<path id="Vector_83" d="M28.654 27.8419L29.1203 24.9586L27.7891 23.7602C27.9279 23.3882 28.0632 23.0126 28.17 22.6155C28.5686 22.9768 29.9105 24.1895 30.1027 24.3576C29.704 25.5882 29.1737 26.8045 28.654 27.8419Z" fill="var(--fill-0, white)"/>
<path id="Vector_84" d="M28.0092 28.8042C27.8775 28.6862 27.696 28.518 27.486 28.332C27.486 28.3285 27.4896 28.3249 27.4896 28.3213C27.7921 27.8026 28.0804 27.2768 28.3331 26.7259L28.0128 28.8006L28.0092 28.8042Z" fill="var(--fill-0, white)"/>
<path id="Vector_85" d="M0.560292 24.3576C0.748936 24.1895 2.09792 22.9733 2.48233 22.6155C2.60334 23.0126 2.7386 23.3846 2.87741 23.7567L1.54622 24.9586L2.00894 27.8347C1.48572 26.7937 0.955377 25.5775 0.560292 24.3576Z" fill="var(--fill-0, white)"/>
<path id="Vector_86" d="M2.64561 28.8043L2.32883 26.7224C2.5851 27.2733 2.87341 27.8063 3.17951 28.3285C2.97307 28.511 2.7773 28.6863 2.64561 28.8043Z" fill="var(--fill-0, white)"/>
<path id="Vector_87" d="M26.7133 28.7148C24.2503 32.6569 20.7764 35.5437 16.6582 37.0605C16.6582 37.0605 15.473 37.4897 15.3199 37.5505C15.1882 37.4933 13.9994 37.0605 13.9994 37.0605C9.88483 35.5473 6.41093 32.6605 3.94432 28.7148C3.24313 27.5844 2.63449 26.3574 2.13974 25.0839C2.3533 24.8943 3.63465 23.7281 4.01194 23.3883C4.52804 24.8478 5.16161 26.2179 5.93754 27.4556C8.12652 30.9541 11.1804 33.5083 14.8038 34.839L15.3199 35.025L15.8538 34.839C19.4772 33.5083 22.5347 30.9541 24.713 27.4556C25.4996 26.2107 26.1331 24.8406 26.6492 23.3883C27.0158 23.7317 28.3079 24.8943 28.5214 25.0839C28.016 26.3717 27.4074 27.5987 26.7169 28.7183" fill="var(--fill-0, white)"/>
<path id="Vector_88" d="M4.73571 27.4162L5.12724 26.9798L5.09164 26.8475C5.0169 26.7759 4.94571 26.7044 4.87453 26.6221C4.47232 26.6936 3.83164 26.7974 3.5469 26.8117L3.46859 26.7223L3.39385 26.7652C3.433 26.8332 3.46859 26.8976 3.50418 26.9691C3.5469 27.0478 3.58605 27.1301 3.62876 27.2123L3.70351 27.1658L3.66792 27.0478L4.09147 26.9512L4.31571 27.3519C4.23741 27.4484 4.09859 27.588 4.01317 27.6702L3.9313 27.5736L3.84944 27.6166C3.90639 27.7167 3.96334 27.8097 4.02029 27.9099C4.07012 28.0029 4.12351 28.0995 4.17334 28.1997L4.2552 28.1532L4.21605 28.0351C4.29079 27.9278 4.54351 27.6273 4.72859 27.4162M4.26944 26.919L4.8069 26.8081V26.8153L4.43673 27.2267L4.26588 26.9226L4.26944 26.919Z" fill="var(--fill-0, #006CAB)"/>
<path id="Vector_89" d="M6.65485 29.4482L6.7296 29.391C6.67977 29.323 6.62638 29.2586 6.57655 29.1871C6.52672 29.1191 6.48045 29.0512 6.43418 28.9796L6.35587 29.0333L6.41282 29.1513C6.21706 29.3123 5.70807 29.6951 5.70807 29.6951C5.83621 29.3338 5.9857 28.9188 6.12096 28.5468C6.07468 28.4824 6.02841 28.4251 5.98214 28.3607C5.93943 28.2964 5.90028 28.2355 5.85756 28.1676L5.78638 28.2212L5.83977 28.3393C5.75079 28.4216 5.65113 28.4967 5.53367 28.5825L5.19553 28.8294C5.07095 28.9188 4.9713 28.9832 4.86452 29.044L4.77197 28.951L4.70078 29.0047C4.75062 29.0726 4.80045 29.137 4.85028 29.2086C4.89655 29.2765 4.93926 29.3445 4.99265 29.416L5.0674 29.3624L5.01045 29.2408C5.20621 29.0798 5.49807 28.8687 5.72943 28.7006C5.5835 29.0798 5.44469 29.4697 5.29519 29.8703C5.33079 29.9133 5.36638 29.9598 5.39841 30.0027C5.43401 30.0456 5.46248 30.0957 5.48384 30.1279C5.59062 30.0385 5.73655 29.9312 5.90028 29.806L6.22773 29.5663C6.35231 29.4804 6.45553 29.4125 6.56231 29.3516L6.65841 29.4446L6.65485 29.4482Z" fill="var(--fill-0, #006CAB)"/>
<path id="Vector_90" d="M6.74762 30.575C6.4166 30.8754 6.45219 31.3226 6.71203 31.6052C6.88999 31.7984 7.08575 31.9164 7.41321 31.9415L7.43813 31.7733C7.24948 31.7483 7.11423 31.6732 7.0288 31.5694C6.82948 31.3512 6.81525 31.04 7.06084 30.8111C7.30643 30.5821 7.56982 30.6572 7.72999 30.8289C7.80474 30.9076 7.86525 31.04 7.89016 31.1545L7.81541 31.2439L7.88304 31.3226C7.96135 31.2511 8.08592 31.1795 8.18558 31.1437C8.1144 30.972 8.02897 30.8397 7.9044 30.7073C7.55914 30.3353 7.07863 30.2637 6.74762 30.575Z" fill="var(--fill-0, #006CAB)"/>
<path id="Vector_91" d="M9.50377 32.2385C9.11581 31.9058 8.66021 31.9594 8.39326 32.2778C8.1014 32.6427 8.16903 33.0505 8.55699 33.3796C8.9592 33.7159 9.40411 33.6586 9.66394 33.3403C9.9736 32.979 9.90242 32.5676 9.50377 32.2385ZM9.37564 33.0899C9.17631 33.326 8.89869 33.3975 8.68869 33.2222C8.47869 33.0469 8.50004 32.7643 8.69937 32.5247C8.90225 32.285 9.17988 32.2134 9.38632 32.3923C9.58564 32.564 9.56428 32.8502 9.37564 33.0899Z" fill="var(--fill-0, #006CAB)"/>
<path id="Vector_92" d="M11.5518 33.7409C11.4699 33.6873 11.381 33.6372 11.292 33.5871C11.203 33.5335 11.1176 33.487 11.0322 33.4333C10.961 33.3904 10.8898 33.3403 10.8186 33.2938L10.7688 33.3725L10.8684 33.4619C10.815 33.5728 10.7545 33.6766 10.6727 33.8053L10.4698 34.1559C10.3879 34.2775 10.3203 34.3777 10.242 34.4779L10.1174 34.4278L10.0676 34.5065C10.1637 34.5637 10.2598 34.6209 10.3559 34.6818C10.4484 34.7354 10.5374 34.7998 10.6264 34.8606L10.6727 34.7819L10.5837 34.6925C10.6299 34.5816 10.6869 34.4743 10.7723 34.3455L10.8435 34.2346L10.9361 34.2918C10.9574 34.5065 10.9823 34.8642 10.9966 35.1182C11.1283 35.1826 11.2635 35.247 11.3881 35.3292L11.4379 35.2505L11.3988 35.1933C11.3738 35.0967 11.3062 34.5816 11.2849 34.4421C11.4806 34.5279 11.6871 34.4922 11.7867 34.3205C11.8864 34.1559 11.8899 33.952 11.5554 33.7374M11.4522 34.1273C11.3632 34.2704 11.2208 34.2632 11.0464 34.1559C11.0037 34.1309 10.9716 34.1058 10.9432 34.0808L11.0037 33.977C11.0677 33.8733 11.1283 33.7874 11.1674 33.7374C11.2208 33.7588 11.2599 33.7803 11.3418 33.8304C11.4877 33.9198 11.5198 34.02 11.4522 34.1273Z" fill="var(--fill-0, #006CAB)"/>
<path id="Vector_93" d="M13.6515 34.8642L13.5447 34.7783C13.445 34.764 13.3454 34.7533 13.2386 34.7247C12.9503 35.0287 12.5125 35.4902 12.2811 35.6762L12.1637 35.6512L12.1281 35.737C12.1993 35.7692 12.2705 35.7979 12.3416 35.83C12.4235 35.8658 12.5089 35.9087 12.5872 35.9481L12.63 35.8622L12.5303 35.7907L12.8115 35.4616L13.2172 35.6512C13.2101 35.7764 13.1816 35.966 13.1603 36.084L13.0357 36.0554L13.0001 36.1377C13.1033 36.1842 13.2101 36.2271 13.3133 36.2736C13.4094 36.3201 13.5091 36.3666 13.6052 36.4131L13.6408 36.3273L13.5447 36.2557C13.5376 36.1234 13.5625 35.7335 13.591 35.4509L13.6479 34.8678L13.6515 34.8642ZM13.2386 35.4759L12.9254 35.3328L13.292 34.9179H13.2955L13.2386 35.4759Z" fill="var(--fill-0, #006CAB)"/>
<path id="Vector_94" d="M17.7299 35.973C17.6694 35.8656 17.6196 35.7583 17.5626 35.6188L17.4024 35.2468C17.3419 35.1073 17.2957 34.9964 17.2565 34.8783L17.3704 34.8032L17.3313 34.7173C17.228 34.7639 17.1284 34.8139 17.0287 34.8569C16.9255 34.8998 16.8223 34.9391 16.7191 34.9856L16.7582 35.0679L16.8899 35.0393C16.9504 35.1466 17.0038 35.2575 17.0643 35.3934L17.228 35.7691C17.2885 35.905 17.3313 36.0159 17.374 36.1339L17.2636 36.2091L17.2992 36.2949C17.4024 36.2484 17.5021 36.1983 17.5982 36.1554C17.6908 36.1125 17.794 36.0731 17.9008 36.0266L17.8616 35.9443L17.7299 35.973Z" fill="var(--fill-0, #006CAB)"/>
<path id="Vector_95" d="M20.2965 34.5707C20.2218 34.4669 20.1541 34.3668 20.0758 34.2416L19.8765 33.8874C19.7982 33.7622 19.7413 33.6549 19.6879 33.544L19.7875 33.4546L19.7377 33.3759C19.6558 33.4295 19.574 33.4832 19.485 33.5333C19.4031 33.5834 19.3106 33.6334 19.2252 33.6799C19.275 33.866 19.4174 34.5743 19.4458 34.7245C19.2857 34.6136 18.7696 34.17 18.6379 34.0412C18.5524 34.0949 18.4706 34.145 18.3887 34.1951C18.3033 34.2451 18.2143 34.2917 18.1289 34.3417L18.1787 34.4204L18.2962 34.3811L18.3994 34.5492C18.4991 34.7173 18.8052 35.2682 18.8799 35.4221L18.7838 35.5115L18.8301 35.5902C18.9013 35.5473 18.9724 35.5008 19.0436 35.4578C19.1184 35.4113 19.1931 35.372 19.2679 35.3326L19.2216 35.2539L19.097 35.3004C19.0223 35.2003 18.9546 35.1001 18.8763 34.9713L18.7589 34.7674C18.6628 34.5921 18.5916 34.4669 18.556 34.4061C19.0721 34.8425 19.3568 35.0715 19.4957 35.1967L19.6879 35.0822L19.4423 33.866C19.4814 33.9232 19.5597 34.0484 19.663 34.2237L19.784 34.424C19.8623 34.5564 19.9157 34.6601 19.9584 34.7746L19.873 34.8604L19.9121 34.9427C19.9975 34.8819 20.0901 34.8247 20.1862 34.7674C20.2823 34.7102 20.3819 34.6565 20.478 34.5993L20.4318 34.5206L20.2823 34.5814L20.2965 34.5707Z" fill="var(--fill-0, #006CAB)"/>
<path id="Vector_96" d="M21.6811 33.5371C21.5957 33.4441 21.5138 33.3582 21.4177 33.2366L21.2291 33.0041C21.1507 32.911 21.0618 32.7787 20.9906 32.6749C21.0119 32.6356 21.0546 32.5927 21.1009 32.5497C21.2433 32.4317 21.3821 32.446 21.4746 32.5641C21.5743 32.6785 21.5992 32.8216 21.4533 32.9397C21.4213 32.9647 21.3892 32.9862 21.3607 33.0005L21.4284 33.1758C21.4889 33.1436 21.553 33.1006 21.6099 33.0541C21.916 32.8073 21.9231 32.4961 21.7558 32.2886C21.5957 32.0919 21.3714 32.0776 21.1187 32.2815C21.0689 32.3315 21.0013 32.3923 20.9087 32.4675C20.8233 32.5462 20.7379 32.6141 20.6738 32.6642C20.6097 32.7143 20.5279 32.7787 20.4424 32.8502L20.4994 32.9218L20.6169 32.8574C20.7023 32.9432 20.7841 33.0362 20.8802 33.1507L21.1223 33.4727C21.2184 33.5907 21.2896 33.6873 21.3607 33.7875L21.2753 33.8876L21.3323 33.9628C21.4177 33.8876 21.5031 33.8161 21.5921 33.7445C21.674 33.6766 21.7665 33.6122 21.8982 33.5084L21.8377 33.4369L21.6775 33.5371H21.6811Z" fill="var(--fill-0, #006CAB)"/>
<path id="Vector_97" d="M23.9532 31.4085C23.8286 31.3691 23.462 31.2189 23.2199 31.0937L22.6825 30.8397L22.565 30.9112C22.5188 30.9971 22.4689 31.0865 22.4084 31.1831C22.6006 31.5551 22.8818 32.1311 22.9815 32.4137L22.9174 32.5102L22.985 32.5746C23.0349 32.521 23.0847 32.4602 23.1416 32.4101C23.2057 32.3457 23.2733 32.2813 23.3374 32.2169L23.2733 32.1525L23.1701 32.2241L22.953 31.8449L23.2769 31.5158C23.3908 31.5623 23.551 31.6553 23.6542 31.7161L23.583 31.8198L23.6506 31.8842C23.7289 31.802 23.8037 31.7161 23.882 31.6338C23.9603 31.5551 24.0386 31.48 24.1133 31.4049L24.0457 31.3405L23.946 31.4085H23.9532ZM22.8747 31.6875L22.6113 31.1974L23.1167 31.4371L22.8711 31.6875H22.8747Z" fill="var(--fill-0, #006CAB)"/>
<path id="Vector_98" d="M25.5427 29.4304C25.4466 29.4411 24.9198 29.4626 24.7775 29.4697C24.8807 29.2837 24.8665 29.0762 24.7027 28.951C24.5604 28.833 24.3575 28.8151 24.1083 29.1335C24.0478 29.2122 23.9873 29.2944 23.9304 29.3803C23.8698 29.4626 23.8129 29.5413 23.756 29.6164C23.7026 29.6843 23.6492 29.7487 23.5958 29.8167L23.6705 29.8739L23.7702 29.7845C23.877 29.8525 23.9731 29.9204 24.0976 30.0135L24.4251 30.2603C24.5461 30.3497 24.628 30.432 24.717 30.5143L24.6529 30.6323L24.7276 30.6896C24.7917 30.6001 24.8593 30.5107 24.927 30.4177C24.9946 30.3318 25.0658 30.246 25.137 30.1565L25.0587 30.1029L24.9626 30.1923C24.8558 30.1279 24.7561 30.06 24.6351 29.9705L24.5461 29.8883L24.6066 29.7988C24.8131 29.7988 25.1761 29.8096 25.436 29.8167C25.5071 29.6951 25.5854 29.5663 25.6815 29.4518L25.6068 29.3946L25.5463 29.4304H25.5427ZM24.4821 29.6736C24.45 29.7094 24.4215 29.7416 24.3931 29.7666L24.3005 29.6987C24.2044 29.6271 24.1226 29.5591 24.0763 29.5162C24.1048 29.4661 24.1297 29.4268 24.1831 29.3517C24.2863 29.2157 24.3895 29.1907 24.4892 29.273C24.6102 29.3767 24.6031 29.5162 24.4821 29.6736Z" fill="var(--fill-0, #006CAB)"/>
<path id="Vector_99" d="M26.4072 26.8976C25.9907 26.6544 25.6135 26.7903 25.3501 27.2375C25.0831 27.6882 25.2148 28.1211 25.5707 28.3285C25.9658 28.5682 26.3645 28.4359 26.6279 27.9887C26.8912 27.5415 26.7631 27.1087 26.4036 26.8976M26.4499 27.8885C26.3111 28.1211 26.0263 28.1497 25.7701 27.9887C25.4996 27.8313 25.3821 27.5702 25.5245 27.3341C25.6633 27.1015 25.9373 27.0765 26.2043 27.2339C26.4748 27.3913 26.5887 27.656 26.4499 27.8885Z" fill="var(--fill-0, #006CAB)"/>
<path id="Vector_100" d="M15.3246 35.7905C15.1644 35.7905 15.0256 35.9336 15.0256 36.1053C15.0256 36.277 15.168 36.4308 15.3246 36.4308C15.5026 36.4308 15.6485 36.2842 15.6485 36.1053C15.6485 35.9264 15.5026 35.7905 15.3246 35.7905Z" fill="var(--fill-0, #006CAB)"/>
<path id="Vector_101" d="M3.62086 25.7349C3.79171 25.7349 3.93764 25.5882 3.93764 25.4201C3.93764 25.2412 3.79171 25.0909 3.62086 25.0909C3.45002 25.0909 3.30764 25.2376 3.30764 25.4201C3.30764 25.5882 3.45002 25.7349 3.62086 25.7349Z" fill="var(--fill-0, #006CAB)"/>
<path id="Vector_102" d="M27.0901 25.7349C27.2681 25.7349 27.4105 25.5882 27.4105 25.4201C27.4105 25.2412 27.2646 25.0909 27.0901 25.0909C26.9264 25.0909 26.7769 25.2376 26.7769 25.4201C26.7769 25.5882 26.9264 25.7349 27.0901 25.7349Z" fill="var(--fill-0, #006CAB)"/>
</g>
<defs>
<clipPath id="clip0_0_4">
<rect width="126" height="44" fill="white"/>
</clipPath>
</defs>
</svg>
