<svg width="424" height="86" viewBox="0 0 424 86" fill="none" xmlns="http://www.w3.org/2000/svg">
<g clip-path="url(#clip0_225_1189)">
<path d="M19.5384 70.36C18.4684 69.83 18.3984 69.52 18.3984 67.47C18.3984 63.67 18.6984 60.62 18.7784 59.41C18.8584 58.57 19.0084 58.19 19.3884 58.19C19.8484 58.19 19.9184 58.42 19.9184 59.02C19.9184 59.71 19.9184 60.77 20.1484 61.84C21.2884 67.47 26.3084 69.6 31.4084 69.6C38.7184 69.6 42.2884 64.35 42.2884 59.48C42.2884 54.23 40.0784 51.18 33.5384 45.78L30.1184 42.96C22.0584 36.34 20.2284 31.62 20.2284 26.45C20.2284 18.31 26.3184 12.75 35.9784 12.75C38.9484 12.75 41.1484 13.05 43.0584 13.51C44.5084 13.81 45.1084 13.89 45.7184 13.89C46.3284 13.89 46.4784 14.04 46.4784 14.42C46.4784 14.8 46.1784 17.31 46.1784 22.49C46.1784 23.71 46.0284 24.24 45.6484 24.24C45.1884 24.24 45.1184 23.86 45.0384 23.25C44.9584 22.34 44.5084 20.28 44.0484 19.45C43.5884 18.61 41.5384 15.42 34.5384 15.42C29.2884 15.42 25.1784 18.69 25.1784 24.25C25.1784 28.59 27.1584 31.33 34.4584 37.04L36.5884 38.71C45.5684 45.79 47.6984 50.51 47.6984 56.59C47.6984 59.71 46.4784 65.49 41.2284 69.22C37.9584 71.5 33.8484 72.41 29.7384 72.41C26.1584 72.41 22.6584 71.88 19.5384 70.36ZM66.0384 41.14V52.56C66.0384 58.8 66.0384 63.9 65.6584 66.56C65.3584 68.46 65.1984 69.75 63.9084 69.98C63.2984 70.05 62.4584 70.28 61.8584 70.28C61.4784 70.28 61.3284 70.58 61.3284 70.81C61.3284 71.2 61.7084 71.34 62.3984 71.34C63.4684 71.34 64.9884 71.27 66.2784 71.19C67.7284 71.11 69.0184 71.11 69.1684 71.11C70.1584 71.11 71.9084 71.11 74.7284 71.26C77.4684 71.33 81.3484 71.49 86.3684 71.49C88.9584 71.49 89.6384 71.49 90.0984 69.81C90.4784 68.44 91.0184 64.03 91.0184 63.57C91.0184 63.11 90.9384 62.58 90.5584 62.58C90.1784 62.58 90.0284 62.81 89.8784 63.57C89.4984 66.16 88.5884 67.3 86.8284 68.06C85.0784 68.74 81.8884 68.74 80.1384 68.74C73.5184 68.74 72.2984 67.91 72.1484 63.57C72.0684 62.28 72.1484 54.75 72.1484 52.54V47.14C72.1484 46.92 72.2284 46.68 72.6084 46.68C73.7484 46.68 80.9084 46.76 82.7284 46.98C85.3184 47.28 85.9284 48.05 86.1484 48.96C86.4484 49.8 86.4484 50.49 86.4484 51.09C86.4484 51.47 86.5984 51.7 86.9084 51.7C87.3584 51.7 87.5184 51.02 87.5184 50.49C87.5184 50.03 87.6684 47.59 87.8184 46.3C87.9684 44.17 88.3484 43.1 88.3484 42.72C88.3484 42.34 88.1984 42.19 87.9684 42.19C87.7384 42.19 87.4384 42.57 86.9784 43.03C86.2984 43.71 85.3084 43.79 83.7084 43.95C82.1884 44.1 73.3584 44.1 72.5184 44.1C72.1384 44.1 72.1384 43.87 72.1384 43.42V25.85C72.1384 25.4 72.2184 25.17 72.5184 25.17C73.2784 25.17 81.0384 25.25 82.1884 25.4C85.8384 25.85 86.5284 26.31 86.9784 27.38C87.2884 28.14 87.3584 29.21 87.3584 29.66C87.3584 30.19 87.5084 30.5 87.8984 30.5C88.1984 30.5 88.4284 30.12 88.5084 29.81C88.6584 29.05 88.8084 26.16 88.8884 25.55C89.0384 23.73 89.4184 22.96 89.4184 22.51C89.4184 22.21 89.3484 21.9 89.1184 21.9C88.8184 21.9 88.5084 22.13 88.2084 22.2C87.6684 22.27 86.4584 22.5 85.1684 22.58C83.6484 22.66 69.6384 22.58 69.1884 22.58C68.8084 22.58 64.4684 22.43 61.4284 22.43C60.6684 22.43 60.3584 22.58 60.3584 22.96C60.3584 23.19 60.6684 23.49 60.8884 23.49C61.4984 23.49 62.6384 23.56 63.1684 23.64C65.3784 23.94 65.7584 25.01 65.9084 27.22C66.0584 29.27 66.0584 31.1 66.0584 41.14H66.0384ZM113.758 46.62V25.85C113.758 25.47 113.988 25.24 114.288 25.09C114.978 24.94 117.108 24.71 119.078 24.71C126.228 24.71 130.648 29.35 130.648 37.42C130.648 42.37 128.898 45.79 126.608 47.31C125.008 48.38 123.188 48.46 121.588 48.46C118.618 48.46 115.198 48 114.208 47.47C113.908 47.24 113.748 47.01 113.748 46.63L113.758 46.62ZM107.978 41.14V52.56C107.978 58.8 107.978 63.9 107.598 66.56C107.298 68.46 107.138 69.68 105.848 69.98C105.238 70.13 104.398 70.28 103.798 70.28C103.418 70.28 103.268 70.58 103.268 70.81C103.268 71.19 103.648 71.34 104.338 71.34C106.388 71.34 110.878 71.11 110.958 71.11C111.258 71.11 115.528 71.34 119.178 71.34C119.938 71.34 120.248 71.11 120.248 70.81C120.248 70.58 120.168 70.28 119.718 70.28C119.108 70.28 117.658 70.13 116.748 69.98C114.688 69.67 114.308 68.46 114.088 66.56C113.788 63.9 113.788 58.87 113.788 52.63V51.11C113.788 50.73 113.938 50.57 114.248 50.57L122.768 50.72C123.228 50.72 123.378 50.8 123.688 51.1C125.138 52.85 128.098 57.03 130.918 60.53C134.728 65.4 137.158 68.52 140.048 70.04C141.718 70.95 143.398 71.33 147.198 71.33H151.388C152.608 71.33 152.988 71.18 152.988 70.8C152.988 70.57 152.758 70.27 152.378 70.27C151.998 70.27 151.308 70.27 150.018 70.04C148.348 69.81 146.138 69.21 142.558 65.55C138.678 61.52 134.038 55.66 128.558 48.81C134.798 43.48 136.778 38.84 136.778 34.05C136.778 29.56 133.808 26.44 132.138 25.22C128.638 22.78 123.918 22.4 119.658 22.4C117.598 22.4 111.968 22.55 111.288 22.55C110.908 22.55 106.418 22.4 103.378 22.4C102.618 22.4 102.308 22.55 102.308 22.93C102.308 23.16 102.608 23.46 102.838 23.46C103.448 23.46 104.588 23.54 105.118 23.61C107.328 23.91 107.708 24.98 107.858 27.19C108.008 29.24 108.008 31.07 108.008 41.11L107.978 41.14ZM159.118 41.14V52.56C159.118 58.8 159.118 63.9 158.738 66.56C158.438 68.46 158.278 69.75 156.988 69.98C156.378 70.05 155.538 70.28 154.938 70.28C154.558 70.28 154.408 70.58 154.408 70.81C154.408 71.2 154.788 71.34 155.478 71.34C156.548 71.34 158.068 71.27 159.358 71.19C160.808 71.11 162.098 71.11 162.248 71.11C163.238 71.11 164.988 71.11 167.808 71.26C170.548 71.33 174.428 71.49 179.448 71.49C182.038 71.49 182.718 71.49 183.178 69.81C183.558 68.44 184.098 64.03 184.098 63.57C184.098 63.11 184.018 62.58 183.638 62.58C183.258 62.58 183.108 62.81 182.958 63.57C182.578 66.16 181.668 67.3 179.908 68.06C178.158 68.74 174.968 68.74 173.218 68.74C166.598 68.74 165.378 67.91 165.228 63.57C165.148 62.28 165.228 54.75 165.228 52.54V47.14C165.228 46.92 165.308 46.68 165.688 46.68C166.828 46.68 173.988 46.76 175.808 46.98C178.398 47.28 179.008 48.05 179.228 48.96C179.528 49.8 179.528 50.49 179.528 51.09C179.528 51.47 179.678 51.7 179.988 51.7C180.438 51.7 180.598 51.02 180.598 50.49C180.598 50.03 180.748 47.59 180.898 46.3C181.048 44.17 181.428 43.1 181.428 42.72C181.428 42.34 181.278 42.19 181.048 42.19C180.818 42.19 180.518 42.57 180.058 43.03C179.378 43.71 178.388 43.79 176.788 43.95C175.268 44.1 166.438 44.1 165.598 44.1C165.218 44.1 165.218 43.87 165.218 43.42V25.85C165.218 25.4 165.298 25.17 165.598 25.17C166.358 25.17 174.118 25.25 175.258 25.4C178.908 25.85 179.598 26.31 180.048 27.38C180.358 28.14 180.428 29.21 180.428 29.66C180.428 30.19 180.578 30.5 180.968 30.5C181.268 30.5 181.498 30.12 181.578 29.81C181.728 29.05 181.878 26.16 181.958 25.55C182.108 23.73 182.488 22.96 182.488 22.51C182.488 22.21 182.418 21.9 182.188 21.9C181.888 21.9 181.578 22.13 181.278 22.2C180.738 22.27 179.528 22.5 178.238 22.58C176.718 22.66 162.718 22.58 162.258 22.58C161.878 22.58 157.538 22.43 154.498 22.43C153.738 22.43 153.428 22.58 153.428 22.96C153.428 23.19 153.738 23.49 153.958 23.49C154.568 23.49 155.708 23.56 156.238 23.64C158.448 23.94 158.828 25.01 158.978 27.22C159.128 29.27 159.128 31.1 159.128 41.14H159.118ZM203.868 62.52L203.108 32.01C205.158 34.29 212.698 42.21 220.458 50.35C227.538 57.73 237.198 67.24 237.878 67.85C241.608 71.28 242.288 71.81 242.978 71.81C243.438 71.81 243.508 71.43 243.508 67.17L243.658 29.28C243.658 25.4 243.808 24.1 246.018 23.65C246.778 23.5 247.308 23.5 247.608 23.5C248.068 23.5 248.378 23.12 248.378 22.89C248.378 22.51 247.848 22.43 247.158 22.43C244.418 22.43 242.208 22.58 241.448 22.58C240.688 22.58 237.488 22.43 234.448 22.43C233.688 22.43 233.158 22.51 233.158 22.89C233.158 23.12 233.238 23.5 233.688 23.5C234.218 23.5 235.738 23.57 236.958 23.8C239.008 24.18 239.388 25.62 239.468 29.81L240.148 62.23C238.088 60.1 230.938 52.42 224.318 45.57C213.978 34.92 204.228 24.57 203.168 23.5C202.478 22.82 201.338 21.52 200.578 21.52C200.048 21.52 199.668 22.2 199.668 24.79V61.84C199.668 67.7 199.438 69.45 197.768 69.9C196.778 70.2 195.558 70.29 195.028 70.29C194.728 70.29 194.498 70.51 194.498 70.82C194.498 71.28 194.878 71.35 195.568 71.35C198.608 71.35 201.428 71.12 202.038 71.12C202.648 71.12 205.308 71.35 209.118 71.35C209.878 71.35 210.338 71.2 210.338 70.82C210.338 70.52 210.108 70.29 209.808 70.29C209.198 70.29 207.678 70.21 206.458 69.9C204.628 69.44 204.018 67.85 203.868 62.52ZM269.008 52.55V41.13C269.008 31.09 269.008 29.26 269.088 27.21C269.238 24.93 269.618 24.01 271.448 23.63C272.208 23.48 272.668 23.48 273.128 23.48C273.358 23.48 273.658 23.18 273.658 22.95C273.658 22.57 273.358 22.42 272.588 22.42C270.538 22.42 266.198 22.57 265.888 22.57C265.508 22.57 261.328 22.42 259.118 22.42C258.358 22.42 258.058 22.57 258.058 22.95C258.058 23.18 258.288 23.48 258.588 23.48C259.048 23.48 259.878 23.56 260.638 23.71C262.088 24.01 262.618 25 262.768 27.21C262.918 29.26 262.918 31.09 262.918 41.13V52.55C262.918 58.79 262.838 63.89 262.538 66.56C262.308 68.46 262.078 69.68 260.788 69.98C260.178 70.13 259.348 70.28 258.738 70.28C258.358 70.28 258.198 70.58 258.198 70.82C258.198 71.2 258.578 71.35 259.268 71.35C261.328 71.35 265.508 71.13 265.888 71.13C266.188 71.13 270.528 71.35 274.258 71.35C275.018 71.35 275.328 71.13 275.328 70.82C275.328 70.59 275.178 70.28 274.798 70.28C274.188 70.28 272.738 70.13 271.748 69.98C269.768 69.67 269.548 68.46 269.308 66.56C269.008 63.9 269.008 58.8 269.008 52.55ZM307.138 52.55V25.39L315.508 25.54C321.898 25.69 323.348 27.14 323.568 29.12L323.648 29.8C323.728 30.71 323.878 30.94 324.178 30.94C324.478 30.94 324.788 30.64 324.788 30.1C324.788 29.34 325.018 24.7 325.018 22.72C325.018 22.34 325.018 21.96 324.718 21.96C324.418 21.96 323.798 22.11 322.818 22.26C321.748 22.41 320.228 22.57 318.018 22.57H292.758C291.998 22.57 289.408 22.49 287.508 22.26C285.688 22.03 284.998 21.5 284.538 21.5C284.308 21.5 284.008 22.34 283.858 22.72C283.788 23.25 282.418 29.04 282.418 29.72C282.418 30.1 282.718 30.26 282.868 30.26C283.168 30.26 283.408 30.18 283.558 29.65C283.788 29.19 283.858 28.74 284.628 27.6C285.618 26.08 287.218 25.62 291.398 25.55L301.058 25.4V52.57C301.058 58.81 301.058 63.91 300.758 66.58C300.538 68.48 300.158 69.77 298.778 70.08C298.178 70.23 297.408 70.38 296.798 70.38C296.418 70.38 296.268 70.61 296.268 70.84C296.268 71.22 296.568 71.37 297.328 71.37C299.308 71.37 303.948 71.15 304.248 71.15C304.628 71.15 308.888 71.37 312.538 71.37C313.298 71.37 313.608 71.15 313.608 70.84C313.608 70.61 313.528 70.3 313.068 70.3C312.458 70.3 310.938 70.15 310.028 70C307.978 69.69 307.668 68.48 307.438 66.58C307.138 63.92 307.138 58.82 307.138 52.57V52.55ZM353.488 50.65H339.948C339.718 50.65 339.648 50.5 339.718 50.2L345.958 32.47C346.338 31.48 346.718 31.48 347.098 32.47L353.728 50.2C353.798 50.51 353.798 50.65 353.498 50.65H353.488ZM346.028 23.71L330.278 64.19C328.988 67.46 327.688 69.75 324.648 70.13C324.118 70.21 323.128 70.28 322.668 70.28C322.368 70.28 322.058 70.51 322.058 70.81C322.058 71.2 322.518 71.34 323.348 71.34C326.088 71.34 329.438 71.11 330.128 71.11C330.888 71.11 334.538 71.34 336.138 71.34C336.748 71.34 337.128 71.19 337.128 70.81C337.128 70.51 336.978 70.28 336.448 70.28H335.838C334.698 70.28 333.558 69.82 333.558 68.53C333.558 67.38 333.938 65.79 334.548 64.19L338.358 53.84C338.508 53.46 338.738 53.31 339.038 53.31H354.488C354.868 53.31 354.948 53.39 355.098 53.69L361.108 68.53C361.568 69.59 360.878 70.12 360.498 70.28C360.198 70.43 360.038 70.43 360.038 70.73C360.038 71.11 361.108 71.11 362.398 71.19C367.038 71.34 371.988 71.34 372.978 71.34C373.748 71.34 374.498 71.19 374.498 70.81C374.498 70.43 374.048 70.28 373.658 70.28C372.968 70.28 371.988 70.21 370.998 69.9C369.558 69.44 367.728 68.61 365.288 62.82C361.178 53 350.448 26.29 349.228 23.55C348.548 22.11 348.318 21.19 347.628 21.19C347.178 21.19 346.868 21.57 346.028 23.7V23.71ZM378.378 70.43C381.118 71.72 384.998 72.18 388.118 72.18C391.768 72.18 395.958 71.72 398.768 69.9C403.558 66.78 405.008 62.67 405.008 58.87C405.008 53.31 402.198 48.82 394.048 43.27L392.148 41.98C385.528 37.49 383.478 35.13 383.478 31.02C383.478 26.45 387.508 24.02 392.378 24.02C398.388 24.02 400.598 26.46 401.048 27.22C401.428 27.9 401.958 29.66 402.038 30.42C402.118 30.96 402.198 31.26 402.648 31.26C403.098 31.26 403.188 30.8 403.188 29.81C403.188 25.4 403.488 23.27 403.488 22.96C403.488 22.58 403.328 22.51 402.798 22.51C402.268 22.51 401.728 22.51 400.438 22.21C398.838 21.83 396.178 21.45 393.508 21.45C384.678 21.45 378.668 26.01 378.668 33.63C378.668 38.12 381.028 42.07 388.258 47.48L391.298 49.76C397.238 54.17 399.748 56.38 399.748 61.02C399.748 65.89 396.328 69.62 389.708 69.62C385.218 69.62 380.198 67.95 379.128 63.23C378.898 62.32 378.898 61.4 378.898 60.87C378.898 60.34 378.668 60.11 378.288 60.11C377.908 60.11 377.748 60.5 377.748 61.18C377.668 62.24 377.368 64.83 377.368 68.03C377.368 69.78 377.448 70.01 378.358 70.46" fill="#0D2A33"/>
</g>
<defs>
<clipPath id="clip0_225_1189">
<rect width="423.38" height="85.18" fill="white"/>
</clipPath>
</defs>
</svg>
