<svg preserveAspectRatio="none" width="141.254" height="70.6896" overflow="visible" style="display: block;" viewBox="0 0 141.254 70.6896" fill="none" xmlns="http://www.w3.org/2000/svg">
<g id="g10">
<path id="path12" d="M141.191 70.6268V0.0585938H70.627V70.6231H141.191" fill="var(--fill-0, #ED192D)"/>
<path id="path14" d="M70.6895 70.5645H141.129V0.12139H70.6895V70.5608V70.5645ZM141.254 70.6859H70.5645V0H141.254V70.6896" fill="var(--fill-0, #ED192D)"/>
<path id="path16" d="M70.627 70.6268V0.0585938H0.0625V70.6231H70.627" fill="var(--fill-0, #231F20)"/>
<path id="path18" d="M0.125069 70.5645H70.5645V0.12139H0.125069V70.5608V70.5645ZM70.6896 70.6859H0V0H70.6896V70.6896" fill="var(--fill-0, #231F20)"/>
<path id="path20" d="M11.5124 23.7303C9.93437 23.7045 8.94117 23.756 7.46242 23.1969V21.2804C8.79771 22.3729 9.98586 22.4943 11.7074 22.5163C14.5693 22.612 16.3165 21.3282 16.3165 19.0733C16.3165 17.3517 15.0291 16.4542 13.5283 15.6045L10.2286 13.7137C8.45929 12.669 7.4146 11.4809 7.38885 9.54231C7.3631 6.68044 10.1808 4.98098 13.234 5.0803C14.6649 5.12812 15.5625 5.0803 16.872 5.61368V7.48235C15.8531 6.51123 14.8341 6.2942 13.4289 6.24638C11.4389 6.12499 9.25752 7.46028 9.42673 9.45035C9.54812 10.7341 10.4199 11.4404 11.5603 12.0952L14.4479 13.7689C16.6292 15.0306 18.4501 15.7111 18.5715 18.79C18.7186 22.7922 14.7863 23.8112 11.5124 23.7376" fill="var(--fill-0, white)"/>
<path id="path22" d="M40.8657 7.07353C40.726 7.32734 40.6119 7.48552 40.52 7.7614L34.7962 23.7113L30.268 11.576L25.8317 23.8033L19.7659 7.46345C19.696 7.20963 19.6298 7.05146 19.4459 6.81971C19.2399 6.56589 19.1001 6.42979 18.8242 6.26794H21.973C21.859 6.45186 21.7891 6.5659 21.767 6.77189C21.7229 6.95582 21.6971 7.0956 21.767 7.27584L25.9715 19.2273L29.5801 9.61904L28.7304 7.45977C28.6164 7.16181 28.4545 7.02203 28.2706 6.79396C28.1087 6.58797 27.9726 6.44818 27.7887 6.26426H30.9154C30.8235 6.42611 30.7793 6.51807 30.7315 6.702C30.6616 7.02203 30.7094 7.2317 30.8014 7.52966L35.0317 19.2751L38.9382 7.66944C39.0743 7.37148 39.17 7.16549 39.1442 6.86385C39.1221 6.61004 39.0743 6.45186 38.9382 6.24219H41.4653C41.2115 6.54015 41.0754 6.74614 40.8694 7.06985" fill="var(--fill-0, white)"/>
<path id="path24" d="M43.462 11.2559H41.3652L41.4241 11.3478C41.5418 11.5281 41.608 11.6679 41.6742 11.8812C41.7552 12.124 41.7699 12.2674 41.7699 12.4955V22.3281C41.7699 22.5635 41.7699 22.7217 41.6779 22.9351V22.9424C41.6338 23.0932 41.5896 23.1852 41.4903 23.3323L41.4315 23.4243H43.5355L43.484 23.336C43.4583 23.2956 43.4325 23.2588 43.4105 23.222C43.3406 23.119 43.2854 23.0381 43.2633 22.902C43.2155 22.5047 43.2155 21.9676 43.2155 21.3423V12.4624C43.2155 12.2858 43.2155 12.1792 43.3259 11.8003C43.3884 11.6274 43.4362 11.4986 43.5172 11.3405L43.5613 11.2559H43.4657" fill="var(--fill-0, white)"/>
<path id="path26" d="M61.9612 7.00364C61.8913 7.37148 61.8913 7.57748 61.8913 7.92326L61.9134 23.9872L48.0308 8.65896V21.416C48.0308 21.7519 48.0847 22.1737 48.1926 22.6814C48.2405 22.9573 48.3067 23.1191 48.3986 23.4171H46.2173C46.3791 23.189 46.4711 23.0492 46.5153 22.7954C46.6072 22.4496 46.6072 22.2216 46.6072 21.8758V7.53334C46.6072 7.25745 46.5594 7.05146 46.4233 6.79764C46.3093 6.54382 46.1695 6.40772 45.9414 6.26794H48.4685L60.4898 19.9887V9.09302C60.4898 8.26536 60.5377 7.73566 60.3758 6.908C60.328 6.65418 60.2838 6.496 60.214 6.24219H62.1452C62.0532 6.51807 62.0054 6.702 61.9612 6.99996" fill="var(--fill-0, white)"/>
<path id="path28" d="M18.778 34.9306C18.2042 34.9306 17.8584 34.9306 17.2846 35.0668V42.4201C17.9062 42.604 18.3182 42.6739 18.962 42.6261C21.2132 42.4899 23.4203 41.2245 23.3504 38.7416C23.2805 35.7988 21.0514 34.9969 18.778 34.927V34.9306ZM18.87 27.6436H17.1926V33.8271H18.6861C21.1911 33.8271 22.3388 32.4697 22.2726 30.6084C22.1807 28.8832 21.0072 27.6436 18.87 27.6436ZM19.5137 43.6634H14.9414C15.0775 43.4795 15.1253 43.3654 15.2173 43.1815C15.3313 42.8615 15.3791 42.6297 15.3791 42.2839V28.1475C15.3791 27.7576 15.3092 27.5038 15.1511 27.1359C15.037 26.8821 14.9451 26.7203 14.7832 26.4922H19.9772C22.2064 26.4922 23.9316 28.3756 24.0456 30.6047C24.0898 32.238 23.424 33.1098 22.1843 33.8234L21.5406 34.2133L22.2285 34.4672C24.1376 35.1109 25.1933 36.5124 25.1933 38.7636C25.1713 41.7984 23.0083 43.6597 19.5174 43.6597" fill="var(--fill-0, white)"/>
<path id="path30" d="M41.2449 27.2539C41.1971 27.5739 41.2228 27.7578 41.2228 28.0815V38.1238C41.2228 41.4344 38.3941 43.8475 34.8553 43.9174C31.0628 43.9616 27.9839 41.5264 27.9839 38.0318V28.1735C27.9839 27.8755 28.006 27.6916 27.9619 27.3936C27.9177 27.0258 27.8699 26.8198 27.7559 26.4961H30.0991C29.985 26.7499 29.9372 26.9081 29.8931 27.2097C29.8232 27.5077 29.8489 27.7174 29.8489 28.0153V37.8295C29.8489 40.4744 32.2179 42.5196 34.859 42.4276C37.4781 42.3577 39.3174 40.4045 39.3174 37.9693V28.133C39.3174 27.7872 39.3174 27.5812 39.2695 27.2612C39.1996 26.9633 39.1555 26.7793 39.0378 26.5035H41.4288C41.3369 26.7793 41.2927 26.9633 41.2449 27.2612" fill="var(--fill-0, white)"/>
<path id="path32" d="M48.9616 27.5042C48.248 27.5042 47.814 27.5262 47.1445 27.8279V33.7576C47.4645 33.8054 48.0862 33.8275 48.6379 33.8054C51.0069 33.6215 52.4305 32.3818 52.2907 30.4727C52.1987 29.0933 51.7389 27.6219 48.958 27.5078L48.9616 27.5042ZM54.7737 43.6858L47.8802 34.7214C47.6962 34.4933 47.6264 34.3314 47.4204 34.1696C47.3284 34.0776 47.2364 34.0335 47.1224 33.9636V41.8466C47.1224 42.2144 47.1003 42.4204 47.1923 42.7883C47.2401 43.1083 47.3321 43.2922 47.4461 43.6159H44.919C45.0551 43.3401 45.1728 43.1782 45.1949 42.9023C45.2648 42.5565 45.2648 41.7988 45.2648 41.155V28.8358C45.2648 28.192 45.2427 27.8242 45.1287 27.1804C45.0588 26.8825 44.9447 26.7206 44.8086 26.4668H49.9806C52.2318 26.4668 54.255 27.9603 54.1851 30.4212C54.1373 32.8122 52.0479 34.8575 49.5208 34.4675C49.6569 34.5816 49.7268 34.6735 49.8666 34.7876C50.3484 35.2474 50.6243 35.5453 51.0621 36.0971L55.1525 41.2911C55.6822 41.9827 56.0942 42.5308 56.6239 42.9906C56.944 43.2665 57.1536 43.4283 57.4957 43.6785H54.7847" fill="var(--fill-0, white)"/>
<path id="path34" d="M36.8301 47.4568C36.7603 47.8246 36.7603 48.0306 36.7603 48.3764L36.7823 64.4404L22.8997 49.1121V61.8691C22.8997 62.2075 22.9537 62.6293 23.0616 63.1345C23.1057 63.4104 23.1756 63.5722 23.2676 63.8702H21.0825C21.2444 63.6421 21.3363 63.5023 21.3805 63.2485C21.4724 62.9027 21.4724 62.6747 21.4724 62.3289V47.9865C21.4724 47.7106 21.4283 47.5046 21.2885 47.2508C21.1745 46.9969 21.0347 46.8608 20.8066 46.7211H23.3338L35.3551 60.4418V49.5461C35.3551 48.7185 35.3992 48.1888 35.241 47.3611C35.1932 47.1073 35.1491 46.9491 35.0792 46.6953H37.0104C36.9184 46.9712 36.8706 47.1551 36.8265 47.4531" fill="var(--fill-0, white)"/>
<path id="path36" d="M50.6195 63.866H40.7133C40.8752 63.6379 40.9414 63.4761 41.0113 63.2223C41.1032 62.9022 41.0591 62.6705 41.0591 62.3505V47.9639C41.0591 47.6659 41.0113 47.482 40.9193 47.2282C40.8274 47.0222 40.7575 46.9045 40.5956 46.7463H49.3541V48.4715C49.1481 48.2655 48.9642 48.1515 48.6883 48.0595C48.2984 47.9234 48.0225 47.9896 47.6326 47.9896H42.9646V53.6435H49.3541V55.2767C49.0083 55.1149 48.7802 55.045 48.3866 54.953C48.1108 54.9089 47.9048 54.9089 47.6289 54.9089H43.0308V62.5859H48.5228C49.2805 62.5859 49.7183 62.5417 50.4319 62.31C50.7519 62.218 50.9358 62.1261 51.2117 61.9421L50.6158 63.8734" fill="var(--fill-0, white)"/>
<path id="path38" d="M10.1224 52.1794C10.1224 52.1794 10.2328 52.1463 10.2549 52.161C10.2769 52.1757 10.5822 52.3486 10.5822 52.3486C10.5822 52.3486 10.8618 52.3633 10.9391 52.3707C10.9648 52.3707 11.123 52.3891 11.1524 52.3927C11.1782 52.3964 11.5681 52.6429 11.5828 52.6576C11.6196 52.6981 11.7373 52.9298 11.7557 52.9776C11.8072 53.0953 11.7741 53.2866 11.7814 53.4006C11.7814 53.4374 11.7594 53.5588 11.7483 53.5956C11.7299 53.6508 11.7152 53.8568 11.7152 53.8641C11.7226 53.9782 11.8808 54.14 11.9654 54.1547C12.0831 54.1731 12.3222 54.0113 12.3148 53.8862C12.3148 53.8457 12.2891 53.8494 12.2854 53.809C12.2707 53.717 12.0205 53.397 12.267 52.8673C12.3884 52.6024 12.6974 52.4553 12.9365 52.4258C13.0579 52.4111 13.2124 52.4406 13.3411 52.4111C13.4625 52.3854 13.5618 52.3155 13.6832 52.2714C13.6832 52.2714 13.7605 52.3339 13.7678 52.3596C13.7862 52.4038 13.7457 52.5104 13.7347 52.5546C13.6759 52.7312 13.8156 53.1432 13.8267 53.1763C13.8598 53.2866 13.7678 53.6765 13.7053 53.7759C13.6501 53.8641 13.5581 53.9818 13.4257 54.0444C13.194 54.1511 12.6201 54.026 12.5355 54.4196C12.5282 54.4564 12.5024 54.541 12.5208 54.5778C12.5392 54.6145 12.7011 54.7249 12.7231 54.7286C12.7268 54.7286 12.7673 54.7212 12.7673 54.7212C12.9622 54.7028 13.0505 54.5814 13.2749 54.4637C13.3669 54.4159 13.6648 54.3203 13.7605 54.3203L13.7825 54.3534C13.812 54.3754 13.8929 54.3423 13.926 54.3534C13.9775 54.3644 14.1541 54.4122 14.1725 54.4269C14.3196 54.5299 14.4447 54.8279 14.4962 54.9603C14.5403 55.0707 14.6911 55.3502 14.6396 55.4496C14.5734 55.571 14.3527 55.6666 14.2497 55.7696C14.1798 55.8395 14.0768 55.9682 13.9444 56.0308C13.8966 56.0528 13.7347 56.0786 13.6906 56.0859C13.4735 56.1191 13.0505 55.9278 12.8887 55.6408C12.8151 55.5121 12.8445 55.3502 12.7195 55.2215C12.6275 55.1295 12.359 55.0744 12.2302 55.2215C12.2118 55.2399 12.1603 55.4128 12.164 55.4385C12.1677 55.4827 12.2008 55.49 12.2045 55.5342C12.2045 55.5415 12.175 55.593 12.1787 55.6004C12.2339 55.7365 12.462 55.7917 12.5576 55.8983C12.6348 55.9866 12.6606 56.097 12.6974 56.1669C12.7415 56.2625 12.793 56.5053 12.793 56.5163C12.7857 56.5973 12.793 56.7554 12.7673 56.829C12.6974 56.9982 12.5171 57.1674 12.3406 57.2704C12.175 57.3697 12.0904 57.5426 11.9396 57.5757C11.7814 57.6088 11.6306 57.355 11.4982 57.2226C11.4651 57.1895 11.3658 57.127 11.3327 57.0939C11.1377 56.8768 11.123 56.6598 11.1267 56.4795C11.1267 56.4133 11.1119 56.3398 11.134 56.2809C11.1634 56.2 11.3253 55.9609 11.3547 55.9314C11.4651 55.8211 11.6085 55.777 11.66 55.6703C11.6784 55.6298 11.7005 55.4974 11.6821 55.4569C11.6527 55.3907 11.4982 55.2546 11.4872 55.2509C11.3694 55.181 11.0972 55.5047 11.0936 55.5268C11.0825 55.5636 10.8471 55.9388 10.814 55.9682C10.722 56.0492 10.5639 56.1191 10.4682 56.1374C10.4278 56.1448 10.2144 56.1816 10.1555 56.1816C10.0268 56.1853 9.73987 56.0455 9.63687 55.9314C9.5302 55.8174 9.29845 55.6556 9.29845 55.6556C9.29845 55.6556 9.26167 55.6629 9.25431 55.6629C9.21017 55.5562 9.17706 55.5378 9.20649 55.4532C9.23592 55.3576 9.32788 55.3024 9.37938 55.2105C9.44559 55.0891 9.4787 54.8794 9.57434 54.7543C9.59641 54.7249 9.64423 54.7102 9.67366 54.6844C9.72884 54.6366 9.84655 54.5042 9.91276 54.4674C10.0378 54.3975 10.3211 54.3975 10.4351 54.4453C10.494 54.4711 10.7331 54.5814 10.7662 54.6072C10.803 54.6366 10.8213 54.7065 10.8581 54.7396C10.8765 54.758 10.9464 54.7948 10.9869 54.8205L11.02 54.7985C11.123 54.8132 11.2407 54.8132 11.3253 54.7065C11.3547 54.6697 11.3915 54.5704 11.3731 54.5263C11.3547 54.4895 10.9391 54.221 10.9096 54.2136C10.8802 54.2062 10.7993 54.2283 10.7662 54.2136C10.6926 54.1915 10.6595 54.1363 10.5859 54.0959C10.5491 54.0775 10.4609 54.0665 10.4241 54.037C10.2034 53.8862 9.99369 53.5625 9.99001 53.3124C9.99001 53.1248 10.0893 52.9298 10.1335 52.7459C10.1739 52.5767 10.0709 52.4847 10.0636 52.3302C10.0636 52.2861 10.1004 52.2382 10.1151 52.1941" fill="var(--fill-0, white)"/>
<path id="path40" d="M60.5749 52.1795C60.5749 52.1795 60.4646 52.1464 60.4425 52.1611C60.4204 52.1721 60.1151 52.3487 60.1151 52.3487C60.1151 52.3487 59.8355 52.3634 59.7583 52.3708C59.7325 52.3708 59.5744 52.3892 59.5449 52.3929C59.5192 52.3965 59.1293 52.643 59.1182 52.6577C59.0815 52.6982 58.9637 52.9299 58.9454 52.9777C58.8939 53.0955 58.927 53.2867 58.9196 53.4008C58.9196 53.4375 58.9417 53.5589 58.9527 53.5957C58.9711 53.6509 58.9858 53.8569 58.9858 53.8643C58.9785 53.9783 58.8203 54.1401 58.7357 54.1549C58.618 54.1732 58.3789 54.0114 58.3862 53.8863C58.3862 53.8459 58.412 53.8495 58.4156 53.8091C58.4304 53.7171 58.6805 53.3971 58.434 52.8674C58.3127 52.6025 58.0037 52.4554 57.7646 52.426C57.6432 52.4076 57.4887 52.4407 57.3599 52.4112C57.2385 52.3855 57.1355 52.3156 57.0178 52.2715C57.0178 52.2715 56.9406 52.334 56.9332 52.3598C56.9148 52.4039 56.9553 52.5106 56.9663 52.5547C57.0252 52.7313 56.8854 53.1433 56.8744 53.1764C56.8413 53.2867 56.9332 53.6767 56.9957 53.776C57.0509 53.8643 57.1429 53.982 57.2753 54.0445C57.5071 54.1512 58.0809 54.0261 58.1655 54.4197C58.1729 54.4565 58.1986 54.5411 58.1802 54.5779C58.1618 54.6147 58 54.7287 57.9779 54.7287C57.9742 54.7287 57.9338 54.7213 57.9338 54.7213C57.7388 54.7029 57.6505 54.5816 57.4261 54.4638C57.3342 54.416 57.0362 54.3204 56.9406 54.3204L56.9185 54.3535C56.8891 54.3756 56.8081 54.3425 56.775 54.3535C56.7235 54.3645 56.547 54.416 56.5286 54.4271C56.3814 54.5301 56.2564 54.828 56.2049 54.9604C56.1644 55.0708 56.0099 55.3504 56.0614 55.446C56.1276 55.5674 56.3483 55.663 56.4513 55.766C56.5212 55.8359 56.6242 55.9647 56.7566 56.0272C56.8045 56.0493 56.9663 56.075 57.0105 56.0824C57.2275 56.1155 57.6468 55.9242 57.8087 55.6373C57.8823 55.5085 57.8528 55.3467 57.9779 55.2179C58.0699 55.126 58.3384 55.0708 58.4671 55.2179C58.4855 55.2363 58.5407 55.4092 58.537 55.435C58.5334 55.4791 58.4966 55.4865 58.4966 55.5306C58.4966 55.538 58.526 55.5931 58.5223 55.5968C58.4671 55.7329 58.2391 55.7881 58.1434 55.8948C58.0662 55.9831 58.0404 56.0934 58.0037 56.1633C57.9558 56.259 57.9043 56.5017 57.908 56.5128C57.9154 56.5937 57.908 56.7519 57.9338 56.8254C58.0037 56.9946 58.1839 57.1639 58.3605 57.2705C58.526 57.3699 58.6106 57.5427 58.7614 57.5722C58.9196 57.6016 59.0704 57.3515 59.2028 57.219C59.236 57.1859 59.3353 57.1234 59.3684 57.0903C59.5633 56.8733 59.578 56.6562 59.5744 56.476C59.5744 56.4098 59.5891 56.3362 59.567 56.2737C59.5376 56.1927 59.3757 55.9536 59.3463 55.9242C59.236 55.8139 59.0925 55.7697 59.041 55.663C59.0226 55.6226 59.0005 55.4901 59.0189 55.4497C59.0483 55.3835 59.2028 55.2474 59.2139 55.2437C59.3279 55.1738 59.6001 55.4975 59.6075 55.5196C59.6185 55.5564 59.8539 55.9316 59.887 55.961C59.979 56.0419 60.1372 56.1118 60.2365 56.1302C60.277 56.1376 60.4903 56.1743 60.5455 56.1743C60.6742 56.178 60.9612 56.0382 61.0642 55.9242C61.1708 55.8102 61.4026 55.6483 61.4026 55.6483C61.4026 55.6483 61.4394 55.652 61.4467 55.6557C61.4909 55.549 61.524 55.5306 61.4945 55.446C61.4651 55.3504 61.3732 55.2952 61.3217 55.2032C61.2554 55.0818 61.2223 54.8722 61.123 54.7471C61.1009 54.7177 61.0531 54.703 61.0237 54.6772C60.9685 54.6294 60.8508 54.497 60.7846 54.4602C60.6595 54.3903 60.3763 54.3903 60.2623 54.4381C60.2034 54.4639 59.9643 54.5705 59.9312 54.5963C59.8944 54.6257 59.876 54.6956 59.8392 54.7287C59.8208 54.7471 59.7509 54.7839 59.7105 54.8096L59.6774 54.7876C59.5744 54.8023 59.4567 54.8023 59.3721 54.6956C59.3463 54.6588 59.3058 54.5595 59.3242 54.5153C59.3426 54.4786 59.7583 54.21 59.7877 54.2027C59.8172 54.1953 59.8944 54.2174 59.9312 54.2027C60.0048 54.1806 60.0342 54.1254 60.1114 54.085C60.1482 54.0666 60.2365 54.0519 60.2733 54.0261C60.494 53.8753 60.7037 53.5516 60.7073 53.3014C60.7073 53.1138 60.608 52.9189 60.5639 52.735C60.5234 52.5657 60.6264 52.4738 60.6338 52.3193C60.6338 52.2751 60.597 52.2273 60.5823 52.1832" fill="var(--fill-0, white)"/>
<path id="path42" d="M89.3065 23.0567C89.3065 20.7724 87.883 19.5879 86.0952 19.5879C84.3075 19.5879 82.8839 20.7724 82.8839 23.0567V28.3574C82.8839 30.6418 84.3075 31.8262 86.0952 31.8262C87.883 31.8262 89.3065 30.6418 89.3065 28.3574V23.0567ZM90.9692 28.3574C90.9692 31.5246 88.9865 33.4668 86.0989 33.4668C83.2113 33.4668 81.2286 31.5283 81.2286 28.3574V23.0567C81.2286 19.8895 83.2113 17.951 86.0989 17.951C88.9865 17.951 90.9692 19.8895 90.9692 23.0567V28.3574Z" fill="var(--fill-0, white)"/>
<path id="path44" d="M99.2629 19.801H96.0516V25.7491H99.2629C101.591 25.7491 102.43 24.4138 102.43 22.7769C102.43 21.14 101.591 19.801 99.2629 19.801ZM99.2629 27.386H96.0516V33.2496H94.3926V18.1641H99.2629C102.754 18.1641 104.133 20.1026 104.133 22.7769C104.133 25.4512 102.754 27.3897 99.2629 27.3897" fill="var(--fill-0, white)"/>
<path id="path46" d="M108.573 31.6126H115.492V33.2496H106.914V18.1641H115.492V19.801H108.573V24.8001H115.492V26.437H108.573V31.6089" fill="var(--fill-0, white)"/>
<path id="path48" d="M128.766 33.2496H127.107L120.684 21.3754V33.2496H119.025V18.1641H120.684L127.107 30.0382V18.1641H128.766V33.2496Z" fill="var(--fill-0, white)"/>
<path id="path50" d="M96.1824 52.9007H103.102V54.5376H94.5234V39.4521H103.102V41.0891H96.1824V46.0882H103.102V47.7251H96.1824V52.897" fill="var(--fill-0, white)"/>
<path id="path52" d="M108.296 41.0891V52.9007H111.507C113.295 52.9007 114.718 51.7162 114.718 49.4319V44.5616C114.718 42.2772 113.295 41.1148 111.507 41.0928H108.296V41.0891ZM111.507 39.4521C114.395 39.4521 116.377 41.3907 116.377 44.5616V49.4319C116.377 52.5991 114.395 54.5413 111.507 54.5413H106.637V39.4558H111.507" fill="var(--fill-0, white)"/>
</g>
</svg>
