<svg preserveAspectRatio="none" width="90" height="51" overflow="visible" style="display: block;" viewBox="0 0 90 51" fill="none" xmlns="http://www.w3.org/2000/svg">
<g id="Vic Gov" clip-path="url(#clip0_0_4)">
<path id="Vector" d="M54.4432 18.8764C56.0405 18.8764 57.3585 20.1816 57.3585 21.763C57.3585 23.3442 56.0405 24.6496 54.4432 24.6496C52.8454 24.6496 51.5266 23.3442 51.5266 21.763C51.5266 20.1816 52.8454 18.8764 54.4432 18.8764ZM54.4432 27.7818C57.9016 27.7818 60.6774 25.1867 60.6774 21.7632C60.6774 18.3391 57.9016 15.7445 54.4432 15.7445C50.9836 15.7445 48.2078 18.3391 48.2078 21.7632C48.2078 25.1867 50.9837 27.7818 54.4432 27.7818ZM67.5274 21.548H65.4023V18.8303H67.5274C68.2404 18.8303 68.706 19.6291 68.706 20.197C68.706 20.7651 68.2404 21.548 67.5274 21.548ZM69.915 23.6517C71.0326 22.8841 71.9169 21.7478 71.9169 20.197C71.9169 17.7863 69.9771 16.0052 67.5274 16.0052H62.2383V27.5211H65.4023V24.3885H66.8916L68.3343 27.5211H71.8854L69.915 23.6517ZM76.9997 16.0054H73.8366V27.5211H76.9997V16.0054ZM83.1541 23.4818L84.1357 21.2401H84.2015L85.1827 23.4818H83.1541ZM83.5751 16.0039L78.2414 27.5204H81.6332L82.1901 26.2155H86.1467L86.7039 27.5204H90.0954L84.7618 16.0039H83.5751ZM24.3832 27.4194H21.1525V16.1092H24.3832V27.4194ZM41.1818 27.5211H44.3455V18.8305H47.5244V16.0054H39.8668L47.3054 -0.0484669H-0.000168856L7.48638 16.1094H10.9768L13.8409 22.2907L16.705 16.1094H20.202L14.9618 27.4194H12.7268L23.6523 50.9997L34.83 26.8756C33.9347 27.3943 32.9181 27.6668 31.8835 27.6656C28.506 27.6656 25.8224 25.1173 25.8224 21.7542C25.8224 18.3911 28.506 15.8424 31.8835 15.8424C34.0398 15.8424 35.9244 17.0039 36.9495 18.7234L34.3109 20.3066C33.8132 19.4928 32.9088 18.9188 31.8835 18.9188C30.3155 18.9188 29.0489 20.2014 29.0489 21.7542C29.0489 23.307 30.3155 24.5896 31.8835 24.5896C32.9088 24.5896 33.8132 24.0313 34.3109 23.202L36.0491 24.2449L38.5578 18.8305H41.1818V27.5211ZM43.0565 37.028C42.316 37.028 41.6374 36.7403 41.222 36.4071L40.6255 37.3325C41.2425 37.8303 42.1805 38.0855 43.0524 38.0855C44.2908 38.0855 45.4096 37.4809 45.4096 36.2093C45.4096 35.2054 44.6037 34.7655 43.5747 34.5967L43.2502 34.5434C42.559 34.4279 42.0611 34.3007 42.0611 33.8765C42.0611 33.4408 42.5175 33.1858 43.1637 33.1858C43.7929 33.1858 44.344 33.3952 44.7967 33.6749L45.3397 32.7373C44.6159 32.3051 43.945 32.1239 43.1387 32.1239C41.9128 32.1239 40.8435 32.7488 40.8435 33.9505C40.8435 34.9914 41.5837 35.4399 42.5999 35.6007L42.9661 35.6581C43.7682 35.7855 44.188 35.9339 44.188 36.3326C44.188 36.7771 43.6942 37.028 43.0565 37.028ZM49.3089 37.6657L48.9136 36.8264C48.6957 36.9583 48.42 37.0854 48.1649 37.0854C47.8314 37.0854 47.5688 36.9042 47.5688 36.4071V34.9505H49.0122V33.9962H47.5686V32.8112H46.4947V33.9962H45.7252V34.9505H46.4947V36.4932C46.4947 37.526 47.0003 38.0855 47.9877 38.0855C48.5559 38.0855 48.9587 37.904 49.3089 37.6657ZM51.6239 37.0851C50.9944 37.0851 50.5955 36.5959 50.5955 35.9873C50.5955 35.3786 50.9944 34.8887 51.6239 34.8887C52.2372 34.8887 52.653 35.3582 52.653 35.9873C52.653 36.6172 52.2372 37.0849 51.6239 37.0849M53.6692 37.9827V33.9961H52.6196V34.4351C52.3562 34.1106 51.9741 33.8888 51.4261 33.8888C50.3279 33.8888 49.4971 34.7903 49.4971 35.9871C49.4971 37.1844 50.3279 38.0845 51.4261 38.0845C51.9741 38.0845 52.3609 37.8633 52.6196 37.5423V37.9827H53.6692ZM56.4977 38.0855C57.0666 38.0855 57.4686 37.9038 57.8195 37.6655L57.4242 36.8264C57.2061 36.9583 56.9303 37.0854 56.6748 37.0854C56.3419 37.0854 56.0791 36.9042 56.0791 36.4071V34.9505H57.5225V33.9962H56.0791V32.8112H55.005V33.9962H54.2357V34.9505H55.005V36.4932C55.005 37.526 55.5103 38.0855 56.4977 38.0855ZM60.015 34.8149C60.4756 34.8149 60.7843 35.1029 60.8827 35.613H59.1175C59.2126 35.1194 59.5093 34.8149 60.015 34.8149ZM61.1463 36.7892C60.8581 37.0324 60.4841 37.1717 60.1379 37.1717C59.6325 37.1717 59.229 36.9215 59.1141 36.3449H61.9403C61.9521 36.2546 61.9604 36.1061 61.9604 35.9829C61.957 34.7406 61.171 33.8888 60.0231 33.8888C58.8303 33.8888 58.0071 34.7447 58.0071 35.9989C58.0071 37.2547 58.8548 38.0855 60.0768 38.0855C60.7466 38.0855 61.3236 37.8955 61.7751 37.4809L61.1463 36.7892ZM43.7724 42.1905V43.1485H45.2367C45.0848 43.9674 44.5377 44.4202 43.5997 44.4202C42.6039 44.4202 41.8021 43.6835 41.8021 42.5073C41.8021 41.3843 42.567 40.6109 43.6206 40.6109C44.2086 40.6109 44.6856 40.8405 45.0103 41.2154L45.8377 40.4048C45.3276 39.8487 44.5662 39.5199 43.653 39.5199C41.8845 39.5199 40.6131 40.7666 40.6131 42.5073C40.6131 44.367 42.0285 45.4896 43.6243 45.4896C45.2572 45.4896 46.4381 44.2596 46.4381 42.5154C46.4381 42.408 46.4341 42.3013 46.4216 42.1905H43.7724ZM49.1312 44.4899C48.5267 44.4899 48.074 44.0378 48.074 43.3917C48.074 42.7456 48.5269 42.2925 49.1311 42.2925C49.7364 42.2925 50.1925 42.7458 50.1925 43.3919C50.1925 44.038 49.7366 44.4899 49.1312 44.4899ZM49.1312 41.2933C47.8928 41.2933 46.9797 42.1905 46.9797 43.3917C46.9797 44.5932 47.8928 45.4898 49.1312 45.4898C50.374 45.4898 51.2909 44.5931 51.2909 43.3917C51.2909 42.1903 50.374 41.2933 49.1312 41.2933ZM53.599 44.2555L52.5656 41.4007H51.3974L52.9729 45.3871H54.2114L55.7705 41.4007H54.6391L53.599 44.2555ZM56.9914 43.0173C57.0863 42.5235 57.3818 42.2194 57.8886 42.2194C58.3496 42.2194 58.6569 42.5073 58.7565 43.0175L56.9914 43.0173ZM57.8965 41.2933C56.703 41.2933 55.8809 42.149 55.8809 43.4039C55.8809 44.6588 56.7287 45.4898 57.9495 45.4898C58.6204 45.4898 59.1964 45.3005 59.6489 44.8852L59.0191 44.1937C58.7317 44.4365 58.3565 44.5767 58.0117 44.5767C57.5065 44.5767 57.1027 44.3258 56.9877 43.7496H59.813C59.826 43.659 59.8341 43.5113 59.8341 43.3875C59.8294 42.1449 59.0437 41.2935 57.8967 41.2935M61.5862 41.8362V41.4005H60.5448V45.3871H61.6191V43.2149C61.6191 42.6221 61.9602 42.3177 62.4576 42.3177C62.6756 42.3177 62.9313 42.367 63.1086 42.4455L63.2681 41.3803C63.1202 41.3262 62.9397 41.2933 62.7086 41.2933C62.2197 41.2933 61.8373 41.4622 61.5862 41.8362ZM66.0533 41.2933C65.6004 41.2933 65.1644 41.4456 64.8806 41.8691V41.4007H63.8355V45.3871H64.9087V43.2022C64.9087 42.6017 65.292 42.3013 65.753 42.3013C66.2422 42.3013 66.5304 42.6179 66.5304 43.1941V45.3871H67.6035V42.8486C67.6035 41.9232 66.9573 41.2933 66.0534 41.2933M73.4192 41.2933C72.8975 41.2933 72.3744 41.4703 72.066 41.9762C71.7984 41.5527 71.3259 41.2933 70.7501 41.2933C70.2973 41.2933 69.8611 41.4456 69.5773 41.8691V41.4007H68.5321V45.3871H69.6056V43.2022C69.6056 42.6017 69.9889 42.3013 70.4499 42.3013C70.9389 42.3013 71.2273 42.6179 71.2273 43.1941V45.3871H72.3006V43.2022C72.3006 42.6017 72.6827 42.3013 73.1437 42.3013C73.6291 42.3013 73.9211 42.6179 73.9211 43.1941V45.3871H74.9908V42.8486C74.9908 41.9232 74.3574 41.2933 73.4192 41.2933ZM76.7837 43.0173C76.8776 42.5235 77.1742 42.2194 77.6798 42.2194C78.1406 42.2194 78.4491 42.5073 78.5477 43.0175L76.7837 43.0173ZM77.6879 41.2933C76.4951 41.2933 75.6721 42.149 75.6721 43.4039C75.6721 44.6588 76.5199 45.4898 77.7418 45.4898C78.4126 45.4898 78.9884 45.3005 79.4411 44.8852L78.8113 44.1937C78.5229 44.4365 78.1489 44.5767 77.8041 44.5767C77.2975 44.5767 76.8939 44.3258 76.7791 43.7496H79.6054C79.6173 43.659 79.6254 43.5113 79.6254 43.3875C79.622 42.1449 78.8361 41.2935 77.6879 41.2935M82.5535 41.2933C82.1023 41.2933 81.6658 41.4456 81.382 41.8691V41.4007H80.3371V45.3871H81.4102V43.2022C81.4102 42.6017 81.7926 42.3013 82.2533 42.3013C82.7434 42.3013 83.0307 42.6179 83.0307 43.1941V45.3871H84.1051V42.8486C84.1051 41.9232 83.459 41.2933 82.5535 41.2933ZM87.0369 44.4899C86.7039 44.4899 86.44 44.3092 86.44 43.8114V42.3547H87.8849V41.4005H86.44V40.2152H85.367V41.4007H84.5975V42.3547H85.367V43.8975C85.367 44.9303 85.8723 45.4898 86.8598 45.4898C87.4275 45.4898 87.8311 45.3086 88.1803 45.07L87.7863 44.2307C87.5685 44.3626 87.2927 44.4899 87.0369 44.4899Z" fill="var(--fill-0, #094792)"/>
</g>
<defs>
<clipPath id="clip0_0_4">
<rect width="90" height="51" fill="white"/>
</clipPath>
</defs>
</svg>
